<svg id="Capa_1" data-name="Capa 1" xmlns="http://www.w3.org/2000/svg" xmlns:xlink="http://www.w3.org/1999/xlink" viewBox="0 0 437 427.52"><defs><style>.cls-1{fill:#ececec;}.cls-2{fill:#e1e1e1;}.cls-3{fill:#fff;}.cls-4{fill:#f5f5f5;}.cls-5{fill:#c6c6c6;}.cls-6{opacity:0.6;}.cls-7{fill:#606060;}.cls-8{opacity:0.3;}.cls-9{fill:url(#Degradado_sin_nombre_133);}.cls-10{fill:#1a2e35;}.cls-11{fill:#ff735d;}.cls-12{fill:url(#Degradado_sin_nombre_135);}.cls-13{fill:url(#Degradado_sin_nombre_127);}.cls-14{fill:url(#Degradado_sin_nombre_127-2);}.cls-15{fill:url(#Degradado_sin_nombre_127-3);}.cls-16{fill:url(#Degradado_sin_nombre_127-4);}.cls-17{fill:url(#Degradado_sin_nombre_127-5);}.cls-18{fill:#ff4e08;}.cls-19{fill:url(#Degradado_sin_nombre_156);}.cls-20{fill:url(#Degradado_sin_nombre_156-2);}.cls-21{fill:#ffbb21;}.cls-22{opacity:0.2;}.cls-23{fill:url(#Degradado_sin_nombre_127-6);}.cls-24{fill:url(#Degradado_sin_nombre_127-8);}.cls-25{fill:url(#Degradado_sin_nombre_127-9);}.cls-26{fill:url(#Degradado_sin_nombre_127-10);}</style><linearGradient id="Degradado_sin_nombre_133" x1="207" y1="326.17" x2="207" y2="101.73" gradientUnits="userSpaceOnUse"><stop offset="0.05" stop-color="#383838"/><stop offset="0.21" stop-color="#71552f"/><stop offset="0.38" stop-color="#a36f27"/><stop offset="0.54" stop-color="#cb8320"/><stop offset="0.68" stop-color="#e8911c"/><stop offset="0.8" stop-color="#f99a19"/><stop offset="0.89" stop-color="#ff9d18"/></linearGradient><linearGradient id="Degradado_sin_nombre_135" x1="355.69" y1="94.03" x2="507.87" y2="181.89" gradientUnits="userSpaceOnUse"><stop offset="0.05" stop-color="#383838"/><stop offset="0.05" stop-color="#383838"/><stop offset="0.26" stop-color="#6b6b6b"/><stop offset="0.45" stop-color="#929292"/><stop offset="0.63" stop-color="#afafaf"/><stop offset="0.78" stop-color="silver"/><stop offset="0.89" stop-color="#c6c6c6"/></linearGradient><linearGradient id="Degradado_sin_nombre_127" x1="472.16" y1="132.56" x2="534.63" y2="132.56" gradientUnits="userSpaceOnUse"><stop offset="0.05" stop-color="#383838"/><stop offset="0.18" stop-color="#643d30"/><stop offset="0.36" stop-color="#964428"/><stop offset="0.52" stop-color="#be4921"/><stop offset="0.67" stop-color="#db4c1c"/><stop offset="0.8" stop-color="#ec4e19"/><stop offset="0.89" stop-color="#f24f18"/></linearGradient><linearGradient id="Degradado_sin_nombre_127-2" x1="472.16" y1="132.6" x2="535" y2="132.6" xlink:href="#Degradado_sin_nombre_127"/><linearGradient id="Degradado_sin_nombre_127-3" x1="436.61" y1="203.3" x2="473.67" y2="203.3" xlink:href="#Degradado_sin_nombre_127"/><linearGradient id="Degradado_sin_nombre_127-4" x1="436.61" y1="203.46" x2="473.85" y2="203.46" xlink:href="#Degradado_sin_nombre_127"/><linearGradient id="Degradado_sin_nombre_127-5" x1="357.99" y1="100.25" x2="389.76" y2="100.25" xlink:href="#Degradado_sin_nombre_127"/><linearGradient id="Degradado_sin_nombre_156" x1="414.92" y1="145.17" x2="414.92" y2="105.73" gradientTransform="translate(418.32 -308) rotate(73.63)" gradientUnits="userSpaceOnUse"><stop offset="0.05" stop-color="#606060"/><stop offset="0.13" stop-color="#6b6b6b"/><stop offset="0.26" stop-color="#888"/><stop offset="0.44" stop-color="#b7b7b7"/><stop offset="0.49" stop-color="#c6c6c6"/><stop offset="0.57" stop-color="#b2b2b2"/><stop offset="0.96" stop-color="#606060"/></linearGradient><linearGradient id="Degradado_sin_nombre_156-2" x1="414.81" y1="145.37" x2="414.81" y2="105.52" gradientTransform="matrix(1, 0, 0, 1, 0, 0)" xlink:href="#Degradado_sin_nombre_156"/><linearGradient id="Degradado_sin_nombre_127-6" x1="404.06" y1="498.11" x2="404.06" y2="429.74" xlink:href="#Degradado_sin_nombre_127"/><linearGradient id="Degradado_sin_nombre_127-8" x1="404.11" y1="498.03" x2="404.11" y2="427.95" xlink:href="#Degradado_sin_nombre_127"/><linearGradient id="Degradado_sin_nombre_127-9" x1="406.44" y1="465.37" x2="406.44" y2="461.56" xlink:href="#Degradado_sin_nombre_127"/><linearGradient id="Degradado_sin_nombre_127-10" x1="405.95" y1="468.8" x2="405.95" y2="464.99" xlink:href="#Degradado_sin_nombre_127"/></defs><title>LandigPage</title><path class="cls-1" d="M559.84,398.31l-41.07-15.65a5.48,5.48,0,0,1-3.18-7.09l21.65-56.85a5.49,5.49,0,0,1,7.09-3.18l26,9.92,12.25,28.46-15.7,41.2A5.49,5.49,0,0,1,559.84,398.31Z" transform="translate(-145.63 -80.92)"/><path class="cls-2" d="M570.38,325.46l-6.09,16a5.11,5.11,0,0,0,3,6.6l15.39,5.86Z" transform="translate(-145.63 -80.92)"/><path class="cls-3" d="M561.09,339.49c-.08.21-4.4-1.24-9.64-3.24s-9.44-3.79-9.36-4,4.39,1.24,9.64,3.24S561.17,339.29,561.09,339.49Z" transform="translate(-145.63 -80.92)"/><path class="cls-3" d="M569.92,353.21c-.08.21-7.15-2.29-15.78-5.58s-15.57-6.12-15.5-6.33,7.15,2.3,15.78,5.59S570,353,569.92,353.21Z" transform="translate(-145.63 -80.92)"/><path class="cls-3" d="M569.86,361.84c-.08.21-7.78-2.53-17.19-6.12s-17-6.66-16.9-6.86,7.77,2.53,17.18,6.12S569.93,361.63,569.86,361.84Z" transform="translate(-145.63 -80.92)"/><path class="cls-3" d="M567.14,369c-.08.2-7.77-2.54-17.18-6.12s-17-6.66-16.91-6.87,7.78,2.54,17.19,6.12S567.22,368.76,567.14,369Z" transform="translate(-145.63 -80.92)"/><path class="cls-3" d="M564.43,376.09c-.08.21-7.78-2.53-17.19-6.12s-17-6.65-16.9-6.86,7.77,2.53,17.19,6.12S564.51,375.89,564.43,376.09Z" transform="translate(-145.63 -80.92)"/><path class="cls-3" d="M561.71,383.22c-.07.21-7.77-2.53-17.18-6.12s-17-6.66-16.91-6.86,7.78,2.53,17.19,6.12S561.79,383,561.71,383.22Z" transform="translate(-145.63 -80.92)"/><path class="cls-4" d="M365.36,215.9c-.12-1.25-.26-2.49-.43-3.73s-.37-2.61-.58-3.9c.21,1.29.41,2.59.58,3.9S365.24,214.65,365.36,215.9Z" transform="translate(-145.63 -80.92)"/><path class="cls-5" d="M355.36,231.36c-1.08-2.44-1.33-5.14-2-7.7a5.12,5.12,0,0,0-2.32-3.45,21.39,21.39,0,0,0-2.77-.63c-3.26-1-4.15-5.53-7.24-6.94a10.57,10.57,0,0,0-3.1-.64c-4.13-.49-8.4-1.92-11-5.16a20,20,0,0,0-2.55-3.14c-1.06-.86-2.7-1.22-3.73-.35.87,1.74,1.73,3.49,2.58,5.21a13.77,13.77,0,0,0,2.9,4.34,4.66,4.66,0,0,0,4.86,1,3.25,3.25,0,0,1,1.64-.58,1.8,1.8,0,0,1,1.06.68c2.25,2.5,1.52,6.63-.68,9.17s-5.42,3.86-8.54,5.09a6.57,6.57,0,0,1-3.49.68c-2.16-.4-3.31-2.75-3.94-4.86-1.41-4.67-2.09-9.74-5-13.68a17.22,17.22,0,0,1-2.63-3.82c-.6-1.57-.46-3.4-1.4-4.78s-3.05-2.28-3.19-4a3.18,3.18,0,0,1,2-2.82c1.12-.54,2.37-.7,3.52-1.17.46-.19,1-.52,1-1,0-.73-1-1-1.27-1.71s.5-1.48.83-2.23c.72-1.71-1.06-3.43-2.79-4.13s-3.78-1.2-4.58-2.88a9.8,9.8,0,0,1-.56-2.49,5.45,5.45,0,0,0-4.08-4.5c-2.14-.35-4.51,1.55-4.16,3.68.21,1.17,1.08,2.08,1.55,3.16s.35,2.68-.77,3c-1.83.56-3.59-2.79-5.12-1.64.62,2.15,1.23,4.29,1.86,6.45-2.41,1.22-5.28-1-6.31-3.5s-1.06-5.35-2.28-7.76-4.52-4.22-6.61-2.51c-.11,3.1,4,4.36,5.8,6.87,1.31,1.81,1.12,4.76-.82,5.91s-5-.86-4.23-3c.26-.73.87-1.34.94-2.12.07-1-.75-1.76-1.5-2.39l-3.5-3a7.44,7.44,0,0,0-2.5-1.57c-2.4-.69-4.81,1.26-6.08,3.4s-2,4.69-3.75,6.49c-2.53,2.61-7.32,2.77-9.69,0s-1.17-7.86,2.34-8.85c1.32-.37,3-.33,3.69-1.5,1.22-2.08-2.26-4.73-1.06-6.82.92-1.6,3.36-.87,5.14-1.41s2.75-2.32,3.8-3.85,2.65-3.05,4.46-2.65a5.48,5.48,0,0,1,.2-3.17,1.93,1.93,0,0,1,2.66-1c-.89,1.46.18,3.5,1.73,4.23a9.35,9.35,0,0,0,5.07.37c1.71-.21,3.85-.84,4-2.54.06-.56-.15-1.15.06-1.68.75-2,4.51.77,6-.87.83-.85-.09-2.37-1.26-2.65s-2.35.14-3.54.18-2.63-.58-2.68-1.77,1.25-2,1.39-3.15c.23-1.95-3.08-2.46-4.25-.87s-.75,3.76-.4,5.7.54,4.22-.89,5.58c-.61.92-2.2.43-2.72-.54a8,8,0,0,1-.51-3.26c-.08-1.12-.57-2.37-1.65-2.67a6,6,0,0,0-2.32.26c-3,.37-5.14-3.56-4.18-6.45s3.69-4.78,6.36-6.26c1.95-1.08,4.37-2.09,6.31-1,.91.5,1.53,1.38,2.42,1.9,1.54.91,3.44.57,5.2.61a12.1,12.1,0,0,1,7.58,2.94c.79.72,1.52,1.91.91,2.76s-2.56,1.1-2.23,2.16A3.78,3.78,0,0,0,298,147.2a3.17,3.17,0,0,1,1.83,2.58,5.64,5.64,0,0,1,8.28.68,7.28,7.28,0,0,0,1.53,2c.7.45,1.92.23,2-.59a1.7,1.7,0,0,0-.14-.77c-.42-1.19-.86-2.35-1.27-3.52,1.62-.87,3.53.49,4.63,1.95,4.08,5.46,7,2.18,12.75,3.07,3.88.59,5.59,3.08,7.79,6.1,6.73,9.27,15.62,16.88,21.74,26.57.64,1,1.23,2,1.79,3.08l-.29-.78a108,108,0,0,0-8.89-18.08c-.75-1.22-1.52-2.42-2.31-3.61-.48-.73-1-1.48-1.49-2.19-.65-.94-1.33-1.85-2-2.76-.54-.73-1.08-1.44-1.64-2.14-.38-.49-.78-1-1.18-1.47s-.88-1.09-1.36-1.64L338.34,154c-.14-.17-.29-.34-.47-.52-.5-.59-1-1.17-1.58-1.74a.67.67,0,0,0-.16-.18l-.46-.47c-.43-.49-.9-1-1.35-1.43-.75-.76-1.52-1.53-2.31-2.26-.64-.65-1.3-1.26-2-1.87s-1.19-1.08-1.8-1.6-1.18-1-1.79-1.54-1.49-1.23-2.25-1.84h0c-2.11-1.7-4.29-3.3-6.52-4.8-.56-.38-1.1-.75-1.66-1.11s-1.13-.74-1.69-1.08-1.13-.72-1.71-1.05-1.15-.7-1.72-1-.93-.54-1.4-.78a6.36,6.36,0,0,0-.71-.4c-1-.56-2-1.1-3-1.61-.5-.26-1-.52-1.53-.77s-1.31-.64-2-.94a2.09,2.09,0,0,0-.3-.14l-1.79-.82c-.86-.36-1.71-.73-2.57-1.08s-1.95-.8-2.94-1.16-2.2-.82-3.31-1.19-2.25-.75-3.39-1.1-2.26-.66-3.41-1q-3.4-.92-6.89-1.63a.53.53,0,0,1-.12,0c-.89-.17-1.78-.35-2.67-.49l-.17,0c-.39-.07-.79-.14-1.19-.19-1.65-.28-3.33-.51-5-.7a5.68,5.68,0,0,0-.61-.07c-.49-.07-1-.11-1.48-.16-1.11-.1-2.23-.19-3.36-.26s-2.36-.14-3.54-.17-2.48-.07-3.72-.07c-3.27,0-6.52.14-9.72.43-.77,0-1.52.12-2.27.21s-1.57.17-2.35.28-1.57.21-2.34.33-1.55.24-2.34.38-1.34.23-2,.37q-2.46.46-4.86,1-1.12.26-2.25.57c-.75.19-1.5.4-2.23.61-1.24.35-2.44.73-3.65,1.12h0l-2.93,1a.1.1,0,0,0-.07,0c-1,.34-2,.71-2.93,1.09l-.16.06c-.89.35-1.78.71-2.65,1.08-1.1.45-2.18.94-3.24,1.43-.91.42-1.8.83-2.67,1.27s-1.88.94-2.8,1.43l-.11.05c-.89.47-1.78,1-2.65,1.47s-1.79,1-2.68,1.58h0c-.84.51-1.66,1-2.48,1.54-.31.19-.61.4-.92.61-.87.55-1.71,1.13-2.56,1.72-1.05.72-2.06,1.47-3.07,2.22s-1.76,1.34-2.62,2a110,110,0,0,0-13.7,13c-1.48,1.63-2.87,3.31-4.23,5-1.15,1.46-2.27,2.94-3.33,4.48q-1.44,2-2.78,4.07,1.34-2.07,2.78-4.07c.28,0,.55-.07.83-.09a12.84,12.84,0,0,0,4.64-.75c1.31-.65,2.23-1.81,3.42-2.65,3-2.16,8-2.56,8.82-6.19.28-1.22,0-2.54.4-3.71.85-2.18,3.76-2.49,6.1-2.46,1,0,2.16.14,2.62,1a2.51,2.51,0,0,1-.11,2,19,19,0,0,1-8,9.84c-3,1.84-7,3.27-7.83,6.72.42,1.17,2.55,1.08,2.72,2.31.12,1-1.13,1.48-1.58,2.35-.67,1.27.85,2.82,2.3,2.75s2.65-1.11,3.71-2.09c3.17-3,6.5-6.12,7.65-10.3.49-1.73.66-3.75,2.06-4.9a3.41,3.41,0,0,1,5.18,1.66c1.37-.77,3.52-1.35,4.23.08a7,7,0,0,1,.3,1.64c.45,2.23,3.5,3.24,3.82,5.49.36,2.6-3,3.94-5.56,4.34l-7.06,1.12a6.54,6.54,0,0,0-2.93.94,2.28,2.28,0,0,0-.87,2.74,6.54,6.54,0,0,0,1.22,1.25c1.95,2,.34,6-2.41,6.07-.94,0-1.87-.31-2.81-.35-2.79-.12-5,2.34-6.32,4.79s-2.32,5.27-4.55,6.94c-3.6,2.7-9.78,2.08-11.53,6.23-.69,1.67-.33,3.55,0,5.35s.4,3.76-.64,5.25-3.72,1.77-4.48.13a4,4,0,0,1-.11-2.31c.42-2.58.82-5.16,1.22-7.74.3-1.92.56-4.07-.57-5.63-1.59-2.2-5.15-2-7.2-.23s-2.9,4.51-3.47,7.15a31.14,31.14,0,0,1-2,6.93h0c-.37,2.17-.66,4.36-.89,6.58s-.38,4.51-.47,6.81a9.26,9.26,0,0,0,.89-.83c1.1-1.14,3.31-5.93,5.3-3.58a1.79,1.79,0,0,1,0,2.18c-.61.79-1.83,1-2.3,1.81-.57,1,.23,2.27,1.17,2.93s2.09,1.1,2.75,2.06c1.28,1.83.06,4.6,1.29,6.47,1.07,1.6,3.33,1.71,5.27,1.92l.66.1c.54-3.84,2.34-7,7.57-8.14,7.21-1.64,16.7,4.34,20.76,9.78,4.53,6.08,6.68,14.69,13.61,17.74,5,2.18,12,1.4,14.46,6.26,2.16,4.36-1.61,9.26-2.18,14.09-.37,3.19.68,6.36.92,9.55s-.71,6.94-3.63,8.28c-1.62.73-3.66.65-5,1.87-2.32,2.19-.42,6.73-2.74,8.92a11.53,11.53,0,0,1-2.95,1.55c-5.21,2.64-5.07,10.31-2.65,15.62.09.2.18.37.27.56A110.1,110.1,0,0,0,255.76,337a109.65,109.65,0,0,0,51.69-12.86h0a110,110,0,0,0,31.8-25.49c1.84-2.12,3.59-4.34,5.26-6.6.85-1.17,1.69-2.34,2.48-3.54a109.5,109.5,0,0,0,17.9-46.86q.49-3.72.77-7.52a6.34,6.34,0,0,1-4.43,2C358.6,236,356.42,233.81,355.36,231.36Z" transform="translate(-145.63 -80.92)"/><path class="cls-5" d="M160,255.77c-.35-3.15.69-6.31.75-9.5,0-2.2-.13-4.52-.16-6.73a31.07,31.07,0,0,1-5.6-.78,1.64,1.64,0,0,1-1-.53,2,2,0,0,1-.23-1.17c-.14-2.47-2.53-4.11-4.67-5.35a19.13,19.13,0,0,0-3.4-1.67c0,.26,0,.51,0,.77a109.94,109.94,0,0,0,7,34.95,105.8,105.8,0,0,0,6.73,14.43c1.08,2,2.27,4,3.51,5.91,1.53,2.39,3.13,4.73,4.86,7s3.31,4.27,5.11,6.29a109.15,109.15,0,0,0,7.79,8q3.63,3.39,7.58,6.45c-6-16.14-11.68-32.62-22-46.35C163.62,263.89,160.51,260.23,160,255.77Z" transform="translate(-145.63 -80.92)"/><path class="cls-4" d="M145.66,224.83c0,.66,0,1.32,0,2s0,1.08,0,1.62c0-.54,0-1.07,0-1.62S145.65,225.49,145.66,224.83Z" transform="translate(-145.63 -80.92)"/><g class="cls-6"><path class="cls-4" d="M194.45,318.3c.92.63,1.86,1.24,2.81,1.83.66.42,1.33.82,2,1.22-.68-.4-1.35-.8-2-1.22C196.31,319.54,195.37,318.93,194.45,318.3Z" transform="translate(-145.63 -80.92)"/></g><path class="cls-1" d="M287.75,311.39a10.07,10.07,0,0,1-2.06-.21,6.72,6.72,0,0,1-4.86-3.69,12.68,12.68,0,0,1-.85-4.79,18.71,18.71,0,0,0-.34-3.28,17.58,17.58,0,0,0-2.59-5.27,24.65,24.65,0,0,1-2.24-4.06,24.36,24.36,0,0,1-1.21-8.35l0-.68c-.58-19.38-6-35.1-15.62-45.48a10.52,10.52,0,0,0-4.73-3.35,5.89,5.89,0,0,0-6.06,2.09,12,12,0,0,0-.92,1.5,8.62,8.62,0,0,1-1.59,2.27,4.6,4.6,0,0,1-3.88,1,7.05,7.05,0,0,1-4.84-3.34c-1.71-3-1.4-6.73-1.15-9.71l1-12c.16-1.86.37-4.4,1.87-6.14a10.18,10.18,0,0,1,4.47-2.56,14.08,14.08,0,0,0,3.45-1.65c1.93-1.45,2.78-3.73,3.69-6.15a25.07,25.07,0,0,1,1.75-4,7.43,7.43,0,0,1,6.9-3.4,3.27,3.27,0,0,1,2.54,1.69,7.58,7.58,0,0,1,4.48-4.11c4-1.14,8.84,2,13.54,5.06,4.28,2.78,8.33,5.41,11.51,4.83a23.38,23.38,0,0,0,2.4-.6,12.79,12.79,0,0,1,5.17-.71c4.62.65,7,5.67,8.53,10l7.53,21c.93,2.62,2.14,5.5,4.63,6.46a9.53,9.53,0,0,0,3.15.46,10.74,10.74,0,0,1,3.27.47,5.24,5.24,0,0,1,3.46,4.25c.64,3.47-1.1,8-4.05,10.57h0a48.86,48.86,0,0,1-4.42,3.26c-3.4,2.31-6.61,4.5-8,8.1a19.57,19.57,0,0,0-.92,6.16,19.08,19.08,0,0,1-1.08,6.62,18.68,18.68,0,0,1-3.27,4.78,29.54,29.54,0,0,0-2.19,2.79c-2.41,3.63-3.08,8.13-3.73,12.49-.08.56-.16,1.11-.25,1.67-.75,4.85-2,10.27-6,13.64A10.09,10.09,0,0,1,287.75,311.39Z" transform="translate(-145.63 -80.92)"/><g class="cls-6"><path class="cls-4" d="M145.73,222.23v0h0v0c0,.21,0,.4,0,.61,0,.65,0,1.32,0,2,0-.67,0-1.34,0-2C145.69,222.63,145.71,222.44,145.73,222.23Z" transform="translate(-145.63 -80.92)"/></g><g class="cls-6"><path class="cls-4" d="M145.65,228.43c0,.54,0,1.08,0,1.61h0C145.66,229.51,145.66,229,145.65,228.43Z" transform="translate(-145.63 -80.92)"/></g><path class="cls-7" d="M160.79,235.27l-.66-.1c-1.94-.21-4.2-.32-5.27-1.92-1.23-1.87,0-4.64-1.29-6.47-.66-1-1.81-1.38-2.75-2.06s-1.74-1.91-1.17-2.93c.47-.85,1.69-1,2.3-1.81a1.79,1.79,0,0,0,0-2.18c-2-2.35-4.2,2.44-5.3,3.58a9.26,9.26,0,0,1-.89.83v0c0,.21,0,.4,0,.61,0,.65,0,1.32,0,2s0,1.32,0,2,0,1.08,0,1.62,0,1.08,0,1.61a19.13,19.13,0,0,1,3.4,1.67c2.14,1.24,4.53,2.88,4.67,5.35a2,2,0,0,0,.23,1.17,1.64,1.64,0,0,0,1,.53,31.07,31.07,0,0,0,5.6.78" transform="translate(-145.63 -80.92)"/><path class="cls-7" d="M160.6,239.54c0,2.21.19,4.53.16,6.73-.06,3.19-1.1,6.35-.75,9.5.5,4.46,3.61,8.12,6.31,11.72,10.28,13.73,16,30.21,22,46.35h0c1.12.89,2.25,1.72,3.4,2.54.91.66,1.82,1.3,2.75,1.92s1.86,1.24,2.81,1.83c.66.42,1.33.82,2,1.22-.09-.19-.18-.36-.27-.56-2.42-5.31-2.56-13,2.65-15.62a11.53,11.53,0,0,0,2.95-1.55c2.32-2.19.42-6.73,2.74-8.92,1.3-1.22,3.34-1.14,5-1.87,2.92-1.34,3.86-5.07,3.63-8.28s-1.29-6.36-.92-9.55c.57-4.83,4.34-9.73,2.18-14.09-2.43-4.86-9.49-4.08-14.46-6.26-6.93-3.05-9.08-11.66-13.61-17.74-4.06-5.44-13.55-11.42-20.76-9.78-5.23,1.18-7,4.3-7.57,8.14" transform="translate(-145.63 -80.92)"/><path class="cls-7" d="M152.55,194.74c2-1.76,5.61-2,7.2.23,1.13,1.56.87,3.71.57,5.63-.4,2.58-.8,5.16-1.22,7.74a4,4,0,0,0,.11,2.31c.76,1.64,3.45,1.33,4.48-.13s.92-3.47.64-5.25-.64-3.68,0-5.35c1.75-4.15,7.93-3.53,11.53-6.23,2.23-1.67,3.22-4.48,4.55-6.94s3.53-4.91,6.32-4.79c.94,0,1.87.38,2.81.35,2.75-.09,4.36-4.11,2.41-6.07a6.54,6.54,0,0,1-1.22-1.25,2.28,2.28,0,0,1,.87-2.74,6.54,6.54,0,0,1,2.93-.94l7.06-1.12c2.59-.4,5.92-1.74,5.56-4.34-.32-2.25-3.37-3.26-3.82-5.49a7,7,0,0,0-.3-1.64c-.71-1.43-2.86-.85-4.23-.08a3.41,3.41,0,0,0-5.18-1.66c-1.4,1.15-1.57,3.17-2.06,4.9-1.15,4.18-4.48,7.35-7.65,10.3-1.06,1-2.27,2-3.71,2.09s-3-1.48-2.3-2.75c.45-.87,1.7-1.38,1.58-2.35-.17-1.23-2.3-1.14-2.72-2.31.84-3.45,4.8-4.88,7.83-6.72a19,19,0,0,0,8-9.84,2.51,2.51,0,0,0,.11-2c-.46-.87-1.63-1-2.62-1-2.34,0-5.25.28-6.1,2.46-.45,1.17-.12,2.49-.4,3.71-.82,3.63-5.79,4-8.82,6.19-1.19.84-2.11,2-3.42,2.65a12.84,12.84,0,0,1-4.64.75c-.28,0-.55.05-.83.09q-1.44,2-2.78,4.07c-.89,1.38-1.75,2.79-2.58,4.21A109,109,0,0,0,151,192.7c-.85,2.61-1.61,5.26-2.26,7.94s-1.21,5.42-1.66,8.18a31.14,31.14,0,0,0,2-6.93C149.65,199.25,150.51,196.5,152.55,194.74Z" transform="translate(-145.63 -80.92)"/><path class="cls-7" d="M245,143.64c1-1.36.74-3.33,1.41-4.9,1.12-2.63,4.61-3.57,5.82-6.15.46-1,.58-2.21,1.39-3s1.68-.74,2.4-1.3c1.63-1.24,1-4.07-.77-5.17-4.32-2.76-12.27.43-16,3.13-4.8,3.47-9.49,7.66-15.88,7.25-1.76-.11-3.59-.6-5.24,0s-2.66,3.09-1.24,4.14c.79.58,1.91.42,2.8.83,1.64.77,1.81,3.15,1,4.77s-2.25,2.85-3.2,4.39a8.29,8.29,0,0,0-1.18,5,4.62,4.62,0,0,0,1.49,3.24c2,1.59,5,.23,6.69-1.68s2.85-4.36,5-5.67A12.8,12.8,0,0,1,233,147.4l8.33-2A6.05,6.05,0,0,0,245,143.64Z" transform="translate(-145.63 -80.92)"/><g class="cls-6"><path class="cls-4" d="M365.87,225.3c0-1.59-.06-3.16-.14-4.73.08,1.57.13,3.14.14,4.73,0,.5,0,1,0,1.51,0,2.45-.08,4.85-.22,7.26.14-2.41.22-4.81.22-7.26C365.9,226.31,365.9,225.8,365.87,225.3Z" transform="translate(-145.63 -80.92)"/></g><g class="cls-6"><path class="cls-4" d="M359,188.34c.53,1.4,1,2.8,1.48,4.21-.46-1.41-.95-2.81-1.48-4.21,0,0,0,0,0,0h0Z" transform="translate(-145.63 -80.92)"/></g><path class="cls-7" d="M365.87,225.3c0-1.59-.06-3.16-.14-4.73s-.21-3.12-.37-4.67c-.12-1.25-.26-2.49-.43-3.73s-.37-2.61-.58-3.9a109,109,0,0,0-2.58-11.44c-.41-1.44-.84-2.86-1.31-4.28s-.95-2.81-1.48-4.21v0h0c-.56-1-1.15-2.07-1.79-3.08-6.12-9.69-15-17.3-21.74-26.57-2.2-3-3.91-5.51-7.79-6.1-5.76-.89-8.67,2.39-12.75-3.07-1.1-1.46-3-2.82-4.63-1.95.41,1.17.85,2.33,1.27,3.52a1.7,1.7,0,0,1,.14.77c-.09.82-1.31,1-2,.59a7.28,7.28,0,0,1-1.53-2,5.64,5.64,0,0,0-8.28-.68A3.17,3.17,0,0,0,298,147.2a3.78,3.78,0,0,1-4.74,3.05c-.33-1.06,1.57-1.25,2.23-2.16s-.12-2-.91-2.76a12.1,12.1,0,0,0-7.58-2.94c-1.76,0-3.66.3-5.2-.61-.89-.52-1.51-1.4-2.42-1.9-1.94-1.1-4.36-.09-6.31,1-2.67,1.48-5.42,3.35-6.36,6.26s1.15,6.82,4.18,6.45a6,6,0,0,1,2.32-.26c1.08.3,1.57,1.55,1.65,2.67a8,8,0,0,0,.51,3.26c.52,1,2.11,1.46,2.72.54,1.43-1.36,1.26-3.65.89-5.58s-.75-4.12.4-5.7,4.48-1.08,4.25.87c-.14,1.15-1.44,2-1.39,3.15s1.5,1.82,2.68,1.77,2.39-.48,3.54-.18,2.09,1.8,1.26,2.65c-1.45,1.64-5.21-1.17-6,.87-.21.53,0,1.12-.06,1.68-.14,1.7-2.28,2.33-4,2.54a9.35,9.35,0,0,1-5.07-.37c-1.55-.73-2.62-2.77-1.73-4.23a1.93,1.93,0,0,0-2.66,1,5.48,5.48,0,0,0-.2,3.17c-1.81-.4-3.43,1.13-4.46,2.65s-2,3.31-3.8,3.85-4.22-.19-5.14,1.41c-1.2,2.09,2.28,4.74,1.06,6.82-.7,1.17-2.37,1.13-3.69,1.5-3.51,1-4.73,6.12-2.34,8.85s7.16,2.58,9.69,0c1.76-1.8,2.48-4.32,3.75-6.49s3.68-4.09,6.08-3.4a7.44,7.44,0,0,1,2.5,1.57l3.5,3c.75.63,1.57,1.41,1.5,2.39-.07.78-.68,1.39-.94,2.12-.73,2.11,2.32,4.12,4.23,3s2.13-4.1.82-5.91c-1.81-2.51-5.91-3.77-5.8-6.87,2.09-1.71,5.39.09,6.61,2.51s1.25,5.26,2.28,7.76,3.9,4.72,6.31,3.5c-.63-2.16-1.24-4.3-1.86-6.45,1.53-1.15,3.29,2.2,5.12,1.64,1.12-.35,1.26-1.95.77-3s-1.34-2-1.55-3.16c-.35-2.13,2-4,4.16-3.68a5.45,5.45,0,0,1,4.08,4.5,9.8,9.8,0,0,0,.56,2.49c.8,1.68,2.88,2.18,4.58,2.88s3.51,2.42,2.79,4.13c-.33.75-1.11,1.47-.83,2.23s1.27,1,1.27,1.71c0,.49-.52.82-1,1-1.15.47-2.4.63-3.52,1.17a3.18,3.18,0,0,0-2,2.82c.14,1.75,2.22,2.58,3.19,4s.8,3.21,1.4,4.78a17.22,17.22,0,0,0,2.63,3.82c2.89,3.94,3.57,9,5,13.68.63,2.11,1.78,4.46,3.94,4.86a6.57,6.57,0,0,0,3.49-.68c3.12-1.23,6.36-2.56,8.54-5.09s2.93-6.67.68-9.17a1.8,1.8,0,0,0-1.06-.68A3.25,3.25,0,0,0,331,214a4.66,4.66,0,0,1-4.86-1,13.77,13.77,0,0,1-2.9-4.34c-.85-1.72-1.71-3.47-2.58-5.21,1-.87,2.67-.51,3.73.35a20,20,0,0,1,2.55,3.14c2.6,3.24,6.87,4.67,11,5.16a10.57,10.57,0,0,1,3.1.64c3.09,1.41,4,6,7.24,6.94a21.39,21.39,0,0,1,2.77.63,5.12,5.12,0,0,1,2.32,3.45c.71,2.56,1,5.26,2,7.7s3.24,4.66,5.89,4.69a6.34,6.34,0,0,0,4.43-2h0c.14-2.41.22-4.81.22-7.26C365.9,226.31,365.9,225.8,365.87,225.3Z" transform="translate(-145.63 -80.92)"/><path class="cls-1" d="M321.28,271c-1.64.33-2,1.29-2.86,2.51-1.16,1.58-2.82,3.16-3.88,4.72-1.79,2.65-.18,6.78-2.53,9-.48.45-1.1.75-1.54,1.25a2.79,2.79,0,0,0,.57,3.85,3.78,3.78,0,0,0,4.1.07,6,6,0,0,0,2.52-3.43,5.84,5.84,0,0,1,1.27-2.82c1.35-1.18,3.45-.31,5.22-.56C331.71,284.57,328.46,269.61,321.28,271Z" transform="translate(-145.63 -80.92)"/><path class="cls-1" d="M319.09,495.9l-39.34,12.3a5.15,5.15,0,0,1-6.46-3.38l-17-54.45a5.15,5.15,0,0,1,3.38-6.46l25-7.8L310.13,450l12.34,39.47A5.15,5.15,0,0,1,319.09,495.9Z" transform="translate(-145.63 -80.92)"/><path class="cls-2" d="M270.6,482.08h51.53a0,0,0,0,1,0,0v15a5.46,5.46,0,0,1-5.46,5.46H275.94a5.33,5.33,0,0,1-5.33-5.33V482.08A0,0,0,0,1,270.6,482.08Z" transform="translate(-279.03 29.96) rotate(-17.36)"/><path class="cls-3" d="M289.75,489.75l2.49,7.95-1.76.55-1-3.26L286,496.07l1,3.26-1.77.55-2.48-7.95,1.76-.55,1,3.14,3.46-1.08-1-3.14Z" transform="translate(-145.63 -80.92)"/><path class="cls-3" d="M297.61,495.7a2.41,2.41,0,0,1-1.26.81,2.05,2.05,0,0,1-2.87-1.5l-.78-2.52-.91.29-.42-1.37.9-.28-.47-1.49,1.7-.53.47,1.49,1.45-.45.43,1.36-1.46.45.78,2.49a.73.73,0,0,0,1,.58,1.22,1.22,0,0,0,.62-.44Z" transform="translate(-145.63 -80.92)"/><path class="cls-3" d="M307.46,489.1l1.09,3.5-1.69.53-1-3.23c-.31-1-.88-1.31-1.56-1.09s-1.14.91-.8,2l1,3.07-1.69.53-1-3.22c-.31-1-.86-1.32-1.56-1.1s-1.13.91-.79,2l1,3.07-1.69.53-1.92-6.11,1.63-.51.22.71a2.42,2.42,0,0,1,1.59-1.37,2.23,2.23,0,0,1,2.23.39,2.71,2.71,0,0,1,1.8-1.65C305.62,486.71,306.88,487.24,307.46,489.1Z" transform="translate(-145.63 -80.92)"/><path class="cls-3" d="M307.45,483.69l1.7-.53,2.63,8.43-1.69.53Z" transform="translate(-145.63 -80.92)"/><path class="cls-3" d="M281.82,462.76l-5.67,4.81,7.4.71.89,2.83-10.63-1.18-.93-2.95,8.06-7Z" transform="translate(-145.63 -80.92)"/><path class="cls-3" d="M286.23,452.16l2.73-.85.21,23.41-2.73.85Z" transform="translate(-145.63 -80.92)"/><path class="cls-3" d="M301.69,458l.92,2.95-8.06,7-.89-2.84,5.68-4.79-7.4-.72-.88-2.82Z" transform="translate(-145.63 -80.92)"/><g class="cls-8"><path class="cls-3" d="M284.6,436.11l4.79,15.32a4.8,4.8,0,0,0,6,3.15L310.13,450Z" transform="translate(-145.63 -80.92)"/></g><path class="cls-2" d="M290,452.71a5.34,5.34,0,0,0,5.58,3.68,4.55,4.55,0,0,0,.52,0c2-.26,15.4-2,15.31-2.26L310.13,450l-14.73,4.61S291.68,455.61,290,452.71Z" transform="translate(-145.63 -80.92)"/><rect class="cls-9" x="57.66" y="101.73" width="298.69" height="224.44"/><path class="cls-10" d="M502,407.09s0-.37,0-1.06,0-1.71,0-3.06c0-2.7,0-6.71-.05-11.93,0-10.45-.06-25.78-.11-45.36-.05-39.1-.13-95.16-.22-163l.43.43-298.66.09h0l.52-.52c0,80.69,0,157.11-.05,224.44l-.47-.47,215.58.23,61.24.13,16.24,0,4.19,0h1.07l.37,0h-1.38l-4.14,0-16.15.06-61.13.12-215.89.24h-.47v-.47c0-67.33,0-143.75-.05-224.44v-.52h.55l298.66.09h.43v.43c-.1,68-.17,124.13-.23,163.3,0,19.54-.08,34.84-.11,45.26,0,5.19,0,9.17,0,11.85,0,1.33,0,2.34,0,3S502,407.09,502,407.09Z" transform="translate(-145.63 -80.92)"/><path class="cls-10" d="M500.47,210.13a3.58,3.58,0,0,1-.75.06l-2.22,0-8.51.09c-7.4.06-18.11.09-31.33.09-26.46,0-63-.2-103.36-.53l-103.36-.83-31.33-.24-8.51-.11-2.22,0a6.09,6.09,0,0,1-.75-.05,3.58,3.58,0,0,1,.75-.06l2.22,0,8.51-.09c7.4-.06,18.1-.08,31.33-.08,26.45,0,63,.2,103.37.52l103.35.83,31.33.25,8.51.1,2.22.06A4.27,4.27,0,0,1,500.47,210.13Z" transform="translate(-145.63 -80.92)"/><path class="cls-10" d="M222.79,194.05a3.52,3.52,0,1,1-3.51-3.52A3.52,3.52,0,0,1,222.79,194.05Z" transform="translate(-145.63 -80.92)"/><path class="cls-10" d="M236.86,194.05a3.52,3.52,0,1,1-3.51-3.52A3.52,3.52,0,0,1,236.86,194.05Z" transform="translate(-145.63 -80.92)"/><circle class="cls-10" cx="101.79" cy="113.13" r="3.52"/><rect class="cls-1" x="96.57" y="260.23" width="61.38" height="45.95"/><rect class="cls-1" x="177.13" y="259.5" width="61.38" height="45.95"/><rect class="cls-1" x="255.69" y="259.5" width="61.38" height="45.95"/><path class="cls-4" d="M568.22,230.91c-1.87-34.64-38.07-52.06-56.59-54.31l-14.82,17.45c11.94-1.8,41.6,14.76,43.05,26.75s-7.68,27.29-19.7,28.39c-9.44.86-25.18-7.51-31.17-.17-15.14-13.48-41-12.37-54.92,2.36a37.84,37.84,0,0,0-50.36,31.44l55.75,32.36s23.24,20.82,39.07,8c5.41-4.39,7.47-10.68,8-16.74a8.61,8.61,0,0,0,3.16-.21c4-1.07,7-4.68,8.32-8.63.17-.51.3-1,.42-1.55,13.54,3,32-.39,42.89-7.19C557.12,279,569.22,249.54,568.22,230.91Z" transform="translate(-145.63 -80.92)"/><path class="cls-10" d="M492.93,255.72a1.92,1.92,0,0,1-.21-.27l-.55-.83c-.24-.36-.54-.81-.93-1.31s-.81-1.11-1.36-1.73a35.92,35.92,0,0,0-10.83-8.71,34.89,34.89,0,0,0-9-3.28,32.75,32.75,0,0,0-11-.49,35.57,35.57,0,0,0-22,11.43c-.84.9-1.57,1.88-2.26,2.78l-.13.17-.19-.09A35.07,35.07,0,0,0,411,250.78a36.49,36.49,0,0,0-5.12,1.65,40.89,40.89,0,0,0-4.54,2.27,36.8,36.8,0,0,0-7.29,5.4,29.56,29.56,0,0,0-7.28,10.8c-.3.71-.5,1.37-.68,1.94a14.26,14.26,0,0,0-.41,1.45l-.24.9a2.59,2.59,0,0,1-.09.3,1.11,1.11,0,0,1,0-.32l.19-.91a11.56,11.56,0,0,1,.37-1.46,18.44,18.44,0,0,1,.64-2,29.11,29.11,0,0,1,7.21-11,36.74,36.74,0,0,1,7.33-5.51,40.72,40.72,0,0,1,4.57-2.33,36.21,36.21,0,0,1,5.19-1.68,35.39,35.39,0,0,1,23.81,2.59l-.33.08c.7-.91,1.44-1.9,2.29-2.82A36,36,0,0,1,459,238.62a33,33,0,0,1,11.14.55A35.62,35.62,0,0,1,490,251.45c.54.63.95,1.25,1.33,1.77a16.12,16.12,0,0,1,.89,1.35l.51.85A1.42,1.42,0,0,1,492.93,255.72Z" transform="translate(-145.63 -80.92)"/><path class="cls-10" d="M503.7,248.48c-.05.08-.78-.45-2.1-.94a10.61,10.61,0,0,0-2.38-.59,12.66,12.66,0,0,0-3,0,12.34,12.34,0,0,0-2.89.79,11.2,11.2,0,0,0-2.15,1.2c-1.13.83-1.69,1.54-1.76,1.47s.09-.21.33-.53a7.51,7.51,0,0,1,1.21-1.23,9.89,9.89,0,0,1,2.17-1.35,11.83,11.83,0,0,1,3-.87,11.71,11.71,0,0,1,3.14,0,9.59,9.59,0,0,1,2.46.72,7.14,7.14,0,0,1,1.49.85C503.56,248.3,503.72,248.45,503.7,248.48Z" transform="translate(-145.63 -80.92)"/><path class="cls-10" d="M519.45,269.55s-.56-.28-1.63-.67a12.46,12.46,0,0,0-4.76-.67,11.36,11.36,0,0,0-6.62,2.55,11.87,11.87,0,0,0-4.21,7.68l0,.41-.35-.22a17.63,17.63,0,0,0-3.67-1.8A18.14,18.14,0,0,0,480.23,280a19.89,19.89,0,0,0-3.84,4.33c-.74,1.16-1.06,1.86-1.1,1.84a1.82,1.82,0,0,1,.2-.52,14.08,14.08,0,0,1,.73-1.42A18,18,0,0,1,480,279.7a18.57,18.57,0,0,1,7.74-4,18.91,18.91,0,0,1,10.62.63,18.35,18.35,0,0,1,3.77,1.85l-.4.19a12.2,12.2,0,0,1,4.44-8,11.5,11.5,0,0,1,6.89-2.54,11.79,11.79,0,0,1,4.83.84,8.3,8.3,0,0,1,1.19.58C519.33,269.45,519.46,269.53,519.45,269.55Z" transform="translate(-145.63 -80.92)"/><path class="cls-10" d="M562.63,210.68a3.79,3.79,0,0,1,.41.7c.24.47.63,1.15,1.05,2.06a46.88,46.88,0,0,1,2.8,8.05A54.51,54.51,0,0,1,568.4,234a62.14,62.14,0,0,1-.38,7.46,67.49,67.49,0,0,1-1.28,7.92,82.22,82.22,0,0,1-10.46,26,47.52,47.52,0,0,1-5.1,6.82,20.64,20.64,0,0,1-1.64,1.64,3.77,3.77,0,0,1-.61.52,4.22,4.22,0,0,1,.54-.59c.38-.37.89-1,1.56-1.7a52,52,0,0,0,4.94-6.88,85.26,85.26,0,0,0,10.26-25.9,73.21,73.21,0,0,0,1.29-7.87,65.56,65.56,0,0,0,.4-7.4,56,56,0,0,0-1.39-12.46,49.84,49.84,0,0,0-2.63-8.05c-.39-.92-.75-1.62-1-2.1A7.12,7.12,0,0,1,562.63,210.68Z" transform="translate(-145.63 -80.92)"/><path class="cls-10" d="M535,212a6.15,6.15,0,0,1,.92,1,19.15,19.15,0,0,1,2.07,3,21.89,21.89,0,0,1-.73,22.93,19.85,19.85,0,0,1-2.26,2.86,6.08,6.08,0,0,1-1,.9,42.51,42.51,0,0,0,2.93-4,22.43,22.43,0,0,0,.73-22.56A45.26,45.26,0,0,0,535,212Z" transform="translate(-145.63 -80.92)"/><path class="cls-11" d="M498.31,185.18a35.39,35.39,0,0,0,9.75,9.91,3.17,3.17,0,0,0,4.75-3.7l0-.07a132.51,132.51,0,0,0,14.27,9.51,3.91,3.91,0,0,0,5.64-4.72,59.88,59.88,0,0,0-27.41-31.91Z" transform="translate(-145.63 -80.92)"/><g class="cls-8"><path d="M504.07,185.65a6.16,6.16,0,0,0,1.57,1.79,2.05,2.05,0,0,0,2.25.13c1-.67.94-2.29,1.95-2.91s2.41.26,3.33,1.14l2.9,2.77c.71.68,1.67,1.41,2.58,1s1.07-1.81.85-2.88a15.58,15.58,0,0,0-9.31-11.14Z" transform="translate(-145.63 -80.92)"/></g><path class="cls-11" d="M542.57,209.48a3.5,3.5,0,1,0,0-.25" transform="translate(-145.63 -80.92)"/><path class="cls-12" d="M358.71,88.82c-2.82,4.38,3.35,19.72,17.49,39.37a134.18,134.18,0,0,0,30,30.18l81.54,52.31,13.78-21.49,8-12.45,13.78-21.49-74-47.46A134.57,134.57,0,0,0,426.41,96a161.55,161.55,0,0,0-24.62-7.7c-23.55-5.17-40.27-3.87-43.08.52" transform="translate(-145.63 -80.92)"/><path class="cls-13" d="M472.16,122.48l.3-.1a61.05,61.05,0,0,1,52.4,6.51l9.77,6.27L508.7,145.92Z" transform="translate(-145.63 -80.92)"/><path class="cls-14" d="M472.16,122.48l.19.11.53.34,2,1.28,7.58,4.82,26.3,16.75h-.15L532.27,136l2.29-.95,0,.31-5.76-3.7c-1.9-1.2-3.74-2.44-5.61-3.54a62,62,0,0,0-11.28-5.3A58.5,58.5,0,0,0,501,120.06c-1.74-.31-3.44-.42-5.07-.58s-3.2-.18-4.7-.13a60.37,60.37,0,0,0-14,1.75c-1.64.35-2.86.78-3.71,1l-1.29.37.32-.13.95-.3c.84-.25,2.06-.71,3.7-1.08a58.93,58.93,0,0,1,14.06-1.86c1.5-.06,3.08,0,4.72.11s3.35.25,5.09.56a58.22,58.22,0,0,1,11,2.7,61.28,61.28,0,0,1,11.35,5.3c1.89,1.1,3.72,2.34,5.62,3.54l5.76,3.7.28.17-.3.13-2.3,1-23.64,9.8-.08,0-.07,0-26.31-17-7.5-4.85-2-1.29-.51-.33Z" transform="translate(-145.63 -80.92)"/><path class="cls-15" d="M436.61,177.9s0,.15,0,.31A60.21,60.21,0,0,0,464,222.51l9.64,6.18-1-27.67Z" transform="translate(-145.63 -80.92)"/><path class="cls-16" d="M436.61,177.9l.16.1.51.32,2,1.24,7.44,4.72,26.06,16.61.07,0V201c.29,7.76.61,16.29.94,25.22,0,.84.06,1.67.09,2.45V229l-.27-.18-5.69-3.65c-1.86-1.21-3.72-2.34-5.48-3.58a61.09,61.09,0,0,1-9.43-8,57.72,57.72,0,0,1-6.93-8.75c-1-1.44-1.79-2.93-2.6-4.33s-1.48-2.82-2-4.19A58,58,0,0,1,437.3,183c-.34-1.62-.44-2.9-.56-3.76-.05-.42-.09-.75-.11-1s0-.34,0-.34c0,.2.08.55.2,1.31s.26,2.13.62,3.74a59.47,59.47,0,0,0,4.2,13.3c.57,1.37,1.32,2.72,2.05,4.16s1.61,2.88,2.6,4.31a58.43,58.43,0,0,0,6.93,8.68,60.37,60.37,0,0,0,9.39,7.93c1.75,1.23,3.62,2.37,5.48,3.57l5.68,3.65-.26.15c0-.77-.06-1.61-.09-2.45-.33-8.93-.64-17.46-.92-25.22l.07.13-25.83-16.69-7.44-4.82-2-1.29-.51-.34Z" transform="translate(-145.63 -80.92)"/><path class="cls-17" d="M358.71,88.82c-2.3,3.3,1,13.33,9.12,26.75L389.76,86C374,84.08,361.66,84.57,358.71,88.82Z" transform="translate(-145.63 -80.92)"/><line class="cls-18" x1="329.15" y1="121.48" x2="364.03" y2="66.41"/><path class="cls-18" d="M509.65,147.32c.08.05-7.66,12.42-17.29,27.63s-17.5,27.49-17.58,27.44,7.66-12.42,17.29-27.63S509.57,147.27,509.65,147.32Z" transform="translate(-145.63 -80.92)"/><line class="cls-18" x1="331.47" y1="123.31" x2="366.34" y2="68.24"/><path class="cls-18" d="M512,149.15c.08,0-7.67,12.42-17.29,27.63s-17.51,27.49-17.59,27.44,7.66-12.42,17.29-27.63S511.88,149.1,512,149.15Z" transform="translate(-145.63 -80.92)"/><line class="cls-18" x1="334.1" y1="124.94" x2="368.98" y2="69.87"/><path class="cls-18" d="M514.6,150.78c.08.05-7.66,12.42-17.29,27.63s-17.5,27.49-17.58,27.44,7.66-12.42,17.29-27.63S514.52,150.73,514.6,150.78Z" transform="translate(-145.63 -80.92)"/><line class="cls-18" x1="336.74" y1="126.56" x2="371.61" y2="71.5"/><path class="cls-18" d="M517.24,152.41c.08.05-7.66,12.42-17.29,27.63s-17.51,27.49-17.59,27.44,7.66-12.42,17.3-27.63S517.16,152.36,517.24,152.41Z" transform="translate(-145.63 -80.92)"/><line class="cls-18" x1="339.37" y1="128.19" x2="374.25" y2="73.12"/><path class="cls-18" d="M519.87,154c.08.05-7.66,12.42-17.29,27.63s-17.5,27.49-17.58,27.44,7.66-12.42,17.29-27.63S519.79,154,519.87,154Z" transform="translate(-145.63 -80.92)"/><path class="cls-18" d="M454.51,150.12a2,2,0,0,1,.42.18c.29.13.66.37,1.15.65,1,.58,2.39,1.44,4.11,2.53,3.45,2.18,8.18,5.23,13.38,8.64s9.89,6.53,13.28,8.8l4,2.7,1.07.75a3.58,3.58,0,0,1,.37.28,1.62,1.62,0,0,1-.4-.22l-1.12-.7-4-2.61-13.34-8.71-13.32-8.72L456,151.06c-.48-.3-.85-.56-1.11-.69A3.3,3.3,0,0,1,454.51,150.12Z" transform="translate(-145.63 -80.92)"/><path class="cls-18" d="M472.16,122.48c.08,0-7.74,12.4-17.46,27.58S437,177.51,437,177.46s7.74-12.4,17.46-27.59S472.08,122.43,472.16,122.48Z" transform="translate(-145.63 -80.92)"/><path class="cls-18" d="M484.25,162.93a1,1,0,0,1,0-.49,2.07,2.07,0,0,1,.64-1.19,2,2,0,0,1,1.95-.49,2.12,2.12,0,0,1,.36,4,2,2,0,0,1-2-.12,2.05,2.05,0,0,1-.85-1.05c-.11-.31-.09-.49-.07-.49s.06.17.19.44a2.19,2.19,0,0,0,.85.89,1.79,1.79,0,0,0,1.73.05,2,2,0,0,0,1-1.81,1.93,1.93,0,0,0-1.34-1.58,1.72,1.72,0,0,0-1.68.36,2.1,2.1,0,0,0-.68,1A3.54,3.54,0,0,1,484.25,162.93Z" transform="translate(-145.63 -80.92)"/><path class="cls-18" d="M468.68,152.53a.89.89,0,0,1,0-.5,2,2,0,0,1,.64-1.18,2,2,0,0,1,1.94-.49,2.23,2.23,0,0,1,1.59,1.86,2.25,2.25,0,0,1-1.22,2.12,2,2,0,0,1-2-.12,2.08,2.08,0,0,1-.86-1.05c-.1-.31-.08-.49-.06-.49s.05.17.19.44a2.12,2.12,0,0,0,.85.89,1.79,1.79,0,0,0,1.73.05,1.82,1.82,0,0,0-.32-3.4,1.74,1.74,0,0,0-1.68.37,2.1,2.1,0,0,0-.68,1A3.54,3.54,0,0,1,468.68,152.53Z" transform="translate(-145.63 -80.92)"/><path class="cls-18" d="M438.7,145.29a.84.84,0,0,1,0-.5,2.15,2.15,0,0,1,.65-1.19,2,2,0,0,1,1.94-.48,2.13,2.13,0,0,1,.37,4,2,2,0,0,1-2-.12,2.05,2.05,0,0,1-.85-1c-.11-.31-.09-.49-.07-.49s.06.16.19.43a2.11,2.11,0,0,0,.86.9,1.74,1.74,0,0,0,1.72,0,1.93,1.93,0,0,0,1-1.8,2,2,0,0,0-1.34-1.59,1.74,1.74,0,0,0-1.68.37,2.17,2.17,0,0,0-.68,1C438.72,145.11,438.73,145.29,438.7,145.29Z" transform="translate(-145.63 -80.92)"/><path class="cls-18" d="M425.35,142c0-.08,5.77,3.07,12.77,7s12.62,7.25,12.56,7.32-5.78-3.07-12.77-7S425.29,142.12,425.35,142Z" transform="translate(-145.63 -80.92)"/><circle class="cls-19" cx="414.92" cy="125.45" r="19.72" transform="translate(31.97 407.27) rotate(-73.63)"/><path class="cls-20" d="M434.61,126.57a1.34,1.34,0,0,1,0-.32c0-.24,0-.55,0-.94a8.5,8.5,0,0,0-.09-1.51,14.93,14.93,0,0,0-.3-2,18.69,18.69,0,0,0-1.9-5.32,19.62,19.62,0,0,0-4.67-5.81,19.28,19.28,0,0,0-8-4.09,19.65,19.65,0,0,0-10.27.27,18.58,18.58,0,0,0-5.07,2.38,20,20,0,0,0-2.31,1.75,21.71,21.71,0,0,0-2,2.14,19.4,19.4,0,0,0-1.31,23,18.16,18.16,0,0,0,3.87,4.36,18.53,18.53,0,0,0,4.77,2.93,19.56,19.56,0,0,0,23.88-7,18.88,18.88,0,0,0,2.49-5.08,14.46,14.46,0,0,0,.54-2,9.57,9.57,0,0,0,.26-1.49c.05-.39.1-.69.13-.93a1.43,1.43,0,0,1,.06-.32,1.93,1.93,0,0,1,0,.32c0,.24,0,.55-.07.94a9.29,9.29,0,0,1-.22,1.51,14.47,14.47,0,0,1-.49,2,18.85,18.85,0,0,1-2.45,5.17,19.89,19.89,0,0,1-13.89,8.66,20,20,0,0,1-10.42-1.43,18.69,18.69,0,0,1-4.89-3,18.34,18.34,0,0,1-4-4.47,19.26,19.26,0,0,1-2.54-5.65,21.09,21.09,0,0,1-.67-6.36,20,20,0,0,1,4.56-11.56,21.79,21.79,0,0,1,2.09-2.2,22.31,22.31,0,0,1,2.37-1.79,18.48,18.48,0,0,1,5.21-2.41,19.86,19.86,0,0,1,23.33,9.94,18.86,18.86,0,0,1,1.84,5.42,14.72,14.72,0,0,1,.26,2.08,10.2,10.2,0,0,1,0,1.52c0,.39,0,.7,0,.94A1.25,1.25,0,0,1,434.61,126.57Z" transform="translate(-145.63 -80.92)"/><path class="cls-10" d="M358.71,88.82l.13-.2a2.88,2.88,0,0,1,.45-.52,7.66,7.66,0,0,1,2.3-1.41,31.5,31.5,0,0,1,10.26-1.78,97.64,97.64,0,0,1,16.59.89,152,152,0,0,1,21.69,4.44c4,1.12,8.08,2.47,12.31,4s8.59,3.36,13,5.5a138.39,138.39,0,0,1,13.23,7.38l13.58,8.69L523.39,155l.22.14-.14.21L505.7,183.1c-6.09,9.5-12.08,18.82-17.78,27.72l-.14.21-.22-.14-61.14-39.26-13.57-8.71-6.47-4.16c-2.11-1.42-4.05-3-5.94-4.51a143.41,143.41,0,0,1-19.1-19.11,174.79,174.79,0,0,1-12.77-18.09,111.34,111.34,0,0,1-7.75-14.69,32.19,32.19,0,0,1-2.81-10,7.37,7.37,0,0,1,.29-2.69,2.71,2.71,0,0,1,.29-.63,1.25,1.25,0,0,1,.12-.19,5.18,5.18,0,0,0-.36.84,7.44,7.44,0,0,0-.24,2.66,32.62,32.62,0,0,0,2.88,10,111.67,111.67,0,0,0,7.81,14.63,174.44,174.44,0,0,0,12.8,18,143.53,143.53,0,0,0,19.09,19c1.89,1.53,3.84,3.07,5.92,4.47l6.48,4.15,13.58,8.69,61.17,39.21-.36.08,17.78-27.72L523,155.12l.07.35L462,116.22l-13.56-8.71a136.53,136.53,0,0,0-13.18-7.38c-4.37-2.14-8.71-3.94-12.93-5.51S414,91.7,410,90.56a154.65,154.65,0,0,0-21.64-4.49,98.19,98.19,0,0,0-16.54-1,32,32,0,0,0-10.23,1.69,7.74,7.74,0,0,0-2.31,1.36A4.6,4.6,0,0,0,358.71,88.82Z" transform="translate(-145.63 -80.92)"/><path class="cls-3" d="M439.46,315.18H265.79a20.53,20.53,0,0,1-20.53-20.53h0a20.53,20.53,0,0,1,20.53-20.54H439.46A20.53,20.53,0,0,1,460,294.65h0A20.53,20.53,0,0,1,439.46,315.18Z" transform="translate(-145.63 -80.92)"/><path class="cls-10" d="M439.46,315.18l1.22-.09a12.51,12.51,0,0,0,1.51-.15,15.25,15.25,0,0,0,2.05-.4l1.21-.32c.42-.13.85-.31,1.31-.47l.7-.27.71-.34a13.87,13.87,0,0,0,1.47-.77,20.13,20.13,0,0,0,5.95-5.22,16.48,16.48,0,0,0,1.31-1.91,16.78,16.78,0,0,0,1.13-2.15,24,24,0,0,0,.93-2.38c.1-.42.21-.85.32-1.28l.17-.65.1-.67.21-1.37c0-.46,0-.93.07-1.41l0-.71,0-.73c0-.48,0-1-.09-1.46a21.69,21.69,0,0,0-1.58-5.92,20.79,20.79,0,0,0-9.07-9.81,19.78,19.78,0,0,0-7-2.23,78.19,78.19,0,0,0-7.86-.17l-168.39.07A20.13,20.13,0,0,0,250,281.93a21,21,0,0,0-3,5.1,21.47,21.47,0,0,0-1.4,5.72,22,22,0,0,0,.3,5.84,21.25,21.25,0,0,0,1.93,5.46,20.71,20.71,0,0,0,3.36,4.66,20.28,20.28,0,0,0,9.73,5.61,25.74,25.74,0,0,0,2.76.5c.94,0,1.86.13,2.81.11H294l75.71.05,51,.09,13.88.05,3.61,0,1.23,0-1.23,0-3.61,0-13.88,0-51,.08-75.71.06H266.5c-.94,0-1.9-.07-2.86-.11a22.71,22.71,0,0,1-2.83-.52,20.63,20.63,0,0,1-10-5.74,21.24,21.24,0,0,1-3.46-4.77,22,22,0,0,1-2-5.6,22.67,22.67,0,0,1-.3-6,20.81,20.81,0,0,1,4.51-11.1,22.82,22.82,0,0,1,4.5-4.16,20.78,20.78,0,0,1,11.69-3.59l168.39.08c2.7,0,5.32-.1,7.9.19a20.68,20.68,0,0,1,7.15,2.28,21,21,0,0,1,9.17,10,22,22,0,0,1,1.59,6c.05.5.06,1,.08,1.48l0,.74,0,.72c0,.48-.06,1-.08,1.43l-.21,1.38-.11.68-.17.66c-.11.43-.23.86-.34,1.29a23.48,23.48,0,0,1-.94,2.4,17.17,17.17,0,0,1-1.16,2.17,15.85,15.85,0,0,1-1.32,1.92,20.24,20.24,0,0,1-6,5.23,12.45,12.45,0,0,1-1.49.77l-.71.34-.71.26-1.32.47-1.23.31a18.6,18.6,0,0,1-2.06.37,10.26,10.26,0,0,1-1.51.12C439.87,315.18,439.46,315.18,439.46,315.18Z" transform="translate(-145.63 -80.92)"/><circle class="cls-3" cx="431.58" cy="293.52" r="9.14" transform="translate(-226.77 310.23) rotate(-45)"/><path class="cls-10" d="M431.58,303.16a9.64,9.64,0,1,1,9.64-9.64A9.65,9.65,0,0,1,431.58,303.16Zm0-18.28a8.64,8.64,0,1,0,8.64,8.64A8.66,8.66,0,0,0,431.58,284.88Z" transform="translate(-145.63 -80.92)"/><rect class="cls-10" x="442.31" y="296.79" width="1" height="9.15" transform="translate(-194.04 433.97) rotate(-57.73)"/><path class="cls-10" d="M274.1,298l.75-1.67a5.66,5.66,0,0,0,3.17,1c1.32,0,1.85-.44,1.85-1,0-1.79-5.58-.56-5.58-4.12,0-1.63,1.32-3,4-3a6.44,6.44,0,0,1,3.33.85L281,291.7a5.4,5.4,0,0,0-2.66-.76c-1.31,0-1.82.5-1.82,1.1,0,1.77,5.58.55,5.58,4.07,0,1.6-1.33,3-4.07,3A6.84,6.84,0,0,1,274.1,298Z" transform="translate(-145.63 -80.92)"/><path class="cls-10" d="M290.62,295.83h-5.57a2,2,0,0,0,2.11,1.48,2.5,2.5,0,0,0,1.85-.71l1.13,1.24a3.85,3.85,0,0,1-3,1.19c-2.55,0-4.21-1.61-4.21-3.8a3.76,3.76,0,0,1,3.94-3.79,3.64,3.64,0,0,1,3.83,3.82A5.66,5.66,0,0,1,290.62,295.83Zm-5.6-1.24h3.63a1.84,1.84,0,0,0-3.63,0Z" transform="translate(-145.63 -80.92)"/><path class="cls-10" d="M298.4,294.71v4.21h-2V298a2.42,2.42,0,0,1-2.25,1c-1.72,0-2.75-1-2.75-2.24s.92-2.2,3.17-2.2h1.69c0-.92-.54-1.45-1.69-1.45a3.58,3.58,0,0,0-2.13.68l-.77-1.49a5.63,5.63,0,0,1,3.18-.89C297.1,291.44,298.4,292.48,298.4,294.71Zm-2.14,1.88v-.76H294.8c-1,0-1.32.37-1.32.87s.45.89,1.21.89A1.57,1.57,0,0,0,296.26,296.59Z" transform="translate(-145.63 -80.92)"/><path class="cls-10" d="M304.91,291.44v2l-.48,0a1.82,1.82,0,0,0-2,2.06v3.48h-2.14v-7.37h2v1A3,3,0,0,1,304.91,291.44Z" transform="translate(-145.63 -80.92)"/><path class="cls-10" d="M305.56,295.23a3.81,3.81,0,0,1,4.11-3.79,3.41,3.41,0,0,1,3.31,1.87l-1.66.89a1.84,1.84,0,0,0-1.66-1,2,2,0,0,0,0,4.08,1.82,1.82,0,0,0,1.66-1l1.66.9a3.44,3.44,0,0,1-3.31,1.87A3.82,3.82,0,0,1,305.56,295.23Z" transform="translate(-145.63 -80.92)"/><path class="cls-10" d="M321.69,294.7v4.22h-2.14V295c0-1.2-.55-1.74-1.49-1.74s-1.77.63-1.77,2v3.65h-2.14V288.75h2.14v3.56a3.25,3.25,0,0,1,2.34-.87C320.37,291.44,321.69,292.45,321.69,294.7Z" transform="translate(-145.63 -80.92)"/><path class="cls-10" d="M323.09,297.68a1.33,1.33,0,0,1,2.66,0,1.33,1.33,0,1,1-2.66,0Z" transform="translate(-145.63 -80.92)"/><path class="cls-10" d="M326.68,297.68a1.33,1.33,0,0,1,2.66,0,1.33,1.33,0,1,1-2.66,0Z" transform="translate(-145.63 -80.92)"/><path class="cls-10" d="M330.27,297.68a1.33,1.33,0,0,1,2.66,0,1.33,1.33,0,1,1-2.66,0Z" transform="translate(-145.63 -80.92)"/><path class="cls-21" d="M209.52,151.17l-32.24-17a4.55,4.55,0,0,1-1.9-6.16l23.56-44.63a4.58,4.58,0,0,1,6.17-1.91l20.45,10.8,7.21,24.68-17.08,32.34A4.58,4.58,0,0,1,209.52,151.17Z" transform="translate(-145.63 -80.92)"/><g class="cls-8"><path class="cls-21" d="M225.56,92.24l-6.64,12.56a4.26,4.26,0,0,0,1.77,5.74l12.08,6.38Z" transform="translate(-145.63 -80.92)"/></g><g class="cls-22"><path class="cls-21" d="M218.51,106a4.72,4.72,0,0,0,1.17,5.8l.35.3c1.42,1.11,10.83,8.44,11,8.2s1.78-3.37,1.78-3.37l-12.08-6.38S217.73,108.84,218.51,106Z" transform="translate(-145.63 -80.92)"/></g><path class="cls-3" d="M215.3,104.78c-.08.16-3.49-1.47-7.61-3.65s-7.39-4.07-7.31-4.23,3.5,1.47,7.62,3.65S215.39,104.62,215.3,104.78Z" transform="translate(-145.63 -80.92)"/><path class="cls-3" d="M221.19,117c-.09.16-5.66-2.61-12.43-6.19s-12.21-6.62-12.13-6.78,5.65,2.61,12.43,6.19S221.27,116.8,221.19,117Z" transform="translate(-145.63 -80.92)"/><path class="cls-3" d="M220.26,124.06c-.08.17-6.14-2.87-13.53-6.77s-13.31-7.2-13.23-7.36,6.15,2.87,13.54,6.78S220.35,123.9,220.26,124.06Z" transform="translate(-145.63 -80.92)"/><path class="cls-3" d="M217.31,129.66c-.08.16-6.15-2.87-13.53-6.77s-13.32-7.2-13.23-7.36,6.14,2.87,13.53,6.77S217.4,129.5,217.31,129.66Z" transform="translate(-145.63 -80.92)"/><path class="cls-3" d="M214.36,135.25c-.09.16-6.15-2.87-13.54-6.77s-13.31-7.2-13.23-7.36,6.15,2.87,13.54,6.78S214.44,135.09,214.36,135.25Z" transform="translate(-145.63 -80.92)"/><path class="cls-3" d="M211.4,140.85c-.08.16-6.14-2.87-13.53-6.78s-13.32-7.19-13.23-7.35,6.14,2.87,13.54,6.77S211.49,140.69,211.4,140.85Z" transform="translate(-145.63 -80.92)"/><path class="cls-23" d="M367.25,488.63a5.21,5.21,0,0,1-4.41-5.89L369.27,438a4.32,4.32,0,0,1,5-3.49l4.2.6a4.46,4.46,0,0,0,4.34-1.82l1.17-1.7a4.46,4.46,0,0,1,4.34-1.82l20,2.87a4.5,4.5,0,0,1,3.5,2.57l.76,1.69a4.5,4.5,0,0,0,3.5,2.57l25.45,3.66a4.31,4.31,0,0,1,3.8,4.76l-6.57,45.74a5.21,5.21,0,0,1-5.89,4.41Z" transform="translate(-145.63 -80.92)"/><g class="cls-8"><path class="cls-23" d="M367.25,488.63a5.21,5.21,0,0,1-4.41-5.89L369.27,438a4.32,4.32,0,0,1,5-3.49l4.2.6a4.46,4.46,0,0,0,4.34-1.82l1.17-1.7a4.46,4.46,0,0,1,4.34-1.82l20,2.87a4.5,4.5,0,0,1,3.5,2.57l.76,1.69a4.5,4.5,0,0,0,3.5,2.57l25.45,3.66a4.31,4.31,0,0,1,3.8,4.76l-6.57,45.74a5.21,5.21,0,0,1-5.89,4.41Z" transform="translate(-145.63 -80.92)"/></g><path class="cls-24" d="M413.53,439.13l-16.19-2.36-1.06-2.91a5.63,5.63,0,0,0-4.53-3.58L375.92,428a5,5,0,0,0-5.79,4l-.26,1.84-7,48.57a5.68,5.68,0,0,0,5,6.26L432.18,498a5.68,5.68,0,0,0,6.58-4.6l6.59-45.88a3.74,3.74,0,0,0-3.17-4.24Z" transform="translate(-145.63 -80.92)"/><rect class="cls-3" x="386.88" y="456.27" width="38.65" height="16.26" transform="matrix(0.99, 0.14, -0.14, 0.99, -75.39, -134)"/><path class="cls-25" d="M419.58,465.36c0,.14-5.92-.59-13.18-1.64s-13.12-2-13.1-2.14,5.92.58,13.18,1.63S419.61,465.21,419.58,465.36Z" transform="translate(-145.63 -80.92)"/><path class="cls-26" d="M419.09,468.78c0,.15-5.92-.58-13.18-1.63s-13.13-2-13.11-2.15,5.93.59,13.19,1.64S419.11,468.64,419.09,468.78Z" transform="translate(-145.63 -80.92)"/><path class="cls-21" d="M483.34,468.75a3.42,3.42,0,0,1-4.41-2l-10.6-27.7a2.83,2.83,0,0,1,1.75-3.6l2.6-1a2.93,2.93,0,0,0,1.91-2.43l.12-1.35a3,3,0,0,1,1.91-2.43L489,423.54a3,3,0,0,1,2.82.36l1,.73a3,3,0,0,0,2.82.35l15.77-6a2.83,2.83,0,0,1,3.7,1.51l10.84,28.33a3.41,3.41,0,0,1-2,4.41Z" transform="translate(-145.63 -80.92)"/><g class="cls-8"><path class="cls-21" d="M483.34,468.75a3.42,3.42,0,0,1-4.41-2l-10.6-27.7a2.83,2.83,0,0,1,1.75-3.6l2.6-1a2.93,2.93,0,0,0,1.91-2.43l.12-1.35a3,3,0,0,1,1.91-2.43L489,423.54a3,3,0,0,1,2.82.36l1,.73a3,3,0,0,0,2.82.35l15.77-6a2.83,2.83,0,0,1,3.7,1.51l10.84,28.33a3.41,3.41,0,0,1-2,4.41Z" transform="translate(-145.63 -80.92)"/></g><path class="cls-21" d="M494.06,425.58l-10,3.81-1.53-1.33a3.74,3.74,0,0,0-3.75-.6l-9.8,3.75a3.3,3.3,0,0,0-2,4.17l.44,1.14,11.52,30.08a3.72,3.72,0,0,0,4.87,2l39.82-15.24a3.73,3.73,0,0,0,2.3-4.73L515,420.2a2.46,2.46,0,0,0-3.17-1.42Z" transform="translate(-145.63 -80.92)"/><rect class="cls-3" x="485.25" y="437.07" width="25.37" height="10.67" transform="translate(-270.88 126.33) rotate(-20.95)"/><path class="cls-21" d="M505.91,438.68a143.7,143.7,0,0,1-16.28,6.23,73.77,73.77,0,0,1,8.05-3.36A71.42,71.42,0,0,1,505.91,438.68Z" transform="translate(-145.63 -80.92)"/><path class="cls-21" d="M506.73,440.8a72.49,72.49,0,0,1-8.05,3.36,71.17,71.17,0,0,1-8.24,2.87,77.34,77.34,0,0,1,8.05-3.36A73.53,73.53,0,0,1,506.73,440.8Z" transform="translate(-145.63 -80.92)"/></svg>