<svg id="Capa_1" data-name="Capa 1" xmlns="http://www.w3.org/2000/svg" viewBox="0 0 686.63 573.5"><defs><style>.cls-1{fill:#606060;}.cls-2{fill:#f24f18;}.cls-3{fill:#fff;}.cls-4{fill:#b7b7b7;}.cls-5{fill:#e6e6e6;}.cls-6{fill:#6c63ff;}.cls-7{fill:#ffbb21;}</style></defs><title>diseño web2</title><path class="cls-1" d="M479.53,437.88c-93.83,0-170.16-76.33-170.16-170.16S385.7,97.56,479.53,97.56a172.62,172.62,0,0,1,29.59,2.56.94.94,0,0,1-.32,1.86h0a169.79,169.79,0,0,0-29.26-2.54c-92.79,0-168.28,75.49-168.28,168.28S386.74,436,479.53,436s168.28-75.49,168.28-168.28a167.86,167.86,0,0,0-43.9-113.35.94.94,0,1,1,1.39-1.26,169.74,169.74,0,0,1,44.39,114.61C649.69,361.55,573.35,437.88,479.53,437.88Z" transform="translate(-32.39 -17.1)"/><circle class="cls-2" cx="522.16" cy="105.15" r="33.67"/><path class="cls-3" d="M550,139.77a3.72,3.72,0,0,1-3-1.49L537.78,126a3.74,3.74,0,0,1,6-4.49l6,8,15.43-23.15a3.75,3.75,0,0,1,6.24,4.15l-18.37,27.56a3.75,3.75,0,0,1-3,1.66Z" transform="translate(-32.39 -17.1)"/><path d="M475.15,241.31,423.23,96.88l1.32-.47L415,69.85l-1.32.47L397.74,26A13.39,13.39,0,0,0,380.6,17.9h0L286.74,51.63a13.4,13.4,0,0,0-8.07,17.15h0L289.78,99.7l-2.08.8,7.09,18.42,1.67-.64,1.47,4.1-1.77.68,7.1,18.42,1.35-.52,51.46,143.16a13.38,13.38,0,0,0,17.1,8.09h.05l93.85-33.74A13.42,13.42,0,0,0,475.15,241.31Z" transform="translate(-32.39 -17.1)"/><path class="cls-4" d="M368.28,287.44a6.44,6.44,0,0,1-6-4.26L284,65.57a6.41,6.41,0,0,1,3.87-8.21l20-7.18,0,.7a7.4,7.4,0,0,0,7.08,7.7,7.31,7.31,0,0,0,2.82-.43l44.32-15.93a7.47,7.47,0,0,0,4.21-5.29,7.36,7.36,0,0,0-1.74-6.43l-.47-.52,20.62-7.41a6.42,6.42,0,0,1,8.22,3.87l74.63,207.62a17.06,17.06,0,0,1-10.27,21.8l-86.79,31.19A6.51,6.51,0,0,1,368.28,287.44Z" transform="translate(-32.39 -17.1)"/><circle class="cls-2" cx="328.24" cy="90.6" r="25.38"/><path class="cls-5" d="M423.53,144.62l-87.9,31.59a2.22,2.22,0,1,1-1.51-4.17h0l87.9-31.6a2.22,2.22,0,0,1,1.5,4.18Z" transform="translate(-32.39 -17.1)"/><path class="cls-5" d="M397.43,164.65,368.51,175a2.22,2.22,0,0,1-1.51-4.17h0l28.92-10.4a2.22,2.22,0,0,1,1.5,4.18Z" transform="translate(-32.39 -17.1)"/><path class="cls-5" d="M404.3,183.78l-28.91,10.4a2.22,2.22,0,0,1-1.51-4.18h0l28.91-10.4a2.22,2.22,0,0,1,1.5,4.18Z" transform="translate(-32.39 -17.1)"/><path class="cls-5" d="M407.83,193.58,378.91,204a2.22,2.22,0,0,1-1.51-4.18h0l28.92-10.4a2.22,2.22,0,0,1,1.51,4.18Z" transform="translate(-32.39 -17.1)"/><path class="cls-5" d="M417,168.25l-61.34,22.06a2.22,2.22,0,0,1-1.51-4.18h0l61.34-22a2.22,2.22,0,0,1,1.51,4.17Z" transform="translate(-32.39 -17.1)"/><path class="cls-6" d="M404.68,217.37l-10.5,3.77a3.77,3.77,0,0,1-2.56-7.1l10.5-3.78a3.78,3.78,0,0,1,2.56,7.11Z" transform="translate(-32.39 -17.1)"/><path d="M716.62,330.25,689.41,376l1,.55-9.22,17.47-1.92-1-6,10.18,1.5.87-9.87,17.09-1.71-1-88.77,149.4a17.16,17.16,0,0,1-23.52,6l-165-98.06a17.18,17.18,0,0,1-6-23.52L522.07,214.66a17.17,17.17,0,0,1,23.52-6l165,98.06A17.18,17.18,0,0,1,716.62,330.25Z" transform="translate(-32.39 -17.1)"/><path class="cls-4" d="M556.77,566.33l-165.62-98.4a5.31,5.31,0,0,1-1.85-7.25L532.46,219.75a5.29,5.29,0,0,1,7.25-1.84l165.62,98.4a5.29,5.29,0,0,1,1.84,7.25L564,564.49A5.29,5.29,0,0,1,556.77,566.33Z" transform="translate(-32.39 -17.1)"/><path class="cls-5" d="M615.76,435.89,477.51,353.74a3.82,3.82,0,0,1,3.88-6.59l0,0,138.25,82.14a3.83,3.83,0,1,1-3.89,6.59Z" transform="translate(-32.39 -17.1)"/><path class="cls-5" d="M560.56,423.16l-45.47-27a3.82,3.82,0,1,1,3.9-6.58h0l45.48,27a3.83,3.83,0,0,1-3.91,6.58Z" transform="translate(-32.39 -17.1)"/><path class="cls-5" d="M542.68,453.25l-45.47-27a3.82,3.82,0,0,1,3.9-6.58l45.48,27a3.82,3.82,0,0,1-3.9,6.58Z" transform="translate(-32.39 -17.1)"/><path class="cls-5" d="M533.53,468.66l-45.48-27a3.82,3.82,0,1,1,3.91-6.57h0l45.47,27a3.82,3.82,0,0,1-3.88,6.58Z" transform="translate(-32.39 -17.1)"/><path class="cls-5" d="M577.25,453.14l-96.48-57.32a3.83,3.83,0,0,1,3.91-6.58l96.48,57.33a3.83,3.83,0,1,1-3.89,6.59Z" transform="translate(-32.39 -17.1)"/><path class="cls-7" d="M558.86,526.41l-16.51-9.81A6.5,6.5,0,0,1,549,505.42l16.51,9.81a6.5,6.5,0,0,1-6.64,11.18Z" transform="translate(-32.39 -17.1)"/><circle class="cls-2" cx="557.28" cy="316.17" r="33.84"/><path class="cls-1" d="M32.9,474.56h458V209.41a7.52,7.52,0,0,0-7.5-7.5H40.4a7.52,7.52,0,0,0-7.5,7.5Z" transform="translate(-32.39 -17.1)"/><rect class="cls-4" x="12.78" y="197.99" width="429.7" height="243.95"/><path d="M32.39,474.64v32.73a10.33,10.33,0,0,0,10.33,10.32H211.77v64.58h-2.25a1.34,1.34,0,0,0-1.34,1.34h0v4.49a1.34,1.34,0,0,0,1.34,1.34H314.46a1.34,1.34,0,0,0,1.34-1.34h0v-4.49a1.34,1.34,0,0,0-1.34-1.34h-2.24V517.69h169a10.32,10.32,0,0,0,10.33-10.32h0V474.64Z" transform="translate(-32.39 -17.1)"/><path class="cls-5" d="M416.46,290.1H213a4.84,4.84,0,1,1,0-9.67H416.46a4.84,4.84,0,0,1,0,9.67Z" transform="translate(-32.39 -17.1)"/><path class="cls-5" d="M348.18,311.94H281.24a4.84,4.84,0,0,1,0-9.68h66.94a4.84,4.84,0,0,1,0,9.68Z" transform="translate(-32.39 -17.1)"/><path class="cls-5" d="M348.18,356.23H281.24a4.84,4.84,0,0,1,0-9.68h66.94a4.84,4.84,0,0,1,0,9.68Z" transform="translate(-32.39 -17.1)"/><path class="cls-5" d="M348.18,378.91H281.24a4.84,4.84,0,0,1,0-9.67h67a4.84,4.84,0,1,1,0,9.67Z" transform="translate(-32.39 -17.1)"/><path class="cls-5" d="M385.72,333.77h-142a4.84,4.84,0,1,1,0-9.67h142a4.84,4.84,0,0,1,0,9.67Z" transform="translate(-32.39 -17.1)"/><path class="cls-7" d="M413.07,425.36h-24.3a8.23,8.23,0,1,1,0-16.45h24.3a8.23,8.23,0,0,1,0,16.45Z" transform="translate(-32.39 -17.1)"/><circle class="cls-2" cx="116.59" cy="306.25" r="42.3"/><path d="M648,590.6H39.47a1.12,1.12,0,0,1,0-2.23H648a1.12,1.12,0,0,1,0,2.23Z" transform="translate(-32.39 -17.1)"/><circle class="cls-3" cx="231.19" cy="184.64" r="1.59"/></svg>