<svg xmlns="http://www.w3.org/2000/svg" xmlns:xlink="http://www.w3.org/1999/xlink" viewBox="0 0 899 900"><defs><style>.cls-1{fill:#ea7353;opacity:0.5;}.cls-2{fill:#f24f18;}.cls-10,.cls-3,.cls-7{fill:#ffbb21;}.cls-3{opacity:0.96;}.cls-4,.cls-6{opacity:0.4;}.cls-5,.cls-6{fill:#606060;}.cls-8{fill:url(#linear-gradient);}.cls-9{fill:#fff;}.cls-10,.cls-9{opacity:0.78;}.cls-11{fill:url(#linear-gradient-2);}.cls-12{fill:url(#linear-gradient-3);}.cls-13{fill:url(#linear-gradient-4);}.cls-14{fill:url(#linear-gradient-5);}.cls-15{fill:#dbb9af;}.cls-16{fill:#91b3fa;}.cls-17{fill:#fdfeff;}.cls-18{fill:#b7b7b7;}.cls-19{fill:url(#linear-gradient-6);}.cls-20{fill:url(#linear-gradient-7);}.cls-21{fill:#d38d00;}.cls-22{fill:url(#linear-gradient-8);}.cls-23{fill:url(#linear-gradient-9);}.cls-24{fill:url(#linear-gradient-10);}.cls-25{fill:url(#linear-gradient-11);}.cls-26{fill:url(#linear-gradient-12);}.cls-27{fill:url(#linear-gradient-13);}.cls-28{fill:url(#linear-gradient-14);}.cls-29{fill:url(#linear-gradient-15);}</style><linearGradient id="linear-gradient" x1="662.22" y1="722.38" x2="795.61" y2="567.55" gradientUnits="userSpaceOnUse"><stop offset="0" stop-color="#e1473d"/><stop offset="1" stop-color="#e9605a"/></linearGradient><linearGradient id="linear-gradient-2" x1="451.24" y1="766.47" x2="584.63" y2="611.65" xlink:href="#linear-gradient"/><linearGradient id="linear-gradient-3" x1="1528.99" y1="2192.84" x2="1535.02" y2="2192.84" xlink:href="#linear-gradient"/><linearGradient id="linear-gradient-4" x1="1476.48" y1="1905.32" x2="1843.66" y2="1905.32" xlink:href="#linear-gradient"/><linearGradient id="linear-gradient-5" x1="1849.25" y1="1627.43" x2="1856.77" y2="1627.43" xlink:href="#linear-gradient"/><linearGradient id="linear-gradient-6" x1="1776.8" y1="2261.7" x2="1792.28" y2="2261.7" gradientUnits="userSpaceOnUse"><stop offset="0" stop-color="#febbba"/><stop offset="1" stop-color="#ff928e"/></linearGradient><linearGradient id="linear-gradient-7" x1="1721" y1="2260.91" x2="1734.37" y2="2260.91" xlink:href="#linear-gradient-6"/><linearGradient id="linear-gradient-8" x1="1840.5" y1="1857.45" x2="1919.59" y2="1857.45" gradientUnits="userSpaceOnUse"><stop offset="0" stop-color="#ff928e"/><stop offset="1" stop-color="#feb3b1"/></linearGradient><linearGradient id="linear-gradient-9" x1="8545.82" y1="1844.18" x2="8598.94" y2="1965.02" gradientTransform="matrix(-1, 0, 0, 1, 10447.78, 0)" xlink:href="#linear-gradient-6"/><linearGradient id="linear-gradient-10" x1="1919.21" y1="1803.94" x2="1941.37" y2="1769.86" xlink:href="#linear-gradient-6"/><linearGradient id="linear-gradient-11" x1="1667.44" y1="1969.58" x2="1767.52" y2="1969.58" xlink:href="#linear-gradient-6"/><linearGradient id="linear-gradient-12" x1="1760.09" y1="1959.08" x2="1791.27" y2="1959.08" xlink:href="#linear-gradient-6"/><linearGradient id="linear-gradient-13" x1="1744.29" y1="1870.65" x2="1775.48" y2="1870.65" xlink:href="#linear-gradient-6"/><linearGradient id="linear-gradient-14" x1="2271.64" y1="1971.33" x2="2210.28" y2="1967.16" gradientTransform="matrix(-0.95, -0.44, -0.59, 0.88, 5036.86, 1077.55)" xlink:href="#linear-gradient-8"/><linearGradient id="linear-gradient-15" x1="3761.33" y1="5049.13" x2="3801.58" y2="5007.84" gradientTransform="matrix(1.08, -0.34, 0.29, 0.92, -3795.26, -1512.21)" xlink:href="#linear-gradient-8"/></defs><title>C</title><g id="Illustration"><path class="cls-1" d="M2194.54,2163.28c-18.33,19.31-35.67,31.77-49.37,41.61-161,115.66-351.6,81.94-392.1,73.71-59.81-12.16-175.41-35.66-259-134-126.45-148.83-106.76-383.32-8.68-538.11,17.94-28.31,112.71-185.46,305.32-210.66,116.56-15.25,252.44,15.51,350.84,98C2348.12,1667,2333.42,2016.94,2194.54,2163.28Z" transform="translate(-1405.5 -1392.02)"/><path class="cls-2" d="M1419.25,1600.17a1.41,1.41,0,0,1-.91-1.21c-.14-1.83-.24-3.69-.3-5.54a1.35,1.35,0,0,1,1.35-1.39c1.87,0,1.36,1.82,1.73,6.77a1.35,1.35,0,0,1-1.29,1.45A1.41,1.41,0,0,1,1419.25,1600.17Z" transform="translate(-1405.5 -1392.02)"/><path class="cls-2" d="M1418.59,1576.17c.35-3.51.83-7.05,1.46-10.52a1.37,1.37,0,0,1,1.61-1.09c2.07.4.72,1.57-.29,11.91a1.36,1.36,0,0,1-1.52,1.21A1.4,1.4,0,0,1,1418.59,1576.17Zm5.57-27.25c1.06-3.38,2.28-6.77,3.58-10a1.4,1.4,0,0,1,2.59,1c-1.29,3.2-2.46,6.47-3.5,9.78a1.4,1.4,0,0,1-2.67-.85Zm11-25.49c1.73-3.07,3.6-6.1,5.58-9a1.4,1.4,0,0,1,2.33,1.55c-1.93,2.86-3.77,5.83-5.47,8.84A1.4,1.4,0,0,1,1435.21,1523.43Zm16.3-20.73a1.36,1.36,0,0,1-.15-1.94c2.34-2.64,4.82-5.22,7.36-7.68,1.31-1.26,3.28.72,2,2-2.5,2.4-4.92,4.93-7.21,7.52A1.41,1.41,0,0,1,1451.51,1502.7Zm20.17-18.88a1.35,1.35,0,0,1,.25-1.92c2.85-2.11,5.81-4.14,8.82-6a1.39,1.39,0,0,1,1.52,2.32c-2.94,1.84-5.85,3.83-8.64,5.9A1.41,1.41,0,0,1,1471.68,1483.82Zm24.47-13.7a1.35,1.35,0,0,1-.77-.7,1.34,1.34,0,0,1,.64-1.82c3.24-1.5,6.57-2.89,9.9-4.13a1.43,1.43,0,0,1,1.81.81,1.34,1.34,0,0,1-.79,1.76c-3.27,1.22-6.53,2.58-9.7,4A1.38,1.38,0,0,1,1496.15,1470.12Zm26.34-9.07a1.36,1.36,0,0,1-.87-1,1.34,1.34,0,0,1,1-1.65c3.47-.82,7-1.5,10.56-2a1.42,1.42,0,0,1,1.61,1.15,1.36,1.36,0,0,1-1.14,1.57c-3.46.53-6.94,1.2-10.35,2A1.34,1.34,0,0,1,1522.49,1461.05Zm26.83-4.81a1.35,1.35,0,0,1,1.33-1.41c3.58-.09,7.22,0,10.81.13a1.37,1.37,0,1,1-.1,2.74c-3.52-.17-7.08-.22-10.59-.13A1.4,1.4,0,0,1,1549.32,1456.24Zm89.37,29.82c-8.36-6.39-10.23-6.29-9.09-8a1.4,1.4,0,0,1,1.93-.38c3,2,6,4,8.85,6.24A1.37,1.37,0,1,1,1638.69,1486.06Zm-61.37-28a1.36,1.36,0,0,1,1.6-1.1c3.54.63,7.1,1.4,10.59,2.3a1.37,1.37,0,1,1-.67,2.65c-3.42-.88-6.91-1.64-10.37-2.25A1.41,1.41,0,0,1,1577.32,1458.06Zm37.67,13.42c-9.45-4.57-11.3-4.1-10.53-6a1.41,1.41,0,0,1,1.8-.76c3.36,1.32,6.7,2.78,9.93,4.34a1.37,1.37,0,1,1-1.2,2.46Z" transform="translate(-1405.5 -1392.02)"/><path class="cls-2" d="M1655.59,1501.35c-3.21-3.42-5.19-4.58-3.86-5.89a1.4,1.4,0,0,1,2,0c3.46,3.41,5.19,4.77,3.86,6A1.59,1.59,0,0,1,1655.59,1501.35Z" transform="translate(-1405.5 -1392.02)"/><path class="cls-2" d="M1692.9,1601.39a1.4,1.4,0,0,1-.91-1.37c.1-1.8.16-3.63.18-5.43a1.36,1.36,0,0,1,1.41-1.33,1.41,1.41,0,0,1,1.38,1.41c0,1.83-.08,3.7-.18,5.54a1.36,1.36,0,0,1-1.47,1.27A1.43,1.43,0,0,1,1692.9,1601.39Z" transform="translate(-1405.5 -1392.02)"/><path class="cls-2" d="M1504.76,1716.66c-3.59-1.47-7.16-3.1-10.61-4.86a1.38,1.38,0,0,1-.62-1.85c1-1.9,1.77-.12,12.27,4.18a1.39,1.39,0,0,1,.78,1.8A1.42,1.42,0,0,1,1504.76,1716.66Zm17,4.33c.53-2.06,1.75-.48,12.86,1.48a1.4,1.4,0,0,1,1.15,1.59,1.37,1.37,0,0,1-1.61,1.11c-3.8-.67-7.63-1.51-11.38-2.5A1.4,1.4,0,0,1,1521.72,1721Zm-43.84-18.9c-3.18-2.21-6.3-4.57-9.29-7a1.37,1.37,0,0,1-.2-1.94c1.38-1.63,1.76.27,11.08,6.73a1.36,1.36,0,0,1,.35,1.91A1.41,1.41,0,0,1,1477.88,1702.09Zm74.61,25a1.36,1.36,0,0,1,.52-2.65c3.79.15,7.62.15,11.39,0a1.42,1.42,0,0,1,1.48,1.31,1.35,1.35,0,0,1-1.31,1.43c-3.85.17-7.77.17-11.64,0A1.12,1.12,0,0,1,1552.49,1727.12Zm30-2.07a1.37,1.37,0,0,1,.21-2.63c3.71-.67,7.44-1.5,11.08-2.47a1.42,1.42,0,0,1,1.73,1,1.35,1.35,0,0,1-1,1.68c-3.71,1-7.52,1.85-11.3,2.53A1.39,1.39,0,0,1,1582.54,1725.05Zm28.77-8.51a1.41,1.41,0,0,1-.79-.75,1.36,1.36,0,0,1,.71-1.8c3.46-1.45,6.9-3.07,10.23-4.8a1.42,1.42,0,0,1,1.89.57,1.35,1.35,0,0,1-.55,1.86c-3.4,1.77-6.91,3.42-10.44,4.9A1.41,1.41,0,0,1,1611.31,1716.54Zm26.11-14.51a1.45,1.45,0,0,1-.64-.49,1.34,1.34,0,0,1,.3-1.91c3-2.16,6-4.49,8.88-6.9a1.42,1.42,0,0,1,2,.16,1.36,1.36,0,0,1-.13,1.94c-2.91,2.46-6,4.83-9.07,7A1.4,1.4,0,0,1,1637.42,1702Zm21.75-20.08c-1.64-1.42.29-1.7,7-10.61a1.4,1.4,0,0,1,2.26,1.65c-2.28,3-4.72,6-7.25,8.85A1.4,1.4,0,0,1,1659.17,1682Zm17.39-24c-1.91-1-.11-1.72,4.39-11.89a1.4,1.4,0,0,1,2.56,1.12c-1.53,3.47-3.24,6.92-5.06,10.23A1.4,1.4,0,0,1,1676.56,1657.93Zm11.43-27.31a1.39,1.39,0,0,1-.86-1.67c1-3.59,1.91-7.25,2.62-10.88a1.36,1.36,0,0,1,1.63-1.06,1.4,1.4,0,0,1,1.11,1.62c-.73,3.71-1.63,7.44-2.67,11.1a1.38,1.38,0,0,1-1.72.93Z" transform="translate(-1405.5 -1392.02)"/><path class="cls-2" d="M1454.78,1682c-3.3-3.56-5-5-3.58-6.13s2.25.65,5.63,4.3a1.36,1.36,0,0,1-.08,1.94A1.4,1.4,0,0,1,1454.78,1682Z" transform="translate(-1405.5 -1392.02)"/><path class="cls-3" d="M1470,1647.33l19.83-2.46a88.85,88.85,0,0,0,21.5,18.36c.77,19.14-.53,20.53,1.52,21.22l22.85,7.61a1.64,1.64,0,0,0,1.82-.53l12-15.55a88.61,88.61,0,0,0,28.17-1.8l14.42,13.87a1.68,1.68,0,0,0,1.89.31l21.39-10.43a1.58,1.58,0,0,0,.88-1.66l-2.8-19.54a84.28,84.28,0,0,0,18.34-20.88l20-.08a1.6,1.6,0,0,0,1.53-1.09l7.4-22.37a1.61,1.61,0,0,0-.57-1.8l-16-12.08a84.48,84.48,0,0,0-2.26-27.74c13.28-14,15.14-14,14.17-15.84-11.08-20.61-10.45-22.37-12.62-22.1l-19.82,2.46a88.81,88.81,0,0,0-21.5-18.36c-.78-19.13.52-20.54-1.52-21.22-22.83-7.18-23.38-8.75-24.67-7.08l-12,15.55a88.26,88.26,0,0,0-28.16,1.8c-14.2-13.11-14.39-15.12-16.32-14.18-21,10.69-22.57,10-22.27,12.08l2.8,19.55a84.48,84.48,0,0,0-18.34,20.88c-19.1.46-20.86-.87-21.54,1.17-6.92,22.26-8.55,22.86-6.82,24.17l16,12.08a84.75,84.75,0,0,0,2.25,27.74c-13.23,13.9-15.14,13.95-14.17,15.84C1468.49,1645.84,1467.86,1647.6,1470,1647.33Z" transform="translate(-1405.5 -1392.02)"/><g class="cls-4"><path class="cls-5" d="M1533.42,1588.17a22.91,22.91,0,0,1,24.91-21.1c12.88,1,22.68,12.17,21.83,24.83a22.92,22.92,0,0,1-24.91,21.11h0A23.63,23.63,0,0,1,1533.42,1588.17Zm22,22.78h0Zm2.67-39.77a18.78,18.78,0,0,0-20.45,17.33,19.39,19.39,0,0,0,17.92,20.39,18.81,18.81,0,0,0,20.46-17.33A19.39,19.39,0,0,0,1558.05,1571.18Z" transform="translate(-1405.5 -1392.02)"/></g><path class="cls-6" d="M1536.4,1644.88h0a62.15,62.15,0,0,1-9.35-4.46,2.07,2.07,0,0,1-.92-2.51,2.3,2.3,0,0,1,.15-.32,2.09,2.09,0,0,1,2.86-.7,58.19,58.19,0,0,0,10.87,4.92h0c28.58,9.53,59.3-4.87,69.61-32.19.26-.7.51-1.4.75-2.12,9.54-28.86-6.68-60-35.94-69.75s-60.82,5.53-70.35,34.31c-5.67,17.14-.72,28.63-1.38,30.4a2.11,2.11,0,0,1-4-.31,58.06,58.06,0,0,1,2.21-33.7c18.06-47.85,86.09-50.76,109.8-4.74a58,58,0,0,1,3.65,45.12c-.26.77-.53,1.54-.81,2.3a57.82,57.82,0,0,1-29,31.67,60.44,60.44,0,0,1-45.82,2.91C1537.94,1645.45,1537.17,1645.17,1536.4,1644.88Z" transform="translate(-1405.5 -1392.02)"/><path class="cls-2" d="M1653.22,1499.72a.84.84,0,0,1-.55-.73c-.08-1.11-.14-2.24-.18-3.36a.82.82,0,0,1,.82-.85c1.13,0,.82,1.11,1,4.11a.82.82,0,0,1-.78.88A.85.85,0,0,1,1653.22,1499.72Z" transform="translate(-1405.5 -1392.02)"/><path class="cls-2" d="M1652.83,1485.16c.2-2.13.5-4.27.88-6.38a.83.83,0,0,1,1-.66c1.25.24.43,1-.18,7.23a.83.83,0,0,1-.92.73A.85.85,0,0,1,1652.83,1485.16Zm3.37-16.53c.65-2.05,1.39-4.11,2.17-6.05a.85.85,0,0,1,1.58.63c-.79,1.94-1.5,3.93-2.13,5.94a.85.85,0,0,1-1.62-.52Zm6.7-15.46c1-1.86,2.19-3.71,3.39-5.48a.85.85,0,0,1,1.41.94c-1.17,1.73-2.29,3.54-3.31,5.36A.85.85,0,0,1,1662.9,1453.17Zm9.89-12.58a.83.83,0,0,1-.09-1.17c1.42-1.61,2.92-3.17,4.47-4.66.79-.77,2,.43,1.19,1.19-1.51,1.46-3,3-4.37,4.57A.85.85,0,0,1,1672.79,1440.59Zm12.24-11.45a.82.82,0,0,1,.15-1.17c1.73-1.28,3.53-2.51,5.35-3.65a.84.84,0,0,1,.93,1.41c-1.79,1.12-3.55,2.32-5.24,3.58A.87.87,0,0,1,1685,1429.14Zm14.85-8.31a.86.86,0,0,1-.47-.43.81.81,0,0,1,.39-1.1c2-.91,4-1.75,6-2.51a.87.87,0,0,1,1.1.49.81.81,0,0,1-.48,1.07c-2,.74-4,1.57-5.88,2.45A.85.85,0,0,1,1699.88,1420.83Zm16-5.5a.9.9,0,0,1-.53-.59.82.82,0,0,1,.62-1c2.11-.49,4.26-.91,6.41-1.24a.86.86,0,0,1,1,.69.82.82,0,0,1-.7,1c-2.1.33-4.21.74-6.28,1.22A.85.85,0,0,1,1715.85,1415.33Zm16.28-2.93a.82.82,0,0,1,.81-.85c2.17-.06,4.38,0,6.56.08a.83.83,0,1,1-.07,1.66c-2.13-.1-4.29-.13-6.42-.07A.86.86,0,0,1,1732.13,1412.4Zm54.22,18.09c-5.07-3.87-6.21-3.81-5.51-4.86a.85.85,0,0,1,1.17-.23c1.83,1.19,3.63,2.46,5.37,3.79A.83.83,0,1,1,1786.35,1430.49Zm-37.23-17a.83.83,0,0,1,1-.67c2.15.38,4.31.85,6.42,1.4a.83.83,0,1,1-.4,1.61c-2.08-.54-4.19-1-6.29-1.37A.84.84,0,0,1,1749.12,1413.51Zm22.85,8.14c-5.73-2.77-6.85-2.49-6.39-3.66a.87.87,0,0,1,1.09-.47c2,.8,4.07,1.69,6,2.64a.83.83,0,1,1-.73,1.49Z" transform="translate(-1405.5 -1392.02)"/><path class="cls-2" d="M1796.6,1439.77c-1.94-2.07-3.15-2.78-2.34-3.57a.86.86,0,0,1,1.2,0c2.09,2.07,3.14,2.89,2.34,3.62A1,1,0,0,1,1796.6,1439.77Z" transform="translate(-1405.5 -1392.02)"/><path class="cls-2" d="M1819.24,1500.47a.86.86,0,0,1-.55-.84c.06-1.09.09-2.2.11-3.29a.82.82,0,0,1,.85-.81.86.86,0,0,1,.84.86c0,1.11,0,2.24-.11,3.35a.84.84,0,0,1-.89.78Z" transform="translate(-1405.5 -1392.02)"/><path class="cls-2" d="M1705.1,1570.39c-2.18-.89-4.34-1.88-6.44-3a.83.83,0,0,1-.37-1.12c.59-1.15,1.07-.07,7.44,2.54a.83.83,0,1,1-.63,1.53Zm10.29,2.63c.32-1.25,1.06-.29,7.8.9a.83.83,0,1,1-.28,1.64c-2.3-.41-4.63-.92-6.91-1.52A.85.85,0,0,1,1715.39,1573Zm-26.6-11.47c-1.92-1.33-3.82-2.77-5.64-4.26a.83.83,0,0,1-.11-1.18c.83-1,1.06.17,6.71,4.08a.83.83,0,0,1,.22,1.17A.85.85,0,0,1,1688.79,1561.55Zm45.26,15.19a.85.85,0,0,1-.55-.81.83.83,0,0,1,.87-.8c2.3.09,4.62.09,6.91,0a.86.86,0,0,1,.9.8.83.83,0,0,1-.8.87c-2.33.1-4.71.1-7.06,0Zm18.24-1.26a.85.85,0,0,1-.54-.62.82.82,0,0,1,.66-1c2.26-.41,4.52-.91,6.72-1.5a.86.86,0,0,1,1,.58.81.81,0,0,1-.58,1c-2.25.61-4.56,1.12-6.86,1.54A.77.77,0,0,1,1752.29,1575.48Zm17.45-5.16a.88.88,0,0,1-.48-.45.81.81,0,0,1,.43-1.09c2.1-.89,4.19-1.87,6.21-2.92a.85.85,0,0,1,1.14.35.8.8,0,0,1-.33,1.12c-2.06,1.08-4.19,2.08-6.33,3A.88.88,0,0,1,1769.74,1570.32Zm15.84-8.8a.88.88,0,0,1-.39-.3.81.81,0,0,1,.18-1.16c1.85-1.31,3.66-2.72,5.39-4.18a.85.85,0,0,1,1.19.09.83.83,0,0,1-.07,1.18c-1.77,1.49-3.62,2.93-5.51,4.27A.86.86,0,0,1,1785.58,1561.52Zm13.19-12.18c-1-.87.18-1,4.23-6.44a.85.85,0,0,1,1.37,1c-1.39,1.85-2.87,3.65-4.4,5.37A.86.86,0,0,1,1798.77,1549.34Zm10.56-14.58c-1.16-.63-.07-1,2.66-7.21a.85.85,0,0,1,1.55.68c-.93,2.11-2,4.2-3.07,6.21A.84.84,0,0,1,1809.33,1534.76Zm6.93-16.56a.85.85,0,0,1-.52-1c.62-2.17,1.15-4.39,1.58-6.6a.83.83,0,0,1,1-.64.85.85,0,0,1,.67,1c-.44,2.25-1,4.52-1.62,6.74a.84.84,0,0,1-1,.56Z" transform="translate(-1405.5 -1392.02)"/><path class="cls-2" d="M1674.78,1549.38c-2-2.16-3-3-2.17-3.72s1.36.39,3.41,2.61a.82.82,0,0,1,0,1.18A.86.86,0,0,1,1674.78,1549.38Z" transform="translate(-1405.5 -1392.02)"/><path class="cls-3" d="M1684,1528.33l12-1.49a53.93,53.93,0,0,0,13,11.14c.47,11.61-.32,12.46.92,12.87l13.86,4.62a1,1,0,0,0,1.11-.33l7.3-9.43a53.58,53.58,0,0,0,17.09-1.09l8.75,8.42a1,1,0,0,0,1.15.18l13-6.32a1,1,0,0,0,.54-1l-1.7-11.86a51,51,0,0,0,11.12-12.66l12.14,0a1,1,0,0,0,.93-.66l4.49-13.57a1,1,0,0,0-.35-1.1l-9.7-7.32a51.24,51.24,0,0,0-1.37-16.83c8.06-8.46,9.19-8.47,8.6-9.61-6.72-12.51-6.34-13.57-7.66-13.41l-12,1.49a54.2,54.2,0,0,0-13-11.14c-.47-11.6.32-12.45-.92-12.87-13.85-4.35-14.18-5.31-15-4.29l-7.31,9.43a53.81,53.81,0,0,0-17.08,1.09c-8.62-8-8.73-9.17-9.9-8.6-12.73,6.49-13.69,6-13.51,7.33l1.7,11.86a51.08,51.08,0,0,0-11.13,12.67c-11.58.28-12.66-.53-13.07.71-4.2,13.5-5.19,13.87-4.14,14.66l9.7,7.33a51.56,51.56,0,0,0,1.37,16.83c-8,8.43-9.19,8.46-8.6,9.61C1683.1,1527.43,1682.71,1528.49,1684,1528.33Z" transform="translate(-1405.5 -1392.02)"/><g class="cls-4"><path class="cls-5" d="M1725,1492.65a13.89,13.89,0,0,1,15.11-12.8,14.32,14.32,0,0,1,13.24,15.06,13.89,13.89,0,0,1-15.11,12.8h0A14.32,14.32,0,0,1,1725,1492.65Zm13.32,13.82h0Zm1.62-24.13a11.4,11.4,0,0,0-12.41,10.51,11.77,11.77,0,0,0,10.88,12.37,11.41,11.41,0,0,0,12.41-10.51A11.77,11.77,0,0,0,1740,1482.34Z" transform="translate(-1405.5 -1392.02)"/></g><path class="cls-6" d="M1724.3,1526.85h0a38.45,38.45,0,0,1-5.68-2.71,1.26,1.26,0,0,1-.56-1.52,1.14,1.14,0,0,1,.1-.19,1.25,1.25,0,0,1,1.73-.43,35.36,35.36,0,0,0,6.6,3h0c17.33,5.78,36-3,42.22-19.52.16-.43.31-.86.46-1.29,5.79-17.51-4.06-36.39-21.8-42.31s-36.9,3.35-42.69,20.81c-3.43,10.39-.43,17.37-.83,18.44a1.28,1.28,0,0,1-2.43-.19,35.19,35.19,0,0,1,1.34-20.44c11-29,52.22-30.79,66.61-2.88a35.22,35.22,0,0,1,2.21,27.38c-.15.46-.32.93-.49,1.39a35.07,35.07,0,0,1-17.59,19.21,36.65,36.65,0,0,1-27.8,1.77Z" transform="translate(-1405.5 -1392.02)"/><path class="cls-7" d="M1726,1973.07H1600.67c-8.79,0-16.9,6.41-16.9,10.86v272.36c0,4.44,8.11,8.82,16.9,8.82H1726c8.78,0,19-4.38,19-8.82V1983.93C1745,1979.48,1734.8,1973.07,1726,1973.07Z" transform="translate(-1405.5 -1392.02)"/><path class="cls-7" d="M1563.23,2072.94c0-2.3-7.92-4.67-16.7-4.67H1422.6c-8.78,0-16.63,2.37-16.63,4.67v187.69c0,2.31,7.85,4.48,16.63,4.48h123.93c8.78,0,16.7-2.17,16.7-4.48Z" transform="translate(-1405.5 -1392.02)"/><path class="cls-7" d="M2276.26,1627.3c0-5.65-9.45-9.91-18.24-9.91H2132.57c-8.79,0-15.54,4.26-15.54,9.91v625.91c0,5.65,6.75,11.9,15.54,11.9H2258c8.79,0,18.24-6.25,18.24-11.9Z" transform="translate(-1405.5 -1392.02)"/><path class="cls-7" d="M1921.14,1861.48c0-4.16-7.58-8-16.36-8H1780.85c-8.78,0-15,3.85-15,8v395.63c0,4.16,6.23,8,15,8h123.93c8.78,0,16.36-3.84,16.36-8Z" transform="translate(-1405.5 -1392.02)"/><path class="cls-7" d="M2097.59,1739.25c0-4.67-7-7.78-15.75-7.78H1957.92c-8.79,0-15.63,3.11-15.63,7.78V2257c0,4.68,6.84,8.07,15.63,8.07h123.92c8.79,0,15.75-3.39,15.75-8.07Z" transform="translate(-1405.5 -1392.02)"/><path class="cls-7" d="M2087.36,1620.26l100.32-147.79a7.19,7.19,0,0,1,12-.09l103.42,147.79c3.56,5.09.08,12.24-6,12.24H2093.38C2087.39,1632.41,2083.9,1625.36,2087.36,1620.26Z" transform="translate(-1405.5 -1392.02)"/><ellipse class="cls-8" cx="798.31" cy="564.43" rx="99.39" ry="99.49"/><ellipse class="cls-2" cx="798.31" cy="564.43" rx="96.09" ry="96.18"/><path class="cls-9" d="M2124.57,1918.7a2.19,2.19,0,0,1-2-3.2,90.52,90.52,0,0,1,81.2-50,91.58,91.58,0,0,1,16.39,1.48,2.21,2.21,0,1,1-.79,4.34,87.37,87.37,0,0,0-15.6-1.41,86.13,86.13,0,0,0-77.27,47.62A2.2,2.2,0,0,1,2124.57,1918.7Z" transform="translate(-1405.5 -1392.02)"/><ellipse class="cls-10" cx="800.4" cy="566.52" rx="81.33" ry="81.4"/><path d="M2197.92,2019.06v-8.85a72.07,72.07,0,0,1-24.83-5.39,5.14,5.14,0,0,1-2.83-6l2.25-8.25a5.15,5.15,0,0,1,7-3.38,60,60,0,0,0,22.93,4.83c8.88,0,15.51-3,15.51-9.2,0-5.57-5.12-8.89-17.47-12.2-17.62-4.83-30.27-12.51-30.27-28,0-14,10.24-24.71,28-27.58v-8.86a5.17,5.17,0,0,1,5.16-5.16h5.19a5.17,5.17,0,0,1,5.16,5.16v8a65.87,65.87,0,0,1,19.68,3.53,5.14,5.14,0,0,1,3.2,6.2l-2.06,7.63a5.15,5.15,0,0,1-6.79,3.48,53.6,53.6,0,0,0-19.3-3.51c-10.54,0-13.55,4.37-13.55,8.29,0,4.82,6.32,8.14,20,12.36,19.58,5.88,27.71,14,27.71,28.63,0,13.42-9.94,25.48-29.21,28.49v9.91a5.16,5.16,0,0,1-5.16,5.16h-5.2A5.16,5.16,0,0,1,2197.92,2019.06Z" transform="translate(-1405.5 -1392.02)"/><rect class="cls-2" x="700.93" y="691.88" width="194.75" height="37.13" rx="3.63"/><rect class="cls-2" x="701.08" y="733.8" width="194.75" height="37.13" rx="3.63"/><rect class="cls-2" x="701.23" y="775.72" width="194.75" height="37.13" rx="3.63"/><rect class="cls-2" x="701.39" y="816.56" width="194.75" height="37.13" rx="3.63"/><rect class="cls-2" x="701.54" y="857.4" width="194.75" height="37.13" rx="3.63"/><ellipse class="cls-11" cx="587.32" cy="608.52" rx="99.39" ry="99.49"/><ellipse class="cls-2" cx="587.32" cy="608.52" rx="96.09" ry="96.18"/><path class="cls-9" d="M1913.59,1962.8a2.21,2.21,0,0,1-2-3.2,90.52,90.52,0,0,1,81.2-50,91.61,91.61,0,0,1,16.4,1.48,2.21,2.21,0,0,1-.79,4.34,87.39,87.39,0,0,0-15.61-1.4,86.12,86.12,0,0,0-77.26,47.61A2.22,2.22,0,0,1,1913.59,1962.8Z" transform="translate(-1405.5 -1392.02)"/><ellipse class="cls-10" cx="589.42" cy="610.61" rx="81.33" ry="81.4"/><path d="M1986.94,2063.15v-8.85a72.07,72.07,0,0,1-24.83-5.39,5.12,5.12,0,0,1-2.83-6l2.25-8.25a5.15,5.15,0,0,1,7-3.38,59.79,59.79,0,0,0,22.92,4.83c8.89,0,15.51-3,15.51-9.19,0-5.58-5.12-8.9-17.46-12.21-17.62-4.82-30.27-12.51-30.27-28,0-14,10.24-24.72,28-27.59v-8.85a5.15,5.15,0,0,1,5.15-5.16h5.2a5.16,5.16,0,0,1,5.16,5.16v8a65.44,65.44,0,0,1,19.67,3.54,5.13,5.13,0,0,1,3.21,6.2l-2.07,7.62a5.13,5.13,0,0,1-6.78,3.48,53.6,53.6,0,0,0-19.3-3.51c-10.54,0-13.56,4.37-13.56,8.29,0,4.82,6.33,8.14,20,12.36,19.58,5.88,27.71,14,27.71,28.64,0,13.41-9.94,25.47-29.21,28.48v9.91a5.16,5.16,0,0,1-5.16,5.16h-5.2A5.15,5.15,0,0,1,1986.94,2063.15Z" transform="translate(-1405.5 -1392.02)"/><rect class="cls-2" x="489.95" y="731.63" width="194.75" height="37.13" rx="3.63"/><rect class="cls-2" x="490.1" y="773.55" width="194.75" height="37.13" rx="3.63"/><rect class="cls-2" x="490.25" y="815.48" width="194.75" height="37.13" rx="3.63"/><rect class="cls-2" x="490.4" y="857.4" width="194.75" height="37.13" rx="3.63"/><path class="cls-12" d="M1533.4,2196.13a1.61,1.61,0,0,1-1.24-.57c-.94-1.11-1.88-2.23-2.8-3.35a1.63,1.63,0,0,1,2.51-2.07q1.37,1.67,2.77,3.31a1.63,1.63,0,0,1-1.24,2.68Z" transform="translate(-1405.5 -1392.02)"/><path class="cls-13" d="M1525.26,2186.05a1.63,1.63,0,0,1-1.29-.63c-1.76-2.3-3.5-4.64-5.17-7a1.63,1.63,0,1,1,2.65-1.89c1.64,2.3,3.36,4.62,5.09,6.88a1.62,1.62,0,0,1-1.28,2.62Zm-10-14a1.62,1.62,0,0,1-1.36-.72c-1.59-2.4-3.16-4.87-4.67-7.32a1.63,1.63,0,1,1,2.77-1.7c1.49,2.42,3,4.85,4.61,7.22a1.62,1.62,0,0,1-.46,2.25A1.53,1.53,0,0,1,1515.24,2172Zm-9-14.7a1.62,1.62,0,0,1-1.42-.82c-1.42-2.53-2.81-5.1-4.13-7.64a1.63,1.63,0,1,1,2.89-1.5c1.3,2.51,2.67,5,4.07,7.54a1.62,1.62,0,0,1-.61,2.21A1.57,1.57,0,0,1,1506.23,2157.32Zm-7.91-15.32a1.61,1.61,0,0,1-1.47-.93c-1.23-2.62-2.42-5.29-3.54-7.93a1.62,1.62,0,1,1,3-1.27c1.1,2.6,2.28,5.23,3.49,7.81a1.63,1.63,0,0,1-.78,2.17A1.68,1.68,0,0,1,1498.32,2142Zm-6.72-15.87a1.62,1.62,0,0,1-1.52-1.05c-1-2.72-2-5.47-2.91-8.19a1.62,1.62,0,1,1,3.08-1c.9,2.68,1.86,5.39,2.87,8.06a1.63,1.63,0,0,1-.95,2.1A1.65,1.65,0,0,1,1491.6,2126.13Zm-5.45-16.36a1.63,1.63,0,0,1-1.56-1.18c-.8-2.76-1.55-5.59-2.24-8.39a1.63,1.63,0,1,1,3.16-.77c.68,2.75,1.42,5.54,2.21,8.26a1.64,1.64,0,0,1-1.12,2A1.74,1.74,0,0,1,1486.15,2109.77Zm-4.09-16.74a1.62,1.62,0,0,1-1.59-1.31c-.57-2.84-1.09-5.72-1.53-8.56a1.62,1.62,0,1,1,3.21-.5c.44,2.79.94,5.62,1.5,8.42a1.61,1.61,0,0,1-1.27,1.91A1.75,1.75,0,0,1,1482.06,2093Zm-2.67-17a1.63,1.63,0,0,1-1.61-1.45c-.32-2.82-.58-5.73-.78-8.66a1.62,1.62,0,0,1,3.24-.22c.2,2.88.46,5.74.77,8.52a1.63,1.63,0,0,1-1.43,1.8Zm-1.19-17.2a1.62,1.62,0,0,1-1.62-1.58c-.06-2.2-.1-4.43-.1-6.64,0-.68,0-1.36,0-2a1.68,1.68,0,0,1,1.64-1.61,1.62,1.62,0,0,1,1.61,1.64v2c0,2.18,0,4.38.09,6.54a1.64,1.64,0,0,1-1.58,1.68Zm.15-17.25h-.08a1.63,1.63,0,0,1-1.55-1.7c.13-2.87.31-5.78.53-8.66a1.63,1.63,0,0,1,3.25.25c-.23,2.85-.4,5.72-.53,8.56A1.63,1.63,0,0,1,1478.35,2041.55Zm1.34-17.19h-.18a1.63,1.63,0,0,1-1.43-1.8c.31-2.84.68-5.74,1.1-8.61a1.63,1.63,0,0,1,3.22.47c-.41,2.83-.78,5.7-1.09,8.5A1.63,1.63,0,0,1,1479.69,2024.36Zm2.47-17.07a1.43,1.43,0,0,1-.29,0,1.63,1.63,0,0,1-1.32-1.88c.51-2.84,1.06-5.7,1.65-8.52a1.62,1.62,0,1,1,3.18.67c-.58,2.78-1.13,5.62-1.62,8.41A1.64,1.64,0,0,1,1482.16,2007.29Zm3.53-16.87a1.58,1.58,0,0,1-.38-.05,1.62,1.62,0,0,1-1.2-2c.68-2.81,1.41-5.63,2.17-8.39a1.63,1.63,0,1,1,3.14.87c-.76,2.72-1.48,5.51-2.15,8.29A1.63,1.63,0,0,1,1485.69,1990.42Zm4.58-16.61a1.59,1.59,0,0,1-.48-.07,1.63,1.63,0,0,1-1.07-2c.85-2.75,1.76-5.52,2.71-8.24a1.62,1.62,0,0,1,2.06-1,1.65,1.65,0,0,1,1,2.08c-.93,2.68-1.83,5.42-2.67,8.13A1.63,1.63,0,0,1,1490.27,1973.81Zm5.65-16.29a1.66,1.66,0,0,1-.58-.11,1.63,1.63,0,0,1-.94-2.1c1-2.72,2.14-5.43,3.25-8a1.62,1.62,0,0,1,3,1.27c-1.09,2.59-2.17,5.26-3.2,8A1.64,1.64,0,0,1,1495.92,1957.52Zm6.73-15.88a1.58,1.58,0,0,1-.69-.16,1.62,1.62,0,0,1-.78-2.16c1.22-2.62,2.5-5.25,3.81-7.81a1.63,1.63,0,0,1,2.89,1.49c-1.29,2.52-2.55,5.11-3.76,7.7A1.62,1.62,0,0,1,1502.65,1941.64Zm143.11-8.31a30.19,30.19,0,0,1-4.66-.37,1.63,1.63,0,0,1,.51-3.22,27.07,27.07,0,0,0,8.09,0,1.62,1.62,0,0,1,1.84,1.37,1.63,1.63,0,0,1-1.38,1.85A31,31,0,0,1,1645.76,1933.33Zm12.43-2.66a1.63,1.63,0,0,1-.64-3.13,38.62,38.62,0,0,0,7.2-4,1.63,1.63,0,1,1,1.87,2.66,42.4,42.4,0,0,1-7.79,4.39A1.59,1.59,0,0,1,1658.19,1930.67Zm-25-.31a1.51,1.51,0,0,1-.71-.17,35.87,35.87,0,0,1-7.5-5,1.63,1.63,0,1,1,2.11-2.48,32.84,32.84,0,0,0,6.82,4.53,1.63,1.63,0,0,1-.72,3.09Zm-122.68-4.09a1.6,1.6,0,0,1-.79-.2,1.64,1.64,0,0,1-.62-2.22c1.41-2.53,2.89-5,4.39-7.5a1.63,1.63,0,1,1,2.77,1.7c-1.48,2.41-2.93,4.9-4.33,7.39A1.63,1.63,0,0,1,1510.5,1926.27Zm161.75-5.39a1.64,1.64,0,0,1-1.16-2.78,54,54,0,0,0,5.41-6.38,1.63,1.63,0,0,1,2.63,1.92,58.61,58.61,0,0,1-5.73,6.75A1.6,1.6,0,0,1,1672.25,1920.88Zm-52.2-1.46a1.64,1.64,0,0,1-1.27-.6c-1-1.29-2.06-2.68-3-4.13-.69-1-1.36-2.07-2-3.13a1.62,1.62,0,1,1,2.78-1.68c.61,1,1.25,2,1.91,3,.93,1.37,1.9,2.68,2.88,3.9a1.62,1.62,0,0,1-1.26,2.65Zm-100.52-7.86a1.67,1.67,0,0,1-.91-.27,1.63,1.63,0,0,1-.44-2.26c1.63-2.43,3.31-4.82,5-7.12a1.63,1.63,0,0,1,2.62,1.93c-1.67,2.26-3.32,4.62-4.92,7A1.63,1.63,0,0,1,1519.53,1911.56Zm162.77-4.6a1.65,1.65,0,0,1-.71-.17,1.61,1.61,0,0,1-.75-2.17,39.21,39.21,0,0,0,2.78-7.78,1.63,1.63,0,1,1,3.16.77,42.39,42.39,0,0,1-3,8.43A1.62,1.62,0,0,1,1682.3,1907Zm-71.18-2.23a1.62,1.62,0,0,1-1.48-1,80.33,80.33,0,0,1-3.2-8.19,1.63,1.63,0,1,1,3.09-1,76.19,76.19,0,0,0,3.07,7.86,1.64,1.64,0,0,1-1.48,2.31Zm-81.36-7.06a1.62,1.62,0,0,1-1.26-2.65c1.83-2.26,3.73-4.49,5.64-6.63a1.63,1.63,0,1,1,2.42,2.17c-1.87,2.1-3.73,4.29-5.53,6.51A1.61,1.61,0,0,1,1529.76,1897.67Zm156.55-7.35h0a1.62,1.62,0,0,1-1.59-1.66v-.77a36.87,36.87,0,0,0-.75-7.43,1.62,1.62,0,1,1,3.18-.66,39.8,39.8,0,0,1,.83,8.09c0,.28,0,.56,0,.84A1.64,1.64,0,0,1,1686.31,1890.32Zm-80.57-1.94a1.62,1.62,0,0,1-1.58-1.29,81.81,81.81,0,0,1-1.37-8.69,1.62,1.62,0,0,1,3.23-.33,80.82,80.82,0,0,0,1.32,8.34,1.64,1.64,0,0,1-1.26,1.93A1.86,1.86,0,0,1,1605.74,1888.38Zm-64.48-3.57a1.64,1.64,0,0,1-1.15-.47,1.63,1.63,0,0,1,0-2.3c2.05-2.07,4.16-4.1,6.28-6a1.62,1.62,0,0,1,2.3.11,1.64,1.64,0,0,1-.11,2.3c-2.08,1.89-4.15,3.88-6.16,5.91A1.63,1.63,0,0,1,1541.26,1884.81Zm141.57-11.22a1.62,1.62,0,0,1-1.47-.94c-.5-1.06-1-2.11-1.65-3.12a41.77,41.77,0,0,0-2.64-4,1.63,1.63,0,1,1,2.6-2,48.34,48.34,0,0,1,2.84,4.25c.65,1.1,1.25,2.24,1.79,3.4a1.63,1.63,0,0,1-.78,2.16A1.58,1.58,0,0,1,1682.83,1873.59Zm-128.82-.37a1.63,1.63,0,0,1-1-2.89c2.18-1.78,4.43-3.51,6.68-5.13l.22-.17a1.63,1.63,0,1,1,1.92,2.63l-.24.18c-2.19,1.59-4.39,3.27-6.53,5A1.58,1.58,0,0,1,1554,1873.22Zm50-2h0a1.63,1.63,0,0,1-1.62-1.63,86.19,86.19,0,0,1,.45-8.78,1.63,1.63,0,0,1,3.24.34,82.56,82.56,0,0,0-.44,8.44A1.63,1.63,0,0,1,1604,1871.26Zm-36-8.11a1.62,1.62,0,0,1-.87-3c2.47-1.56,5-3.05,7.52-4.42a1.62,1.62,0,1,1,1.55,2.85c-2.46,1.35-4.92,2.8-7.33,4.32A1.62,1.62,0,0,1,1568,1863.15Zm104.62-3.3a1.64,1.64,0,0,1-1.1-.43,49.87,49.87,0,0,0-6.59-5.11,1.63,1.63,0,0,1,1.77-2.73,53.35,53.35,0,0,1,7,5.44,1.63,1.63,0,0,1,.09,2.3A1.6,1.6,0,0,1,1672.6,1859.85Zm-89.5-4.94a1.63,1.63,0,0,1-.68-3.11c2.65-1.22,5.36-2.36,8-3.38a1.63,1.63,0,0,1,1.16,3c-2.62,1-5.25,2.1-7.84,3.3A1.64,1.64,0,0,1,1583.1,1854.91Zm22.62-.78-.32,0a1.63,1.63,0,0,1-1.27-1.92c.34-1.65.72-3.3,1.16-5q-2.82.67-5.63,1.52a1.63,1.63,0,0,1-.93-3.12c2.51-.75,5-1.41,7.57-2a1.63,1.63,0,0,1,2-1,1.62,1.62,0,0,1,1.08,2c-.82,2.72-1.53,5.48-2.08,8.2A1.63,1.63,0,0,1,1605.72,1854.13Zm52.51-3.67a1.54,1.54,0,0,1-.66-.14,62.81,62.81,0,0,0-7.87-2.91,1.63,1.63,0,0,1,.92-3.12,65.06,65.06,0,0,1,8.28,3.06,1.63,1.63,0,0,1-.67,3.11Zm-16.45-4.92-.28,0a78.06,78.06,0,0,0-8.38-1,1.63,1.63,0,0,1,.19-3.25,81.74,81.74,0,0,1,8.73,1,1.63,1.63,0,0,1-.26,3.23Zm-25.75-.33a1.63,1.63,0,0,1-.21-3.24c2.92-.38,5.86-.63,8.73-.74a1.63,1.63,0,0,1,.12,3.26c-2.77.1-5.61.34-8.43.71Zm-5.29-7.55a1.67,1.67,0,0,1-.62-.12,1.63,1.63,0,0,1-.89-2.12c1.08-2.67,2.31-5.35,3.64-8a1.62,1.62,0,1,1,2.89,1.47c-1.28,2.54-2.47,5.13-3.52,7.72A1.61,1.61,0,0,1,1610.74,1837.66Zm7.77-15.37a1.62,1.62,0,0,1-1.39-2.47c1.49-2.44,3.1-4.89,4.81-7.29a1.63,1.63,0,0,1,2.65,1.89c-1.66,2.33-3.24,4.72-4.68,7.09A1.61,1.61,0,0,1,1618.51,1822.29Zm10-14a1.66,1.66,0,0,1-1.06-.39,1.63,1.63,0,0,1-.17-2.3,80.88,80.88,0,0,1,6-6.35,1.62,1.62,0,0,1,2.22,2.37,78.07,78.07,0,0,0-5.8,6.1A1.65,1.65,0,0,1,1628.52,1808.3Zm12.51-11.77a1.63,1.63,0,0,1-1-2.93,81.24,81.24,0,0,1,7.29-4.89,1.63,1.63,0,0,1,1.66,2.8,79.76,79.76,0,0,0-7,4.69A1.6,1.6,0,0,1,1641,1796.53Zm14.74-8.83a1.63,1.63,0,0,1-.7-3.1c2.56-1.21,5.2-2.32,8.06-3.4a1.63,1.63,0,0,1,1.14,3c-2.78,1-5.33,2.12-7.81,3.3A1.68,1.68,0,0,1,1655.77,1787.7Zm16.08-6.13a1.63,1.63,0,0,1-.48-3.18c2.48-.77,5.12-1.54,8.33-2.41a1.63,1.63,0,1,1,.86,3.14c-3.18.86-5.79,1.62-8.23,2.37A1.61,1.61,0,0,1,1671.85,1781.57Zm16.61-4.61a1.63,1.63,0,0,1-.42-3.2c2.66-.71,5.51-1.47,8.26-2.28a1.63,1.63,0,1,1,.92,3.12c-2.79.82-5.66,1.59-8.35,2.3A1.51,1.51,0,0,1,1688.46,1777Zm16.48-5a1.63,1.63,0,0,1-.57-3.15,62.52,62.52,0,0,0,7.64-3.44,1.63,1.63,0,1,1,1.55,2.86,63.41,63.41,0,0,1-8,3.62A1.44,1.44,0,0,1,1704.94,1772Zm15-8.33a1.63,1.63,0,0,1-1.05-2.87,32.36,32.36,0,0,0,5.52-6,1.62,1.62,0,0,1,2.65,1.88,35.82,35.82,0,0,1-6.07,6.61A1.63,1.63,0,0,1,1719.9,1763.63Zm9.86-13.85a1.66,1.66,0,0,1-.61-.12,1.63,1.63,0,0,1-.89-2.13c1-2.5,2-5.11,3.06-8a1.62,1.62,0,1,1,3.06,1.09c-1,2.91-2.06,5.57-3.11,8.12A1.63,1.63,0,0,1,1729.76,1749.78Zm5.85-16.21a1.74,1.74,0,0,1-.5-.08,1.64,1.64,0,0,1-1-2c.88-2.73,1.72-5.47,2.56-8.21a1.63,1.63,0,0,1,3.11,1c-.84,2.76-1.69,5.51-2.57,8.26A1.64,1.64,0,0,1,1735.61,1733.57Zm5.06-16.49a1.59,1.59,0,0,1-.48-.07,1.63,1.63,0,0,1-1.08-2c.83-2.76,1.68-5.52,2.56-8.26a1.63,1.63,0,0,1,3.1,1c-.88,2.73-1.72,5.47-2.55,8.21A1.62,1.62,0,0,1,1740.67,1717.08Zm5.29-16.41a1.7,1.7,0,0,1-.54-.09,1.63,1.63,0,0,1-1-2.08c1-2.91,2-5.57,3.09-8.13a1.63,1.63,0,1,1,3,1.24c-1,2.5-2,5.12-3,8A1.61,1.61,0,0,1,1746,1700.67Zm6.55-15.92a1.64,1.64,0,0,1-1.46-2.34c1.3-2.68,2.67-5.28,4.09-7.72a1.62,1.62,0,1,1,2.81,1.63c-1.37,2.37-2.71,4.9-4,7.51A1.63,1.63,0,0,1,1752.51,1684.75Zm8.66-14.88a1.63,1.63,0,0,1-1.33-2.56c1.68-2.4,3.48-4.74,5.34-6.94a1.63,1.63,0,1,1,2.49,2.1c-1.81,2.13-3.54,4.39-5.17,6.7A1.6,1.6,0,0,1,1761.17,1669.87Zm11.11-13.14a1.61,1.61,0,0,1-1.16-.49,1.63,1.63,0,0,1,0-2.3c1.54-1.5,3.15-3,4.8-4.41q.86-.73,1.71-1.44a1.63,1.63,0,1,1,2.07,2.51c-.56.46-1.11.93-1.66,1.4-1.6,1.37-3.16,2.81-4.64,4.27A1.63,1.63,0,0,1,1772.28,1656.73Zm13.26-11a1.6,1.6,0,0,1-1.33-.69,1.62,1.62,0,0,1,.39-2.27c2.39-1.68,4.86-3.28,7.34-4.74a1.63,1.63,0,0,1,1.66,2.8c-2.41,1.42-4.81,3-7.13,4.6A1.61,1.61,0,0,1,1785.54,1645.74Zm14.83-8.74a1.63,1.63,0,0,1-.71-3.09c2.64-1.27,5.35-2.43,8-3.45a1.63,1.63,0,0,1,1.14,3c-2.6,1-5.22,2.1-7.78,3.33A1.62,1.62,0,0,1,1800.37,1637Zm16.1-6a1.61,1.61,0,0,1-1.56-1.2,1.63,1.63,0,0,1,1.13-2c2.84-.77,5.72-1.41,8.56-1.9a1.63,1.63,0,0,1,.55,3.21c-2.74.47-5.52,1.09-8.25,1.83A1.59,1.59,0,0,1,1816.47,1631Zm17-2.91a1.63,1.63,0,0,1-.11-3.25,85.84,85.84,0,0,1,8.78-.15,1.63,1.63,0,1,1-.11,3.25c-2.8-.09-5.63,0-8.44.15Z" transform="translate(-1405.5 -1392.02)"/><path class="cls-14" d="M1855.15,1629.43l-.33,0c-1.38-.28-2.79-.53-4.18-.73a1.63,1.63,0,0,1,.47-3.22c1.44.21,2.91.46,4.35.75a1.63,1.63,0,0,1-.31,3.23Z" transform="translate(-1405.5 -1392.02)"/><path class="cls-2" d="M1863.32,1645s6.39,38.38-21.25,46.11-57.45,8.66-64.14,20.41c0,0,2-76.06,77.53-77.77Z" transform="translate(-1405.5 -1392.02)"/><path class="cls-2" d="M1944.68,1636s19.06,33.1,12.25,44.12c-6.47,10.47-79.9,56-87,60.47a.71.71,0,0,1-1-.2h0a9.77,9.77,0,0,1-1.43-8.75c4.58-14.41,18.62-57.3,27-68.9C1904.65,1648.7,1944.68,1636,1944.68,1636Z" transform="translate(-1405.5 -1392.02)"/><path class="cls-15" d="M1893.16,1720a.85.85,0,0,0,.69-.11c.4-.26,40.19-25.91,56.89-37.62a9.2,9.2,0,0,0,3.74-9.29,136.83,136.83,0,0,0-8-26.57.88.88,0,0,0-1.61.7,135,135,0,0,1,7.88,26.21,7.44,7.44,0,0,1-3,7.51c-16.67,11.69-56.43,37.33-56.83,37.58a.9.9,0,0,0-.26,1.22A.88.88,0,0,0,1893.16,1720Z" transform="translate(-1405.5 -1392.02)"/><path class="cls-2" d="M1892.32,1564.37s-25.76-28.19-38.3-25c-11.93,3-77.54,59.29-83.91,64.77a.71.71,0,0,0-.11,1h0a9.75,9.75,0,0,0,7.91,4c15.1,0,60.19-.43,73.78-4.94C1868.1,1598.71,1892.32,1564.37,1892.32,1564.37Z" transform="translate(-1405.5 -1392.02)"/><path class="cls-15" d="M1797.36,1589a.86.86,0,0,0,.78-.17c.36-.3,36.8-30.48,53-42.85a7.41,7.41,0,0,1,8.06-.61,134.3,134.3,0,0,1,22.58,15.43.85.85,0,0,0,1.23-.08.87.87,0,0,0-.08-1.24,133.4,133.4,0,0,0-22.89-15.65,9.14,9.14,0,0,0-10,.76c-16.2,12.38-52.67,42.59-53,42.89a.86.86,0,0,0-.12,1.23A.85.85,0,0,0,1797.36,1589Z" transform="translate(-1405.5 -1392.02)"/><path class="cls-7" d="M2047.83,1559.81a197.16,197.16,0,0,1-43.25,43.83c-56.84,41.9-105.86,62.85-120,68.43a7.49,7.49,0,0,1-7.54-1.24,132,132,0,0,1-37.57-50.56,10.89,10.89,0,0,1,1.66-11.19c11.24-13.57,45.44-52.31,100.06-92.08a196.89,196.89,0,0,1,54.42-27.87C2024.2,1511.61,2039.92,1542.05,2047.83,1559.81Z" transform="translate(-1405.5 -1392.02)"/><path class="cls-2" d="M1995.65,1489.13c38.7-12.78,71.86-10.77,82.91-9.58a3.68,3.68,0,0,1,3.21,4.4c-2.19,10.87-10.26,42.93-33.94,75.86C2039.92,1542.05,2024.2,1511.61,1995.65,1489.13Z" transform="translate(-1405.5 -1392.02)"/><path d="M1955.71,1528.93c-14.76,10.81-17.32,32.42-5.73,48.27s32.94,19.94,47.7,9.13,17.32-32.42,5.73-48.27S1970.46,1518.12,1955.71,1528.93Z" transform="translate(-1405.5 -1392.02)"/><path class="cls-16" d="M1960.13,1533.41c-11.75,8.61-13.8,25.83-4.56,38.47s26.25,15.88,38,7.27,13.8-25.83,4.56-38.46S1971.89,1524.8,1960.13,1533.41Z" transform="translate(-1405.5 -1392.02)"/><path class="cls-17" d="M1992.52,1569.4a.89.89,0,0,0,.93-.33c5.61-7.51,5.5-18.27-.27-26.16a23.29,23.29,0,0,0-5.17-5.13.88.88,0,0,0-1,1.43,21.24,21.24,0,0,1,4.77,4.74c5.32,7.27,5.43,17.17.28,24.07a.88.88,0,0,0,.18,1.23A.94.94,0,0,0,1992.52,1569.4Z" transform="translate(-1405.5 -1392.02)"/><path d="M1909.14,1578c-9.75,7.14-11.45,21.42-3.79,31.89s21.77,13.17,31.51,6,11.45-21.41,3.79-31.89S1918.89,1570.86,1909.14,1578Z" transform="translate(-1405.5 -1392.02)"/><path class="cls-16" d="M1912.06,1581c-7.77,5.69-9.12,17.07-3,25.41s17.35,10.5,25.11,4.81,9.12-17.07,3-25.41S1919.83,1575.27,1912.06,1581Z" transform="translate(-1405.5 -1392.02)"/><path class="cls-17" d="M1933.38,1605a.88.88,0,0,0,.93-.32,15,15,0,0,0-.18-17.64,15.39,15.39,0,0,0-3.48-3.45.87.87,0,0,0-1.22.2.89.89,0,0,0,.2,1.23,13.59,13.59,0,0,1,3.09,3.06,13.2,13.2,0,0,1,.18,15.55.88.88,0,0,0,.18,1.23A.75.75,0,0,0,1933.38,1605Z" transform="translate(-1405.5 -1392.02)"/><path class="cls-18" d="M1778.27,2261.74s-1.8,10.23-2.68,20.36a7,7,0,0,0,6.66,7.55c13.47.57,42.28,1.66,52.62,1.2a2.27,2.27,0,0,0,2-3.11,5,5,0,0,0-2.6-2.74l-47.59-21.9Z" transform="translate(-1405.5 -1392.02)"/><path class="cls-19" d="M1776.8,2255.74l1.45,12.23s8.33,3.88,14-.49l-3.46-13.63Z" transform="translate(-1405.5 -1392.02)"/><path d="M1777.89,2025.74c-.63,3.2-3.37,159.43,13.32,229.44a2.38,2.38,0,0,1-1.39,2.76,41.21,41.21,0,0,1-13.59,2.76,4.08,4.08,0,0,1-4.06-2.93c-4.77-16.25-27.62-97.63-30.6-175.38-3.33-86.87,0-2.95,0-2.95l2-53.7Z" transform="translate(-1405.5 -1392.02)"/><path class="cls-18" d="M1723.53,2267.08s-2.88,5.16-5.66,18.88a4.26,4.26,0,0,0,3.74,5.1c4.45.44,11.3,1,16.78,1a4.23,4.23,0,0,0,4.2-4.73c-.61-5-2.5-13.22-8.35-19.63Z" transform="translate(-1405.5 -1392.02)"/><path class="cls-20" d="M1721,2251.35l3.39,18.5s3.35,2.49,10,.68l-1.62-19.9Z" transform="translate(-1405.5 -1392.02)"/><path d="M1711.85,2030.54c-13.64,82.42,3,203.72,8.56,227.46a3.69,3.69,0,0,0,3,2.81,24.7,24.7,0,0,0,10.67-.42,3.4,3.4,0,0,0,2.44-3.13c.75-19.19-.6-137,12.11-183.59a10.49,10.49,0,0,1,4.08-5.83l24.67-17.56,1.9-28.39Z" transform="translate(-1405.5 -1392.02)"/><path class="cls-21" d="M1798.8,1874.35c-40.89-.67-86,10.75-86,10.75-12.19,71.19-2.14,153.3-2.14,153.3,31.66,8.31,67.37-5.08,67.37-5.08,5.27-29.75,29.82-113.5,29.82-113.5,20-2.48,36.43-8.25,50-15.88-10.34-12-15.21-27.25-17.33-36.28C1826,1872.16,1811.41,1874.56,1798.8,1874.35Z" transform="translate(-1405.5 -1392.02)"/><path class="cls-22" d="M1919.59,1814.07a7.81,7.81,0,0,0-9.1-2.56c-6,25.44-37.57,46.07-70,56.15,2.12,9,7,24.29,17.33,36.28C1911.63,1873.67,1919.59,1814.07,1919.59,1814.07Z" transform="translate(-1405.5 -1392.02)"/><path class="cls-23" d="M1918.61,1815.3c.42,1.34-4.45,3.37-7.31-2.1-.1-2.62-1.69-13.85-.13-16,8.34-11.38,24.5-25.64,24.5-25.64a3.86,3.86,0,0,1,.48,5.35l-7.84,8.17c1.64,3,3.64,5.47,4.58,9.06a11,11,0,0,1-1.1,8.09c-1.38,2.49-3.25,5.71-5,8.24A10.86,10.86,0,0,1,1918.61,1815.3Z" transform="translate(-1405.5 -1392.02)"/><path class="cls-24" d="M1924.88,1790.41l-7.14,6.06-2.25,6,6.37,7.07s2.14-12,3.74-14.57S1926.36,1791.17,1924.88,1790.41Z" transform="translate(-1405.5 -1392.02)"/><path class="cls-21" d="M1728.47,1924.73l-15.68-39.63s-38.2,26-44.48,58.91a90.38,90.38,0,0,1,33.2,8.91C1704.34,1937.37,1728.47,1924.73,1728.47,1924.73Z" transform="translate(-1405.5 -1392.02)"/><path class="cls-25" d="M1761.85,1962s-42.88,24.26-57.35,3.54a16.27,16.27,0,0,1-3-12.65,90.38,90.38,0,0,0-33.2-8.91,45.54,45.54,0,0,0,4.94,31.17c25.34,46.4,94.27-2.57,94.27-2.57Z" transform="translate(-1405.5 -1392.02)"/><path class="cls-2" d="M1756.7,1992.72l23.4-81.81a2.39,2.39,0,0,1,2-1.72c4.24-.5,16.53-1.89,30.71-3.09,17.09-1.44,36.94-2.62,48.79-1.62a2.39,2.39,0,0,1,2,3.44c-6.74,13.66-34.48,69.21-48.37,87.41a2.44,2.44,0,0,1-1.93,1l-54.31-.51A2.39,2.39,0,0,1,1756.7,1992.72Z" transform="translate(-1405.5 -1392.02)"/><path class="cls-7" d="M1815.26,1899l17-2.83a1.22,1.22,0,0,1,1.36,1.58l-1.68,5.1a1.23,1.23,0,0,1-1,.82l-16.33,2.19a1.23,1.23,0,0,1-1.35-1.49l1-4.45A1.23,1.23,0,0,1,1815.26,1899Z" transform="translate(-1405.5 -1392.02)"/><path class="cls-7" d="M1802.55,1913.39l1.4-7.29a1.7,1.7,0,0,1,1.48-1.36l34.28-3.48a1.68,1.68,0,0,1,1.8,2.07l-2.17,9.08a1.69,1.69,0,0,1-1.56,1.29l-33.49,1.69A1.69,1.69,0,0,1,1802.55,1913.39Z" transform="translate(-1405.5 -1392.02)"/><path class="cls-26" d="M1762.35,1973s-3.26-13.42-1.94-18.18,3.86-10.88,12.35-9.52a123.92,123.92,0,0,1,18.51,4.94s-.5,6.2-7,4.2l4,3.1s-.58,5-6,2.32l3.72,4.11s-2.34,4.07-6.35,1.46S1773.73,1974.57,1762.35,1973Z" transform="translate(-1405.5 -1392.02)"/><path class="cls-27" d="M1754.61,1857.45l-10.26,23.27a.77.77,0,0,0,.49,1c2.79,1.21,12.87,4.72,25-1.32a4,4,0,0,0,2.31-2.82l3.32-20.14Z" transform="translate(-1405.5 -1392.02)"/><path class="cls-28" d="M1788.58,1804c.19.61-3.81,43.6-3.81,43.6l-27.67-.38-3-40.72S1785.38,1793.73,1788.58,1804Z" transform="translate(-1405.5 -1392.02)"/><path d="M1761.34,1814.57,1761,1836a3.35,3.35,0,0,0,.13,1c.54,1.68,2.76,6.87,9,4.1,5.31-2.35,10.22-4.46,14-4.51a3.37,3.37,0,0,1,3.66,3.54,121.31,121.31,0,0,1-3.38,19.39,4.38,4.38,0,0,1-4.53,2.93c-5.4-.39-15.89-1.43-24.1-4a3.22,3.22,0,0,1-2.37-2.77c-.51-5.65-2-21.48-3.19-25.84-1.12-4-7.17-5.53-10-6a3.6,3.6,0,0,1-2.5-1.59c-1.54-2.52-3.55-7.93,4.22-11.89a3.53,3.53,0,0,0,1.8-4.77c-1.63-3-2.51-7.47,3.71-11.24a13.59,13.59,0,0,1,15,.14,4.6,4.6,0,0,0,5-.19,3,3,0,0,1,2.61-.46,4.39,4.39,0,0,0,5.07-2.35c1.32-3.2,4.3-6.77,11-7,12.32-.41,15.29,11,13.05,18.39s-15.57,7.17-22.55,4.92c-5.12-1.66-10.93,1.94-13.65,4A3.75,3.75,0,0,0,1761.34,1814.57Z" transform="translate(-1405.5 -1392.02)"/><path class="cls-29" d="M1750.21,1837.66s3.3-13-2.21-15-12.84.88-10,9.34C1741.59,1842.49,1750.21,1837.66,1750.21,1837.66Z" transform="translate(-1405.5 -1392.02)"/></g></svg>