<svg id="Capa_1" data-name="Capa 1" xmlns="http://www.w3.org/2000/svg" xmlns:xlink="http://www.w3.org/1999/xlink" viewBox="0 0 391.52 391.52"><defs><style>.cls-1{fill:#fecb72;}.cls-2{fill:#353535;}.cls-3{fill:#606060;}.cls-4{fill:url(#linear-gradient);}.cls-5,.cls-8{fill:#fff;}.cls-18,.cls-6{fill:#f24f18;}.cls-6{opacity:0.83;}.cls-7{fill:#fda91f;opacity:0.99;}.cls-8{opacity:0.78;}.cls-9{fill:url(#linear-gradient-2);}.cls-10{fill:url(#linear-gradient-3);}.cls-11{fill:url(#linear-gradient-4);}.cls-12{fill:url(#linear-gradient-5);}.cls-13{fill:url(#linear-gradient-6);}.cls-14{fill:url(#linear-gradient-7);}.cls-15{fill:url(#linear-gradient-8);}.cls-16{fill:url(#linear-gradient-9);}.cls-17{fill:url(#linear-gradient-10);}.cls-19{fill:#eed0c5;}.cls-20{fill:#fecd72;}.cls-21{fill:#fec972;}.cls-22{fill:#fecc72;}.cls-23{fill:#fece72;}.cls-24{fill:url(#linear-gradient-11);}.cls-25{fill:#ffbb21;}.cls-26{fill:url(#linear-gradient-12);}.cls-27{fill:url(#linear-gradient-13);}.cls-28{fill:url(#linear-gradient-14);}.cls-29{fill:#f87e1c;}.cls-30{fill:url(#linear-gradient-15);}.cls-31{fill:url(#linear-gradient-16);}</style><linearGradient id="linear-gradient" x1="60.2" y1="219.66" x2="425.92" y2="219.66" gradientUnits="userSpaceOnUse"><stop offset="0" stop-color="#fdf53f"/><stop offset="1" stop-color="#d93c65"/></linearGradient><linearGradient id="linear-gradient-2" x1="601.22" y1="380.83" x2="601.29" y2="380.83" gradientUnits="userSpaceOnUse"><stop offset="0" stop-color="#febbba"/><stop offset="1" stop-color="#ff928e"/></linearGradient><linearGradient id="linear-gradient-3" x1="601.22" y1="378.09" x2="601.29" y2="378.09" xlink:href="#linear-gradient-2"/><linearGradient id="linear-gradient-4" x1="601.22" y1="293.46" x2="601.29" y2="293.46" gradientUnits="userSpaceOnUse"><stop offset="0" stop-color="#09005d"/><stop offset="1" stop-color="#1a0f91"/></linearGradient><linearGradient id="linear-gradient-5" x1="601.22" y1="197.92" x2="601.29" y2="197.92" xlink:href="#linear-gradient-2"/><linearGradient id="linear-gradient-6" x1="601.22" y1="244.01" x2="601.29" y2="244.01" xlink:href="#linear-gradient-2"/><linearGradient id="linear-gradient-7" x1="601.22" y1="234.38" x2="601.29" y2="234.38" xlink:href="#linear-gradient-2"/><linearGradient id="linear-gradient-8" x1="601.22" y1="202.25" x2="601.29" y2="202.25" xlink:href="#linear-gradient-2"/><linearGradient id="linear-gradient-9" x1="601.22" y1="189.25" x2="601.29" y2="189.25" xlink:href="#linear-gradient-2"/><linearGradient id="linear-gradient-10" x1="601.22" y1="194.43" x2="601.29" y2="194.43" xlink:href="#linear-gradient-2"/><linearGradient id="linear-gradient-11" x1="601.22" y1="195.76" x2="601.29" y2="195.76" xlink:href="#linear-gradient-2"/><linearGradient id="linear-gradient-12" x1="601.22" y1="348.91" x2="601.29" y2="348.91" xlink:href="#linear-gradient-2"/><linearGradient id="linear-gradient-13" x1="601.22" y1="351.58" x2="601.29" y2="351.58" xlink:href="#linear-gradient-2"/><linearGradient id="linear-gradient-14" x1="601.22" y1="195.22" x2="601.29" y2="195.22" xlink:href="#linear-gradient-2"/><linearGradient id="linear-gradient-15" x1="601.22" y1="215.25" x2="601.29" y2="215.25" xlink:href="#linear-gradient-2"/><linearGradient id="linear-gradient-16" x1="601.22" y1="198.05" x2="601.29" y2="198.05" xlink:href="#linear-gradient-2"/></defs><title>armado</title><path class="cls-1" d="M394.17,336.44C384.07,347.05,382,348.58,375,353.28c-67.5,45.9-165.16,34.81-189,30.29-38.49-7.3-57.39-9.87-85.3-35.56C37.28,289.65,40.36,167.9,88.83,92.49c5.75-8.95,53.3-78.33,130.62-88.63,1.89-.25,91.47-12.29,151.92,39.28a182.89,182.89,0,0,1,35.49,41C454.07,158.4,454.22,273.41,394.17,336.44Z" transform="translate(-49.35 -2.47)"/><polygon class="cls-2" points="166.57 302.73 158.85 373.28 248.46 373.28 236.79 302.73 166.57 302.73"/><path class="cls-3" d="M49.35,133V309.06a26.48,26.48,0,0,0,25.55,26.7c63.14,1.66,284,5.68,344.1,4.78a19.47,19.47,0,0,0,19-19.09c1.15-40.91,3-139.26-3.93-184.92a20,20,0,0,0-19-17.12c-52.9-1.73-287-7.2-347.09-5.83A19.25,19.25,0,0,0,49.35,133Z" transform="translate(-49.35 -2.47)"/><path class="cls-4" d="M60.2,132.14V299.41a15.34,15.34,0,0,0,15,15.48l335.18,4.21a14.91,14.91,0,0,0,15-15l.56-165.78a10.93,10.93,0,0,0-10.55-11L72.2,120.21A11.82,11.82,0,0,0,60.2,132.14Z" transform="translate(-49.35 -2.47)"/><path class="cls-5" d="M427.88,325.93h0L60.19,319.55a.45.45,0,0,1,0-.89L427.89,325a.45.45,0,0,1,.43.45A.44.44,0,0,1,427.88,325.93Z" transform="translate(-49.35 -2.47)"/><path class="cls-6" d="M60.2,132.14V299.41a15.34,15.34,0,0,0,15,15.48l335.18,4.21a14.91,14.91,0,0,0,15-15l.56-165.78a10.93,10.93,0,0,0-10.55-11L72.2,120.21A11.82,11.82,0,0,0,60.2,132.14Z" transform="translate(-49.35 -2.47)"/><path class="cls-5" d="M247.67,333.72a4.34,4.34,0,1,1,4.26-4.34A4.31,4.31,0,0,1,247.67,333.72Zm0-7.79a3.45,3.45,0,1,0,3.38,3.45A3.43,3.43,0,0,0,247.67,325.93Z" transform="translate(-49.35 -2.47)"/><path class="cls-3" d="M317.11,390.18H186c-3.57,0-6.24-2.58-5.55-5.36l1.68-6.77c.51-2,2.71-3.54,5.32-3.62l126.44-4c2.73-.09,5.15,1.39,5.75,3.51l3,10.79C323.42,387.52,320.73,390.18,317.11,390.18Z" transform="translate(-49.35 -2.47)"/><path class="cls-5" d="M256.56,376.27a.44.44,0,0,1-.44-.44.45.45,0,0,1,.43-.45l5.42-.08a.44.44,0,0,1,.44.44.43.43,0,0,1-.43.45l-5.41.08Z" transform="translate(-49.35 -2.47)"/><path class="cls-5" d="M185.26,386.46h-.07a.45.45,0,0,1-.36-.51l.77-4.93a5.46,5.46,0,0,1,5.28-4.65l57.46-.85a.45.45,0,1,1,0,.89l-57.46.85a4.56,4.56,0,0,0-4.42,3.9l-.78,4.93A.44.44,0,0,1,185.26,386.46Z" transform="translate(-49.35 -2.47)"/><path class="cls-7" d="M385.47,314.91l-289.4-3.4c-8.42-.09-15.19-7.28-15.19-16.1V186.55c0-9,7-16.25,15.61-16.11l289.39,4.86c8.39.14,15.12,7.31,15.12,16.11V298.8C401,307.77,394,315,385.47,314.91Z" transform="translate(-49.35 -2.47)"/><path class="cls-8" d="M393.87,167.59l-305.58-3c-3.85,0-6.94-2.37-6.94-5.24V148.64c0-2.93,3.22-5.29,7.15-5.24l305.57,3.54c3.85.05,6.93,2.38,6.93,5.25v10.15C401,165.27,397.79,167.63,393.87,167.59Z" transform="translate(-49.35 -2.47)"/><path class="cls-8" d="M282.84,300.19l-173.67-2.47a13.31,13.31,0,0,1-13-13.36l-.36-87.47A13.31,13.31,0,0,1,109,183.41H283a13.3,13.3,0,0,1,13.18,13.43v89.93A13.31,13.31,0,0,1,282.84,300.19Z" transform="translate(-49.35 -2.47)"/><path class="cls-8" d="M385.2,239H313.81a7.29,7.29,0,0,1-7.23-7.36v-40.7a7.3,7.3,0,0,1,7.39-7.36l71.39,1.6a7.29,7.29,0,0,1,7.06,7.36v39.1A7.29,7.29,0,0,1,385.2,239Z" transform="translate(-49.35 -2.47)"/><path class="cls-8" d="M385.5,299.36h-72a7,7,0,0,1-6.92-7.05V250.82a7,7,0,0,1,6.92-7h72a7,7,0,0,1,6.92,7v41.49A7,7,0,0,1,385.5,299.36Z" transform="translate(-49.35 -2.47)"/><path class="cls-3" d="M70.7,382.55S69,385.22,68.62,392.7A1.2,1.2,0,0,0,69.81,394h13a.78.78,0,0,0,.73-1c-.77-2.3-3.07-7.9-8.22-11.11Z" transform="translate(-49.35 -2.47)"/><path class="cls-9" d="M70.14,377.48l.73,6.29a1.19,1.19,0,0,0,1,1,10.2,10.2,0,0,0,2.75,0,1.93,1.93,0,0,0,1.57-1.93v-6.07Z" transform="translate(-49.35 -2.47)"/><path class="cls-3" d="M102.91,381.85a18.82,18.82,0,0,0-2.44,9.36,2.32,2.32,0,0,0,2.32,2.29H123a1,1,0,0,0,.55-1.79c-3.82-2.73-11.34-7.85-16.78-9.86Z" transform="translate(-49.35 -2.47)"/><path class="cls-10" d="M100.83,375.06l1.57,7.77a1.58,1.58,0,0,0,1.86,1.26,5.55,5.55,0,0,0,1.78-.76,1.83,1.83,0,0,0,.8-1.87l-1.62-9.41Z" transform="translate(-49.35 -2.47)"/><path class="cls-7" d="M73,267.09S67.56,272,66.53,277.9s2.91,101.78,2.91,101.78,5.47.92,8.28-.82c0,0,3.34-62.22,5.88-76.6,0,0,13.31,64.46,17,76.1,0,0,5.26.65,7-.36,0,0-3.49-83.56-7.87-98.41Z" transform="translate(-49.35 -2.47)"/><path class="cls-11" d="M83.44,300.24a.6.6,0,0,1-.58-.45L80.6,291l-4.81-3.14a.61.61,0,0,1-.18-.84.59.59,0,0,1,.82-.18l5,3.27a.63.63,0,0,1,.25.36L84,299.48a.62.62,0,0,1-.42.74Z" transform="translate(-49.35 -2.47)"/><path d="M126.91,211.69c-23-1.94-29,2.9-29,2.9l11,17.77s22.59-.46,38.78-13.16a40.5,40.5,0,0,1-6.49-9.86A29.81,29.81,0,0,1,126.91,211.69Z" transform="translate(-49.35 -2.47)"/><path class="cls-12" d="M162.91,177.33a.7.7,0,0,0-1.34-.28l-2.94,6.38a6.86,6.86,0,0,0-.52,3.95l1,3.71a6.48,6.48,0,0,1-1.28,5.1c-2.69,3.43-8.44,9.7-16.61,13.15a40.5,40.5,0,0,0,6.49,9.86,40.41,40.41,0,0,0,13.79-19.52,3.1,3.1,0,0,0,2.17-3.11Z" transform="translate(-49.35 -2.47)"/><path d="M134.48,222c-8.1-8.88-23.51-12.89-32.43-14.54a8.16,8.16,0,0,0-9.15,5.29c-4,11-14.94,39.6-17.06,44.51-1.74,4-3.55,8-4.7,10.44a3,3,0,0,0,1.35,3.94c7.51,3.69,21,7.86,26.5,9.48a1.88,1.88,0,0,0,2.4-1.84,6.07,6.07,0,0,1,.84-3.08L123,241c12.93,14.6,24.25,15.93,33,12.74a67.41,67.41,0,0,1-2.88-13.84C140.2,237.65,134.48,222,134.48,222Z" transform="translate(-49.35 -2.47)"/><path class="cls-13" d="M174.29,237.44,172,234.29c-7.51,5.25-13.78,6.5-18.92,5.6a67.41,67.41,0,0,0,2.88,13.84C167.39,249.52,174.29,237.44,174.29,237.44Z" transform="translate(-49.35 -2.47)"/><path class="cls-14" d="M172.65,237.5l13.07.52,12-6.85c-1.73-1.1-11.49,1.15-11.49,1.15s-10.21-1.57-13-1.57c-2.3,0-2,3.35-1.79,4.49,0,.24.06.38.06.38Z" transform="translate(-49.35 -2.47)"/><path class="cls-15" d="M114.32,191.14l-6.89,17.13s7.92,5.58,14.29,5l3.44-15.4Z" transform="translate(-49.35 -2.47)"/><path class="cls-16" d="M126,179.46c.15.23,5,18,5,18l-10,2.6-7-16.15S123.32,175.65,126,179.46Z" transform="translate(-49.35 -2.47)"/><path d="M117.67,186.35l3,8.8a1.14,1.14,0,0,0,.16.31c.41.6,2,2.56,3.85.8,1.69-1.6,3.26-3,4.71-3.29a1.26,1.26,0,0,1,1.45.93,57.59,57.59,0,0,1,1.69,8.58,1.31,1.31,0,0,1-1,1.4,40.93,40.93,0,0,1-9.57.81,1.3,1.3,0,0,1-1.08-.76c-1-2.12-3.88-8.57-5-10.24s-3.52-1.52-4.57-1.43a1.21,1.21,0,0,1-.94-.31c-.92-.82-2.67-2.91-.21-5.42a1.33,1.33,0,0,0,0-1.88,3.41,3.41,0,0,1-.43-5,4.64,4.64,0,0,1,5.6-1.37,1.26,1.26,0,0,0,1.54-.58,1,1,0,0,1,1-.49,1.28,1.28,0,0,0,1.35-1.32,3.88,3.88,0,0,1,3-4.06c4.37-1.39,7.1,2.92,7.37,6.13s-4.55,4.45-7.39,4.23c-2.16-.17-3.77,2-4.41,3.07A1.28,1.28,0,0,0,117.67,186.35Z" transform="translate(-49.35 -2.47)"/><path class="cls-17" d="M117.07,196.88s-.71-5.58-3-5.85-4.5,1.63-2.23,4.77C114.67,199.69,117.07,196.88,117.07,196.88Z" transform="translate(-49.35 -2.47)"/><path class="cls-18" d="M168.57,154.5l133.07-.85a5.35,5.35,0,0,1,5.5,5.26l-.56,70.3A5.37,5.37,0,0,1,301,234.4l-131.62-3.79a5.33,5.33,0,0,1-5.3-5.15l-.88-65.67A5.33,5.33,0,0,1,168.57,154.5Z" transform="translate(-49.35 -2.47)"/><path class="cls-19" d="M301.12,230.11l-131.66-3.78a1,1,0,0,1-.92-.93l-.88-65.66a.94.94,0,0,1,.94-1l133.07-.86a1,1,0,0,1,.67.27.88.88,0,0,1,.28.68l-.56,70.3A.94.94,0,0,1,301.12,230.11Zm.62-71.24-133.13.82.82,65.7.06,0,131.64,3.79Z" transform="translate(-49.35 -2.47)"/><path class="cls-20" d="M176.25,168.52c0,2.27,1.38,4.11,3.08,4.11H292.51c1.7,0,3.08-1.84,3.08-4.11s-1.38-4.1-3.08-4.1H179.33C177.63,164.42,176.25,166.25,176.25,168.52Z" transform="translate(-49.35 -2.47)"/><path class="cls-21" d="M176.8,177h47.65a3,3,0,0,1,3.06,2.92v37.63a3,3,0,0,1-3.14,2.93l-46.68-1.24a3,3,0,0,1-3-2.85l-1-36.39A3,3,0,0,1,176.8,177Z" transform="translate(-49.35 -2.47)"/><path class="cls-22" d="M237.45,177.89h53.19a2.49,2.49,0,0,1,0,4.92H237.45a2.49,2.49,0,0,1,0-4.92Z" transform="translate(-49.35 -2.47)"/><path class="cls-23" d="M235.36,190.89a2.29,2.29,0,0,0,2.09,2.46h53.19a2.3,2.3,0,0,0,2.1-2.46v-1.52a2.29,2.29,0,0,0-2.15-2.46l-53.19,1.52A2.31,2.31,0,0,0,235.36,190.89Z" transform="translate(-49.35 -2.47)"/><path class="cls-24" d="M343.86,183.45s.87,38.6,40.71,45.36l7.16-7.19s-34.5-11.94-43.49-36.91l1.92-13.24-1.35-8.76Z" transform="translate(-49.35 -2.47)"/><path class="cls-18" d="M412,168.76,253.9,172.7a12.51,12.51,0,0,1-12.65-11.15L228.7,54.15A12.59,12.59,0,0,1,240.5,40l168-7.44a12.52,12.52,0,0,1,13,12.33l2.67,110.9A12.56,12.56,0,0,1,412,168.76Z" transform="translate(-49.35 -2.47)"/><path class="cls-7" d="M405.56,163.11l-146,3.64a11.44,11.44,0,0,1-11.67-10.06L236.38,59.74A11.45,11.45,0,0,1,247.28,47l155.11-6.81a11.44,11.44,0,0,1,12,11.13l2.41,100.12A11.46,11.46,0,0,1,405.56,163.11Z" transform="translate(-49.35 -2.47)"/><path class="cls-18" d="M230,62.59l192-8.77-.21-8.66a12.64,12.64,0,0,0-13-12.47l-168,7.38c-7.22.32-12.64,7.07-11.79,14.38Z" transform="translate(-49.35 -2.47)"/><path class="cls-8" d="M302.11,136.65l-43.43,2c-1.48.07-2.87-3.8-3.19-8.85L253,89.59c-.35-5.54.72-10.29,2.34-10.37l44.21-2c1.54-.07,3,4.18,3.22,9.49l1.77,40.22C304.73,132.22,303.66,136.58,302.11,136.65Z" transform="translate(-49.35 -2.47)"/><path class="cls-8" d="M405.29,80.9l-94.43,4.31a2.89,2.89,0,0,1-3-2.79l-.06-1.22a2.91,2.91,0,0,1,2.75-3.06L405,73.83a2.89,2.89,0,0,1,3,2.79l.06,1.22A2.91,2.91,0,0,1,405.29,80.9Z" transform="translate(-49.35 -2.47)"/><path class="cls-8" d="M406.89,106.06l-94.43,4.31a2.9,2.9,0,0,1-3-2.8l-.06-1.21a2.91,2.91,0,0,1,2.75-3.06L406.58,99a2.9,2.9,0,0,1,3,2.8l.06,1.22A2.92,2.92,0,0,1,406.89,106.06Z" transform="translate(-49.35 -2.47)"/><path class="cls-8" d="M360.68,70.1,256,74.89a2.9,2.9,0,0,1-3-2.8l0-1.22a2.89,2.89,0,0,1,2.74-3.05L360.37,63a2.9,2.9,0,0,1,3,2.8l.06,1.21A2.91,2.91,0,0,1,360.68,70.1Z" transform="translate(-49.35 -2.47)"/><path class="cls-8" d="M405.84,93.24,311.4,97.55a2.9,2.9,0,0,1-3-2.79l0-1.22a2.9,2.9,0,0,1,2.74-3.06l94.43-4.31a2.9,2.9,0,0,1,3,2.79l.05,1.22A2.91,2.91,0,0,1,405.84,93.24Z" transform="translate(-49.35 -2.47)"/><path class="cls-8" d="M407.57,119.08l-94.43,4.31a2.89,2.89,0,0,1-3-2.79l-.06-1.22a2.91,2.91,0,0,1,2.75-3.06L407.26,112a2.88,2.88,0,0,1,3,2.79l.06,1.22A2.92,2.92,0,0,1,407.57,119.08Z" transform="translate(-49.35 -2.47)"/><path class="cls-8" d="M409.17,144.24l-94.43,4.31a2.9,2.9,0,0,1-3-2.8l-.06-1.21a2.91,2.91,0,0,1,2.75-3.06l94.43-4.32a2.9,2.9,0,0,1,3,2.8l.06,1.22A2.92,2.92,0,0,1,409.17,144.24Z" transform="translate(-49.35 -2.47)"/><path class="cls-8" d="M408.12,131.42l-94.44,4.31a2.9,2.9,0,0,1-3-2.79l-.05-1.22a2.9,2.9,0,0,1,2.74-3.06l94.43-4.31a2.9,2.9,0,0,1,3,2.79l.05,1.22A2.91,2.91,0,0,1,408.12,131.42Z" transform="translate(-49.35 -2.47)"/><ellipse class="cls-3" cx="195.09" cy="49.42" rx="3.52" ry="3.59"/><ellipse class="cls-25" cx="206.21" cy="48.91" rx="3.52" ry="3.59"/><ellipse cx="218.95" cy="48.33" rx="3.52" ry="3.59"/><path class="cls-26" d="M382.38,315.68s18.91,42,28.82,59.34c0,0,2,10.94,0,14.38l-1.67.76,7.83-.24s.7-14.71.15-15.53a2,2,0,0,0-1.63-.77s-3.36-27.11-13.09-32.89l-9.42-33.08Z" transform="translate(-49.35 -2.47)"/><path class="cls-3" d="M364.47,392.46a.71.71,0,0,0,.35,1.32c5.57-.06,18.05-.24,19.16-.71,1.44-.61-.52-5.85-2.58-7.62l-11.35,3.77Z" transform="translate(-49.35 -2.47)"/><path class="cls-27" d="M360.94,313s12.22,60.18,15.67,71.92l-8.17,5.23s4.09-.71,7.13-.94,5.83-3.77,5.83-3.77l-1-1.59s-3.06-59.86-2.31-66.66Z" transform="translate(-49.35 -2.47)"/><path class="cls-28" d="M330.62,172.62s-1.69,31.31,26.3,47.31l-6.74,15.65S324.84,220,325.78,177.4a5,5,0,0,0-1.19-3.33l-5.39-6.37a10,10,0,0,1-2.05-8.82l.71-2.88a1.46,1.46,0,0,1,2.16-.93l.56.33a9.93,9.93,0,0,1,4.06,4.6l2.65,6a5.66,5.66,0,0,0,5.67,3.4l1.64-.14Z" transform="translate(-49.35 -2.47)"/><path class="cls-29" d="M356,217.58c4.68,1.33,20.54,5.58,30.44,5.4l-6.08,35,.49,5.7L361,263.54s-5.58-13.2-10-19.78c-1.27-1.91-.33-4.17.4-6.35l-1-.67a2.78,2.78,0,0,1-1.06-3.14l4.82-15A1.48,1.48,0,0,1,356,217.58Z" transform="translate(-49.35 -2.47)"/><path d="M359.38,260.55l.39,3.46s-5.6,17.08,2.81,57c0,0,18.2,5.25,33.15-7.31,0,0-4.21-37.67-5.37-39.42-5.74-8.74-9.56-10.64-9.56-10.64l-.17-3.78S364.63,262.8,359.38,260.55Z" transform="translate(-49.35 -2.47)"/><path class="cls-30" d="M367.15,220.4c-.07-.09,4.13-12.94,4.13-12.94l6,.56,2.36,14.57S370.22,224.53,367.15,220.4Z" transform="translate(-49.35 -2.47)"/><path class="cls-31" d="M375.87,187.2c-.4.26-12.88,5.51-10.2,18.7a2.5,2.5,0,0,0,1.38,1.77,20.93,20.93,0,0,0,10.49,1.77c6.54-.68,10.82-12.3,10.64-15.68S379.85,184.67,375.87,187.2Z" transform="translate(-49.35 -2.47)"/><path d="M379.67,182.07c-.33.05-7.21,2.49-3.8,7.57s4.69,8.07,3.08,10.3c-1.47,2-4.73.87-4.45,5.1a2.36,2.36,0,0,1-1,2.14c-3.07,2.12-10.56,8.64-3.14,17.93a2.4,2.4,0,0,1,.26,2.65c-2.17,4-6.74,15.6,9.79,22.05,16.34,6.38,22.24-4.5,23.89-8.84a2.26,2.26,0,0,1,2.25-1.47c1.8.09,4.34-.22,4.22-2.66a6.12,6.12,0,0,0-2-3.88,2.33,2.33,0,0,1,.44-3.65,4.59,4.59,0,0,0,2.2-2.82c1-3.74-1-14.91-11.5-16.8a2.52,2.52,0,0,1-1.93-1.89v0a2.36,2.36,0,0,1,.84-2.28,6.08,6.08,0,0,0,2.09-7.83,8.66,8.66,0,0,0-6.74-5.19,2.33,2.33,0,0,1-1.88-2.79C393,186.1,392.35,180.38,379.67,182.07Z" transform="translate(-49.35 -2.47)"/></svg>