<svg xmlns="http://www.w3.org/2000/svg" xmlns:xlink="http://www.w3.org/1999/xlink" viewBox="0 0 452.33 374.94"><defs><style>.cls-1{fill:none;}.cls-2{isolation:isolate;}.cls-3{clip-path:url(#clip-path);}.cls-4{fill:#f9d180;}.cls-5{fill:#f1f1f4;}.cls-6{fill:#e0623f;}.cls-23,.cls-6{opacity:0.54;}.cls-7{fill:url(#Degradado_sin_nombre_156);}.cls-8{fill:#e5e2ff;}.cls-9{fill:url(#Degradado_sin_nombre_47);}.cls-10{fill:#af7502;}.cls-11{opacity:0.62;fill:url(#Áåçûìÿííûé_ãðàäèåíò_94);}.cls-103,.cls-108,.cls-11,.cls-19,.cls-20,.cls-21,.cls-25,.cls-31,.cls-34,.cls-36,.cls-39,.cls-41,.cls-42,.cls-43,.cls-44,.cls-45,.cls-46,.cls-47,.cls-48,.cls-49,.cls-50,.cls-51,.cls-52,.cls-53,.cls-54,.cls-57,.cls-58,.cls-59,.cls-60,.cls-61,.cls-62,.cls-66,.cls-72,.cls-77,.cls-79,.cls-80,.cls-81,.cls-83,.cls-84,.cls-86,.cls-87,.cls-89,.cls-90,.cls-99{mix-blend-mode:multiply;}.cls-103,.cls-12,.cls-15,.cls-16,.cls-25,.cls-41,.cls-42,.cls-43,.cls-44,.cls-45,.cls-46,.cls-47,.cls-49,.cls-51,.cls-52,.cls-53,.cls-54,.cls-57,.cls-59,.cls-60,.cls-61,.cls-62,.cls-81,.cls-86{opacity:0.5;}.cls-12,.cls-15,.cls-16{mix-blend-mode:screen;}.cls-12{fill:url(#Áåçûìÿííûé_ãðàäèåíò_95);}.cls-108,.cls-13{fill:#fff;}.cls-14{fill:#a3a3a2;}.cls-15{fill:url(#Degradado_sin_nombre_112);}.cls-16{fill:url(#Degradado_sin_nombre_112-2);}.cls-17{fill:url(#Áåçûìÿííûé_ãðàäèåíò_26);}.cls-18{fill:url(#Áåçûìÿííûé_ãðàäèåíò_26-2);}.cls-19{fill:url(#Degradado_sin_nombre_92);}.cls-20,.cls-21,.cls-48,.cls-87{opacity:0.76;}.cls-20{fill:url(#Degradado_sin_nombre_97);}.cls-21{fill:url(#Degradado_sin_nombre_97-2);}.cls-22{fill:#fe9083;}.cls-100,.cls-23{fill:#f24f18;}.cls-24{fill:#e09105;}.cls-25{fill:url(#Áåçûìÿííûé_ãðàäèåíò_70);}.cls-26{fill:url(#Degradado_sin_nombre_47-2);}.cls-27{fill:url(#Degradado_sin_nombre_60);}.cls-28{fill:#cb4d7a;}.cls-29{fill:#ee8183;}.cls-30{fill:url(#Áåçûìÿííûé_ãðàäèåíò_71);}.cls-31,.cls-36,.cls-66,.cls-77,.cls-79,.cls-80,.cls-89{opacity:0.6;}.cls-31{fill:url(#Áåçûìÿííûé_ãðàäèåíò_48);}.cls-32{fill:url(#Áåçûìÿííûé_ãðàäèåíò_71-2);}.cls-33{fill:#e28183;}.cls-34,.cls-39{opacity:0.91;}.cls-34{fill:url(#Áåçûìÿííûé_ãðàäèåíò_73);}.cls-35{fill:url(#Áåçûìÿííûé_ãðàäèåíò_71-3);}.cls-36{fill:url(#Áåçûìÿííûé_ãðàäèåíò_48-2);}.cls-37{fill:url(#Áåçûìÿííûé_ãðàäèåíò_64);}.cls-38{fill:url(#Áåçûìÿííûé_ãðàäèåíò_64-2);}.cls-39{fill:url(#Áåçûìÿííûé_ãðàäèåíò_73-2);}.cls-101,.cls-40,.cls-85,.cls-93{fill:#ffbb21;}.cls-41{fill:url(#Áåçûìÿííûé_ãðàäèåíò_4);}.cls-42{fill:url(#Áåçûìÿííûé_ãðàäèåíò_4-2);}.cls-43{fill:url(#Áåçûìÿííûé_ãðàäèåíò_4-3);}.cls-44{fill:url(#Áåçûìÿííûé_ãðàäèåíò_4-4);}.cls-45{fill:url(#Áåçûìÿííûé_ãðàäèåíò_4-5);}.cls-46{fill:url(#Áåçûìÿííûé_ãðàäèåíò_4-6);}.cls-47{fill:url(#Áåçûìÿííûé_ãðàäèåíò_4-7);}.cls-48{fill:url(#Áåçûìÿííûé_ãðàäèåíò_70-2);}.cls-49{fill:url(#Áåçûìÿííûé_ãðàäèåíò_70-3);}.cls-50,.cls-58{opacity:0.3;}.cls-50{fill:url(#Áåçûìÿííûé_ãðàäèåíò_70-4);}.cls-51{fill:url(#Áåçûìÿííûé_ãðàäèåíò_4-8);}.cls-52{fill:url(#Degradado_sin_nombre_2);}.cls-53{fill:url(#Áåçûìÿííûé_ãðàäèåíò_4-9);}.cls-54{fill:url(#Áåçûìÿííûé_ãðàäèåíò_4-10);}.cls-55{fill:url(#Degradado_sin_nombre_32);}.cls-56{fill:#ebefff;}.cls-57{fill:url(#Áåçûìÿííûé_ãðàäèåíò_70-5);}.cls-58{fill:url(#Áåçûìÿííûé_ãðàäèåíò_70-6);}.cls-59{fill:url(#Áåçûìÿííûé_ãðàäèåíò_70-7);}.cls-60{fill:url(#Áåçûìÿííûé_ãðàäèåíò_70-8);}.cls-61{fill:url(#Áåçûìÿííûé_ãðàäèåíò_70-9);}.cls-62{fill:#7a4ac0;}.cls-63{fill:url(#Áåçûìÿííûé_ãðàäèåíò_71-4);}.cls-64{fill:url(#Áåçûìÿííûé_ãðàäèåíò_71-5);}.cls-65{fill:url(#Áåçûìÿííûé_ãðàäèåíò_387);}.cls-66{fill:url(#Áåçûìÿííûé_ãðàäèåíò_48-3);}.cls-67,.cls-72,.cls-80{fill:#303030;}.cls-68{fill:url(#Áåçûìÿííûé_ãðàäèåíò_59);}.cls-69{fill:url(#Áåçûìÿííûé_ãðàäèåíò_184);}.cls-70{fill:#ffebed;}.cls-71{fill:#828282;}.cls-73{fill:#c6659c;}.cls-74{fill:#cb5f7d;}.cls-75{fill:#9f4a8b;}.cls-76{fill:#ffbcaf;}.cls-77{fill:url(#Áåçûìÿííûé_ãðàäèåíò_48-4);}.cls-78{fill:#d2726c;}.cls-79{fill:url(#Áåçûìÿííûé_ãðàäèåíò_35);}.cls-81{fill:url(#Áåçûìÿííûé_ãðàäèåíò_397);}.cls-82{fill:#606060;}.cls-83,.cls-84{opacity:0.8;}.cls-83{fill:url(#Áåçûìÿííûé_ãðàäèåíò_285);}.cls-84{fill:url(#Áåçûìÿííûé_ãðàäèåíò_285-2);}.cls-85{opacity:0.57;}.cls-86{fill:url(#Áåçûìÿííûé_ãðàäèåíò_4-11);}.cls-87{fill:url(#Degradado_sin_nombre_82);}.cls-88,.cls-89,.cls-90{fill:#f20000;}.cls-91{fill:url(#Degradado_sin_nombre_25);}.cls-92{fill:url(#Degradado_sin_nombre_20);}.cls-93{opacity:0.81;}.cls-94{fill:#f9f9f9;}.cls-95{fill:url(#Áåçûìÿííûé_ãðàäèåíò_322);}.cls-96{opacity:0.73;fill:url(#Degradado_sin_nombre_25-2);}.cls-97{fill:url(#Degradado_sin_nombre_25-3);}.cls-98{fill:#953da2;}.cls-99{fill:#d1d4fb;}.cls-100,.cls-101,.cls-102,.cls-103,.cls-104,.cls-105,.cls-106{fill-rule:evenodd;}.cls-102{fill:#b3d9ff;}.cls-102,.cls-107{mix-blend-mode:soft-light;}.cls-103{fill:#601734;}.cls-104{fill:#d43010;}.cls-105{fill:url(#Degradado_sin_nombre_25-4);}.cls-106{fill:url(#Degradado_sin_nombre_20-2);}</style><clipPath id="clip-path" transform="translate(-69.06 -36.88)"><rect class="cls-1" x="-9.28" y="-0.55" width="600" height="400"/></clipPath><linearGradient id="Degradado_sin_nombre_156" x1="131.67" y1="270.77" x2="131.67" y2="199.58" gradientTransform="matrix(0.91, -0.42, 0.42, 0.91, -75.05, 53.74)" gradientUnits="userSpaceOnUse"><stop offset="0" stop-color="#7b7b7b"/><stop offset="1"/></linearGradient><linearGradient id="Degradado_sin_nombre_47" x1="131.66" y1="255.85" x2="131.66" y2="225.84" gradientTransform="matrix(0.91, -0.42, 0.42, 0.91, -75.05, 53.74)" gradientUnits="userSpaceOnUse"><stop offset="0"/><stop offset="1" stop-color="#bb7705" stop-opacity="0.5"/></linearGradient><linearGradient id="Áåçûìÿííûé_ãðàäèåíò_94" x1="131.66" y1="228.42" x2="131.66" y2="223.27" gradientTransform="matrix(0.91, -0.42, 0.42, 0.91, -75.05, 53.74)" gradientUnits="userSpaceOnUse"><stop offset="0" stop-color="#fff"/><stop offset="1" stop-color="#a177b7"/></linearGradient><linearGradient id="Áåçûìÿííûé_ãðàäèåíò_95" x1="136.17" y1="258.91" x2="136.17" y2="225.83" gradientTransform="matrix(0.91, -0.42, 0.42, 0.91, -75.05, 53.74)" gradientUnits="userSpaceOnUse"><stop offset="0"/><stop offset="1" stop-color="#fff"/></linearGradient><radialGradient id="Degradado_sin_nombre_112" cx="222.89" cy="363.8" r="27.03" gradientTransform="matrix(0, 0.66, -1.71, 0, 855.88, 210.57)" gradientUnits="userSpaceOnUse"><stop offset="0" stop-color="#4b474b"/><stop offset="0.05" stop-color="#3b383b"/><stop offset="0.13" stop-color="#252325"/><stop offset="0.23" stop-color="#141314"/><stop offset="0.35" stop-color="#090809"/><stop offset="0.52" stop-color="#020202"/><stop offset="1"/></radialGradient><radialGradient id="Degradado_sin_nombre_112-2" cx="334.55" cy="350.68" r="27.03" gradientTransform="matrix(0.66, 0, 0, 1.71, 86.5, -233.9)" xlink:href="#Degradado_sin_nombre_112"/><linearGradient id="Áåçûìÿííûé_ãðàäèåíò_26" x1="242.15" y1="368.13" x2="265.55" y2="368.13" gradientUnits="userSpaceOnUse"><stop offset="0" stop-color="#9e8cef"/><stop offset="1" stop-color="#caafee"/></linearGradient><linearGradient id="Áåçûìÿííûé_ãðàäèåíò_26-2" x1="350.8" y1="368.13" x2="374.2" y2="368.13" gradientTransform="matrix(-1, 0, 0, 1, 647.63, 0)" xlink:href="#Áåçûìÿííûé_ãðàäèåíò_26"/><linearGradient id="Degradado_sin_nombre_92" x1="222.56" y1="354.93" x2="314.26" y2="354.93" gradientUnits="userSpaceOnUse"><stop offset="0" stop-color="#a0a0a0"/><stop offset="0.55" stop-color="#9e9e9e"/><stop offset="0.86" stop-color="#989896"/><stop offset="1" stop-color="#93938f"/></linearGradient><linearGradient id="Degradado_sin_nombre_97" x1="209.21" y1="317.96" x2="209.21" y2="293.63" gradientUnits="userSpaceOnUse"><stop offset="0" stop-color="#ccf"/><stop offset="1"/></linearGradient><linearGradient id="Degradado_sin_nombre_97-2" x1="181.02" y1="309.02" x2="181.02" y2="285.18" xlink:href="#Degradado_sin_nombre_97"/><linearGradient id="Áåçûìÿííûé_ãðàäèåíò_70" x1="189.31" y1="206.36" x2="233.01" y2="206.36" gradientUnits="userSpaceOnUse"><stop offset="0" stop-color="#ccf"/><stop offset="1" stop-color="#755cbb"/></linearGradient><linearGradient id="Degradado_sin_nombre_47-2" x1="187.96" y1="256.62" x2="187.96" y2="172.71" gradientTransform="matrix(1, 0, 0, 1, 0, 0)" xlink:href="#Degradado_sin_nombre_47"/><linearGradient id="Degradado_sin_nombre_60" x1="332.25" y1="232.43" x2="388.56" y2="232.43" gradientUnits="userSpaceOnUse"><stop offset="0"/><stop offset="0.04" stop-color="#201804"/><stop offset="0.1" stop-color="#4f3a0a"/><stop offset="0.17" stop-color="#795910"/><stop offset="0.24" stop-color="#9d7314"/><stop offset="0.31" stop-color="#bc8a18"/><stop offset="0.4" stop-color="#d49c1b"/><stop offset="0.49" stop-color="#e7aa1e"/><stop offset="0.6" stop-color="#f5b420"/><stop offset="0.74" stop-color="#fdb921"/><stop offset="1" stop-color="#ffbb21"/></linearGradient><linearGradient id="Áåçûìÿííûé_ãðàäèåíò_71" x1="169.65" y1="161.27" x2="169.65" y2="139.14" gradientUnits="userSpaceOnUse"><stop offset="0.02" stop-color="#ffc2a9"/><stop offset="1" stop-color="#ff9595"/></linearGradient><linearGradient id="Áåçûìÿííûé_ãðàäèåíò_48" x1="183.58" y1="160.74" x2="183.58" y2="124.12" gradientUnits="userSpaceOnUse"><stop offset="0" stop-color="#ffeadb"/><stop offset="0.99" stop-color="#c27cb6"/></linearGradient><linearGradient id="Áåçûìÿííûé_ãðàäèåíò_71-2" x1="182.39" y1="185.66" x2="182.39" y2="129.2" xlink:href="#Áåçûìÿííûé_ãðàäèåíò_71"/><linearGradient id="Áåçûìÿííûé_ãðàäèåíò_73" x1="172.29" y1="176.85" x2="190.05" y2="176.85" gradientUnits="userSpaceOnUse"><stop offset="0.02" stop-color="#d1a1d6"/><stop offset="0.99" stop-color="#bd89c4"/></linearGradient><linearGradient id="Áåçûìÿííûé_ãðàäèåíò_71-3" x1="389.72" y1="220.05" x2="389.72" y2="144.55" xlink:href="#Áåçûìÿííûé_ãðàäèåíò_71"/><linearGradient id="Áåçûìÿííûé_ãðàäèåíò_48-2" x1="398.64" y1="195.86" x2="398.64" y2="158.35" xlink:href="#Áåçûìÿííûé_ãðàäèåíò_48"/><linearGradient id="Áåçûìÿííûé_ãðàäèåíò_64" x1="406.04" y1="182.91" x2="406.04" y2="166.1" gradientUnits="userSpaceOnUse"><stop offset="0" stop-color="#ffb0b0"/><stop offset="0.98" stop-color="#ffc2a9"/></linearGradient><linearGradient id="Áåçûìÿííûé_ãðàäèåíò_64-2" x1="415.79" y1="185.5" x2="415.79" y2="176.28" xlink:href="#Áåçûìÿííûé_ãðàäèåíò_64"/><linearGradient id="Áåçûìÿííûé_ãðàäèåíò_73-2" x1="376.35" y1="203.88" x2="393.5" y2="203.88" xlink:href="#Áåçûìÿííûé_ãðàäèåíò_73"/><linearGradient id="Áåçûìÿííûé_ãðàäèåíò_4" x1="291.03" y1="222.39" x2="318.05" y2="222.39" gradientUnits="userSpaceOnUse"><stop offset="0" stop-color="#ccedff"/><stop offset="1" stop-color="#755cbb"/></linearGradient><linearGradient id="Áåçûìÿííûé_ãðàäèåíò_4-2" x1="266.52" y1="269.8" x2="306.23" y2="269.8" xlink:href="#Áåçûìÿííûé_ãðàäèåíò_4"/><linearGradient id="Áåçûìÿííûé_ãðàäèåíò_4-3" x1="268.36" y1="287.76" x2="310.78" y2="287.76" xlink:href="#Áåçûìÿííûé_ãðàäèåíò_4"/><linearGradient id="Áåçûìÿííûé_ãðàäèåíò_4-4" x1="231.85" y1="243.31" x2="231.85" y2="195.7" xlink:href="#Áåçûìÿííûé_ãðàäèåíò_4"/><linearGradient id="Áåçûìÿííûé_ãðàäèåíò_4-5" x1="235.69" y1="247.31" x2="235.69" y2="211.22" xlink:href="#Áåçûìÿííûé_ãðàäèåíò_4"/><linearGradient id="Áåçûìÿííûé_ãðàäèåíò_4-6" x1="178.65" y1="201.17" x2="178.65" y2="173.91" xlink:href="#Áåçûìÿííûé_ãðàäèåíò_4"/><linearGradient id="Áåçûìÿííûé_ãðàäèåíò_4-7" x1="200.71" y1="177.16" x2="211.7" y2="177.16" xlink:href="#Áåçûìÿííûé_ãðàäèåíò_4"/><linearGradient id="Áåçûìÿííûé_ãðàäèåíò_70-2" x1="320.17" y1="243.31" x2="320.17" y2="192.77" xlink:href="#Áåçûìÿííûé_ãðàäèåíò_70"/><linearGradient id="Áåçûìÿííûé_ãðàäèåíò_70-3" x1="376.99" y1="232.44" x2="376.99" y2="206.03" xlink:href="#Áåçûìÿííûé_ãðàäèåíò_70"/><linearGradient id="Áåçûìÿííûé_ãðàäèåíò_70-4" x1="347.04" y1="231.26" x2="347.04" y2="211.07" xlink:href="#Áåçûìÿííûé_ãðàäèåíò_70"/><linearGradient id="Áåçûìÿííûé_ãðàäèåíò_4-8" x1="172.94" y1="202.91" x2="172.94" y2="195.42" xlink:href="#Áåçûìÿííûé_ãðàäèåíò_4"/><linearGradient id="Degradado_sin_nombre_2" x1="192.97" y1="225.77" x2="192.97" y2="184.8" gradientUnits="userSpaceOnUse"><stop offset="0" stop-color="#ffbb21"/><stop offset="1" stop-color="#755cbb"/></linearGradient><linearGradient id="Áåçûìÿííûé_ãðàäèåíò_4-9" x1="298.39" y1="196.93" x2="298.39" y2="166.1" xlink:href="#Áåçûìÿííûé_ãðàäèåíò_4"/><linearGradient id="Áåçûìÿííûé_ãðàäèåíò_4-10" x1="258" y1="192.76" x2="258" y2="150.2" xlink:href="#Áåçûìÿííûé_ãðàäèåíò_4"/><linearGradient id="Degradado_sin_nombre_32" x1="243.62" y1="205.55" x2="314.71" y2="205.55" gradientUnits="userSpaceOnUse"><stop offset="0" stop-color="#d4d6da"/><stop offset="1" stop-color="#050505"/></linearGradient><linearGradient id="Áåçûìÿííûé_ãðàäèåíò_70-5" x1="249.75" y1="159.53" x2="296.01" y2="159.53" xlink:href="#Áåçûìÿííûé_ãðàäèåíò_70"/><linearGradient id="Áåçûìÿííûé_ãðàäèåíò_70-6" x1="368.67" y1="229.43" x2="368.67" y2="202.65" xlink:href="#Áåçûìÿííûé_ãðàäèåíò_70"/><linearGradient id="Áåçûìÿííûé_ãðàäèåíò_70-7" x1="330.83" y1="259.63" x2="330.83" y2="178.56" xlink:href="#Áåçûìÿííûé_ãðàäèåíò_70"/><linearGradient id="Áåçûìÿííûé_ãðàäèåíò_70-8" x1="243.67" y1="297.71" x2="243.67" y2="274.47" xlink:href="#Áåçûìÿííûé_ãðàäèåíò_70"/><linearGradient id="Áåçûìÿííûé_ãðàäèåíò_70-9" x1="288.82" y1="291.32" x2="288.82" y2="280.04" xlink:href="#Áåçûìÿííûé_ãðàäèåíò_70"/><linearGradient id="Áåçûìÿííûé_ãðàäèåíò_71-4" x1="288.32" y1="146.26" x2="288.32" y2="69.05" xlink:href="#Áåçûìÿííûé_ãðàäèåíò_71"/><linearGradient id="Áåçûìÿííûé_ãðàäèåíò_71-5" x1="259.54" y1="115.1" x2="259.54" y2="92.34" xlink:href="#Áåçûìÿííûé_ãðàäèåíò_71"/><linearGradient id="Áåçûìÿííûé_ãðàäèåíò_387" x1="299.05" y1="123.71" x2="300.01" y2="118.74" gradientUnits="userSpaceOnUse"><stop offset="0" stop-color="#e1616a"/><stop offset="1" stop-color="#ff8883"/></linearGradient><linearGradient id="Áåçûìÿííûé_ãðàäèåíò_48-3" x1="290.44" y1="119.91" x2="290.44" y2="70.17" xlink:href="#Áåçûìÿííûé_ãðàäèåíò_48"/><linearGradient id="Áåçûìÿííûé_ãðàäèåíò_59" x1="288.01" y1="99.54" x2="288.01" y2="89.69" gradientUnits="userSpaceOnUse"><stop offset="0" stop-color="#cf6074"/><stop offset="1" stop-color="#f37270"/></linearGradient><linearGradient id="Áåçûìÿííûé_ãðàäèåíò_184" x1="307.66" y1="102.67" x2="307.66" y2="94.09" gradientUnits="userSpaceOnUse"><stop offset="0" stop-color="#cf6074"/><stop offset="1" stop-color="#ff817f"/></linearGradient><linearGradient id="Áåçûìÿííûé_ãðàäèåíò_48-4" x1="308.54" y1="107.56" x2="308.54" y2="88.27" xlink:href="#Áåçûìÿííûé_ãðàäèåíò_48"/><linearGradient id="Áåçûìÿííûé_ãðàäèåíò_35" x1="313.95" y1="88.27" x2="313.95" y2="66.67" gradientUnits="userSpaceOnUse"><stop offset="0" stop-color="#ffeadb"/><stop offset="0.99" stop-color="#8860c7"/></linearGradient><linearGradient id="Áåçûìÿííûé_ãðàäèåíò_397" x1="290.79" y1="147.21" x2="290.79" y2="143.18" gradientUnits="userSpaceOnUse"><stop offset="0" stop-color="#776d7e"/><stop offset="1" stop-color="#9d68c2"/></linearGradient><linearGradient id="Áåçûìÿííûé_ãðàäèåíò_285" x1="262.85" y1="109.71" x2="252.66" y2="97.22" gradientUnits="userSpaceOnUse"><stop offset="0" stop-color="#ffeadb"/><stop offset="0.99" stop-color="#b060f4"/></linearGradient><linearGradient id="Áåçûìÿííûé_ãðàäèåíò_285-2" x1="263.92" y1="108.1" x2="258.9" y2="101.95" xlink:href="#Áåçûìÿííûé_ãðàäèåíò_285"/><linearGradient id="Áåçûìÿííûé_ãðàäèåíò_4-11" x1="303.26" y1="269.85" x2="313.16" y2="269.85" xlink:href="#Áåçûìÿííûé_ãðàäèåíò_4"/><linearGradient id="Degradado_sin_nombre_82" x1="312.88" y1="358.81" x2="336.95" y2="358.81" gradientUnits="userSpaceOnUse"><stop offset="0" stop-color="#a0a0a0"/><stop offset="0.01" stop-color="#9b9b9b"/><stop offset="0.06" stop-color="#777"/><stop offset="0.12" stop-color="#575757"/><stop offset="0.18" stop-color="#3b3b3b"/><stop offset="0.25" stop-color="#252525"/><stop offset="0.34" stop-color="#141414"/><stop offset="0.44" stop-color="#090909"/><stop offset="0.59" stop-color="#020202"/><stop offset="1"/></linearGradient><linearGradient id="Degradado_sin_nombre_25" x1="119.33" y1="78.56" x2="119.33" y2="53.93" gradientUnits="userSpaceOnUse"><stop offset="0" stop-color="#f24f18"/><stop offset="0.15" stop-color="#f66821"/><stop offset="0.36" stop-color="#fa832b"/><stop offset="0.56" stop-color="#fd9632"/><stop offset="0.77" stop-color="#fea136"/><stop offset="1" stop-color="#ffa537"/></linearGradient><linearGradient id="Degradado_sin_nombre_20" x1="134.38" y1="78.56" x2="134.38" y2="53.93" gradientUnits="userSpaceOnUse"><stop offset="0" stop-color="#ffcd00"/><stop offset="1" stop-color="#ffbb21"/></linearGradient><linearGradient id="Áåçûìÿííûé_ãðàäèåíò_322" x1="150.86" y1="105.29" x2="150.86" y2="98.97" gradientUnits="userSpaceOnUse"><stop offset="0" stop-color="#b31a8f"/><stop offset="1" stop-color="#fe117e"/></linearGradient><linearGradient id="Degradado_sin_nombre_25-2" x1="126.77" y1="282.22" x2="126.77" y2="235.56" xlink:href="#Degradado_sin_nombre_25"/><linearGradient id="Degradado_sin_nombre_25-3" x1="93.8" y1="258.89" x2="159.73" y2="258.89" xlink:href="#Degradado_sin_nombre_25"/><linearGradient id="Degradado_sin_nombre_25-4" x1="57.43" y1="23.29" x2="87.47" y2="23.29" xlink:href="#Degradado_sin_nombre_25"/><linearGradient id="Degradado_sin_nombre_20-2" x1="47.45" y1="70.92" x2="53.22" y2="49.53" gradientTransform="matrix(-1, 0, 0, 1, 137.59, -36.88)" xlink:href="#Degradado_sin_nombre_20"/></defs><title>imghome</title><g class="cls-2"><g id="illustration"><g class="cls-3"><path class="cls-4" d="M344.3,136.27l3.22,91.8a6.77,6.77,0,0,0,6.76,6.53H512.42a6.77,6.77,0,0,0,6.76-6.61l2.21-92.87a6.76,6.76,0,0,0-6.81-6.92L351,129.27A6.77,6.77,0,0,0,344.3,136.27Z" transform="translate(-69.06 -36.88)"/><path class="cls-5" d="M138.93,195.54c0-.24.13-.36.36-.35l6.71.2a5,5,0,0,1,1.68.3,2.66,2.66,0,0,1,1.11.75,2.71,2.71,0,0,1,.6,1.14,5.63,5.63,0,0,1,.15,1.47l-.06,1.84a4.7,4.7,0,0,1-.24,1.46,2.6,2.6,0,0,1-.66,1.1,2.8,2.8,0,0,1-1.15.68,4.87,4.87,0,0,1-1.7.2l-3.62-.11-.74-2.11h-.1l-.06,2.08-2.54-.07Zm2.35,6.33,4.28.13a1.38,1.38,0,0,0,1-.28,1.63,1.63,0,0,0,.35-1.13l0-1.49a1.59,1.59,0,0,0-.27-1.15,1.41,1.41,0,0,0-1-.33l-4.11-.13a.19.19,0,0,0-.13,0,.18.18,0,0,0-.06.13Z" transform="translate(-69.06 -36.88)"/><path class="cls-5" d="M153.17,199.38h-.09l-.08,2.68a.15.15,0,0,0,.17.17l7.54.23-.07,2.32-9.89-.3c-.24,0-.35-.13-.34-.37l.25-8.21q0-.37.36-.36l9.61.29a.33.33,0,0,1,.36.38l-.07,2.32-2.38.81h-.1l0-1.19c0-.09,0-.14-.12-.14l-5.07-.15c-.07,0-.11,0-.13.05a.42.42,0,0,0,0,.12l0,1.11,4.18.13-.06,1.82-3.5-.11Z" transform="translate(-69.06 -36.88)"/><path class="cls-5" d="M169.93,199.21h-.09l0-1a.13.13,0,0,0-.15-.15l-4.71-.15a.47.47,0,0,0-.36.1.44.44,0,0,0-.11.32v.22a.4.4,0,0,0,.08.33.57.57,0,0,0,.32.13l5.53.94a3.65,3.65,0,0,1,.89.25,1.56,1.56,0,0,1,.59.43,1.45,1.45,0,0,1,.32.63,3.3,3.3,0,0,1,.07.87l0,.71a3.18,3.18,0,0,1-.17,1,1.68,1.68,0,0,1-.46.7,2.08,2.08,0,0,1-.83.41,5,5,0,0,1-1.24.11l-8-.24.07-2.33,7.14.22a.56.56,0,0,0,.42-.1.61.61,0,0,0,.12-.41V202a.58.58,0,0,0-.07-.33.5.5,0,0,0-.31-.12l-5.34-.84a4.06,4.06,0,0,1-.92-.25,1.86,1.86,0,0,1-.62-.41,1.46,1.46,0,0,1-.34-.61,3.18,3.18,0,0,1-.08-.86l0-.62a2,2,0,0,1,.56-1.49,2.27,2.27,0,0,1,1.74-.48l7.94.24a.34.34,0,0,1,.37.4l-.05,1.85Z" transform="translate(-69.06 -36.88)"/><path class="cls-5" d="M173.29,205.17l.28-8.94,2.53.07-.28,8.95Z" transform="translate(-69.06 -36.88)"/><path class="cls-5" d="M185.22,201.69c0-.13,0-.26,0-.41s0-.27,0-.37v-.11l2.51.07-.14,4.39c0,.23-.11.34-.31.33l-6.73-.2a4.81,4.81,0,0,1-1.69-.31,2.89,2.89,0,0,1-1.11-.74,2.7,2.7,0,0,1-.59-1.14,5.22,5.22,0,0,1-.16-1.47l.06-1.85a5.44,5.44,0,0,1,.24-1.46,2.84,2.84,0,0,1,.66-1.1,2.78,2.78,0,0,1,1.15-.67,4.91,4.91,0,0,1,1.71-.21l6.69.21c.24,0,.35.13.35.38l-.06,1.93-2.37.78h-.1l0-.86c0-.08,0-.12-.1-.12l-4.28-.13a2.36,2.36,0,0,0-.62,0,.86.86,0,0,0-.42.23,1,1,0,0,0-.25.43,3,3,0,0,0-.09.68l-.05,1.57a1.71,1.71,0,0,0,.27,1.14,1.38,1.38,0,0,0,1,.35l4.24.13c.09,0,.13,0,.13-.14Z" transform="translate(-69.06 -36.88)"/><path class="cls-5" d="M193,196.82a.76.76,0,0,1,.4.09.92.92,0,0,1,.2.28l3.2,6.53a.25.25,0,0,0,.23.15h.13c.13,0,.2-.06.2-.19l.21-6.73,2.29.06-.26,8.59c0,.24-.12.36-.35.35l-3.64-.11a.84.84,0,0,1-.38-.09.64.64,0,0,1-.23-.29L191.72,199a.24.24,0,0,0-.23-.15h-.12a.19.19,0,0,0-.21.2l-.2,6.72-2.3-.07.26-8.58a.33.33,0,0,1,.36-.36Z" transform="translate(-69.06 -36.88)"/><circle class="cls-6" cx="260.54" cy="192.68" r="155.02" transform="translate(-129 203.79) rotate(-45)"/><path class="cls-7" d="M145.82,185.06a23.75,23.75,0,0,0-10.55-9.27l-2.35,1.1,5.29,9.6a10.28,10.28,0,0,1-3.24,5.72h0A10.28,10.28,0,0,1,128.5,191l-4-10.22-2.35,1.1a23.84,23.84,0,0,0,.33,14s1,2.31,1.18,2.51c.93,1.09,3.36,2.34,8.05,2.05L148,231.41a8.46,8.46,0,1,0,8.76-4.1L143.4,195.07c3.17-3.35,3.84-6,3.6-7.5C147,187.25,145.82,185.06,145.82,185.06Zm13.33,53.31-4.29,2L151,237.66l.41-4.72,4.3-2,3.88,2.72Z" transform="translate(-69.06 -36.88)"/><rect class="cls-8" x="122.64" y="181.21" width="2.59" height="2.78" transform="translate(-134.7 32.75) rotate(-25.04)"/><rect class="cls-8" x="133.38" y="176.21" width="2.59" height="2.78" transform="translate(-131.58 36.83) rotate(-25.04)"/><rect class="cls-8" x="155.22" y="239.24" width="4.74" height="2.78" transform="translate(-156.1 52.45) rotate(-25.04)"/><path class="cls-9" d="M136.39,205.31l13.08,25.15a6.41,6.41,0,0,0,5.29-2.47L144.1,201.7A10,10,0,0,0,136.39,205.31Zm17.36,22.88a7.35,7.35,0,0,1-1.7,1.11,6.12,6.12,0,0,1-1.8.54l-13.11-24.63a13.43,13.43,0,0,1,3.15-2.07,11,11,0,0,1,3.24-.95Z" transform="translate(-69.06 -36.88)"/><path class="cls-8" d="M153.75,228.19l1-.2a5.68,5.68,0,0,1-5.29,2.47l.78-.62A7.06,7.06,0,0,0,153.75,228.19Z" transform="translate(-69.06 -36.88)"/><path class="cls-10" d="M136.39,205.31l.75-.1a12.21,12.21,0,0,1,6.39-3l.57-.49a7.9,7.9,0,0,0-4.27.92A7.82,7.82,0,0,0,136.39,205.31Z" transform="translate(-69.06 -36.88)"/><path class="cls-11" d="M132.92,203a28.93,28.93,0,0,0,11.66-5.43l1.7,4.13s-1.93-1.91-6.17-.19c-5,2-4.68,6-4.68,6Z" transform="translate(-69.06 -36.88)"/><path class="cls-12" d="M146.28,201.71a5.11,5.11,0,0,0-2.59-.9l12.66,30.6,1.53-1.58Z" transform="translate(-69.06 -36.88)"/><path class="cls-13" d="M146.28,201.71s-1.33,4.09,2.48,6Z" transform="translate(-69.06 -36.88)"/><path class="cls-14" d="M337,399.45H290c-4.92-27.32-16.36-62.87-16.36-62.87-2.78-1.65-8.21.38-8.21.38L248.2,399.45H205.26c-2.28-38.56,18.82-82.33,18.82-82.33h0a4.73,4.73,0,0,1-.56-2.39,5.68,5.68,0,0,1,1.6-1.86c1.16-1.06,2.54-2.12,2.54-2.12l80.11-.5s.81.41,1.84,1h0c1.75,1.06,4.12,2.7,4.12,3.9a5.47,5.47,0,0,1-.81,3l0,.05C330.06,350.59,337,399.45,337,399.45Z" transform="translate(-69.06 -36.88)"/><ellipse class="cls-15" cx="232.52" cy="358.38" rx="46.31" ry="17.92" transform="translate(-238.03 467.5) rotate(-77.01)"/><ellipse class="cls-16" cx="308.36" cy="366.96" rx="17.92" ry="46.31" transform="translate(-156.64 59.94) rotate(-15.65)"/><path class="cls-17" d="M242.64,399.49l-.49-.09c5.47-32.19,19.34-59.2,19.48-59.47l.06-.07,3.53-3.09.33.38-3.5,3.05C261.43,341.42,248,368,242.64,399.49Z" transform="translate(-69.06 -36.88)"/><path class="cls-18" d="M296.33,399.49C291,367.94,277.18,341.14,276.55,340l-3.12-2.81.33-.37,3.22,2.91c.14.27,14.38,27.52,19.85,59.72Z" transform="translate(-69.06 -36.88)"/><path class="cls-19" d="M314.26,315.25a5.47,5.47,0,0,1-.81,3l0,.05C296.73,322,284,337.6,284,337.6c9.09,17.44,24.25,61.93,24.25,61.93H290.48c-4.92-27.32-16.36-62.87-16.36-62.87-2.78-1.65-8.21.38-8.21.38l-17.18,62.49H237.61c4-26.18,15.73-58.14,15.73-58.14-11.55-13.45-28.73-24.19-28.73-24.19h0l-2-1.28L224,314.8c7.43,7.13,31.39,16.44,32.13,16.73l-30.53-18.59c1.16-1.06,2.54-2.12,2.54-2.12l80.11-.5s.81.41,1.84,1l-21.88,12Z" transform="translate(-69.06 -36.88)"/><polygon class="cls-20" points="204.53 299.7 213.88 293.63 211.66 299.7 210.03 317.96 204.53 299.7"/><polygon class="cls-21" points="196.32 300.08 186.58 294.57 165.73 285.18 192.28 302.73 193.86 309.02 196.32 300.08"/><path class="cls-22" d="M292.18,149.1c.06.43.11.66.11.66a57.27,57.27,0,0,1-1.66,5.66,46,46,0,0,1-6.23,12.12,23.85,23.85,0,0,1-2.72,3.18c-14.59-4.58-21.78-18.85-24.54-25.95a.36.36,0,0,1,0-.11c-.53-1.34-.88-2.42-1.1-3.12h0c-.17-.56-.25-.87-.25-.87l.18-.37,0,0c.24-.5.48-1,.7-1.5a71.16,71.16,0,0,0,4-11.17c.71-2.62,1.09-4.64,1.27-5.71.09-.55.13-.85.13-.85l6.8,3.59L292.29,137a38.55,38.55,0,0,0-.5,5.94c0,1.25,0,2.37.09,3.32.07,1.16.19,2.08.28,2.68h0A.68.68,0,0,0,292.18,149.1Z" transform="translate(-69.06 -36.88)"/><path class="cls-23" d="M285.68,172.29a20.1,20.1,0,0,1-4.84,3.54l-.12.07-.14-.08h0c-.51-.31-2.25-1.38-4.59-3.14-6.12-4.61-16.34-13.93-19.26-26.49l0-.05a31.14,31.14,0,0,1-.7-4.59h0c0-.41-.06-.82-.07-1.24a64.43,64.43,0,0,0,5.55,9.92c4.14,6.06,10.35,12.67,17.77,12.71,6.42,0,9.71-4.35,11.38-8.4a22.92,22.92,0,0,0,1.35-4.6v0c.07-.36.12-.68.17-1h0c0-.14,0-.26,0-.37.06-.45.08-.71.08-.71S294.75,163.22,285.68,172.29Z" transform="translate(-69.06 -36.88)"/><path class="cls-24" d="M285.68,172.29a20.1,20.1,0,0,1-4.84,3.54h-.27c-.51-.31-2.25-1.38-4.59-3.14-6.12-4.61-16.34-13.93-19.26-26.49l0-.05a31.14,31.14,0,0,1-.7-4.59h0c0-.41-.06-.82-.07-1.24a64.43,64.43,0,0,0,5.55,9.92s4,11.1,12.78,16.6c4.38,2.75,7.7,2.35,10.14.73a15.09,15.09,0,0,0,5-6.54,15.38,15.38,0,0,0,1.28-5.58q0-.49,0-.9a22.92,22.92,0,0,0,1.35-4.6v0c.07-.36.12-.68.17-1h0c0-.14,0-.26,0-.37.06-.45.08-.71.08-.71S294.75,163.22,285.68,172.29Z" transform="translate(-69.06 -36.88)"/><path class="cls-24" d="M341.84,263l-.16.08c-.82.1-3.37-.46-6.71-3.35h0l0,0s0,0,0,0c-2.8-2.45-6.16-6.54-9.51-13.24-6.7-13.39-8.62-22.33-8.93-23.89l0-.24-3.91,6.2c-2.65,8-7.67,41-7.58,42.37s4.45,8.34,4.36,9.19v0c-.12.86-2.08,2.75-2.64,4.81-.38,1.37,2.28,5.69,4.15,8.92h0a13.13,13.13,0,0,1,1.72,3.58c0,1.51-4.74,8.9-4.74,8.9v4l-.07.07-.22.2-.18.15c-1.8,1.42-9.43,6.07-33.27,7.35-28.25,1.51-47.07-7.58-47.07-7.58l1.42-3.89s-1.32-1.13-1.42-1.7,1-1.9,1-1.9-2.84-1.51-2.84-3.41,5.69-7.76,5.5-12.79-4.55-9.47-5.12-12.31,7.39-9.85,7.39-9.85C226.1,243,224.77,214,224.77,214l-1.32-1.52S215.3,231,207.91,240.13c-.88,1.08-1.81,2.15-2.77,3.18a81,81,0,0,1-6.36,6.15c-5.12,4.46-9.77,7.39-10.95,7.16-1.9-.38-9.48-15.35-9.13-30.7.16-7.3,4.56-15.47,9.13-22,.49-.7,1-1.39,1.48-2.06a104.89,104.89,0,0,1,7.84-9.45c.58-.62.91-.95.91-.95s-1-3.35-1.75-6.26a1.6,1.6,0,0,0-.05-.21.36.36,0,0,0,0-.1.31.31,0,0,0,0-.07c-.42-1.79-.68-3.34-.44-3.72.63-1,4.3-2.15,4.93-2.9s3.28-13.52,5.3-14.91,5.35-2.3,16.72-6.77l1.73-.68c12.75-5,25.26-11.18,25.26-11.18l4.8-5.9h2.14l-.7,1.5,0,0c.34,1.52.73,3,1.17,4.37a.36.36,0,0,0,0,.11c6.6,20.82,23.58,27.53,23.58,27.53,11.8-8.71,11.57-22.54,11.57-22.54v-1.9l2.21.66,1.51,3.6s2.56,4,12.7,8.44a60.32,60.32,0,0,1,5.57,2.85c9.28,5.27,19.6,13.42,20.39,15.15a5.61,5.61,0,0,1,.27.86h0c1.09,4.28,3.33,20.31,5.41,26a13.1,13.1,0,0,0,4.86,6.56h0a7.61,7.61,0,0,0,1.94,1q.24,1.32.45,2.61C352,243.07,343.7,261.68,341.84,263Z" transform="translate(-69.06 -36.88)"/><path class="cls-25" d="M233,211.22,224.77,214l-1.32-1.52S215.3,231,207.91,240.13c-.88,1.08-1.81,2.15-2.77,3.18a81,81,0,0,1-6.36,6.15l-6.28-27.07-3.19-20.55a104.89,104.89,0,0,1,7.84-9.45c.58-.62.91-.95.91-.95s-1-3.35-1.75-6.26a1.6,1.6,0,0,0-.05-.21.36.36,0,0,0,0-.1.31.31,0,0,0,0-.07c-.42-1.79-.68-3.34-.44-3.72.63-1,4.3-2.15,4.93-2.9s3.28-13.52,5.3-14.91c0,0-1.32,12.25,5.69,27.79l3.41,4.8,10,8S228.88,208.91,233,211.22Z" transform="translate(-69.06 -36.88)"/><path class="cls-26" d="M209.17,233.38c-1.77,13.13-21.34,23.24-21.34,23.24-4.36,0-9.23-7.58-13.65-16.93s-4.69-36.21-4.92-37.87-2.7-5-2.85-6.4,4-4.36,4-4.36l0-.07,0-.07c-.43-.92-2.85-6.11-2.68-7.06s4.82-3.31,4.82-3.31l.29,5.11s10.78-2,14.43-10.39l.64-2.56,1.8,1.2v11s.37,1.71.94,1.71,4.77-2.1,5.65-1.81,1.76,6.17,2.94,6.92,4.3,2.94,4.77,4a19,19,0,0,1,.25,4.15,42.4,42.4,0,0,0,.41,6.94C205.26,209.72,210.94,220.24,209.17,233.38Z" transform="translate(-69.06 -36.88)"/><path class="cls-27" d="M388.16,222.13c-.88,1.39-5.3,4.3-6.44,5.44s0,4.87,0,4.87A153.35,153.35,0,0,1,341.84,263l-.16.08c-11.66-7.84-10.66-20.75-6.79-31.63a82.1,82.1,0,0,1,10.32-19.38h0a24.41,24.41,0,0,1,5.92-1.64,3.59,3.59,0,0,1,2.19.68c1.42.88,2.62,2.27,3.78,1.69,1.71-.86,5.53-9.89,8.12-10.14,1.81-.17,4.32,1.67,6,2.72.73.46,1.3.77,1.58.69.95-.25,4.17-4.11,4.43-4.21s1.72,1,1.72,1l-1,1.28a35,35,0,0,0,6.76,15.22l3.47-5.08S389.05,220.74,388.16,222.13Z" transform="translate(-69.06 -36.88)"/><path class="cls-28" d="M292.23,148.71c0,.13,0,.26-.05.39a7.73,7.73,0,0,1-.19.8v0c-1.19,4.41-6,8.92-12.07,6.75-6.63-2.37-19.25-29.1-19.25-29.1l1.27-5.71,29.95,24.4.33,2.31Z" transform="translate(-69.06 -36.88)"/><path class="cls-29" d="M192.5,143.82s-1.83-10.11-1-17.56a80.9,80.9,0,0,0-.21-15.92,4.06,4.06,0,0,0-3.14,0c-1.32.76-4.42,8.46-3,14.65s.32,21,.32,21h-2.09l-4.54-6.26-2.21-.63s-12.73,12-12.54,19.14l1.66,6.35,15.68-.54,10.23-11.69Z" transform="translate(-69.06 -36.88)"/><path class="cls-30" d="M176.59,139.14a81.75,81.75,0,0,0,2.11,14.78,3.53,3.53,0,0,1-3.57,3l-.8-.9s-.57,3.18-3.46,3.42l-2.75-2.75.71,2.27a3.87,3.87,0,0,1-3.6,2.32s-4.35-3.41-4.64-7.86l4.31-3.65V147l5.12-3.6.09-2A12,12,0,0,1,176.59,139.14Z" transform="translate(-69.06 -36.88)"/><path class="cls-31" d="M191.67,124.12a7.1,7.1,0,0,1-1.85,2.71,16.25,16.25,0,0,1-4.25,1.33L185.43,146h-2.09l-4.54-6.26s2.3,3.57,2.44,6.26l-1.8.88-1.56-5.35-.74,3.85.74,4.79a12.53,12.53,0,0,1,7.57-2.41l.74,1.33s-8.83,7.31-10.87,11.62c0,0,4.36-5.54,14.31-11.65l1-2.94,1.25-7S190.64,129,191.67,124.12Z" transform="translate(-69.06 -36.88)"/><path class="cls-32" d="M199.07,155.25c-.82,2.46-9.41,12.69-10.36,14.91a30,30,0,0,0-1.52,5.11c-4.22,9.13-14.43,10.39-14.43,10.39l-.47-8.24s-5.49-3.16-6.42-4.89v0l-.11-.29a68.8,68.8,0,0,1,0-7.58l9.61-3.89c4.17-5.4,14.31-11.65,14.31-11.65l.47-2.83c-7.28-3.58-6.06-14.41-4.83-15.74a5.4,5.4,0,0,1,3.5-1.32s2.66,8.71,4.36,12.79S199.89,152.79,199.07,155.25Z" transform="translate(-69.06 -36.88)"/><path class="cls-33" d="M170.11,141.32s1.08,10,4.22,14.68A23.08,23.08,0,0,1,170,143.36Z" transform="translate(-69.06 -36.88)"/><path class="cls-33" d="M164.9,147s1,8,6,12.46c0,0-4.36-2.18-6-9.67Z" transform="translate(-69.06 -36.88)"/><path class="cls-34" d="M190.05,168s-10.84,10.52-17.76,9.38l.47,8.24a18.3,18.3,0,0,0,15.07-13A30.43,30.43,0,0,1,190.05,168Z" transform="translate(-69.06 -36.88)"/><path class="cls-35" d="M419.08,182.34s-9.95,18.19-21.6,23.78h-4l-9.19,13.93s-5.94-3.73-6.38-16a11.17,11.17,0,0,0,2.59-4.62s-3.28-2.58-4.17-4.47-1.2-7.58-1.83-9.92-6-7.2-7.2-7.83-6.63-.95-6.63-.95-.76-2,0-2.9,9.22-4.24,13.83-1.08a20.77,20.77,0,0,0,.82,3.67c.51,1.26,4.55,5.74,5.18,5.74s3.35-2.27,4.55-4a178.56,178.56,0,0,0,8.74-19.32.5.5,0,0,1,0-.13c0-.07,0-.14.06-.2a.93.93,0,0,0,0-.13s0,0,0,0c1.14-3.85,7.77-11.24,11.31-13.26a2.09,2.09,0,0,1,2.33,1.51s-2.84,8.09-5.81,12.89c-.5.81-1,1.76-1.6,2.78h0c-2.53,4.65-5.38,10.74-5.79,11.63l0,.11,1.58.81,4.27-4.05,4.38-4.15,10.05,10.61-1,1.26-3.14,4,1.59.29,3.7-4.09Z" transform="translate(-69.06 -36.88)"/><path class="cls-36" d="M416.76,186.2l-3.18,4.68s-17.46-13.46-21.25-14.6-5.18-.38-5.18-.38l-3.91,5s7.2,6.38,7.83,15c0,0-2.4-10.86-10.55-14.15.63,0,3.35-2.27,4.55-4a178.56,178.56,0,0,0,8.74-19.32,5,5,0,0,0,.16,3.41c.86,1.59,5.92.09,6.22,0h0l-5.8,11.63,0,.11,1.58.81,4.27-4.05-2.14,5L413.64,178l-3.14,4,1.59.29Z" transform="translate(-69.06 -36.88)"/><path class="cls-37" d="M404.59,166.11s3-.44,5,3.47l-.45,1.27s3,.58,5.81,5.37a16.14,16.14,0,0,1-8.77,6.69s-2.91-.82-3.42-3.28l.57-1.58-2.27,1.7s-2.72.82-3.92-3.22Z" transform="translate(-69.06 -36.88)"/><path class="cls-38" d="M420,181.08a4.68,4.68,0,0,0-2.47-4.8l-6,6.63a3.11,3.11,0,0,0,2.78,2.59S418.42,184.11,420,181.08Z" transform="translate(-69.06 -36.88)"/><path class="cls-39" d="M376.35,195a44.58,44.58,0,0,0,17.15,11.14l-4.39,6.66-9.17-11.65.58-1.68S376.86,196.69,376.35,195Z" transform="translate(-69.06 -36.88)"/><path class="cls-33" d="M409.13,170.85s-2.9,4.8-5.81,7.2l-.57,1.58s5.64-3.81,7.72-8.21A3.54,3.54,0,0,0,409.13,170.85Z" transform="translate(-69.06 -36.88)"/><path class="cls-40" d="M388.16,222.13c-.88,1.39-5.3,4.3-6.44,5.44s0,4.87,0,4.87A153.35,153.35,0,0,1,341.84,263l-.16.08c-1.52.19-8.91-1.89-16.3-16.67-6.7-13.39-8.62-22.33-8.93-23.89l0-.24,1.63-2.21,2.42-27.28,1.7,5.49c6.44-7.77,12.51-19.7,12.51-19.7l.27.86h0c1.09,4.28,3.33,20.31,5.41,26a13.1,13.1,0,0,0,4.86,6.56v0h0c-5.93,5.41-8.87,13.19-10.32,19.38a53.68,53.68,0,0,0-1.42,10,67.43,67.43,0,0,1,6.82-17,36.5,36.5,0,0,1,7.33-8.85,58.85,58.85,0,0,1,5.72-4.58c1.42.88,2.62,2.27,3.78,1.69-7.8,11.71-7.61,34.89-.28,30.47s9-13.8,9-13.8c-1.73-11.43-1.21-24.33.18-26.78,1.68.06,6.51,3.46,6.79,3.38a39.6,39.6,0,0,0,5.88,22.43l4.17-6.45a40,40,0,0,1-5.62-20.19c.25-.11,1.72,1,1.72,1l-1,1.28a35,35,0,0,0,6.76,15.22l3.47-5.08S389.05,220.74,388.16,222.13Z" transform="translate(-69.06 -36.88)"/><path class="cls-10" d="M307.76,306.26v4l-.07.07-.22.2-.18.15c-1.8,1.42-9.43,6.07-33.27,7.35-28.25,1.51-47.07-7.58-47.07-7.58l1.42-3.89s-1.32-1.13-1.42-1.7,1-1.9,1-1.9-2.84-1.51-2.84-3.41c0-1.71,4.64-6.66,5.39-11.31a6.76,6.76,0,0,0,.11-1.48c-.19-5-4.51-9.43-5.11-12.27v0c-.57-2.84,7.39-9.85,7.39-9.85C226.1,243,224.77,214,224.77,214l-1.32-1.52S215.3,231,207.91,240.13,189.72,257,187.83,256.62c-4.36,0-9.23-7.58-13.65-16.93s-4.69-36.21-4.92-37.87-2.7-5-2.85-6.4c4.74,8.15,12.29,5.75,12.29,5.75-5.47.12-8.31-10.11-8.31-10.11l0-.07,0-.07-2.67-7c.3.34,6.55,7.33,12.59,3,6.19-4.42,9.38-13,9.38-13v11s.37,1.71.94,1.71a134.15,134.15,0,0,1-2.74,17.29c-2.81,13.13-6.66,25.81-6.66,25.81s10.44-5.68,14.11-20.08a60.74,60.74,0,0,0,1.87-17.24,43.22,43.22,0,0,0-.84-7.21,1.6,1.6,0,0,0-.05-.21.36.36,0,0,0,0-.1.43.43,0,0,0,0-.05l1,2.14,1.92,4.76c2.23,18.48-2.37,46.33-2.37,46.33,6.7-8.34,8.09-26.78,7.8-31.26-.13-2.14-.3-4.78-.41-6.94-.15-2.36-.25-4.15-.25-4.15l13.71,8.18-2.53-8,10,8s9,10.8,18.19,12.06,43.07.51,43.07.51-29.43,1.89-38,4.42-10.23,5.43-10.23,5.43c6.21,31.59,40.58,42.24,41.65,42.56-31.18-4.68-45.69-31.19-45.69-31.19s-.51,14.91,1.89,20.59,16.55,19.58,34.74,22.48a41.89,41.89,0,0,0,4.53.46c15.34.72,28-7.12,29.34-8l.11-.07,0,.05c-.49.75-6.78,9.59-32.18,10.56-1.54.06-3,.05-4.5,0h0c-23.54-1-35.53-16.67-35.53-16.67s-8.71,4.68-3.15,11.62l.18.22c1.64,1.89,5.25,4.2,9.52,6.58l.35.2c5.16,2.85,11.21,5.79,15.89,8.22l.07,0a59.23,59.23,0,0,1,6.52,3.73h0c1.32,1,1.59,1.58.3,1.73-6.57.76-31.45-4.67-32.46-3.16s1.23,5.43,1.23,5.43c22.84,11.32,71.71,5.74,73.25,5.57-40.9,10.47-74.36-2.79-74.36-2.79l1.11,3.92a146.33,146.33,0,0,0,39.69,6.82c21.48.5,34.87-5,34.87-5Z" transform="translate(-69.06 -36.88)"/><path class="cls-41" d="M291,216.32s16.27.88,27,3.73l-5.55,8.41A73.59,73.59,0,0,0,291,216.32Z" transform="translate(-69.06 -36.88)"/><path class="cls-42" d="M306.23,261.16s-10.15,8.47-20.13,12.38a67.34,67.34,0,0,1-19.58,4.3s5.74,1.7,19.86-.57,18.94-9.92,18.94-9.92Z" transform="translate(-69.06 -36.88)"/><path class="cls-43" d="M310.78,293.77h0c-18.78,4.85-42.62-2.11-42.42-3s6.53.38,21.21-2.56c14.23-2.85,19.39-7.91,19.7-8.22-.12.86-2.08,2.75-2.64,4.81C306.25,286.22,308.91,290.54,310.78,293.77Z" transform="translate(-69.06 -36.88)"/><path class="cls-44" d="M259.77,218.87c-16,1.63-20.36,6.1-20.36,6.1-4.51.57-14.64-11-14.64-11l-1.32-1.52S215.3,231,207.91,240.13c-.88,1.08-1.81,2.15-2.77,3.18l1.05-2.36s1.72-.82,2.22-9.85-3.79-22.48-3.82-24.31-.66-11.09-.66-11.09l13.71,8.18-2.53-8,10,8s3.91,5.88,13.78,10.78C248.18,219.29,258.62,218.92,259.77,218.87Z" transform="translate(-69.06 -36.88)"/><path class="cls-45" d="M223.45,212.47l9.56-1.25a71.76,71.76,0,0,0,11.49,5.65l-6.4,9.43s2.54,13.44,9.82,21c0,0-19.32-10.73-22-19.76Z" transform="translate(-69.06 -36.88)"/><path class="cls-46" d="M167.66,183.87l2.73,7.19s2.79,9.7,8.31,10.11,10.93-16.27,10.93-16.27v-11s-5.88,12.6-12.22,14S167.66,183.87,167.66,183.87Z" transform="translate(-69.06 -36.88)"/><path class="cls-47" d="M200.71,178.18s4.93,9.85,11,12.88c0,0-7.21-17.5-5.69-27.79C206,163.27,203.36,164.92,200.71,178.18Z" transform="translate(-69.06 -36.88)"/><path class="cls-48" d="M320.46,192.77l1.7,5.49,1.73,45.05a108.67,108.67,0,0,1-7.44-20.81l1.6-2.45S320.72,203.07,320.46,192.77Z" transform="translate(-69.06 -36.88)"/><path class="cls-49" d="M372.81,206s-1,22.13,8.45,24l.46,2.37S369.56,232,372.81,206Z" transform="translate(-69.06 -36.88)"/><path class="cls-50" d="M357.12,212.76s-.36.79-3.78-1.69c0,0-11.83,8.38-16.39,20.19,0,0,7.3-10.85,11.18-12s4.81,3.16,4.81,3.16S354.48,216.29,357.12,212.76Z" transform="translate(-69.06 -36.88)"/><path class="cls-51" d="M166.41,195.42s4.56,8.39,13.08,5.75c0,0-5.11,3.45-10.23.65C169.26,201.82,166.09,196.36,166.41,195.42Z" transform="translate(-69.06 -36.88)"/><path class="cls-52" d="M196.22,184.8s6.26,23.4-10.06,41a27.11,27.11,0,0,0,13-18A38.66,38.66,0,0,0,196.22,184.8Z" transform="translate(-69.06 -36.88)"/><path class="cls-53" d="M308.36,166.1s-.7,10.56-5.76,18.14-15.11,12.69-15.11,12.69,12.6-4.64,18.38-11.18S308.36,166.1,308.36,166.1Z" transform="translate(-69.06 -36.88)"/><path class="cls-54" d="M243.91,150.2A66.92,66.92,0,0,0,246.75,168c2.85,9,27.52,24.72,27.52,24.72s-25.43-10.56-30.36-20.06S243.91,150.2,243.91,150.2Z" transform="translate(-69.06 -36.88)"/><path class="cls-55" d="M243.62,197.26v14.39s33.11-.27,70.24,2.19l.85-13A646.53,646.53,0,0,0,243.62,197.26Z" transform="translate(-69.06 -36.88)"/><path class="cls-56" d="M249.76,200.54c0-.24.13-.36.36-.35l6.71.2a5,5,0,0,1,1.68.3,2.66,2.66,0,0,1,1.11.75,2.71,2.71,0,0,1,.6,1.14,5.63,5.63,0,0,1,.15,1.47l-.06,1.84a5.37,5.37,0,0,1-.24,1.46,2.6,2.6,0,0,1-.66,1.1,2.8,2.8,0,0,1-1.15.68,4.9,4.9,0,0,1-1.71.2l-3.61-.11-.74-2.11h-.1l-.07,2.08-2.53-.07Zm2.34,6.33,4.29.13a1.38,1.38,0,0,0,1-.28,1.58,1.58,0,0,0,.34-1.13l.05-1.49a1.59,1.59,0,0,0-.27-1.15,1.41,1.41,0,0,0-1-.33l-4.11-.13a.22.22,0,0,0-.14,0,.21.21,0,0,0-.05.13Z" transform="translate(-69.06 -36.88)"/><path class="cls-56" d="M264,204.38h-.09l-.08,2.68a.15.15,0,0,0,.17.17l7.54.23-.07,2.32-9.89-.3c-.24,0-.35-.13-.34-.37l.24-8.21c0-.25.13-.37.37-.36l9.61.29a.34.34,0,0,1,.36.38l-.07,2.32-2.38.81h-.1l0-1.19c0-.09,0-.14-.12-.14l-5.07-.15c-.07,0-.11,0-.13.05a.25.25,0,0,0,0,.12l0,1.11,4.18.13-.06,1.82-3.5-.11Z" transform="translate(-69.06 -36.88)"/><path class="cls-56" d="M280.76,204.21h-.1l0-1c0-.1,0-.15-.14-.15l-4.72-.15a.5.5,0,0,0-.36.1.49.49,0,0,0-.1.32v.22a.45.45,0,0,0,.07.33.64.64,0,0,0,.33.13l5.53.94a3.65,3.65,0,0,1,.89.25,1.56,1.56,0,0,1,.59.43,1.45,1.45,0,0,1,.32.63,3.78,3.78,0,0,1,.07.87l0,.71a3.18,3.18,0,0,1-.17,1,1.68,1.68,0,0,1-.46.7,2.08,2.08,0,0,1-.83.41,5,5,0,0,1-1.24.11l-8-.24.07-2.33,7.13.22a.58.58,0,0,0,.43-.1.66.66,0,0,0,.12-.41V207a.58.58,0,0,0-.07-.33.5.5,0,0,0-.31-.12l-5.34-.84a4.06,4.06,0,0,1-.92-.25A1.86,1.86,0,0,1,273,205a1.46,1.46,0,0,1-.34-.61,3.18,3.18,0,0,1-.08-.86l0-.62a2,2,0,0,1,.56-1.49,2.26,2.26,0,0,1,1.73-.48l7.95.24a.34.34,0,0,1,.37.4l-.05,1.85Z" transform="translate(-69.06 -36.88)"/><path class="cls-56" d="M284.12,210.17l.27-8.94,2.54.07-.28,8.95Z" transform="translate(-69.06 -36.88)"/><path class="cls-56" d="M296.05,206.69c0-.13,0-.26,0-.41s0-.27,0-.37v-.11l2.51.07-.14,4.39c0,.23-.11.34-.31.33l-6.74-.2a4.79,4.79,0,0,1-1.68-.31,2.89,2.89,0,0,1-1.11-.74,2.7,2.7,0,0,1-.59-1.14,5.22,5.22,0,0,1-.16-1.47l.06-1.85a5.44,5.44,0,0,1,.24-1.46,2.73,2.73,0,0,1,.66-1.1,2.78,2.78,0,0,1,1.15-.67,4.88,4.88,0,0,1,1.71-.21l6.69.21c.24,0,.35.13.35.38l-.06,1.93-2.38.78h-.09l0-.86c0-.08,0-.12-.1-.12l-4.28-.13a2.36,2.36,0,0,0-.62,0,.86.86,0,0,0-.42.23,1,1,0,0,0-.25.43,3,3,0,0,0-.09.68l-.05,1.57a1.6,1.6,0,0,0,.27,1.14,1.38,1.38,0,0,0,1,.35l4.23.13a.12.12,0,0,0,.14-.14Z" transform="translate(-69.06 -36.88)"/><path class="cls-56" d="M303.87,201.82a.69.69,0,0,1,.39.09.79.79,0,0,1,.21.28l3.2,6.53a.25.25,0,0,0,.23.15H308c.13,0,.2-.06.2-.19l.21-6.73,2.29.06-.26,8.59c0,.24-.12.36-.35.35l-3.64-.11a.84.84,0,0,1-.38-.09.64.64,0,0,1-.23-.29L302.55,204a.25.25,0,0,0-.23-.15h-.12a.19.19,0,0,0-.21.2l-.2,6.72-2.3-.07.26-8.58a.33.33,0,0,1,.36-.36Z" transform="translate(-69.06 -36.88)"/><path class="cls-57" d="M296,152.12c-.78,9.3-3.61,15.78-6.63,20.15-4.16,6-8.66,8-8.66,8A52,52,0,0,1,269,173.23a60,60,0,0,1-19.21-28.5c6,14.54,14.86,23.35,21.56,28.31a43.28,43.28,0,0,0,9.41,5.52v-4.65a30.9,30.9,0,0,1-3.1-1.36c-11.8-6-18-18.35-20.9-26.37l0-.05a57,57,0,0,1-2.18-7.39h2.14l-.7,1.5,0,0c.34,1.52.73,3,1.17,4.37a.36.36,0,0,0,0,.11c6.6,20.82,23.58,27.53,23.58,27.53,11.8-8.71,11.57-22.54,11.57-22.54v-1.9l2.21.66Z" transform="translate(-69.06 -36.88)"/><path class="cls-58" d="M366,202.65s-3.21,10.48-.18,26.78c0,0,1.51-20.66,2.65-22.46s4.32-.94,4.32-.94A75,75,0,0,0,366,202.65Z" transform="translate(-69.06 -36.88)"/><path class="cls-59" d="M334.89,259.63c-2.8-2.45-6.16-6.54-9.51-13.24-6.7-13.39-8.62-22.33-8.93-23.89l1.59-2.45,2.13-20.6,2-1.19a84.28,84.28,0,0,0,12.51-19.7,5.61,5.61,0,0,1,.27.86h0c1.09,4.28,3.33,20.31,5.41,26a13.1,13.1,0,0,0,4.86,6.56s-12.31,18.26-12.91,31.29C331.77,255.17,334.41,259,334.89,259.63Z" transform="translate(-69.06 -36.88)"/><path class="cls-60" d="M261.8,297.71s-22.19-3.64-31.25-9.48h0a6.76,6.76,0,0,0,.11-1.48c-.19-5-4.51-9.43-5.11-12.27.1.27.75,1.77,3.9,4.47a66.94,66.94,0,0,0,9.52,6.58l.35.2c6.4,3.78,11.91,6.34,15.89,8.22l.07,0c3.58,1.68,5.9,2.79,6.52,3.73Z" transform="translate(-69.06 -36.88)"/><path class="cls-61" d="M309.27,280c-.12.86-2.08,2.75-2.64,4.81,0,0-8.14,8.62-38.27,6,.2-.85,6.53.38,21.21-2.56C303.8,285.41,309,280.35,309.27,280Z" transform="translate(-69.06 -36.88)"/><path class="cls-62" d="M313.77,164.34l-19.26,6.24-5.64,2.62h-8.66l-3.1.25-1.64.12-4.67.37-2.35.19-23.1-8.36-4.13-1.49-19-6.88,1.73-.68c12.75-5.05,25.26-11.18,25.26-11.18l4.8-5.9h2.14a71.16,71.16,0,0,0,4-11.17l1.27-5.71c.09-.55.13-.85.13-.85l6.8,3.59,22.93,18.34c0,1.25,0,2.37.09,3.32l.33,2.31c.06-.45.08-.71.08-.71l2.21.66,1.51,3.6s2.56,4,12.7,8.44A60.32,60.32,0,0,1,313.77,164.34Z" transform="translate(-69.06 -36.88)"/><path class="cls-63" d="M299.61,145.84a31.37,31.37,0,0,1-18.89-2.78c-9.91-4.8-18.24-19-18.75-22.48s3.79-12.76,3.79-20-3.53-19.58,2.4-26.28,33.22-7.7,42.07.89c0,0,2.74,6.88,2.74,10.77a28.33,28.33,0,0,1-.42,3.91c-.08.59-.19,1.22-.29,1.87-.79,4.71-1.88,10.46-1.37,13a12.64,12.64,0,0,0,.79,2.46h0c1.09,2.52,2.71,4.53,3,6.71C315.06,116.79,311.24,137,299.61,145.84Z" transform="translate(-69.06 -36.88)"/><path class="cls-64" d="M265.69,98.58s-2.45-6.14-8.61-6.24c0,0-3.6,1.42-4.17,4.17,0,0,1.33,9.95,2.84,14.59s7.08,4,7.08,4A23.55,23.55,0,0,0,265.69,98.58Z" transform="translate(-69.06 -36.88)"/><path class="cls-65" d="M289.36,118.84a5.61,5.61,0,0,1,2.93.5c.89.66,4.11,3.79,8.18,4.64s6.81-2.61,7.67-2.79,1.83,1,1.83,1a3.43,3.43,0,0,0-2.5-2.06s-.86,3.26-6.76,2.15-8.42-3.75-8.42-3.75l-.3-.53A15.2,15.2,0,0,0,289.36,118.84Z" transform="translate(-69.06 -36.88)"/><path class="cls-66" d="M280.64,88.25l.08-.64S286.61,77.28,298.27,77s14.28,7,14.28,7l2.16-3.27-4.92-10-34.24-.57-8.33,6.73-1.06,16.47,3.71,21.73,9,4.81,2.55-2.26c-.94-7.28-6.36-13.93-6.36-13.93L279,101s10.14,4.91,16,3.44c0,0,4.41-12.86,4.16-22.38C299.18,82,284.16,84.26,280.64,88.25Z" transform="translate(-69.06 -36.88)"/><path class="cls-67" d="M280.12,89s.57-3.72,6.86-5.21c7-1.66,12.68-3.06,12.68-3.06s-1.24,4.08-3.57,5.61c0,0-7.41-.27-11.16.58S280.12,89,280.12,89Z" transform="translate(-69.06 -36.88)"/><path class="cls-67" d="M312.55,84s-3.55,2.74-6,9.28c0,0,2.32-3,4.45-3a1.22,1.22,0,0,1,1.23,1.48A13.69,13.69,0,0,0,312.55,84Z" transform="translate(-69.06 -36.88)"/><path class="cls-68" d="M282.47,99.54s.38-7.86,8-9.85a16,16,0,0,1,3,7.58S289.48,96.51,282.47,99.54Z" transform="translate(-69.06 -36.88)"/><path class="cls-69" d="M304.45,102.67s.62-6.26,4.22-8.58c0,0,2.45,1.84,2.19,7.08C310.86,101.17,308.71,100.39,304.45,102.67Z" transform="translate(-69.06 -36.88)"/><path class="cls-70" d="M282.47,99.54s2.5,3.06,9.47,3.66a10.92,10.92,0,0,0,1.21-6S286.73,96.6,282.47,99.54Z" transform="translate(-69.06 -36.88)"/><path class="cls-70" d="M304.45,102.67v.91s1.07,2.25,4.93,2.62a10.69,10.69,0,0,0,1.34-5.07S308.27,100.52,304.45,102.67Z" transform="translate(-69.06 -36.88)"/><path class="cls-71" d="M289.93,97.06a8.62,8.62,0,0,0-1.61,5.54,25.62,25.62,0,0,0,3.62.6,9.4,9.4,0,0,0,1.21-6A9.54,9.54,0,0,0,289.93,97.06Z" transform="translate(-69.06 -36.88)"/><path class="cls-71" d="M308.11,101.24s-1,1.07-1.2,4.37a7.71,7.71,0,0,0,2.47.59,9.13,9.13,0,0,0,1.34-5.07A4.42,4.42,0,0,0,308.11,101.24Z" transform="translate(-69.06 -36.88)"/><path class="cls-72" d="M289.36,102.84s-.64-4.25,1.79-5.87l2,.25a8.53,8.53,0,0,1-1.21,6S290,103,289.36,102.84Z" transform="translate(-69.06 -36.88)"/><path class="cls-72" d="M309,101.05a18.51,18.51,0,0,0-1.33,4.83,5.32,5.32,0,0,0,1.72.32,8.27,8.27,0,0,0,1.34-5.07A4.15,4.15,0,0,0,309,101.05Z" transform="translate(-69.06 -36.88)"/><path class="cls-72" d="M282.47,99.54s4.64-2.7,12.55-1.16l-1.47-1.11A13.24,13.24,0,0,0,282.47,99.54Z" transform="translate(-69.06 -36.88)"/><path class="cls-72" d="M304.45,102.67a12.49,12.49,0,0,1,8.06-.93l-1.79-1.33S307.81,100,304.45,102.67Z" transform="translate(-69.06 -36.88)"/><path class="cls-13" d="M287.49,99.54a2.74,2.74,0,0,1,2.4.87A2.19,2.19,0,0,1,287.49,99.54Z" transform="translate(-69.06 -36.88)"/><path class="cls-13" d="M306.15,103.2s2-.38,2.67.52C308.82,103.72,307.76,104.45,306.15,103.2Z" transform="translate(-69.06 -36.88)"/><path class="cls-73" d="M282.94,100a18.13,18.13,0,0,0,9.38,4.42l.15-2.1-.53.88S286.39,102.88,282.94,100Z" transform="translate(-69.06 -36.88)"/><path class="cls-73" d="M304.45,103.58s.64,2.31,5.34,3.35l-.15-1.13-.26.4S306,105.78,304.45,103.58Z" transform="translate(-69.06 -36.88)"/><path class="cls-74" d="M295,112.8a17.2,17.2,0,0,1,5,0c3.22.38,6.84,1.27,8.82,0,0,0-2.63,2.64-4.91,3s-5.74-1.6-5.74-1.6l-1.52,0A4.1,4.1,0,0,1,295,112.8Z" transform="translate(-69.06 -36.88)"/><path class="cls-75" d="M296.87,114.26a2.39,2.39,0,0,1,1.45-.38c.67.12,1.34,1.09,1.34,1.09A6.61,6.61,0,0,0,296.87,114.26Z" transform="translate(-69.06 -36.88)"/><path class="cls-76" d="M308.82,112.8c.84-.82-3.52-8.58-5.6-8.87s-4,8.71-4,8.71l5.71.78C307.7,113.8,308.82,112.8,308.82,112.8Z" transform="translate(-69.06 -36.88)"/><path class="cls-77" d="M312,88.27c-1.18-.15-5.35,4.92-5.35,4.92s-2.65,8.21-2.13,10.64,7,3.73,7,3.73l.27-.43h0a12.64,12.64,0,0,1-.79-2.46c-.51-2.52.58-8.27,1.37-13a9.67,9.67,0,0,0,.29-1.87C312.65,89.05,312.54,88.33,312,88.27Z" transform="translate(-69.06 -36.88)"/><path class="cls-67" d="M311.74,121.71c-1.33-2.78-.51-4.23-12.06-5.74-16.35-2.15-17.75,2.84-20.53,2.08l-.33-.12c-3-1.17-10.1-8.14-10.28-17.53-.19-9.76,6.35-16.68,6.35-16.68-2.37-2-3.32-7.76-.76-10.23s6.92-1.89,17.62-.76,10.71.48,10.71.48c3.4.87,5.35,4.06,5.9,5.08.11.2.16.32.16.32l1.33-1.23a17.42,17.42,0,0,1,2.94,10.89s5.87-11.94,5.2-13.63a45.38,45.38,0,0,0-4.82-8h0s-1-9.09-3.79-9.09-15,2.74-15,2.74a17.22,17.22,0,0,0,1.14-6.72l-.05,0c-4,3.55-7.83,3.94-13.31,6.48a13.87,13.87,0,0,0-5.13,3.72l-.37.44-.39.47c-.38.48-.77,1-1.24,1.47l-.06.06,0,0a15.68,15.68,0,0,1-1.59,1.49c-3.6,2.93-11.52,4.89-12.47,8s1.2,7.32,2.34,11.68a23.73,23.73,0,0,1,.61,8.21,16.13,16.13,0,0,1,2.52,12c-1.11,6.37-3.54,7.41-3.54,7.41a10.91,10.91,0,0,0-.9,6.79c3.5,13.92,18,22.21,18,22.21,12.88,4.8,21.35,2.71,21.35,2.71h0c9.37-6.11,12.58-26.33,12.72-27.27C313.83,119.75,312.09,122.45,311.74,121.71ZM306,134.6c-2.27-.38-2.75-6.13-3.5-6.89s-4.87-.44-4.87-.44-3.79,4.3-5.3,4.42-9.6-3.16-7.85-8.08,7.85-5.56,7.85-5.56a14.8,14.8,0,0,0,7.89,3c4.74.31,6.45-.56,7-.81s3.62,1.13,3.54,5.43C310.68,128.62,308.24,135,306,134.6Z" transform="translate(-69.06 -36.88)"/><path class="cls-78" d="M305.37,105.66s4.09,5.07,3.7,7c-.43,2.08-5.16,3.2-5.16,3.2s3.79-1.31,4.57-3.2A25.05,25.05,0,0,0,305.37,105.66Z" transform="translate(-69.06 -36.88)"/><path class="cls-79" d="M312.79,88.27a17.42,17.42,0,0,0-2.94-10.89,29.09,29.09,0,0,0,3.31-10.71h0a36.71,36.71,0,0,1,1.54,7.1l3.28.86C318.66,76.33,312.79,88.27,312.79,88.27Z" transform="translate(-69.06 -36.88)"/><path class="cls-80" d="M308.36,78.29c-.55-1-2.5-4.21-5.9-5.08,0,0,0,.66-10.71-.48s-15.06-1.7-17.62.76-1.61,8.24.76,10.23c0,0-6.54,6.92-6.35,16.68.18,9.39,7.27,16.36,10.28,17.53l-.14,1s.53,21.5,5.76,23.21,16.06.82,17.07,1.83-.14,2.61-.24,2.76h0s-8.47,2.09-21.35-2.71c0,0-14.48-8.29-18-22.21a10.91,10.91,0,0,1,.9-6.79s2.43-1,3.54-7.41a16.13,16.13,0,0,0-2.52-12,23.73,23.73,0,0,0-.61-8.21c-1.14-4.36-3.29-8.59-2.34-11.68a13.64,13.64,0,0,0,10-2.21s1.06-1.47,5.75-2.23,23.54,1.14,23.54,1.14a16.2,16.2,0,0,0-5.87-2.61c-3.76-1-16.6.16-18,.27,1.47-.26,16-2.76,17.69-2.26s8.06,3.41,8.06,3.41c-.57-2.89-6.21-9.85-6.21-9.85a88.48,88.48,0,0,0-13.17,1.23,17,17,0,0,0-7.7,3.54l1.24-1.47.39-.47.37-.44,1.82-.31L288,59.85c3.07-1.64,7-5.7,7.48-6.2l.05,0a17.22,17.22,0,0,1-1.14,6.72c7.72-1,10.33-.47,10.33-.47C308.24,64.82,308.36,78.29,308.36,78.29Z" transform="translate(-69.06 -36.88)"/><path class="cls-81" d="M279.91,144.07a47.93,47.93,0,0,1,11.88-.84c7.14.29,11.24.32,9.47,3.55C301.26,146.78,292.29,148.8,279.91,144.07Z" transform="translate(-69.06 -36.88)"/><path class="cls-82" d="M304.73,59.85s4.35-1.7,6.06-1.42a3.37,3.37,0,0,0-1.39-1.09c-.71-.19-15,3-15,3S303.31,59.28,304.73,59.85Z" transform="translate(-69.06 -36.88)"/><path class="cls-80" d="M295.92,61.46s-.34,4.72-1.85,6.44l-17.69,2.26-5.19-.92a13.12,13.12,0,0,0,4.22-3.43C277.62,63.23,289.15,60.7,295.92,61.46Z" transform="translate(-69.06 -36.88)"/><path class="cls-82" d="M313.16,66.67a39.82,39.82,0,0,1,1.55,7.11l3.28.86A23.45,23.45,0,0,0,313.16,66.67Z" transform="translate(-69.06 -36.88)"/><path class="cls-83" d="M265,106.93s-1.24-6-4.29-8.92a7.2,7.2,0,0,0-6.53-2s1,11.07,1.95,13.77,2.51,3.41,2.51,3.41a8.51,8.51,0,0,1-2.42-5.52c-.28-3.67-.38-8.83.43-9.45s4.06,1.79,4.06,1.79a10.83,10.83,0,0,0-1.65,4.52c-.61,3.26,1.66,5.63,2.51,5.58s0-3.77.1-4.84S263.67,104.42,265,106.93Z" transform="translate(-69.06 -36.88)"/><path class="cls-84" d="M261.92,99.51a7.46,7.46,0,0,0-3,6.68c.36,4.48,2.92,4.29,2.93,3.34s-.49-3.36-.23-4.73,2.48-.75,2.48-.75A33,33,0,0,0,261.92,99.51Z" transform="translate(-69.06 -36.88)"/><path class="cls-82" d="M314,119.5s-4.13,18.87-12.73,27.28C301.26,146.78,311.06,142.93,314,119.5Z" transform="translate(-69.06 -36.88)"/><path class="cls-82" d="M309.4,57.34s2.18,1.69,2.6,7.59-2.15,12.45-2.15,12.45a23.73,23.73,0,0,0,3.6-10.27C313.77,61.74,311.13,58,309.4,57.34Z" transform="translate(-69.06 -36.88)"/><path class="cls-82" d="M283,69.69a51.22,51.22,0,0,0,10.58,2.21l6.68.6s-2.22-2.16-7-2.81A48.05,48.05,0,0,0,283,69.69Z" transform="translate(-69.06 -36.88)"/><path class="cls-82" d="M307.37,119.91s2.41,0,3.36,3a25.24,25.24,0,0,1,1,4.5l.86-3.32s-1.12-4.21-2.28-5.16a4.79,4.79,0,0,0-3-1.21Z" transform="translate(-69.06 -36.88)"/><path class="cls-67" d="M300.85,116.88l.41,3.6a12.74,12.74,0,0,0,4.89-.57l.35-2.18A26.89,26.89,0,0,0,300.85,116.88Z" transform="translate(-69.06 -36.88)"/><path class="cls-85" d="M314.28,163.41s17.23,12.58,19.47,16.91,3.14,17.9,6.16,23.77c0,0-2.07-9.61-3.52-17.14s-1.1-7.64-1.9-9.49S320.81,166.69,314.28,163.41Z" transform="translate(-69.06 -36.88)"/><path class="cls-86" d="M311.2,233.45s-8.31,35.54-7.93,37.94,5.75,7.3,6,8.65c0,0-4.1,5.5-3.92,6.72s7.2,8.92,7,11.3c-.06.69-4.61,8.2-4.61,8.2s5.14-7.38,5.39-8.55-6.29-11-6.48-12c-.5-2.59,3.26-4.5,3.39-6.2s-5.09-5.87-5.14-8.65S311.2,233.45,311.2,233.45Z" transform="translate(-69.06 -36.88)"/><path class="cls-87" d="M312.88,318.18s17.95,40.63,24.07,81.27C337,399.45,335.93,359.79,312.88,318.18Z" transform="translate(-69.06 -36.88)"/><path class="cls-76" d="M199.07,155.25s-4.64-1-6.57-5.05-.67-9.91-.67-9.91a102.45,102.45,0,0,0,5.45,9.35C199.09,152,199.58,154.74,199.07,155.25Z" transform="translate(-69.06 -36.88)"/><path class="cls-88" d="M512.05,234.26H353.92a7,7,0,0,1-7-6.77l-3.22-91.79a7,7,0,0,1,1.95-5.11,6.93,6.93,0,0,1,5-2.15l163.56-1.08a7.06,7.06,0,0,1,5,2.1,6.94,6.94,0,0,1,2,5.08l-2.21,92.87A7,7,0,0,1,512.05,234.26Zm2.22-106.4h0l-163.56,1.08a6.51,6.51,0,0,0-6.47,6.74l3.22,91.79a6.5,6.5,0,0,0,6.51,6.29H512.05a6.56,6.56,0,0,0,6.52-6.36l2.21-92.87a6.52,6.52,0,0,0-6.51-6.67Z" transform="translate(-69.06 -36.88)"/><path class="cls-89" d="M344.18,140.36H520.84l.29-4.84a7.42,7.42,0,0,0-7.46-7.85L350.17,129a6.13,6.13,0,0,0-6.09,6.25Z" transform="translate(-69.06 -36.88)"/><rect class="cls-40" x="390.33" y="114.45" width="23.52" height="23.52"/><rect class="cls-40" x="418.09" y="114.45" width="23.52" height="23.52"/><rect class="cls-40" x="362.12" y="114.45" width="23.52" height="23.52"/><rect class="cls-90" x="367.12" y="140.98" width="14.39" height="1.74"/><rect class="cls-90" x="394.9" y="140.98" width="14.39" height="1.74"/><rect class="cls-90" x="422.66" y="140.98" width="14.39" height="1.74"/><polygon points="281.31 96.27 282.43 94.57 288.51 99.9 287.58 101.2 281.31 96.27"/><polygon points="288.67 96.27 287.54 94.57 281.46 99.9 282.39 101.2 288.67 96.27"/><rect class="cls-13" x="393.06" y="95.73" width="54.44" height="2.73"/><polygon class="cls-91" points="105.01 54.69 105.01 78.31 133.27 78.56 133.65 53.93 105.01 54.69"/><polygon class="cls-92" points="133.65 53.93 135.49 57.04 134.57 78.53 133.27 78.56 133.65 53.93"/><polygon class="cls-13" points="110.06 62.66 112.67 58.88 126.78 70.72 124.61 73.61 110.06 62.66"/><polygon class="cls-13" points="127.14 62.66 124.53 58.88 110.42 70.72 112.58 73.61 127.14 62.66"/><path class="cls-93" d="M240,369.63H143.3a7.92,7.92,0,0,1-7.91-7.74l-1.81-79.31a7.92,7.92,0,0,1,7.92-8.1H242.17a7.91,7.91,0,0,1,7.91,8.14l-2.17,79.31A7.93,7.93,0,0,1,240,369.63Z" transform="translate(-69.06 -36.88)"/><path class="cls-40" d="M240,369.88H143.3a8.21,8.21,0,0,1-8.16-8l-1.81-79.31a8.18,8.18,0,0,1,8.17-8.36H242.17a8.18,8.18,0,0,1,8.16,8.4l-2.17,79.3A8.13,8.13,0,0,1,240,369.88ZM141.5,274.73a7.68,7.68,0,0,0-7.67,7.85l1.81,79.3a7.71,7.71,0,0,0,7.66,7.5H240a7.63,7.63,0,0,0,7.67-7.46l2.17-79.31a7.68,7.68,0,0,0-7.66-7.88Z" transform="translate(-69.06 -36.88)"/><rect class="cls-94" x="90.58" y="253.83" width="50.85" height="2.18"/><rect class="cls-94" x="90.58" y="259.12" width="25.42" height="2.18"/><rect class="cls-94" x="90.58" y="263.54" width="25.42" height="2.18"/><rect class="cls-94" x="118.86" y="263.54" width="20.23" height="2.18"/><rect class="cls-94" x="90.58" y="267.96" width="40.99" height="2.18"/><rect class="cls-94" x="90.58" y="272.39" width="14.59" height="2.18"/><rect class="cls-94" x="108.17" y="285.65" width="25.23" height="2.18"/><rect class="cls-94" x="90.58" y="276.81" width="45.73" height="2.18"/><rect class="cls-94" x="90.58" y="281.23" width="35.18" height="2.18"/><rect class="cls-94" x="90.58" y="285.65" width="16.55" height="2.18"/><rect class="cls-94" x="90.58" y="290.07" width="25.42" height="2.18"/><rect class="cls-94" x="90.58" y="294.49" width="7.29" height="2.18"/><rect class="cls-94" x="100.88" y="294.49" width="26.46" height="2.18"/><rect class="cls-94" x="108.17" y="298.78" width="25.23" height="2.18"/><rect class="cls-94" x="90.58" y="298.78" width="16.55" height="2.18"/><rect class="cls-94" x="90.58" y="303.2" width="25.42" height="2.18"/><rect class="cls-94" x="90.58" y="307.62" width="7.29" height="2.18"/><rect class="cls-94" x="100.88" y="307.62" width="26.46" height="2.18"/><path class="cls-40" d="M85.65,190.14a5.57,5.57,0,1,1-5.56-5.56A5.56,5.56,0,0,1,85.65,190.14Z" transform="translate(-69.06 -36.88)"/><circle class="cls-95" cx="150.86" cy="102.13" r="3.16"/><circle class="cls-40" cx="34" cy="273.08" r="2.82"/><path class="cls-96" d="M151.22,282.22h-48.8a7.28,7.28,0,0,1-7.28-7l-1.08-32.1a7.28,7.28,0,0,1,7.27-7.52H152.2a7.28,7.28,0,0,1,7.28,7.5l-1,32.1A7.29,7.29,0,0,1,151.22,282.22Z" transform="translate(-69.06 -36.88)"/><path class="cls-97" d="M151.22,282.47h-48.8a7.5,7.5,0,0,1-7.53-7.28l-1.08-32.1a7.52,7.52,0,0,1,7.52-7.78H152.2a7.52,7.52,0,0,1,7.53,7.76l-1,32.1A7.51,7.51,0,0,1,151.22,282.47Zm-49.89-46.66a7,7,0,0,0-7,7.27l1.08,32.09a7,7,0,0,0,7,6.8h48.8a7,7,0,0,0,7-6.82l1-32.1a7,7,0,0,0-7-7.24Z" transform="translate(-69.06 -36.88)"/><polygon class="cls-94" points="46.37 210.21 34.34 224.16 46.59 234.56 46.59 229.19 39.5 223.05 46.08 215.61 46.37 210.21"/><polygon class="cls-94" points="67.52 210.84 79.55 224.78 67.3 235.18 67.3 229.81 74.38 223.68 66.5 215.33 67.52 210.84"/><polygon class="cls-94" points="48.99 234.56 59.47 211.46 64.4 211.46 52.52 234.56 48.99 234.56"/><path class="cls-40" d="M479.54,348.27h-61a9.12,9.12,0,0,1-9.11-8.81L408,299.31a9.1,9.1,0,0,1,9.1-9.42h63.63a9.12,9.12,0,0,1,9.11,9.39l-1.23,40.16A9.11,9.11,0,0,1,479.54,348.27Z" transform="translate(-69.06 -36.88)"/><path class="cls-98" d="M479.54,348.52h-61a9.33,9.33,0,0,1-9.36-9l-1.35-40.15a9.36,9.36,0,0,1,9.35-9.68h63.63a9.38,9.38,0,0,1,9.36,9.65l-1.23,40.15A9.32,9.32,0,0,1,479.54,348.52Zm-62.4-58.38a8.86,8.86,0,0,0-8.85,9.16l1.35,40.16A8.82,8.82,0,0,0,418.5,348h61a8.83,8.83,0,0,0,8.86-8.59l1.23-40.15a8.88,8.88,0,0,0-8.86-9.14Z" transform="translate(-69.06 -36.88)"/><rect class="cls-99" x="351.21" y="259.48" width="55.91" height="33.21"/><polygon class="cls-13" points="374.21 267.72 374.21 284.45 388.5 275.32 374.21 267.72"/><rect class="cls-99" x="351.21" y="298.81" width="55.91" height="3.04"/><rect class="cls-13" x="351.21" y="298.81" width="14.47" height="3.04"/><path class="cls-100" d="M379.31,285.86l-2.92,8.35C378,289.6,380.32,286.6,379.31,285.86Zm-2.92,8.35-2.92,8.35C374.2,302.34,374.77,298.82,376.39,294.21Zm2.92-8.35-2.92,8.35C378,289.6,380.32,286.6,379.31,285.86Zm-2.92,8.35-2.92,8.35C374.2,302.34,374.77,298.82,376.39,294.21Zm8.42,7.23,2.84,1.61,3.06-8.35-3.28-.55c.06-.31.12-.62.16-.93a21.27,21.27,0,0,0,.27-4.16l3.43-2.15-1.56-7.36-3.28,3.14a9.68,9.68,0,0,0-1.69-2.45c-.18-.19-.37-.38-.56-.55l2-4.64-5.35-1.74h0L379.57,278a8.92,8.92,0,0,0-3.62.84l-.59-4.42-5.89,4.46,1.36,3.92A22.31,22.31,0,0,0,368,287l-2.83-1.6-3.06,8.35,3.27.55a23.14,23.14,0,0,0-.43,5.09l-3.43,2.15,1.56,7.36,3.29-3.15a9.21,9.21,0,0,0,2.25,3l-2,4.65,5.26,2.05.82-3,.55-2a8.93,8.93,0,0,0,3.63-.84l.58,4.42,5.89-4.46-1.36-3.92a22.46,22.46,0,0,0,2.32-3.2C384.45,302.11,384.63,301.78,384.81,301.44Zm-8.42-7.23c-1.62,4.61,0,9.37-2.92,8.35s-4-5.6-2.39-10.2,5.3-7.52,8.23-6.5S378,289.6,376.39,294.21Zm2.92-8.35-2.92,8.35C378,289.6,380.32,286.6,379.31,285.86Zm-2.92,8.35-2.92,8.35C374.2,302.34,374.77,298.82,376.39,294.21Z" transform="translate(-69.06 -36.88)"/><path class="cls-100" d="M387.65,303.05l3.06-8.35-3.12-1.48-.51-.23.33-4.6,3.46-1.69-1.14-7.15-7.54-2.46,1.39,3.32,2.63-5.36-5.35-1.74-2.2-.72-5.27-2-1,3.59L367.82,272l-5.89,4.46,1.79,4.82-5.51,15.26-2.72,9.92,5.23.57-1.7,3.93,5.27,2,7.54,2.46L370.62,313l-.76-1.45,2.79.91,4.76,1.55,5.89-4.46-3.64-4.29,4.6-2.83Zm-16.57-10.69c1.62-4.62,5.3-7.52,8.23-6.5l-2.92,8.35-2.92,8.35C370.54,301.53,369.47,297,371.08,292.36Z" transform="translate(-69.06 -36.88)"/><path class="cls-101" d="M380.11,300.59l3.05-8.35-3.28-.55a22.57,22.57,0,0,0,.44-5.09l3.43-2.15-1.56-7.36-3.29,3.15a9.36,9.36,0,0,0-2.25-3l2-4.64-5.27-2-1.36,5a9.11,9.11,0,0,0-3.63.85l-.58-4.42-5.89,4.46,1.36,3.92a22.83,22.83,0,0,0-2.88,4.18l-2.83-1.6-3.06,8.35,3.28.55a22.57,22.57,0,0,0-.44,5.09l-3.43,2.15,1.57,7.36,3.28-3.15a9.21,9.21,0,0,0,2.25,3l-2,4.65,5.27,2,1.37-5a8.92,8.92,0,0,0,3.62-.84l.58,4.42,5.89-4.46-1.36-3.92a22.83,22.83,0,0,0,2.88-4.18Zm-14.19-.49c-2.93-1-4-5.6-2.38-10.21s5.3-7.51,8.22-6.49,4,5.6,2.38,10.21S368.85,301.12,365.92,300.1Z" transform="translate(-69.06 -36.88)"/><polygon class="cls-100" points="322.23 250.03 314.69 247.57 311.26 249.72 318.8 252.18 322.23 250.03"/><polygon class="cls-102" points="314.24 272.67 306.69 270.21 305.33 266.3 312.88 268.75 314.24 272.67"/><polygon class="cls-100" points="307.59 240.36 311.72 241.55 313.12 240.22 315.87 241.11 317.14 238.17 309.6 235.71 307.59 240.36"/><path class="cls-103" d="M365.66,308l3.95,1.65-.33-2.49A7.09,7.09,0,0,1,365.66,308Z" transform="translate(-69.06 -36.88)"/><path class="cls-103" d="M366.27,285.35l6.65,3.52a10.23,10.23,0,0,1,1.71-1.81S372.9,279.72,366.27,285.35Z" transform="translate(-69.06 -36.88)"/><polygon class="cls-40" points="0 298.87 5.94 305.39 8.27 302.7 2.66 296.53 0 298.87"/><polygon class="cls-100" points="319.9 46.87 318.45 13.21 362.52 13.21 360.71 46.77 319.9 46.87"/><polygon class="cls-104" points="318.45 13.21 317.13 15.19 318.45 46.87 319.9 46.87 318.45 13.21"/><polygon class="cls-13" points="333.08 19.93 326.17 19.19 327.12 42.25 333.08 41.66 333.08 39.28 329.63 39.36 329.23 21.57 333.08 21.68 333.08 19.93"/><polygon class="cls-13" points="347.25 19.93 354.16 19.19 353.21 42.25 347.25 41.66 347.25 39.28 350.7 39.36 351.1 21.57 347.25 21.68 347.25 19.93"/><polygon class="cls-105" points="86.48 34.76 87.47 11.82 57.43 11.82 58.66 34.7 86.48 34.76"/><polygon class="cls-106" points="87.47 11.82 88.37 13.17 87.47 34.76 86.48 34.76 87.47 11.82"/><path class="cls-13" d="M145,53.31a19.87,19.87,0,0,1,3.87.14c.58.27-.15,5.64-.15,5.64l1.32,1.2-1.23,1.19s.06,5.44-.71,5.9-3.42,0-3.42,0V66a7.57,7.57,0,0,0,2.51-.16c.36-.29.33-5,.33-5l.58-.63-.58-.69s.1-3.39,0-4.32c0-.62-2.56-.65-2.56-.65Z" transform="translate(-69.06 -36.88)"/><path class="cls-13" d="M137.41,53.31a19.87,19.87,0,0,0-3.87.14c-.58.27.15,5.64.15,5.64l-1.32,1.2,1.23,1.19s-.06,5.44.71,5.9,3.43,0,3.43,0V66a7.63,7.63,0,0,1-2.52-.16c-.36-.29-.33-5-.33-5l-.58-.63.58-.69s-.1-3.39,0-4.32c0-.62,2.56-.65,2.56-.65Z" transform="translate(-69.06 -36.88)"/><path class="cls-40" d="M343.69,65l-7.36-19.27,19.09,4Zm-6.57-18.59L343.84,64l10.7-13.93Z" transform="translate(-69.06 -36.88)"/><rect class="cls-40" x="394.02" y="333.38" width="10.94" height="0.5" transform="translate(-174.83 421.71) rotate(-53.76)"/><polygon class="cls-40" points="266.68 219.95 259.74 211.3 260.13 210.99 267.07 219.64 266.68 219.95"/><polygon class="cls-40" points="52.35 280.67 38.49 270.61 38.78 270.21 52.65 280.26 52.35 280.67"/><rect class="cls-40" x="106.06" y="312.07" width="17.13" height="0.5" transform="translate(-272.34 177.37) rotate(-52.7)"/><rect class="cls-40" x="94.42" y="162.39" width="0.5" height="10.14" transform="translate(-166.67 136.5) rotate(-62.28)"/><polygon class="cls-40" points="374.82 12.16 374.44 11.83 384.81 0 385.19 0.33 374.82 12.16"/><rect class="cls-40" x="244.26" y="77.22" width="0.5" height="10.41" transform="translate(-80.18 80.65) rotate(-26.45)"/><rect class="cls-40" x="166.96" y="239.4" width="15.54" height="0.5" transform="translate(-182.12 131.06) rotate(-39.91)"/><polygon class="cls-85" points="289.79 109.44 289.79 162.57 343.86 162.57 343.86 109.17 289.79 109.44"/><g class="cls-107"><path d="M368.21,190.24a15.39,15.39,0,1,1,15.38-15.38A15.4,15.4,0,0,1,368.21,190.24Zm0-29.77a14.39,14.39,0,1,0,14.38,14.39A14.4,14.4,0,0,0,368.21,160.47Z" transform="translate(-69.06 -36.88)"/></g><circle cx="299.15" cy="137.98" r="8.36"/><circle cx="407.14" cy="147.49" r="7.87" transform="translate(129.09 489.87) rotate(-81.06)"/><g class="cls-107"><path d="M407.14,162.87a15.38,15.38,0,1,1,15.38-15.38A15.4,15.4,0,0,1,407.14,162.87Zm0-29.76a14.38,14.38,0,1,0,14.38,14.38A14.4,14.4,0,0,0,407.14,133.11Z" transform="translate(-69.06 -36.88)"/></g><rect class="cls-90" x="381.46" y="151.69" width="60.15" height="5.63"/><rect class="cls-90" x="366.41" y="160.27" width="75.2" height="1.74"/><rect class="cls-90" x="362.12" y="163.1" width="24.19" height="1.74"/><rect class="cls-90" x="366.41" y="165.9" width="75.2" height="1.74"/><rect class="cls-90" x="362.12" y="168.7" width="79.49" height="1.74"/><rect class="cls-90" x="362.12" y="171.5" width="79.49" height="1.74"/><rect class="cls-90" x="366.41" y="182.83" width="75.2" height="1.74"/><rect class="cls-108" x="362.12" y="185.63" width="79.49" height="1.74"/><rect class="cls-108" x="362.12" y="188.43" width="79.49" height="1.74"/><rect class="cls-90" x="362.12" y="174.3" width="76.3" height="1.74"/><rect class="cls-90" x="362.12" y="179.91" width="64.41" height="1.74"/><rect class="cls-90" x="366.41" y="177.1" width="75.2" height="1.74"/></g><path class="cls-13" d="M218.45,296.15" transform="translate(-69.06 -36.88)"/></g></g></svg>