<svg xmlns="http://www.w3.org/2000/svg" viewBox="0 0 500 400"><defs><style>.cls-1{fill:#fafafa;}.cls-17,.cls-2{fill:#263238;}.cls-3{fill:#e0e0e0;}.cls-4{fill:#fecc72;}.cls-5{fill:#e8505b;}.cls-6{fill:#f5f5f5;}.cls-7{fill:#feb420;}.cls-8{fill:#f24f18;}.cls-9{fill:#455a64;}.cls-10{fill:#fff;}.cls-11{opacity:0.3;}.cls-12{fill:#9e3b19;}.cls-13{fill:#ffbe9d;}.cls-14{fill:#eb996e;}.cls-15,.cls-17{opacity:0.6;}.cls-16{fill:none;stroke:#839198;stroke-miterlimit:10;stroke-width:0.05px;}.cls-18{fill:#fda91f;}.cls-19{opacity:0.1;}.cls-20{fill:#7e341a;}.cls-21{fill:#ebebeb;}.cls-22{fill:#b78876;}.cls-23{fill:#aa6550;}.cls-24{opacity:0.4;}.cls-25{fill:#936515;}</style></defs><title>metricas</title><g id="Stars"><rect class="cls-1" x="216.71" y="0.21" width="116.12" height="142.39"/><path class="cls-2" d="M332.83,190.6s0-.23,0-.68,0-1.11,0-2c0-1.74,0-4.32,0-7.68,0-6.72,0-16.56-.05-29,0-25-.05-60.54-.08-103l.17.18-116.11,0h0l.2-.21c0,52.49,0,101.45,0,142.39l-.17-.18,84.23.09,23.55.05,6.2,0c1.41,0,2.14,0,2.14,0l-2.1,0-6.18,0-23.51,0-84.33.1h-.17v-.18c0-40.94,0-89.9,0-142.39V48h.21l116.11,0H333v.19c0,42.51-.06,78.12-.08,103.12,0,12.47,0,22.3-.05,29,0,3.34,0,5.91,0,7.64v2C332.84,190.38,332.83,190.6,332.83,190.6Z" transform="translate(0 -47.99)"/><rect class="cls-3" x="226" y="11.6" width="94.07" height="81.08"/><rect class="cls-2" x="232.57" y="78.26" width="3.09" height="0.96"/><rect class="cls-2" x="239.56" y="83.37" width="3.95" height="0.96"/><rect class="cls-2" x="253.3" y="83.37" width="3.95" height="0.96"/><rect class="cls-2" x="267.05" y="83.37" width="3.95" height="0.96"/><rect class="cls-2" x="280.79" y="83.37" width="3.95" height="0.96"/><rect class="cls-2" x="294.54" y="83.37" width="3.95" height="0.96"/><rect class="cls-2" x="308.28" y="83.37" width="3.95" height="0.96"/><rect class="cls-2" x="232.57" y="65.49" width="3.09" height="0.96"/><rect class="cls-2" x="232.57" y="41.47" width="3.09" height="0.96"/><rect class="cls-2" x="232.57" y="29.39" width="3.09" height="0.96"/><rect class="cls-2" x="232.73" y="53.48" width="3.09" height="0.96"/><path class="cls-2" d="M312.12,127.21a1.19,1.19,0,0,1-.33,0l-1,0-3.73,0-13.74.07-45.33.06H237.08v-.21c0-16.28,0-30.61.06-40.89,0-5.11.05-9.22.06-12.07,0-1.4,0-2.49,0-3.25,0-.36,0-.64,0-.85s0-.28,0-.28a1.58,1.58,0,0,1,0,.28c0,.21,0,.49,0,.85,0,.76,0,1.85,0,3.25,0,2.85,0,7,.06,12.07,0,10.28,0,24.61.07,40.89l-.2-.21H248l45.33.06,13.74.07,3.73,0,1,0Z" transform="translate(0 -47.99)"/><path class="cls-2" d="M313,102c0,.12-16.29.21-36.37.21s-36.36-.09-36.36-.21,16.28-.21,36.36-.21S313,101.83,313,102Z" transform="translate(0 -47.99)"/><path class="cls-2" d="M313,89.94c0,.11-16.29.21-36.37.21s-36.36-.1-36.36-.21,16.28-.21,36.36-.21S313,89.82,313,89.94Z" transform="translate(0 -47.99)"/><path class="cls-2" d="M313,77.86c0,.12-16.29.21-36.37.21s-36.36-.09-36.36-.21,16.28-.21,36.36-.21S313,77.75,313,77.86Z" transform="translate(0 -47.99)"/><path class="cls-2" d="M313,114c0,.11-16.29.21-36.37.21s-36.36-.1-36.36-.21,16.28-.22,36.36-.22S313,113.85,313,114Z" transform="translate(0 -47.99)"/><path class="cls-4" d="M241,124.63V114l6.18-10.32,4.2,3.46L260,92.74l5.08,3.84,7.07-13.26,5.74,5,8.61-17.6,9.28,19.67,7.5-9.84,8.84-2.72v46.77Z" transform="translate(0 -47.99)"/><path class="cls-5" d="M313,74.08h-.16l-.46,0-1.79,0-6.78.06.09,0-7.26,10.21,0,.06h-.08l-18.19,0,.17-.1c-2.4,4.28-5,8.9-7.65,13.68s-5.13,9.15-7.51,13.4l-.14.27-.17-.25L253.17,96.9h.27c-3.75,6.25-6.84,11.41-9,15l-2.52,4.16c-.28.45-.51.81-.67,1.08s-.24.36-.24.36.06-.14.2-.39l.63-1.11,2.44-4.2,8.89-15.12.12-.21.14.21c2.95,4.33,6.29,9.22,9.89,14.52H263c2.38-4.25,4.89-8.76,7.49-13.41s5.26-9.39,7.66-13.67l.06-.1h.1l18.19,0-.12.06L303.71,74l0-.05h.05l6.78.06,1.79,0h.46C312.93,74.07,313,74.07,313,74.08Z" transform="translate(0 -47.99)"/><path class="cls-5" d="M256.28,100.21a.7.7,0,1,1-.69-.72A.71.71,0,0,1,256.28,100.21Z" transform="translate(0 -47.99)"/><path class="cls-5" d="M277.26,87.4a.7.7,0,1,1-.7-.72A.72.72,0,0,1,277.26,87.4Z" transform="translate(0 -47.99)"/><path class="cls-5" d="M293.57,84.26a.7.7,0,1,1-.7-.73A.71.71,0,0,1,293.57,84.26Z" transform="translate(0 -47.99)"/><path class="cls-2" d="M315.83,152.72c0,.12-19.85.22-44.33.22s-44.34-.1-44.34-.22,19.85-.21,44.34-.21S315.83,152.61,315.83,152.72Z" transform="translate(0 -47.99)"/><path class="cls-2" d="M315.83,157.87c0,.12-19.85.22-44.33.22s-44.34-.1-44.34-.22,19.85-.21,44.34-.21S315.83,157.76,315.83,157.87Z" transform="translate(0 -47.99)"/><path class="cls-2" d="M315.83,163c0,.12-19.85.22-44.33.22s-44.34-.1-44.34-.22,19.85-.21,44.34-.21S315.83,162.91,315.83,163Z" transform="translate(0 -47.99)"/><path class="cls-2" d="M315.83,168.18c0,.11-19.85.21-44.33.21s-44.34-.1-44.34-.21S247,168,271.5,168,315.83,168.06,315.83,168.18Z" transform="translate(0 -47.99)"/><path class="cls-6" d="M51.11,141.63c-.3-19.67,14.29-35.94,32.52-36.25s33.29,15.43,33.58,35.1-14.29,35.94-32.52,36.25S51.4,161.3,51.11,141.63Zm48.85-.85c-.14-9.4-7.34-16.93-16-16.78s-15.69,7.92-15.55,17.33,7.34,16.94,16,16.78S100.1,150.19,100,140.78Z" transform="translate(0 -47.99)"/><path class="cls-3" d="M51.11,141.63c-.3-19.67,14.29-35.94,32.52-36.25L83.91,124c-8.72.15-15.69,7.92-15.55,17.33s7.34,16.93,16,16.78l.28,18.62C66.47,177.05,51.4,161.3,51.11,141.63Z" transform="translate(0 -47.99)"/><path class="cls-7" d="M80.66,102.51c21.32-.37,38.33,17.41,38.68,40.43l-20.18.35c-.17-11-8-17.93-18.16-17.76Z" transform="translate(0 -47.99)"/><rect class="cls-1" x="85.22" y="93.45" width="105.75" height="129.67"/><path class="cls-2" d="M191,271.11s0-.21,0-.62v-1.8c0-1.59,0-3.94,0-7,0-6.12,0-15.08,0-26.45,0-22.74,0-55.13-.09-93.8l.18.19-105.74,0h0l.2-.21c0,47.81,0,92.39,0,129.67l-.17-.18,76.7.09,21.44.05,5.66,0,1.95,0-1.92,0-5.62,0L162,271.2l-76.8.09h-.17v-.18c0-37.28,0-81.86,0-129.67v-.21h.21l105.74,0h.17v.18c0,38.72-.07,71.15-.09,93.92,0,11.36,0,20.3,0,26.41,0,3,0,5.38,0,7v1.79C191,270.91,191,271.11,191,271.11Z" transform="translate(0 -47.99)"/><path class="cls-8" d="M181.87,207.65c0,.08-1.17-.63-3.4-1.39a20.52,20.52,0,0,0-9.75-.77,20.12,20.12,0,0,0-6.43,2.22,30.17,30.17,0,0,0-6.32,4.88c-2.08,2-4.13,4.2-6.51,6.27a22,22,0,0,1-8.3,4.83,11.74,11.74,0,0,1-4.85.31,14.72,14.72,0,0,1-4.5-1.49,77.18,77.18,0,0,1-7.52-4.81,22.56,22.56,0,0,0-7.08-3.41,19.55,19.55,0,0,0-6.73-.55,20.67,20.67,0,0,0-9.3,3.25c-2,1.31-2.93,2.29-3,2.22a5.88,5.88,0,0,1,.68-.71,16.24,16.24,0,0,1,2.16-1.77,20.33,20.33,0,0,1,9.4-3.54,19.81,19.81,0,0,1,6.92.48,23.06,23.06,0,0,1,7.29,3.42,79.89,79.89,0,0,0,7.47,4.73,12,12,0,0,0,8.87,1.11,21.53,21.53,0,0,0,8-4.67c2.33-2,4.4-4.23,6.51-6.2a30.36,30.36,0,0,1,6.49-4.93,20.64,20.64,0,0,1,6.63-2.19,19.94,19.94,0,0,1,9.91,1,16.76,16.76,0,0,1,2.5,1.15A4.19,4.19,0,0,1,181.87,207.65Z" transform="translate(0 -47.99)"/><rect class="cls-9" x="114.33" y="177.07" width="8.99" height="26.12"/><rect class="cls-5" x="152.47" y="177.07" width="8.99" height="26.12"/><rect class="cls-5" x="165.19" y="161.73" width="8.99" height="41.47"/><rect class="cls-7" x="102.69" y="194.98" width="8.99" height="8.79"/><rect class="cls-7" x="127.04" y="188.87" width="8.99" height="14.33"/><rect class="cls-5" x="139.76" y="185.58" width="8.99" height="17.62"/><path class="cls-2" d="M123.68,254.27c0,.22-2.18.39-4.86.39s-4.86-.17-4.86-.39,2.18-.39,4.86-.39S123.68,254.06,123.68,254.27Z" transform="translate(0 -47.99)"/><path class="cls-2" d="M112.49,254.27c0,.22-2.17.39-4.86.39s-4.85-.17-4.85-.39,2.17-.39,4.85-.39S112.49,254.06,112.49,254.27Z" transform="translate(0 -47.99)"/><path class="cls-2" d="M176,254.27c0,.22-2.46.39-5.49.39s-5.49-.17-5.49-.39,2.46-.39,5.49-.39S176,254.06,176,254.27Z" transform="translate(0 -47.99)"/><ellipse class="cls-2" cx="157.11" cy="206.28" rx="5.49" ry="0.39"/><path class="cls-2" d="M148.75,254.27c0,.22-2.18.39-4.86.39s-4.86-.17-4.86-.39,2.18-.39,4.86-.39S148.75,254.06,148.75,254.27Z" transform="translate(0 -47.99)"/><path class="cls-2" d="M135.61,254.27c0,.22-2.18.39-4.86.39s-4.85-.17-4.85-.39,2.17-.39,4.85-.39S135.61,254.06,135.61,254.27Z" transform="translate(0 -47.99)"/><rect class="cls-3" x="102.48" y="112.35" width="73.47" height="32.78"/><path class="cls-2" d="M117.74,170.71a3.43,3.43,0,1,1-3.42-3.68A3.56,3.56,0,0,1,117.74,170.71Z" transform="translate(0 -47.99)"/><rect class="cls-2" x="121.17" y="120.17" width="23.87" height="1.42"/><rect class="cls-10" x="121.17" y="123.41" width="46.43" height="1.42"/><path class="cls-7" d="M117.74,182a3.43,3.43,0,1,1-3.42-3.68A3.56,3.56,0,0,1,117.74,182Z" transform="translate(0 -47.99)"/><rect class="cls-7" x="121.17" y="131.49" width="12.19" height="1.42"/><rect class="cls-10" x="121.17" y="134.72" width="46.43" height="1.42"/><rect class="cls-3" x="149.78" y="98.65" width="195.1" height="139.05"/><path class="cls-1" d="M370.56,175.48A28.18,28.18,0,0,0,328.92,177c-11.09,12.68-10.46,32.63,1.41,44.47A28.19,28.19,0,0,0,372,220C383.07,207.27,382.43,187.32,370.56,175.48Zm-9.82,33.26a13.47,13.47,0,0,1-19.91.72,15.79,15.79,0,0,1-.68-21.26,13.47,13.47,0,0,1,19.91-.72A15.79,15.79,0,0,1,360.74,208.74Z" transform="translate(0 -47.99)"/><path class="cls-1" d="M328.92,177a28.18,28.18,0,0,1,41.64-1.51l-10.5,12a13.47,13.47,0,0,0-19.91.72,15.79,15.79,0,0,0,.68,21.26l-10.5,12C318.46,209.62,317.83,189.67,328.92,177Z" transform="translate(0 -47.99)"/><path class="cls-8" d="M369.36,170.33c14.54,14.51,16.28,38.1,2.69,53.63L357.3,210.23c6.5-7.43,7.91-17.34,1-24.28Z" transform="translate(0 -47.99)"/><path class="cls-2" d="M500,447.78c0,.12-111.94.21-250,.21S0,447.9,0,447.78s111.91-.21,250-.21S500,447.67,500,447.78Z" transform="translate(0 -47.99)"/><rect class="cls-1" x="138.08" y="102.14" width="202.05" height="142.39"/><path class="cls-2" d="M340.13,292.52c0-1.37-.06-55.54-.16-142.39l.16.17-202,0h0l.2-.21c0,50.64,0,98.83,0,142.39l-.18-.19,202,.19-202,.2h-.18v-.2c0-43.56,0-91.75,0-142.39v-.21h.22l202,0h.15v.17C340.19,237,340.13,291.15,340.13,292.52Z" transform="translate(0 -47.99)"/><path class="cls-9" d="M199.83,228.76l19.87.3c-.15,11.38-9.07,20.65-19.87,20.65h-.12Z" transform="translate(0 -47.99)"/><path class="cls-2" d="M232.69,257.67a1.34,1.34,0,0,1-.43,0l-1.21,0-4.44.06h-.06l0-.05L220,248.88l-5.28-7.24.1.05-5.85-.06-1.64,0a3.22,3.22,0,0,1-.57,0,2.34,2.34,0,0,1,.57,0l1.64,0,5.85-.06h.06l0,.05,5.32,7.21,6.5,8.93-.09-.05,4.44.05,1.21,0Z" transform="translate(0 -47.99)"/><path class="cls-2" d="M239.82,260.14a64.17,64.17,0,0,1-6.43.16,64.17,64.17,0,0,1-6.43-.16,62.26,62.26,0,0,1,6.43-.17A62.26,62.26,0,0,1,239.82,260.14Z" transform="translate(0 -47.99)"/><path class="cls-2" d="M239.82,262.69a62.26,62.26,0,0,1-6.43.17,62.26,62.26,0,0,1-6.43-.17,64.17,64.17,0,0,1,6.43-.16A64.17,64.17,0,0,1,239.82,262.69Z" transform="translate(0 -47.99)"/><path class="cls-7" d="M196.69,225.72l-.28,20.95c-10.8-.16-19.6-9.57-19.6-20.95s9-20.94,19.88-20.94,19.87,9.45,19.87,20.94Z" transform="translate(0 -47.99)"/><path class="cls-2" d="M188.93,218.87s-.12,0-.35.09l-1,.17-3.57.54H184l0-.05-4.76-5c-2.29-2.41-4.35-4.6-5.83-6.2-.7-.78-1.29-1.42-1.74-1.91a8.92,8.92,0,0,1-.61-.73,4.44,4.44,0,0,1,.69.64l1.81,1.83c1.52,1.56,3.6,3.73,5.89,6.14l4.72,5-.1,0,3.59-.42,1-.1A1.43,1.43,0,0,1,188.93,218.87Z" transform="translate(0 -47.99)"/><path class="cls-2" d="M166,204.89a64.17,64.17,0,0,1-6.43.16,64.17,64.17,0,0,1-6.43-.16,62.26,62.26,0,0,1,6.43-.17A62.26,62.26,0,0,1,166,204.89Z" transform="translate(0 -47.99)"/><path class="cls-2" d="M166,207.44a62.26,62.26,0,0,1-6.43.17,62.26,62.26,0,0,1-6.43-.17,64.17,64.17,0,0,1,6.43-.16A64.17,64.17,0,0,1,166,207.44Z" transform="translate(0 -47.99)"/><path class="cls-8" d="M266.21,184.34l-.08-13a14.86,14.86,0,0,0-10,4.18A16,16,0,0,0,251.32,189c.07.62.16,1.25.29,1.89v.05h0l14.59-3.53Z" transform="translate(0 -47.99)"/><g class="cls-11"><path class="cls-8" d="M266.21,184.34l-.08-13a14.86,14.86,0,0,0-10,4.18A16,16,0,0,0,251.32,189c.07.62.16,1.25.29,1.89v.05h0l14.59-3.53Z" transform="translate(0 -47.99)"/></g><path class="cls-8" d="M281.26,180.33a14.49,14.49,0,0,0-11.78-8.86l-.47,0-.29,0c-.29,0-.58,0-.88,0h-.08l.08,13,0,3.06,14.6,3.43h0a16.45,16.45,0,0,0,.32-3.37A18.06,18.06,0,0,0,281.26,180.33Z" transform="translate(0 -47.99)"/><path class="cls-7" d="M281.26,180.33a14.49,14.49,0,0,0-11.78-8.86l-.47,0-.29,0c-.29,0-.58,0-.88,0h-.08l.08,13,0,3.06,14.6,3.43h0a16.45,16.45,0,0,0,.32-3.37A18.06,18.06,0,0,0,281.26,180.33Z" transform="translate(0 -47.99)"/><path class="cls-12" d="M267,189l-14.6,3.52c1.5,7.19,7.46,12.55,14.6,12.55s13.15-5.42,14.62-12.65L267,189" transform="translate(0 -47.99)"/><path class="cls-2" d="M323.82,186.68c0,.12-7.55.21-16.86.21s-16.86-.09-16.86-.21,7.55-.21,16.86-.21S323.82,186.57,323.82,186.68Z" transform="translate(0 -47.99)"/><path class="cls-2" d="M323.82,182.55c0,.12-7.55.21-16.86.21s-16.86-.09-16.86-.21,7.55-.21,16.86-.21S323.82,182.44,323.82,182.55Z" transform="translate(0 -47.99)"/><path class="cls-2" d="M323.82,178.42c0,.12-7.55.22-16.86.22s-16.86-.1-16.86-.22,7.55-.21,16.86-.21S323.82,178.31,323.82,178.42Z" transform="translate(0 -47.99)"/><path class="cls-2" d="M323.82,190.52c0,.12-7.55.21-16.86.21s-16.86-.09-16.86-.21,7.55-.21,16.86-.21S323.82,190.41,323.82,190.52Z" transform="translate(0 -47.99)"/><path class="cls-2" d="M313.38,194.7c0,.12-5.19.21-11.58.21s-11.58-.09-11.58-.21,5.19-.21,11.58-.21S313.38,194.59,313.38,194.7Z" transform="translate(0 -47.99)"/><rect class="cls-8" x="254.75" y="176.6" width="3.47" height="41.67"/><rect class="cls-5" x="261.45" y="190.75" width="3.47" height="27.51"/><rect class="cls-8" x="268.16" y="181.77" width="3.47" height="36.7"/><rect class="cls-5" x="274.86" y="178.2" width="3.47" height="40.06"/><rect class="cls-8" x="281.57" y="191.59" width="3.47" height="26.67"/><rect class="cls-5" x="288.27" y="196.82" width="3.47" height="21.44"/><rect class="cls-8" x="294.97" y="180.87" width="3.47" height="37.39"/><rect class="cls-5" x="301.68" y="187.61" width="3.47" height="30.65"/><rect class="cls-8" x="308.38" y="182.23" width="3.47" height="36.03"/><rect class="cls-5" x="315.08" y="193.71" width="3.47" height="24.55"/><rect class="cls-8" x="321.79" y="189.04" width="3.47" height="29.22"/><path class="cls-2" d="M326.68,269.16c0,.08-16.47.15-36.79.15s-36.78-.07-36.78-.15,16.46-.16,36.78-.16S326.68,269.07,326.68,269.16Z" transform="translate(0 -47.99)"/><path class="cls-2" d="M259.7,272.44a22.18,22.18,0,0,1-5.15,0,20.8,20.8,0,0,1,5.15,0Z" transform="translate(0 -47.99)"/><path class="cls-2" d="M268.25,272.6a29.72,29.72,0,0,1-6.16,0,31.7,31.7,0,0,1,6.16,0Z" transform="translate(0 -47.99)"/><path class="cls-2" d="M275.54,272.6a29.73,29.73,0,0,1-6.16,0,31.7,31.7,0,0,1,6.16,0Z" transform="translate(0 -47.99)"/><path class="cls-2" d="M282.83,272.6a29.73,29.73,0,0,1-6.16,0,31.7,31.7,0,0,1,6.16,0Z" transform="translate(0 -47.99)"/><path class="cls-2" d="M290.12,272.6a29.72,29.72,0,0,1-6.16,0,31.7,31.7,0,0,1,6.16,0Z" transform="translate(0 -47.99)"/><path class="cls-2" d="M297.41,272.6a29.73,29.73,0,0,1-6.16,0,31.7,31.7,0,0,1,6.16,0Z" transform="translate(0 -47.99)"/><path class="cls-2" d="M304.7,272.6a29.63,29.63,0,0,1-6.15,0,31.59,31.59,0,0,1,6.15,0Z" transform="translate(0 -47.99)"/><path class="cls-2" d="M312,272.6a29.72,29.72,0,0,1-6.16,0,31.7,31.7,0,0,1,6.16,0Z" transform="translate(0 -47.99)"/><path class="cls-2" d="M319.29,272.6a29.73,29.73,0,0,1-6.16,0,31.7,31.7,0,0,1,6.16,0Z" transform="translate(0 -47.99)"/><path class="cls-2" d="M326.58,272.6a29.73,29.73,0,0,1-6.16,0,31.7,31.7,0,0,1,6.16,0Z" transform="translate(0 -47.99)"/><rect class="cls-7" x="261.45" y="190.75" width="3.47" height="27.51"/><rect class="cls-7" x="274.86" y="178.2" width="3.47" height="40.06"/><rect class="cls-7" x="288.27" y="196.82" width="3.47" height="21.44"/><rect class="cls-7" x="301.68" y="187.61" width="3.47" height="30.65"/><rect class="cls-7" x="315.08" y="193.71" width="3.47" height="24.55"/><path d="M162.63,176.89a3.35,3.35,0,1,1-3.34-3.59A3.48,3.48,0,0,1,162.63,176.89Z" transform="translate(0 -47.99)"/><path class="cls-5" d="M220.09,174.06c0,.12-11.27.21-25.17.21s-25.17-.09-25.17-.21,11.27-.21,25.17-.21S220.09,173.94,220.09,174.06Z" transform="translate(0 -47.99)"/><path class="cls-5" d="M190,178.4a2.8,2.8,0,0,1-.78.09l-2.12.06c-1.8,0-4.28.07-7,.07s-5.22,0-7-.07l-2.13-.06a2.8,2.8,0,0,1-.78-.09,3.12,3.12,0,0,1,.78-.08l2.13-.07c1.79,0,4.27-.06,7-.06s5.22,0,7,.06l2.12.07A3.12,3.12,0,0,1,190,178.4Z" transform="translate(0 -47.99)"/><path class="cls-2" d="M414.15,257.69c2.42-4.37,3.13-10.21,3.75-15.26.3-2.37.81-5.76-.74-7.25s-1.81-4.05-3.73-5.29a5.54,5.54,0,0,0-6.31.06" transform="translate(0 -47.99)"/><path class="cls-13" d="M407.42,273.19h0a6.72,6.72,0,0,1-7-6.74c-.14-3.83-.26-7.7-.26-7.7a6.6,6.6,0,0,1-5.79-6.28c-.39-5.74-.21-19-.21-19h0a17.54,17.54,0,0,1,18.81,1.3L412.6,255v10.87C412.56,269.5,410.8,272.92,407.42,273.19Z" transform="translate(0 -47.99)"/><path class="cls-2" d="M399.65,245.46a2.63,2.63,0,0,1,3.66-.86,3.5,3.5,0,0,1,1,4.18,4.17,4.17,0,0,1-2.62,2.13,2.19,2.19,0,0,0-1.61,2.37c.16,1.44,2.39,2,3.39,3.17,1.57,1.86,5,2.64,7.32,2.94s2,.31,3.33-1.7a8.19,8.19,0,0,0,1.3-4.66l.24-12.7a19.21,19.21,0,0,0-.27-4.55,6.17,6.17,0,0,0-2.23-3.77c-1.3-.92-2.95-1-4.43-1.51-1.85-.65-3.42-2-5.15-2.92s-3.86-1.52-5.6-.58c-1.24.67-2.08,2-3.29,2.75-1.73,1.06-4.08.82-4.92,3.55a4.93,4.93,0,0,0,0,2.92,6.12,6.12,0,0,0,8.53,3.6,9.87,9.87,0,0,0,.1,4c.2.63.27,1.6,1.19,1.62" transform="translate(0 -47.99)"/><path class="cls-14" d="M400.61,249s.22.31.67.28a1.32,1.32,0,0,0,1-1.31,1.44,1.44,0,0,0-.92-1.43c-.44-.18-.75-.09-.77-.15s.3-.26.85-.14a1.62,1.62,0,0,1,.84.52,1.73,1.73,0,0,1,.39,1.22,1.54,1.54,0,0,1-1.39,1.59.8.8,0,0,1-.6-.33C400.59,249.15,400.59,249.05,400.61,249Z" transform="translate(0 -47.99)"/><path class="cls-9" d="M406.17,231.73a1.48,1.48,0,0,1,.45-.48,3.36,3.36,0,0,1,1.62-.68,4.34,4.34,0,0,1,2.56.42,6,6,0,0,1,2.36,2.26,13.7,13.7,0,0,1,1.66,5.82,15.84,15.84,0,0,1,.14,2.5,15,15,0,0,1-.42-2.47,14.55,14.55,0,0,0-1.71-5.61,5.84,5.84,0,0,0-2.19-2.15,4.24,4.24,0,0,0-2.37-.47A4.38,4.38,0,0,0,406.17,231.73Z" transform="translate(0 -47.99)"/><path class="cls-9" d="M391.12,237.61s-.07,0-.2,0a1.4,1.4,0,0,1-.53-.26,1.93,1.93,0,0,1-.62-.75,2,2,0,0,1-.17-1.33,2.2,2.2,0,0,1,.87-1.34,2.75,2.75,0,0,1,1.69-.35,2.21,2.21,0,0,0,1.61-.44,11.85,11.85,0,0,0,1.31-1.51,6.67,6.67,0,0,1,6.46-2.14,5.8,5.8,0,0,1,2,.81,2.4,2.4,0,0,1,.61.51,8.86,8.86,0,0,0-2.63-1,6.8,6.8,0,0,0-3,.16,6.42,6.42,0,0,0-3.12,2,11.86,11.86,0,0,1-1.37,1.56,2.2,2.2,0,0,1-.92.45,4.92,4.92,0,0,1-.93,0,2.52,2.52,0,0,0-1.51.26,1.89,1.89,0,0,0-.16,3A4.4,4.4,0,0,0,391.12,237.61Z" transform="translate(0 -47.99)"/><path class="cls-9" d="M405.42,253.58s.27-.14.71-.46a4.63,4.63,0,0,0,1.7-5.11,4.47,4.47,0,0,0-1-1.72,7.85,7.85,0,0,0-1.67-1.32c-.63-.39-1.26-.75-1.84-1.17a6.57,6.57,0,0,1-1.48-1.5,7.25,7.25,0,0,1-1.25-3.4,6.77,6.77,0,0,1,.17-2.45,4,4,0,0,1,.22-.63c.06-.14.09-.21.11-.2a9,9,0,0,0-.23,3.24,7.28,7.28,0,0,0,1.27,3.2,6,6,0,0,0,1.41,1.39c.55.41,1.18.76,1.82,1.16a7.55,7.55,0,0,1,1.74,1.39,4.53,4.53,0,0,1,1,1.89,4.92,4.92,0,0,1-.34,3.63,4.52,4.52,0,0,1-1.62,1.74A1.7,1.7,0,0,1,405.42,253.58Z" transform="translate(0 -47.99)"/><path class="cls-9" d="M414.69,245.16a3,3,0,0,1-.69.16,9.22,9.22,0,0,1-1.92.06,11.35,11.35,0,0,1-6-2.2,10,10,0,0,1-3.91-5.28,4.55,4.55,0,0,1-.08-2.08,1.52,1.52,0,0,1,.26-.71,5.42,5.42,0,0,0,.08,2.7,10.32,10.32,0,0,0,3.87,5,12,12,0,0,0,5.76,2.26C413.68,245.27,414.68,245.07,414.69,245.16Z" transform="translate(0 -47.99)"/><path class="cls-2" d="M415.54,241.22a9.15,9.15,0,0,1,7.36-3.58,6.88,6.88,0,0,1,6.18,5.14c.51,2.19-.11,4.47-.37,6.7s0,4.86,1.69,6.18a9.26,9.26,0,0,0,3.57,1.27,3.94,3.94,0,0,1,3,2.26A3.3,3.3,0,0,1,435.1,263a6.26,6.26,0,0,1-4.27.07,4,4,0,0,1-1.59,4.6,4.46,4.46,0,0,1-4.75-.21,7.6,7.6,0,0,1-2.89-4.23,3.38,3.38,0,0,1-4.86,1,5.66,5.66,0,0,1-2-5.25,10.6,10.6,0,0,1,2.46-5.25,12.77,12.77,0,0,0,1.72-2.35,3.17,3.17,0,0,0,.11-2.87,1.56,1.56,0,0,0-2.38-.52" transform="translate(0 -47.99)"/><path class="cls-5" d="M418.75,247.25a1.76,1.76,0,0,1-1.61,0,4.14,4.14,0,0,1-2.33-3.27,4.59,4.59,0,0,1,.26-2.33,4.35,4.35,0,0,1,1-1.56,2.51,2.51,0,0,1,1.41-.84,12.7,12.7,0,0,0-1.21,1.05,4.48,4.48,0,0,0-1.09,3.61,4,4,0,0,0,2.05,3.06A3.65,3.65,0,0,0,418.75,247.25Z" transform="translate(0 -47.99)"/><path class="cls-14" d="M399.94,258.66a2.5,2.5,0,0,1-1.22-.13,6.29,6.29,0,0,1-2.6-1.52,7,7,0,0,1-1.73-2.59,2.89,2.89,0,0,1-.27-1.28,9.68,9.68,0,0,1,.53,1.16,7.9,7.9,0,0,0,1.73,2.4,7.64,7.64,0,0,0,2.42,1.54A7.25,7.25,0,0,1,399.94,258.66Z" transform="translate(0 -47.99)"/><path class="cls-9" d="M420.51,263.36s-.09,0-.26,0a2.18,2.18,0,0,1-.69-.33,4.08,4.08,0,0,1-1.52-2.48,5.36,5.36,0,0,1-.07-2.09,8.8,8.8,0,0,1,.71-2.26c.67-1.51,1.73-3,2.52-4.62A8.65,8.65,0,0,0,422,249a5.25,5.25,0,0,0-.26-2.45,4.76,4.76,0,0,0-2.71-2.88,4.59,4.59,0,0,0-2.64-.17c-.63.14-.95.33-1,.29a.83.83,0,0,1,.22-.16,3.75,3.75,0,0,1,.71-.29,4.43,4.43,0,0,1,2.77,0,5,5,0,0,1,3,3,5.65,5.65,0,0,1,.3,2.64,9,9,0,0,1-.82,2.69c-.81,1.73-1.88,3.15-2.55,4.61a6.5,6.5,0,0,0-.69,4.1,4.14,4.14,0,0,0,1.33,2.42A7.52,7.52,0,0,0,420.51,263.36Z" transform="translate(0 -47.99)"/><path class="cls-9" d="M428.58,267.56s-.12,0-.34,0a3.45,3.45,0,0,1-1-.19,5.43,5.43,0,0,1-2.78-2.33,9.44,9.44,0,0,1-1.2-5.47,60.14,60.14,0,0,1,1-6.8,17.4,17.4,0,0,0,.23-3.49,9.55,9.55,0,0,0-.69-3.14,5.77,5.77,0,0,0-1.63-2.29,5.35,5.35,0,0,0-2.12-1.08,7.36,7.36,0,0,0-3.44,0c-.8.19-1.23.38-1.24.35s.09-.08.29-.17a6.46,6.46,0,0,1,.91-.34,7.09,7.09,0,0,1,3.54-.15,5.55,5.55,0,0,1,2.26,1.09A6.12,6.12,0,0,1,424.2,246a9.6,9.6,0,0,1,.74,3.27,17.5,17.5,0,0,1-.22,3.59,66.07,66.07,0,0,0-1.06,6.75,9.27,9.27,0,0,0,1.07,5.29,5.53,5.53,0,0,0,2.6,2.34A7.53,7.53,0,0,0,428.58,267.56Z" transform="translate(0 -47.99)"/><polygon class="cls-13" points="430.18 245.72 418.8 255.26 423.58 263.68 437.28 252.83 430.18 245.72"/><path class="cls-13" d="M399.74,261.66s.06-1-2.43-1.16a22.9,22.9,0,0,0-2.75-.1,7,7,0,0,1-1.19-2.47,7.91,7.91,0,0,1,.53-2.52l2.51-.24-.68-1.84-1.77.14-5,.64-2,9.4-13.64,27.37a7.33,7.33,0,0,0,2.6,10.29h0c3.53,1.83,8.26-2.06,9.56-6L393,264.7l2.66-2.23,3.81-.75" transform="translate(0 -47.99)"/><path class="cls-13" d="M368.63,443.82,387.21,329h0c0-.17.08-.33.11-.49v0h0c3.16-13.47,8-17.79,8-17.79l28.44,1.91c2.41,4.67,2.72,15.88,2.72,15.88.33,1.37-6,112.64-6,112.64l-9.51-.28-5.15-105.28L378.16,444.26Z" transform="translate(0 -47.99)"/><path class="cls-2" d="M368.41,444.85l0-1,9.78.31-.08,3.42-.61,0c-2.69.07-13.69.17-15.47-.42C360.09,446.47,368.41,444.85,368.41,444.85Z" transform="translate(0 -47.99)"/><g class="cls-15"><path class="cls-2" d="M374.62,447.36a3.35,3.35,0,0,1,1.3-2,3.28,3.28,0,0,1,2.3-.64l-.08,2.72Z" transform="translate(0 -47.99)"/></g><g class="cls-15"><path class="cls-2" d="M364.34,445.79s-2.92.75-2.58,1.24,11.47.8,16.39.51v-.22l-13-.26S364.91,445.83,364.34,445.79Z" transform="translate(0 -47.99)"/></g><path class="cls-2" d="M378.29,447.32h-.17l-.48,0-1.77,0c-1.5,0-3.57,0-5.85-.06s-4.35-.16-5.84-.26l-1.77-.12-.48,0c-.11,0-.16,0-.16,0h.16l.49,0,1.76.09c1.5.07,3.56.16,5.84.22s4.35.09,5.85.1h2.42Z" transform="translate(0 -47.99)"/><path class="cls-2" d="M365.16,447.22a3.71,3.71,0,0,0-.3-.86,3.78,3.78,0,0,0-.59-.69,1.28,1.28,0,0,1,.69.63A1.31,1.31,0,0,1,365.16,447.22Z" transform="translate(0 -47.99)"/><path class="cls-2" d="M368.08,445.84s-.16-.15-.3-.38-.22-.43-.19-.44.16.15.29.38S368.11,445.82,368.08,445.84Z" transform="translate(0 -47.99)"/><path class="cls-2" d="M368.88,445.45s-.18-.09-.34-.24-.28-.3-.25-.33.17.09.33.24S368.9,445.42,368.88,445.45Z" transform="translate(0 -47.99)"/><path class="cls-2" d="M369.4,444.54s-.23.06-.51,0a1.2,1.2,0,0,1-.51-.06s.23-.06.51,0A1.16,1.16,0,0,1,369.4,444.54Z" transform="translate(0 -47.99)"/><path class="cls-2" d="M369.59,443.9a1,1,0,0,1-.57.15.92.92,0,0,1-.58-.1,4.34,4.34,0,0,1,.57,0A3.94,3.94,0,0,1,369.59,443.9Z" transform="translate(0 -47.99)"/><path class="cls-2" d="M367.77,445a1.51,1.51,0,0,1-.62,0,4.26,4.26,0,0,1-.67-.16,2.39,2.39,0,0,1-.37-.17.35.35,0,0,1-.15-.2.24.24,0,0,1,.1-.25,1.14,1.14,0,0,1,1.41.38,1,1,0,0,1,.19.42c0,.11,0,.17,0,.17a1.56,1.56,0,0,0-.27-.54,1,1,0,0,0-.52-.36.93.93,0,0,0-.75,0c-.1.07-.06.18,0,.25a1.58,1.58,0,0,0,.35.16,4.39,4.39,0,0,0,.64.19C367.53,445,367.77,445,367.77,445Z" transform="translate(0 -47.99)"/><path class="cls-2" d="M367.61,445a.6.6,0,0,1-.06-.44,1,1,0,0,1,.18-.45.64.64,0,0,1,.53-.3.25.25,0,0,1,.19.29.79.79,0,0,1-.12.28,1.93,1.93,0,0,1-.3.37.94.94,0,0,1-.37.24s.13-.11.31-.3a2.37,2.37,0,0,0,.27-.37c.09-.13.16-.36,0-.4s-.32.13-.42.26a1,1,0,0,0-.19.4A2.61,2.61,0,0,0,367.61,445Z" transform="translate(0 -47.99)"/><path class="cls-2" d="M378.17,444.65s-.28,0-.72,0a3,3,0,0,0-2.61,2c-.16.41-.18.69-.21.68a.69.69,0,0,1,0-.19,2.31,2.31,0,0,1,.12-.52,3,3,0,0,1,2.68-2,2.7,2.7,0,0,1,.54,0A.5.5,0,0,1,378.17,444.65Z" transform="translate(0 -47.99)"/><path class="cls-2" d="M373.42,446.38a6,6,0,0,1-1.43.1,5.77,5.77,0,0,1-1.42-.16s.64,0,1.43,0S373.42,446.34,373.42,446.38Z" transform="translate(0 -47.99)"/><path class="cls-2" d="M375.33,446.43s-.06.13-.13.28-.11.27-.14.26-.05-.15,0-.32S375.31,446.4,375.33,446.43Z" transform="translate(0 -47.99)"/><path class="cls-2" d="M376.07,445.55s0,.13-.15.23-.2.16-.22.13,0-.12.14-.22S376.05,445.53,376.07,445.55Z" transform="translate(0 -47.99)"/><path class="cls-2" d="M377.11,445.17s-.14,0-.28.08-.25.12-.27.1.06-.16.24-.21S377.12,445.14,377.11,445.17Z" transform="translate(0 -47.99)"/><path class="cls-2" d="M377.85,445s-.05.08-.13.11-.15,0-.17,0,.05-.08.13-.11S377.84,445,377.85,445Z" transform="translate(0 -47.99)"/><path class="cls-2" d="M416.18,264.89a18,18,0,0,1,7.52,3.19c9,6.26,24,19.5,22.78,25.63-1.06,5.22-12.79,11.56-12.79,11.56l-7.61-9.84,4.67-2.87-11.48-8.2Z" transform="translate(0 -47.99)"/><path class="cls-2" d="M421.3,284.83l-.37,1.47-1.32,6.78-.33,9.95c6.82,9.43,6.92,17.38,6.92,17.38l-34.44,4.32c0-7.31,2.49-16.52,2.49-16.52,2-3.63,1.9-14.49,1.52-14.89-2.15-2.29-2.67-4-.95-6.91,0,0-10.68,12-11.78,13.14-3.77,3.71-7.4,2.68-9.08,1.06-4.72-4.52.12-10.35.12-10.35l18-22.15a8.83,8.83,0,0,1,4.67-3.06,37,37,0,0,1,3.85-.74l12,.11a19.17,19.17,0,0,1,3.58.47s4.17,1.44,5.24,7S421.3,284.83,421.3,284.83Z" transform="translate(0 -47.99)"/><path class="cls-9" d="M421.68,276a5.37,5.37,0,0,1,.07,1.07c0,.69,0,1.69-.06,2.93a82,82,0,0,1-1.19,9.56c-.22,1.27-.46,2.48-.71,3.61v0c-.11,2.88-.21,5.36-.31,7.13q-.06,1.23-.12,2.07a2.48,2.48,0,0,1-.09.74,4,4,0,0,1,0-.75c0-.56,0-1.25,0-2.07,0-1.77.08-4.26.16-7.13v0c.24-1.12.47-2.34.7-3.6.65-3.68,1.09-7.06,1.29-9.51.11-1.22.16-2.21.19-2.9A5.75,5.75,0,0,1,421.68,276Z" transform="translate(0 -47.99)"/><path class="cls-9" d="M421.8,285.91a143,143,0,0,1,12.35,9.18,69.73,69.73,0,0,1-6.29-4.42A71.2,71.2,0,0,1,421.8,285.91Z" transform="translate(0 -47.99)"/><path class="cls-9" d="M399.53,271.4s.07,0,.18.15a4.46,4.46,0,0,1,.43.5,6,6,0,0,1,.93,2.29,8.1,8.1,0,0,1-.2,3.71,15.51,15.51,0,0,1-1.93,4,15.1,15.1,0,0,1-1.42,1.79c-.5.55-1,1-1.51,1.46-.95.91-1.77,1.78-2.45,2.53s-1.21,1.36-1.58,1.78a3.76,3.76,0,0,1-.6.64,3.12,3.12,0,0,1,.48-.75c.34-.46.84-1.11,1.5-1.88s1.46-1.67,2.41-2.61c.47-.48,1-.93,1.47-1.46a14.39,14.39,0,0,0,1.38-1.75,16.21,16.21,0,0,0,1.91-3.91,8.12,8.12,0,0,0,.26-3.53A6.75,6.75,0,0,0,399.53,271.4Z" transform="translate(0 -47.99)"/><polygon class="cls-9" points="395.52 256.12 395.92 251.15 419.41 251.15 419.28 255.04 395.52 256.12"/><path class="cls-16" d="M376.29,289.89" transform="translate(0 -47.99)"/><path class="cls-9" d="M375.48,289.28c0,.06-.59.48-1.3,1.46a7.11,7.11,0,0,0,.33,8.82c.78.92,1.45,1.27,1.41,1.34s-.18,0-.48-.21a5.67,5.67,0,0,1-1.13-.92,7.06,7.06,0,0,1-.35-9.22,5.64,5.64,0,0,1,1.06-1C375.3,289.34,375.47,289.26,375.48,289.28Z" transform="translate(0 -47.99)"/><polygon class="cls-2" points="420.49 393.11 423.16 399.77 411.24 399.61 410.99 392.83 420.49 393.11"/><path class="cls-2" d="M411.15,446.46a11.24,11.24,0,0,0,1.67.09c1,0,2.46,0,4,0l4-.09a9.76,9.76,0,0,0,1.67-.09,10.61,10.61,0,0,0-1.67-.08c-1,0-2.46,0-4,0l-4,.09A11.24,11.24,0,0,0,411.15,446.46Z" transform="translate(0 -47.99)"/><path class="cls-2" d="M416.12,441a19.16,19.16,0,0,0,.28,5.38,10.33,10.33,0,0,0,.05-2.7A10,10,0,0,0,416.12,441Z" transform="translate(0 -47.99)"/><polyline class="cls-17" points="423.14 399.91 411.22 399.48 411.15 398.26 422.54 398.37 423.14 399.76"/><path class="cls-18" d="M425.44,314c9,30.42-2.59,67.33.18,102.77.28,3.48,1.59,7.64-1.44,9.63a4.63,4.63,0,0,1-2.73.71c-2.43-.08-4.45-1.43-6.61-2.36a18.39,18.39,0,0,0-13-.54c-2.86,1-5.7,2.65-8.66,2.17-3.94-.64-6.49-4.82-10.11-6.59-3.39-1.66-7.31-1-11-1.14h-.12c-5.37-.18-9.13-5.8-7.72-11.38,5.42-21.3,23.37-90.51,31.32-103.14L419.28,303C421.47,305.87,424.29,310.12,425.44,314Z" transform="translate(0 -47.99)"/><path class="cls-2" d="M417.12,328.31a10.86,10.86,0,0,1-1.29,1.75,40.21,40.21,0,0,1-3.51,3.85,23.49,23.49,0,0,1-4.14,3.06,9.2,9.2,0,0,1-1.89.94,58.22,58.22,0,0,0,5.77-4.32c1.46-1.37,2.67-2.76,3.56-3.74A11.82,11.82,0,0,1,417.12,328.31Z" transform="translate(0 -47.99)"/><g class="cls-19"><path class="cls-20" d="M406.63,339.79a116.37,116.37,0,0,0-4,65.09c.42,1.86.86,4-.13,5.57-1.27,2.06-4.36,1.92-6.11.3s-2.44-4.17-2.88-6.6c-3.26-18.15,2.65-36.38,9-53.54" transform="translate(0 -47.99)"/></g><rect class="cls-2" x="226.82" y="302.04" width="45.03" height="2.35"/><polygon class="cls-2" points="219.84 304.39 211.39 270.38 246.56 270.38 254.21 304.39 219.84 304.39"/><polygon class="cls-6" points="252.1 301.82 220.68 301.82 213.37 271.95 244.95 271.95 252.1 301.82"/><path class="cls-21" d="M213.9,322.1h31.58L245,320H213.37Z" transform="translate(0 -47.99)"/><path class="cls-1" d="M217.31,321a.35.35,0,0,0,.34.37A.36.36,0,0,0,218,321a.37.37,0,0,0-.35-.37A.36.36,0,0,0,217.31,321Z" transform="translate(0 -47.99)"/><path class="cls-1" d="M216.12,321a.35.35,0,1,0,.69,0,.35.35,0,1,0-.69,0Z" transform="translate(0 -47.99)"/><path class="cls-1" d="M214.93,321a.36.36,0,0,0,.35.37.35.35,0,0,0,.34-.37.36.36,0,0,0-.34-.37A.37.37,0,0,0,214.93,321Z" transform="translate(0 -47.99)"/><path class="cls-5" d="M237.63,335.18l3.46,4.25a5.37,5.37,0,0,0,2.12-4.27,5.58,5.58,0,0,0-11.16,0Z" transform="translate(0 -47.99)"/><path class="cls-2" d="M237.19,335.86a7.8,7.8,0,0,1,1,1.07c.62.71,1.5,1.75,2.55,3l.12.14-.14.12a5.65,5.65,0,0,1-5.83.62,5.79,5.79,0,0,1-2.4-2.08,5.49,5.49,0,0,1-.89-2.79v-.19h.17c1.66,0,3,0,4,0a8.1,8.1,0,0,1,1.46.07,8.73,8.73,0,0,1-1.52.13c-.95.05-2.3.1-3.91.15l.16-.19a5.23,5.23,0,0,0,.87,2.57,5.52,5.52,0,0,0,2.24,1.92,5.38,5.38,0,0,0,5.48-.52l0,.26c-1-1.26-1.82-2.32-2.4-3.08A9.47,9.47,0,0,1,237.19,335.86Z" transform="translate(0 -47.99)"/><path class="cls-2" d="M234.93,332a.32.32,0,1,0,.31-.33A.32.32,0,0,0,234.93,332Z" transform="translate(0 -47.99)"/><path class="cls-2" d="M228.71,329.54a16.47,16.47,0,0,1,3.74-.23H233l.05.06a16.47,16.47,0,0,1,2.17,2.6,14.54,14.54,0,0,1-2.44-2.3l.14.06h-.5A17,17,0,0,1,228.71,329.54Z" transform="translate(0 -47.99)"/><path class="cls-2" d="M221.64,333.79a12,12,0,0,1-.36-1.56c-.21-1-.51-2.54-.85-4.39l0-.2h.19l7.82-.07s.37.32.19.17h0v.08l0,.1,0,.2.07.4c.05.26.1.52.14.78.09.52.18,1,.27,1.54.17,1,.34,2,.49,2.87l0,.22h-.21c-2.35,0-4.33,0-5.7-.06l-1.58-.05a1.6,1.6,0,0,1-.54,0,4.59,4.59,0,0,1,.6-.05l1.63-.06c1.38,0,3.31-.08,5.59-.11l-.18.23c-.16-.91-.34-1.87-.52-2.86l-.27-1.54c-.05-.26-.09-.52-.14-.78l-.07-.4,0-.2,0-.1v-.08h0l.19.17h-7.82l.16-.2c.3,1.78.53,3.27.68,4.32A16.78,16.78,0,0,1,221.64,333.79Z" transform="translate(0 -47.99)"/><path class="cls-2" d="M234.47,338.74a.31.31,0,1,0,.31-.34A.32.32,0,0,0,234.47,338.74Z" transform="translate(0 -47.99)"/><path class="cls-2" d="M229.1,338.76a9.41,9.41,0,0,1,2.84-.22,10.06,10.06,0,0,1,2.84.19,9.59,9.59,0,0,1-2.84.23A9.83,9.83,0,0,1,229.1,338.76Z" transform="translate(0 -47.99)"/><path class="cls-2" d="M221.67,341.41a7.08,7.08,0,0,1-.35-1.12c-.2-.75-.5-1.86-.85-3.24l0-.19h.19c2.13-.05,5-.08,8.06-.09l.19.16h0v.11l0,.15.07.29.13.57.27,1.12.5,2.13.05.24h-.23c-2.39,0-4.43,0-5.85-.06l-1.65-.05a2.14,2.14,0,0,1-.56,0,2.86,2.86,0,0,1,.63-.06l1.68-.06c1.43,0,3.43-.09,5.75-.11l-.18.24c-.17-.68-.34-1.38-.52-2.12l-.27-1.12-.13-.57-.07-.29,0-.14,0-.07v-.06h0l.19.16c-3.1,0-5.93,0-8.06,0l.14-.19c.3,1.32.53,2.42.69,3.19A11.05,11.05,0,0,1,221.67,341.41Z" transform="translate(0 -47.99)"/><path class="cls-2" d="M222.26,329.64a17.14,17.14,0,0,1,5.35,0,17.14,17.14,0,0,1-5.35,0Z" transform="translate(0 -47.99)"/><path class="cls-2" d="M222.32,330.59a8.66,8.66,0,0,1,2.69-.23,9.21,9.21,0,0,1,2.69.2,8.57,8.57,0,0,1-2.68.23A9.37,9.37,0,0,1,222.32,330.59Z" transform="translate(0 -47.99)"/><path class="cls-2" d="M222.48,331.49a8.29,8.29,0,0,1,2.6-.22,8,8,0,0,1,2.6.2,16.2,16.2,0,0,1-5.2,0Z" transform="translate(0 -47.99)"/><path class="cls-2" d="M222.42,338.68a8.29,8.29,0,0,1,2.55-.22,7.6,7.6,0,0,1,2.54.2,15.53,15.53,0,0,1-5.09,0Z" transform="translate(0 -47.99)"/><path class="cls-2" d="M222.73,339.72a6.14,6.14,0,0,1,2.18-.22,6.07,6.07,0,0,1,2.17.2,5.68,5.68,0,0,1-2.17.23A5.76,5.76,0,0,1,222.73,339.72Z" transform="translate(0 -47.99)"/><polygon class="cls-2" points="173.49 304.28 173.49 308.75 176.2 308.75 176.2 399.05 181.78 399.05 181.78 308.75 211.39 308.75 211.39 399.05 216.97 399.05 216.97 308.75 345.4 308.75 345.4 399.03 350.98 399.03 350.98 308.75 353.39 308.75 353.39 304.28 173.49 304.28"/><path class="cls-2" d="M294.44,385.93a41.26,41.26,0,0,0,7.26,0,38.84,38.84,0,0,0-7.26,0Z" transform="translate(0 -47.99)"/><ellipse class="cls-9" cx="241.61" cy="338.75" rx="0.2" ry="0.1"/><path class="cls-22" d="M277.15,306.47l-20.83-22.75-.46-2.46c-.08-.45-.17-.95-.25-1.53a6.71,6.71,0,0,1,0-2,9.4,9.4,0,0,1,.65-2.38c.35-.66-.22-1.46-.8-1.18s-1.58,2.06-1.8,4.51-2.17-.8-2.9-2-3.14-4.69-3.65-4.74c-.73-.06-.92.8-.17,2s2.8,4.78,2.22,5.17h0a2.67,2.67,0,0,0-2.88,1.53c-.53,1.09-1.11,2.63-.63,3.34a39.56,39.56,0,0,0,3.32,3.78l.7.64s18,28.07,21.95,29c2.44.56,40.22,3.93,40.22,3.93l2.85-11.18Z" transform="translate(0 -47.99)"/><path class="cls-22" d="M245.5,283.49l1.92,2a2.37,2.37,0,0,0,.73.58.74.74,0,0,0,.84-.15.87.87,0,0,0,.11-.83,2.42,2.42,0,0,0-.44-.74l-1.87-2.42" transform="translate(0 -47.99)"/><path class="cls-23" d="M246.79,281.92s.4.35,1,1l1,1.16a4,4,0,0,1,.53.77,1.19,1.19,0,0,1-.06,1.15.88.88,0,0,1-1,.26,2.14,2.14,0,0,1-.76-.57l-1-1.1c-.57-.64-.9-1-.86-1.1a5.12,5.12,0,0,1,1.05.88l1.06,1a1.92,1.92,0,0,0,.63.46.55.55,0,0,0,.63-.13.77.77,0,0,0,0-.71,3.84,3.84,0,0,0-.46-.7l-.89-1.22A4.76,4.76,0,0,1,246.79,281.92Z" transform="translate(0 -47.99)"/><path class="cls-22" d="M246.86,282.05c.65.66,1.29,1.32,1.93,2a2.49,2.49,0,0,0,.73.57.75.75,0,0,0,.84-.15.87.87,0,0,0,.11-.83,2.64,2.64,0,0,0-.44-.74c-.63-.8-1.25-1.61-1.87-2.42" transform="translate(0 -47.99)"/><path class="cls-23" d="M248.16,280.47a5.1,5.1,0,0,1,1,1l.95,1.16a3.78,3.78,0,0,1,.53.78,1.16,1.16,0,0,1-.05,1.15.89.89,0,0,1-1,.26,2.26,2.26,0,0,1-.76-.57l-1-1.11a5.61,5.61,0,0,1-.86-1.09c0-.05.44.29,1.06.88l1.06,1a1.79,1.79,0,0,0,.63.46.52.52,0,0,0,.62-.13.74.74,0,0,0,0-.71,4.29,4.29,0,0,0-.47-.7l-.88-1.21A4.53,4.53,0,0,1,248.16,280.47Z" transform="translate(0 -47.99)"/><path class="cls-22" d="M248.36,280.86c.65.66,1.29,1.33,1.93,2a2.49,2.49,0,0,0,.73.57.74.74,0,0,0,.84-.14.89.89,0,0,0,.11-.84,2.37,2.37,0,0,0-.44-.73l-1.87-2.42" transform="translate(0 -47.99)"/><path class="cls-23" d="M249.66,279.29s.4.35,1,1l.95,1.16a3.71,3.71,0,0,1,.54.77,1.19,1.19,0,0,1-.06,1.15.89.89,0,0,1-1,.26,2.26,2.26,0,0,1-.76-.57l-1-1.11a5.28,5.28,0,0,1-.86-1.09,4.72,4.72,0,0,1,1.06.88l1.06,1a1.92,1.92,0,0,0,.63.46.55.55,0,0,0,.62-.13.74.74,0,0,0,0-.71,4.44,4.44,0,0,0-.46-.7l-.89-1.22A4.41,4.41,0,0,1,249.66,279.29Z" transform="translate(0 -47.99)"/><path class="cls-23" d="M251.41,284.3c0-.07.48-.17,1.18.06l-.23.2a3.87,3.87,0,0,1-.05-1.42,3.66,3.66,0,0,1,.73-1.73c.29-.37.54-.52.58-.48a7.67,7.67,0,0,0-.92,2.28,4.59,4.59,0,0,0,0,1.28l0,.33-.26-.12C251.87,284.42,251.41,284.38,251.41,284.3Z" transform="translate(0 -47.99)"/><path class="cls-22" d="M304.44,272.37l.09,31.15-11.3.58-.46-7.46s-5.46.89-6.6-3.52c-.72-2.82-.54-24.59-.54-24.59Z" transform="translate(0 -47.99)"/><path class="cls-2" d="M282.82,271.61c.84,1.86,4.83,5.27,4.83,5.27l1.8,5.19c1.57-1.32,3.67-1.25,4.07,1.71.28,2.14-2.19,2.57-2.19,2.57a39.33,39.33,0,0,0,4.51,7.26c2.27,2.71,3.54,3,6,3h2.71s5.55-5,4.45-18.11-12.07-9.29-14.69-12.57C290,260.62,280,265.39,282.82,271.61Z" transform="translate(0 -47.99)"/><path class="cls-9" d="M308.39,289.5a3.59,3.59,0,0,1-1.35-.06,7,7,0,0,1-3.24-1.79,19,19,0,0,1-3.27-4.66c-1.06-1.85-2.21-4-4.15-5.46s-4.28-1.7-6.27-2.13a11.44,11.44,0,0,1-5.06-2.07,5.89,5.89,0,0,1-2-3.23,3.55,3.55,0,0,1-.06-1.44,5.68,5.68,0,0,0,.12,1.43,5.79,5.79,0,0,0,2,3.14,11.26,11.26,0,0,0,5,2c2,.43,4.31.71,6.32,2.15s3.14,3.67,4.19,5.52a19.16,19.16,0,0,0,3.23,4.65,6.88,6.88,0,0,0,3.18,1.81,5.87,5.87,0,0,0,1,.13Z" transform="translate(0 -47.99)"/><path class="cls-9" d="M309,278.83l-.59-.19a8.62,8.62,0,0,0-1.7-.41,3.64,3.64,0,0,0-2.62.63,2.35,2.35,0,0,0-.91,1.48,2.17,2.17,0,0,0,.53,1.86,1.4,1.4,0,0,0,.91.39,1.86,1.86,0,0,0,1-.3,3.28,3.28,0,0,0,1.37-1.87,4.89,4.89,0,0,0-1.21-4.93,4.25,4.25,0,0,0-2.44-1.17,6.85,6.85,0,0,0-2.81.4,19.7,19.7,0,0,1-2.91.75,11.41,11.41,0,0,1-3.09,0,9.9,9.9,0,0,1-3-.89,3.78,3.78,0,0,1-2-2.31,3.19,3.19,0,0,1,.7-2.94,2.28,2.28,0,0,1,2.65-.42,2.13,2.13,0,0,1,1,1,2.57,2.57,0,0,1,.21,1.39,3.21,3.21,0,0,1-1.33,2.23,4.06,4.06,0,0,1-2.23.67,6.13,6.13,0,0,1-2.12-.35,7.49,7.49,0,0,1-3.11-2.07,8.46,8.46,0,0,1-1.59-2.43,8.61,8.61,0,0,1-.56-1.79c-.07-.42-.1-.64-.1-.64s.05.22.13.64a8.77,8.77,0,0,0,.58,1.76,8.63,8.63,0,0,0,1.6,2.4,7.42,7.42,0,0,0,3.08,2,6,6,0,0,0,2.09.34,3.93,3.93,0,0,0,2.16-.66,3.06,3.06,0,0,0,1.26-2.13,2.12,2.12,0,0,0-3.61-1.83,3,3,0,0,0-.65,2.78,3.62,3.62,0,0,0,2,2.2,9.46,9.46,0,0,0,2.93.87,11.05,11.05,0,0,0,3,0,18.84,18.84,0,0,0,2.89-.74,7.24,7.24,0,0,1,2.86-.4,4.31,4.31,0,0,1,2.52,1.21,5,5,0,0,1,1.24,5.09,3.4,3.4,0,0,1-1.43,2,2,2,0,0,1-1.07.3,1.51,1.51,0,0,1-1-.42,2.3,2.3,0,0,1-.55-2,2.4,2.4,0,0,1,1-1.53,3.65,3.65,0,0,1,2.68-.62,7.52,7.52,0,0,1,1.7.44C308.83,278.74,309,278.83,309,278.83Z" transform="translate(0 -47.99)"/><path class="cls-8" d="M294.66,439.44l-3.7-5.09,8.84-7.5,5.48,7.39-.52.5c-2.33,2.22-12,11.09-14,11.94C288.48,447.63,294.66,439.44,294.66,439.44Z" transform="translate(0 -47.99)"/><g class="cls-24"><path class="cls-10" d="M291.74,443.58s-2,3.05-1.36,3.24,10.76-8.38,14.9-12.58l-.17-.2-11.69,10.1S292.27,443.17,291.74,443.58Z" transform="translate(0 -47.99)"/></g><path class="cls-10" d="M305.24,433.92l-.14.14-.41.4-1.55,1.44c-1.32,1.2-3.16,2.84-5.23,4.6s-4,3.31-5.37,4.42l-1.66,1.29-.45.34c-.11.08-.16.12-.17.11l.15-.13.44-.37,1.63-1.33c1.38-1.12,3.28-2.68,5.35-4.44s3.91-3.39,5.25-4.57l1.57-1.4.44-.38Z" transform="translate(0 -47.99)"/><path class="cls-2" d="M293.53,444.29a3.93,3.93,0,0,0-.9-.57,4.94,4.94,0,0,0-1-.2,1.47,1.47,0,0,1,1.08.06A1.5,1.5,0,0,1,293.53,444.29Z" transform="translate(0 -47.99)"/><path class="cls-2" d="M295.1,440.65s-.26,0-.55-.12-.52-.23-.5-.27.25,0,.54.13S295.11,440.61,295.1,440.65Z" transform="translate(0 -47.99)"/><path class="cls-2" d="M295.51,439.64s-.21.06-.47,0-.47-.06-.47-.1.21-.06.47-.05S295.51,439.6,295.51,439.64Z" transform="translate(0 -47.99)"/><path class="cls-2" d="M295.3,438.36s-.16.23-.41.45-.48.38-.5.34.16-.23.41-.45S295.28,438.33,295.3,438.36Z" transform="translate(0 -47.99)"/><path class="cls-2" d="M295,437.6s-.11.32-.39.59a1.17,1.17,0,0,1-.59.38s.23-.22.5-.48S295,437.57,295,437.6Z" transform="translate(0 -47.99)"/><path class="cls-10" d="M294.19,440.08a2.19,2.19,0,0,1-.57.48,6.59,6.59,0,0,1-.71.37,2.06,2.06,0,0,1-.46.14.37.37,0,0,1-.28-.07.34.34,0,0,1-.1-.32,1.3,1.3,0,0,1,1.53-.76,1.17,1.17,0,0,1,.49.24c.1.09.14.15.13.16a1.7,1.7,0,0,0-.64-.3,1.18,1.18,0,0,0-.73.07,1.15,1.15,0,0,0-.64.62c0,.15.08.24.23.22a2,2,0,0,0,.42-.13,4.76,4.76,0,0,0,.71-.33C294,440.24,294.17,440.06,294.19,440.08Z" transform="translate(0 -47.99)"/><path class="cls-10" d="M294.06,440.23s-.2-.07-.38-.36a1.53,1.53,0,0,1-.17-.58.79.79,0,0,1,.25-.71.27.27,0,0,1,.38.13.85.85,0,0,1,.1.35,3.07,3.07,0,0,1,0,.6,1.13,1.13,0,0,1-.15.52s0-.2,0-.53a2.94,2.94,0,0,0,0-.57c0-.19-.14-.47-.3-.37a.7.7,0,0,0-.18.57,1.43,1.43,0,0,0,.13.54A3.42,3.42,0,0,0,294.06,440.23Z" transform="translate(0 -47.99)"/><path class="cls-10" d="M303.15,431.47s-.27.19-.63.58a4,4,0,0,0-1,1.84,4.23,4.23,0,0,0,.1,2.11c.17.52.35.8.33.82a1.12,1.12,0,0,1-.14-.19,3.48,3.48,0,0,1-.28-.6,4.06,4.06,0,0,1-.15-2.17,3.8,3.8,0,0,1,1-1.88,2.78,2.78,0,0,1,.5-.4A1.1,1.1,0,0,1,303.15,431.47Z" transform="translate(0 -47.99)"/><path class="cls-10" d="M299.33,428.3a22.77,22.77,0,0,1,1.51,1.89,23.36,23.36,0,0,1,1.41,2,20.5,20.5,0,0,1-1.52-1.88A21.1,21.1,0,0,1,299.33,428.3Z" transform="translate(0 -47.99)"/><path class="cls-2" d="M300.23,436.9a7,7,0,0,1-1.19,1.24,5.72,5.72,0,0,1-1.38,1s.59-.48,1.29-1.1S300.2,436.87,300.23,436.9Z" transform="translate(0 -47.99)"/><path class="cls-10" d="M302,435.43s0,.17.09.36.11.35.08.37-.16-.11-.21-.33S301.92,435.42,302,435.43Z" transform="translate(0 -47.99)"/><path class="cls-10" d="M302,434s0,.16,0,.33-.06.32-.1.32,0-.16,0-.33S301.93,434,302,434Z" transform="translate(0 -47.99)"/><path class="cls-10" d="M302.61,432.81s-.1.14-.2.3-.13.31-.17.31-.06-.2.06-.39S302.59,432.78,302.61,432.81Z" transform="translate(0 -47.99)"/><path class="cls-10" d="M303.13,432.06s0,.11,0,.2-.12.16-.15.14,0-.12,0-.21S303.1,432,303.13,432.06Z" transform="translate(0 -47.99)"/><g class="cls-11"><polygon points="302.95 383.24 294.01 390.57 293.19 389.42 302.58 382.57 302.95 383.24"/></g><path class="cls-8" d="M254,444.56V438.1l11.26-.05.07,9.45-.69.05c-3.11.2-15.81.77-17.89.11C244.46,446.91,254,444.56,254,444.56Z" transform="translate(0 -47.99)"/><g class="cls-24"><path class="cls-10" d="M249.35,445.89s-3.35,1.05-2.93,1.64,13.27.53,18.94,0l0-.27-15,.21S250,445.91,249.35,445.89Z" transform="translate(0 -47.99)"/></g><path class="cls-2" d="M265.52,447.22l-.19,0-.56,0-2,.1c-1.73.08-4.12.14-6.76.16s-5,0-6.76-.09l-2.05-.08-.55,0-.2,0h.75l2.05,0c1.73,0,4.12.06,6.76,0s5-.06,6.75-.11l2-.06h.75Z" transform="translate(0 -47.99)"/><path class="cls-2" d="M250.35,447.63a3.14,3.14,0,0,0-1.09-1.89,1.5,1.5,0,0,1,.82.76A1.71,1.71,0,0,1,250.35,447.63Z" transform="translate(0 -47.99)"/><path class="cls-10" d="M253.67,445.8s-.19-.18-.36-.46a1.46,1.46,0,0,1-.24-.54s.19.18.36.46A1.46,1.46,0,0,1,253.67,445.8Z" transform="translate(0 -47.99)"/><path class="cls-10" d="M254.58,445.28s-.21-.1-.4-.28-.33-.37-.31-.4.21.1.4.29S254.6,445.25,254.58,445.28Z" transform="translate(0 -47.99)"/><path class="cls-10" d="M255.15,444.13a1.27,1.27,0,0,1-.59.09,1.3,1.3,0,0,1-.59-.07,2.52,2.52,0,0,1,1.18,0Z" transform="translate(0 -47.99)"/><path class="cls-10" d="M255.34,443.33a1.16,1.16,0,0,1-.65.21,1.07,1.07,0,0,1-.68-.1,3.56,3.56,0,0,1,.67-.05A3.24,3.24,0,0,1,255.34,443.33Z" transform="translate(0 -47.99)"/><path class="cls-10" d="M253.28,444.75a2.29,2.29,0,0,1-.72,0,4.42,4.42,0,0,1-.77-.18,2.41,2.41,0,0,1-.44-.2.35.35,0,0,1-.18-.24.3.3,0,0,1,.1-.31,1.28,1.28,0,0,1,1.65.41,1.47,1.47,0,0,1,.23.52c0,.13,0,.21,0,.21a2.05,2.05,0,0,0-.33-.66,1.24,1.24,0,0,0-.62-.43,1,1,0,0,0-.86.07c-.11.09-.07.23.06.31a1.92,1.92,0,0,0,.41.19,4.62,4.62,0,0,0,.74.2C253,444.72,253.28,444.72,253.28,444.75Z" transform="translate(0 -47.99)"/><path class="cls-10" d="M253.09,444.79a.85.85,0,0,1-.08-.54,1.37,1.37,0,0,1,.19-.57.74.74,0,0,1,.6-.4.31.31,0,0,1,.23.36,1,1,0,0,1-.12.35,2.73,2.73,0,0,1-.34.47c-.23.24-.41.33-.42.31s.15-.14.35-.38a3.2,3.2,0,0,0,.3-.47c.1-.17.16-.46,0-.5s-.36.18-.47.34a1.25,1.25,0,0,0-.21.5C253.05,444.58,253.12,444.78,253.09,444.79Z" transform="translate(0 -47.99)"/><path class="cls-10" d="M265.28,443.92a5.74,5.74,0,0,0-.83,0,3.52,3.52,0,0,0-1.82.81,3.93,3.93,0,0,0-1.12,1.73,8.92,8.92,0,0,0-.21.87.56.56,0,0,1,0-.25,2.93,2.93,0,0,1,.12-.65,3.74,3.74,0,0,1,1.13-1.81,3.33,3.33,0,0,1,1.89-.8,3,3,0,0,1,.62,0A.51.51,0,0,1,265.28,443.92Z" transform="translate(0 -47.99)"/><path class="cls-2" d="M264.09,438.89a21.13,21.13,0,0,1,.11,2.48,22.44,22.44,0,0,1,0,2.49,21.22,21.22,0,0,1-.11-2.49A22.21,22.21,0,0,1,264.09,438.89Z" transform="translate(0 -47.99)"/><path class="cls-10" d="M259.86,446.25a5.88,5.88,0,0,1-1.64.18,5.71,5.71,0,0,1-1.65-.13s.74,0,1.64,0S259.85,446.21,259.86,446.25Z" transform="translate(0 -47.99)"/><path class="cls-10" d="M262.07,446.24s-.06.17-.14.35-.11.34-.15.34-.06-.19,0-.4S262,446.21,262.07,446.24Z" transform="translate(0 -47.99)"/><path class="cls-10" d="M262.89,445.12s0,.16-.16.28-.23.21-.26.18,0-.15.16-.28S262.87,445.09,262.89,445.12Z" transform="translate(0 -47.99)"/><path class="cls-10" d="M264.08,444.61s-.16,0-.32.1-.29.16-.32.13.07-.19.27-.27S264.09,444.57,264.08,444.61Z" transform="translate(0 -47.99)"/><path class="cls-10" d="M264.93,444.36s-.05.1-.15.14-.18,0-.19,0,.05-.1.14-.14S264.91,444.33,264.93,444.36Z" transform="translate(0 -47.99)"/><g class="cls-11"><polygon points="265.36 395.44 254.01 395.45 254.02 393.99 265.32 393.91 265.36 395.44"/></g><path class="cls-22" d="M281.81,333.07l-4.51,14.59c-1.21,3.94-4.42,4.62-8.28,4.62H243.94v-6l22.91-3.51,5.46-15Z" transform="translate(0 -47.99)"/><path class="cls-22" d="M241.18,345l-2-1s-2.14-4.45-2.64-4.27-.64,1.49.23,3.53l-2.65-.81s-5.73,2.85-5.48,3.23a1.31,1.31,0,0,0,2,.61c1.24-.69,2.88-1.5,2.88-1.5l3.09.95-4,.55-3.75,3.66a1.74,1.74,0,0,0,2.29-.06l9.73,2.24,3.05.19v-6Z" transform="translate(0 -47.99)"/><path class="cls-23" d="M231.16,349.85s.22-.28.57-.69a2.82,2.82,0,0,1,.71-.59,2.7,2.7,0,0,1,1.05-.3,13.4,13.4,0,0,0,2.92-.53,13.23,13.23,0,0,0-3,.21,2.68,2.68,0,0,0-1.15.36,2.73,2.73,0,0,0-.73.7A1.87,1.87,0,0,0,231.16,349.85Z" transform="translate(0 -47.99)"/><path class="cls-23" d="M232.68,350.27s.07-.22.34-.28.72-.11,1.18-.16a9.82,9.82,0,0,0,1.71-.19,3.1,3.1,0,0,0-1.74-.14,5,5,0,0,0-1.22.27.53.53,0,0,0-.3.33C232.63,350.21,232.66,350.27,232.68,350.27Z" transform="translate(0 -47.99)"/><path class="cls-18" d="M283.94,329.89l-1.93,7-12.24-6c.44-1.47,2.46-8,6.34-18.41a16.92,16.92,0,0,1,12.69-11,68.15,68.15,0,0,1,11.72-1.23c6.86.08,17,4.69,18.33,11.92,1,5.52,0,15.26,0,27.1L318,362l-35.18,1.29Z" transform="translate(0 -47.99)"/><path class="cls-25" d="M318.85,334.12c-4.28.94-8.68,0-13-.29-2.64-.17-5.58-.47-7.67,1.27-1.66,1.39-2.33,3.71-2.8,5.91-1.83,8.38-2.16,14-2.57,22.59L313.94,365Z" transform="translate(0 -47.99)"/><path class="cls-20" d="M283,305.34s.35.06.93.3a5,5,0,0,1,2,1.77,7.68,7.68,0,0,1,1.21,3.93,27.26,27.26,0,0,1-.37,5.19,89.34,89.34,0,0,1-2,9.26l-.71,2.78a7,7,0,0,0-.22,1,7.4,7.4,0,0,0,.34-1c.19-.65.47-1.59.8-2.75a76.46,76.46,0,0,0,2.06-9.28,26.07,26.07,0,0,0,.35-5.26,7.72,7.72,0,0,0-1.32-4.05,4.88,4.88,0,0,0-2.16-1.75,3.73,3.73,0,0,0-.72-.17A.67.67,0,0,0,283,305.34Z" transform="translate(0 -47.99)"/><path class="cls-8" d="M270.15,329.17a11.72,11.72,0,0,0,1.72,1.06c1.09.61,2.61,1.42,4.32,2.25s3.28,1.52,4.42,2a10.9,10.9,0,0,0,1.89.68,15.92,15.92,0,0,0-1.8-.9c-1.13-.52-2.68-1.25-4.38-2.07s-3.24-1.6-4.35-2.16A14.45,14.45,0,0,0,270.15,329.17Z" transform="translate(0 -47.99)"/><path class="cls-2" d="M264.54,365c-6,3.51-8.27,11.53-5.12,18L290,439.5l14.13-9.17-23.78-51,17.23-12.09" transform="translate(0 -47.99)"/><path class="cls-2" d="M301.82,362.17l-42,1.6c-6.82.26-12.2,6.34-12.09,13.68l1.74,64.5,17.68,0-.59-61,35.29-1Z" transform="translate(0 -47.99)"/><path class="cls-9" d="M266.53,383.12a4.13,4.13,0,0,1,.05.6c0,.43,0,1,.07,1.71.05,1.49.11,3.64.16,6.3.1,5.32.17,12.67.21,20.78s.07,15.43.1,20.79c0,2.62,0,4.76,0,6.29v1.72a4.72,4.72,0,0,1,0,.6,4.13,4.13,0,0,1-.05-.6c0-.43,0-1-.07-1.71-.05-1.49-.11-3.64-.16-6.3-.1-5.32-.17-12.67-.21-20.79s-.08-15.42-.1-20.78c0-2.62,0-4.76,0-6.29v-1.72A4.72,4.72,0,0,1,266.53,383.12Z" transform="translate(0 -47.99)"/><path class="cls-9" d="M320,321.24H307.31c-5.11,0-9.26,4.46-9.26,10v47.67H272.64a6.67,6.67,0,0,0-6.42,6.89h58v0a5.52,5.52,0,0,0,5.07-5.68V331.2C329.3,325.7,325.15,321.24,320,321.24Z" transform="translate(0 -47.99)"/><path class="cls-2" d="M301.74,322.81c.11,0,.2,14,.2,31.29s-.09,31.29-.2,31.29-.19-14-.19-31.29S301.63,322.81,301.74,322.81Z" transform="translate(0 -47.99)"/><path class="cls-9" d="M300.14,435.8v-50H296v50c-2.52,5.34-8.46,9-15.69,11.92h36.86C309.69,444.46,302.93,442,300.14,435.8Z" transform="translate(0 -47.99)"/><path class="cls-8" d="M219.25,309.27H140.66a2.55,2.55,0,0,1-2.45-2.63v-20a2.55,2.55,0,0,1,2.45-2.63h78.59a2.54,2.54,0,0,1,2.44,2.63v20A2.54,2.54,0,0,1,219.25,309.27Z" transform="translate(0 -47.99)"/><ellipse class="cls-1" cx="151.84" cy="249.42" rx="5.09" ry="5.49"/><path class="cls-8" d="M154.7,295.55a21.83,21.83,0,0,1-2.73,3.18l-.68.7-.13.14-.14-.15a15.77,15.77,0,0,1-2-2.49,14.65,14.65,0,0,1,2.32,2.2H151l.66-.71A21.32,21.32,0,0,1,154.7,295.55Z" transform="translate(0 -47.99)"/><path class="cls-1" d="M213.48,294.7c0,.12-11.21.21-25,.21s-25-.09-25-.21,11.2-.21,25-.21S213.48,294.59,213.48,294.7Z" transform="translate(0 -47.99)"/><path class="cls-1" d="M213.7,299.28c0,.12-11.21.21-25,.21s-25-.09-25-.21,11.2-.21,25-.21S213.7,299.16,213.7,299.28Z" transform="translate(0 -47.99)"/></g></svg>