<svg xmlns="http://www.w3.org/2000/svg" xmlns:xlink="http://www.w3.org/1999/xlink" viewBox="0 0 493.45 387.11"><defs><style>.cls-1{isolation:isolate;}.cls-2{fill:#5184ce;}.cls-3{fill:#184655;}.cls-4{fill:#7f7f7f;}.cls-5{fill:#565656;}.cls-6{fill:#f24f18;}.cls-7{fill:#ffbb21;}.cls-8{fill:#ebd6ac;}.cls-11,.cls-13,.cls-8{mix-blend-mode:multiply;}.cls-9{fill:#0e2e35;}.cls-10{fill:#1f4752;}.cls-11{fill:#d1cfcb;}.cls-12{fill:url(#linear-gradient);}.cls-13{fill:#c1dae3;}.cls-14{fill:#878583;}.cls-15{fill:#858585;}.cls-15,.cls-16,.cls-17{mix-blend-mode:screen;}.cls-16{fill:#7a7a7a;}.cls-17{fill:#592d24;}.cls-18{fill:#b7b7b7;}.cls-19{fill:#13375b;}</style><linearGradient id="linear-gradient" x1="223.02" y1="170.83" x2="284.55" y2="170.83" gradientTransform="translate(416.13 -88.46) rotate(88.11)" gradientUnits="userSpaceOnUse"><stop offset="0" stop-color="#1f90f2"/><stop offset="1" stop-color="#a3d6ff"/></linearGradient></defs><title>RocketMan</title><g class="cls-1"><g id="Stars"><rect class="cls-2" x="211.52" y="114.76" width="71.21" height="36.28" rx="18.14"/><path class="cls-3" d="M257.1,173.13a4.81,4.81,0,1,1-4.81-4.81A4.81,4.81,0,0,1,257.1,173.13Z" transform="translate(-4.75 -48.73)"/><path class="cls-4" d="M280.66,340.61H226.5c-7.82,42.09-30.16,74.69-70.92,95.23h196C308.41,415,287,382,280.66,340.61Z" transform="translate(-4.75 -48.73)"/><path class="cls-5" d="M215.54,272.67h66.58a0,0,0,0,1,0,0v11.07a8.13,8.13,0,0,1-8.13,8.13H223.67a8.13,8.13,0,0,1-8.13-8.13V272.67A0,0,0,0,1,215.54,272.67Z"/><path class="cls-6" d="M201.69,228.47s-25.11,33.45-43,54c-24.09,27.76-17.69,31.3,3.89,108.3,54.92-37,31.49-90.34,51.21-101.09C249.8,270.08,201.69,228.47,201.69,228.47Z" transform="translate(-4.75 -48.73)"/><path class="cls-6" d="M305.47,228.47s25.12,33.45,43,54c24.09,27.76,17.69,31.3-3.89,108.3-54.91-37-31.49-90.34-51.21-101.09C257.36,270.08,305.47,228.47,305.47,228.47Z" transform="translate(-4.75 -48.73)"/><path class="cls-6" d="M321.88,202.08c0-64.49-37.26-122.06-56.56-147.54a14.64,14.64,0,0,0-23.07-.35c-19.66,24.4-57,79.33-57,144.76,0,26.43,18.11,101.51,27.56,120.64a13.41,13.41,0,0,0,12,7.5h58.87a13.42,13.42,0,0,0,12-7.5C305.21,300.46,321.88,228.52,321.88,202.08Z" transform="translate(-4.75 -48.73)"/><path class="cls-7" d="M295.77,319.59c9.44-19.13,26.11-91.07,26.11-117.51,0-39.28-13.82-76-29-104.45a83.18,83.18,0,0,0-80.71,2c-14.37,27-26.9,61.37-26.9,99.29,0,26.43,18.11,101.51,27.56,120.64a13.41,13.41,0,0,0,12,7.5h58.87A13.42,13.42,0,0,0,295.77,319.59Z" transform="translate(-4.75 -48.73)"/><circle class="cls-8" cx="256.2" cy="171.36" r="41.94" transform="translate(-35.47 235.26) rotate(-55.21)"/><circle class="cls-9" cx="249.03" cy="122.1" r="41.94"/><path class="cls-10" d="M213.73,171.46a42,42,0,0,1,54.18-40.12,41.94,41.94,0,1,0-26.37,79.6A41.93,41.93,0,0,1,213.73,171.46Z" transform="translate(-4.75 -48.73)"/><circle class="cls-11" cx="254.35" cy="207.36" r="3.17" transform="matrix(0.26, -0.97, 0.97, 0.26, -15.96, 351.44)"/><circle class="cls-11" cx="249.39" cy="86.63" r="3.17"/><circle class="cls-11" cx="281.22" cy="147.39" r="3.17" transform="translate(-26.61 193.29) rotate(-45)"/><circle class="cls-11" cx="223.83" cy="148.39" r="3.17"/><circle class="cls-11" cx="281.22" cy="195.73" r="3.17" transform="translate(-60.79 207.45) rotate(-45)"/><path class="cls-11" d="M230.49,146.89a3.17,3.17,0,1,1-3.17-3.16A3.17,3.17,0,0,1,230.49,146.89Z" transform="translate(-4.75 -48.73)"/><circle class="cls-11" cx="290.58" cy="171.46" r="3.17" transform="translate(-40.88 206.96) rotate(-45)"/><circle class="cls-11" cx="217.5" cy="171.46" r="3.17" transform="translate(-57.24 61.01) rotate(-25.37)"/><circle class="cls-12" cx="253.78" cy="170.83" r="30.77" transform="translate(69.9 370.09) rotate(-88.11)"/><path class="cls-13" d="M226.55,174.62A30.77,30.77,0,0,1,278,151.84a30.77,30.77,0,1,0-44.89,41.77A30.67,30.67,0,0,1,226.55,174.62Z" transform="translate(-4.75 -48.73)"/><circle class="cls-14" cx="253.78" cy="206.87" r="3.17" transform="translate(-76.71 191.31) rotate(-45)"/><path class="cls-15" d="M253.78,208.63a1.76,1.76,0,1,1,1.76-1.76A1.76,1.76,0,0,1,253.78,208.63Z" transform="translate(-4.75 -48.73)"/><circle class="cls-14" cx="248.83" cy="86.14" r="3.17"/><path class="cls-15" d="M253.58,136.63a1.76,1.76,0,1,1,1.76-1.76A1.76,1.76,0,0,1,253.58,136.63Z" transform="translate(-4.75 -48.73)"/><circle class="cls-14" cx="280.66" cy="146.9" r="3.17" transform="translate(81.99 348.66) rotate(-79.88)"/><path class="cls-15" d="M280.66,148.66a1.76,1.76,0,1,1,1.76-1.76A1.76,1.76,0,0,1,280.66,148.66Z" transform="translate(-4.75 -48.73)"/><path class="cls-14" d="M231.19,196.64a3.17,3.17,0,1,1-3.17-3.17A3.17,3.17,0,0,1,231.19,196.64Z" transform="translate(-4.75 -48.73)"/><path class="cls-15" d="M228,198.39a1.76,1.76,0,1,1,1.76-1.75A1.75,1.75,0,0,1,228,198.39Z" transform="translate(-4.75 -48.73)"/><circle class="cls-14" cx="280.66" cy="195.24" r="3.17" transform="translate(34.4 388.51) rotate(-79.88)"/><path class="cls-15" d="M280.66,197a1.76,1.76,0,1,1,1.76-1.76A1.76,1.76,0,0,1,280.66,197Z" transform="translate(-4.75 -48.73)"/><circle class="cls-14" cx="222" cy="97.67" r="3.17"/><path class="cls-15" d="M226.76,148.16a1.76,1.76,0,1,1,1.75-1.76A1.76,1.76,0,0,1,226.76,148.16Z" transform="translate(-4.75 -48.73)"/><circle class="cls-14" cx="290.02" cy="170.96" r="3.17" transform="translate(-40.7 206.41) rotate(-45)"/><path class="cls-15" d="M290,172.72a1.76,1.76,0,1,1,1.75-1.76A1.76,1.76,0,0,1,290,172.72Z" transform="translate(-4.75 -48.73)"/><circle class="cls-14" cx="216.94" cy="170.96" r="3.17" transform="translate(-53.47 46.61) rotate(-22.35)"/><path class="cls-15" d="M216.94,172.72A1.76,1.76,0,1,1,218.7,171,1.76,1.76,0,0,1,216.94,172.72Z" transform="translate(-4.75 -48.73)"/><path class="cls-16" d="M273,171.9a25.1,25.1,0,0,1-41.27,12.19A25.87,25.87,0,1,0,267.52,149,25.07,25.07,0,0,1,273,171.9Z" transform="translate(-4.75 -48.73)"/><path class="cls-6" d="M262.32,317c0,40.76-4,67.06-8.74,73.8-4.85-7-8.74-33-8.74-73.8a321.25,321.25,0,0,1,8.74-73.81A321.25,321.25,0,0,1,262.32,317Z" transform="translate(-4.75 -48.73)"/><path class="cls-17" d="M193.82,213c0-68.14,40.05-125.34,61.14-150.75l.06-.07a3,3,0,0,0-3.44-4.6,14.6,14.6,0,0,0-6,4.29c-19.65,23.67-57,77-57,140.47,0,25.29,16.27,87.82,25.82,107.63C204.43,278.59,193.82,234.56,193.82,213Z" transform="translate(-4.75 -48.73)"/><path class="cls-18" d="M498.2,435.84V362.43a38.93,38.93,0,0,0-6.43-.53c-21.46,0-38.86,24.27-38.86,45.73a37.2,37.2,0,0,0,.22,4.11l-1.07,0a31,31,0,0,0-9.92,1.62,34.88,34.88,0,0,0-67.46,6.7,23.82,23.82,0,0,0-29.29,15.8Z" transform="translate(-4.75 -48.73)"/><path class="cls-18" d="M143.32,412.38a26.49,26.49,0,0,0-23.23,13.74,18.87,18.87,0,0,0-26.51-1.3A34.89,34.89,0,0,0,50.9,396.59c0-.33,0-.66,0-1A42.8,42.8,0,0,0,8.1,352.8c-1.12,0-2.24,0-3.35.13v82.91h164.9A26.51,26.51,0,0,0,143.32,412.38Z" transform="translate(-4.75 -48.73)"/><path class="cls-19" d="M456.89,373.39a1.78,1.78,0,1,0,1.51-2A1.79,1.79,0,0,0,456.89,373.39Zm.64-.09a1.14,1.14,0,1,1,1.29,1A1.14,1.14,0,0,1,457.53,373.3Z" transform="translate(-4.75 -48.73)"/></g></g></svg>