<svg id="Capa_1" data-name="Capa 1" xmlns="http://www.w3.org/2000/svg" viewBox="0 0 549.98 575.44"><defs><style>.cls-1{fill:#f24f18;}.cls-2{fill:#ffbb21;}</style></defs><title>Brands2</title><path class="cls-1" d="M488.18,527.42a.67.67,0,0,1,.55-1.19c9.86,2.37,41.21,9.41,61.64,8.64,24.5-.92,41.6-3.27,43.14.06s3.85,10.27-16,11.81C558.13,548.24,519.5,550.62,488.18,527.42Z" transform="translate(-191.38 -147.44)"/><path class="cls-1" d="M738.34,238.33a10.69,10.69,0,0,0,2.77-9.64c-.76-3.21-3.18-6-9.89-4.25-13.4,3.47-42.76,28.2-67.49,23.11,17.57-22,49.47-76.5,31.9-83-4.39-.93-7.88,3.46-9.71,6.93s-13.4,35.6-91.07,43.92c19.92-24.87,24.31-33.89,30.89-44.52S639,152,631.37,147.7s-58.94,46-117.64,56.86c-44.78,8.29-88.08,14-111,17.61a7.7,7.7,0,0,1-8-11.13c10.61-20.67,13.73-25.13.95-23.58-15.26,1.85-58.94,21-77.2,43.68a75.31,75.31,0,0,0-14.16,29.21A64.57,64.57,0,0,1,280.6,296c-16.91,12.89-38.06,33.12-39.84,54.65-.65,10.64,18-.19,29.41-7.72a5,5,0,0,1,7.77,4.52l-.43,6.3a38,38,0,0,1-9.48,22.6c-16,18.09-49.15,61.31-51.84,111.83a30.43,30.43,0,0,1-5.9,16.25c-6.86,9.37-14.66,22.29-1.66,38.06-5.78,15.26-19.42,44.15,17.56,68.88,0,0,9.94,6.93,9.71-3.47-3-9.24-1.39-22.88,2.54-27.5s14.8-13.41,12.49-22.65a19.18,19.18,0,0,0-2.8-6.73,5.43,5.43,0,0,1,1.11-7.56c4.34-3.24,9.21-8.22,9.78-14.14.92-9.71-4.4-17.57-3.7-22.19.46-3.07,9.26-14.58,16.82-22.73a4,4,0,0,1,6.77,3.74c-5.62,20.65-17.43,60.65-1.4,94.34,20.34,42.76,44.14,60.79,51.08,58.48,4.39-1.62.69-6.94,1.61-12a29.13,29.13,0,0,1,1.34-4.67,5,5,0,0,1,8.1-1.83c11.6,11.28,41.29,38.28,69.15,47.87,35.6,12.25,75.12,12.94,80.2,15.26s7.4,6.7,3.93,18-3,16.88,6.48,19,57.55-4.86,92.91-31.67,36.52-48.77,41.84-42.53,8.09,11.79,18,3.93,38.91-45.86,39.29-110.48-3.7-91.07-11.79-88.29c-6.94,2.37-3.33,50.14-15.44,74.2a5,5,0,0,1-9.32-1.2c-6.92-33.54-26.69-72.22-101-69.31C475.55,460.27,415.1,497.34,413,563.86a11.82,11.82,0,0,1-13.1,11.48A62,62,0,0,1,356.09,549c-13.11-18.75-15.26-41.54-15.2-54.87A14.23,14.23,0,0,1,351,480.5c5.51-1.66,10.63-4,6.47-6-7.63-3.7-69.8,22.19-70.27-33.28s65.88-39.76,64.49-46.69-21-2.78-22.42-9.94,9.94-55.24,32.59-58.25c0,0,11.33-2.54,21.73,16.64,6.06,11.18,7.88-1.93,8.85-16.07a37.58,37.58,0,0,1,25.77-33.2c21.52-7,54.47-13.62,87.42-4.58,52.23,14.33,86,68.41,90.6,66.57,3.19-1.28,2.09-20.41-2.4-36.09a8.45,8.45,0,0,1,11.36-10.1c39.59,16.37,103.52,52.59,129.44,84.12a3,3,0,0,0,5.26-2.13c-1.45-15.73-18.94-57.06-76.63-103.76,0,0,23.58-1.15,43-18.26C720.92,256.6,733.2,243.82,738.34,238.33ZM225.89,541.81c-22.6-5.38-19.2-20.68-15.09-29.42a2.32,2.32,0,0,1,4.36.42c1.24,5.21,4.62,11.94,13.65,14.36,9.57,2.56,16.58-3,20.56-7.73a2.29,2.29,0,0,1,4,1.59C253,531,248.82,547.27,225.89,541.81Zm321-41c82.9-3.39,68.1,48.39,68.1,48.39s-6.78,37-22.8,35.74c0,0-6.55,1.24-8.52-11.94s-26.92-10.51-26.92-10.51S535.34,560.74,533.6,588c-1.15,24.15-68.26,7.08-67.18-30.21C466.42,557.81,464,504.19,546.86,500.8Z" transform="translate(-191.38 -147.44)"/><path class="cls-1" d="M424.83,377.56a.94.94,0,0,1-1.35-1.24c4.89-8.44,20-28.36,55.42-30.9,45.07-3.24,41.38,13.64,41.38,13.64s.46,12.25-22,6C477.06,359.15,445.21,362.79,424.83,377.56Z" transform="translate(-191.38 -147.44)"/><path class="cls-1" d="M586.9,366a9.77,9.77,0,0,1,2.33-1.22c3.47-1.31,14.94-5.1,25.76-2.58,12.94,3,28.58,10,34.59,25.65,3.62,8.71-11.94-6.16-21.34-8s-24-4-35.9-2.93C581.32,377.93,581.71,369.82,586.9,366Z" transform="translate(-191.38 -147.44)"/><path class="cls-1" d="M487.18,411.72A15.47,15.47,0,0,1,476.52,385a9.75,9.75,0,0,0-3.75-.77c-9.63,0-7.49,14.75-7.49,32.94s-2.14,32.93,7.49,32.93,17.44-14.74,17.44-32.93c0-2-.1-3.87-.27-5.73A14.84,14.84,0,0,1,487.18,411.72Z" transform="translate(-191.38 -147.44)"/><path class="cls-1" d="M616.89,410a11.3,11.3,0,0,1-7-20.15,8.16,8.16,0,0,0-3.51-.81c-8,0-6.19,12.2-6.19,27.26s-1.78,27.27,6.19,27.27,14.44-12.21,14.44-27.27a50.46,50.46,0,0,0-.46-6.84A11.22,11.22,0,0,1,616.89,410Z" transform="translate(-191.38 -147.44)"/><path class="cls-1" d="M300.92,463.32c-.42-.64-4.84-18.47,4.32-33.23s22.83-16.18,25.43-16.33,3.92,4,1.38,4.62c-13.83,5.05-17.3,10.94-16.14,11.75s26.12,4.16,32.63,20c-.85,8.44-6.75-7-21.54-10.63-10.79-2.93-15.75-4-17.91,2.62C307.05,448.38,304.46,468.73,300.92,463.32Z" transform="translate(-191.38 -147.44)"/><path class="cls-2" d="M478.22,527.42a.67.67,0,0,1,.55-1.19c9.86,2.37,41.21,9.41,61.64,8.64,24.5-.92,41.6-3.27,43.14.06s3.86,10.27-16,11.81C548.18,548.24,509.54,550.62,478.22,527.42Z" transform="translate(-191.38 -147.44)"/><path class="cls-2" d="M728.39,238.33a10.68,10.68,0,0,0,2.76-9.64c-.75-3.21-3.18-6-9.88-4.25-13.41,3.47-42.76,28.2-67.49,23.11,17.56-22,49.46-76.5,31.89-83-4.39-.93-7.88,3.46-9.71,6.93s-13.4,35.6-91.06,43.92c19.91-24.87,24.3-33.89,30.89-44.52S629,152,621.42,147.7s-58.94,46-117.65,56.86c-44.78,8.29-88.08,14-111,17.61a7.7,7.7,0,0,1-8-11.13c10.61-20.67,13.74-25.13,1-23.58-15.26,1.85-58.94,21-77.2,43.68a75.31,75.31,0,0,0-14.16,29.21A64.57,64.57,0,0,1,270.64,296c-16.91,12.89-38.06,33.12-39.84,54.65-.65,10.64,18-.19,29.42-7.72a5,5,0,0,1,7.77,4.52l-.44,6.3a38,38,0,0,1-9.48,22.6c-16,18.09-49.15,61.31-51.84,111.83a30.34,30.34,0,0,1-5.9,16.25c-6.86,9.37-14.66,22.29-1.66,38.06-5.78,15.26-19.42,44.15,17.57,68.88,0,0,9.93,6.93,9.7-3.47-3-9.24-1.38-22.88,2.55-27.5S243.28,567,241,557.74a19,19,0,0,0-2.8-6.73,5.44,5.44,0,0,1,1.11-7.56c4.34-3.24,9.21-8.22,9.78-14.14.92-9.71-4.39-17.57-3.7-22.19.46-3.07,9.27-14.58,16.83-22.73a4,4,0,0,1,6.76,3.74c-5.62,20.65-17.43,60.65-1.4,94.34,20.34,42.76,44.14,60.79,51.08,58.48,4.39-1.62.69-6.94,1.62-12a29.08,29.08,0,0,1,1.33-4.67,5,5,0,0,1,8.1-1.83c11.6,11.28,41.3,38.28,69.15,47.87,35.6,12.25,75.12,12.94,80.21,15.26s7.39,6.7,3.93,18-3,16.88,6.47,19,57.55-4.86,92.91-31.67,36.52-48.77,41.84-42.53,8.09,11.79,18,3.93,38.91-45.86,39.29-110.48-3.7-91.07-11.79-88.29c-6.93,2.37-3.33,50.14-15.43,74.2a5,5,0,0,1-9.33-1.2C638,493,618.27,454.28,544,457.19c-78.39,3.08-138.84,40.15-140.93,106.67A11.81,11.81,0,0,1,390,575.34,62,62,0,0,1,346.13,549c-13.11-18.75-15.26-41.54-15.2-54.87a14.23,14.23,0,0,1,10.12-13.58c5.51-1.66,10.63-4,6.47-6-7.63-3.7-69.8,22.19-70.26-33.28s65.87-39.76,64.48-46.69-21-2.78-22.42-9.94,9.94-55.24,32.59-58.25c0,0,11.33-2.54,21.73,16.64,6.06,11.18,7.88-1.93,8.85-16.07a37.58,37.58,0,0,1,25.77-33.2c21.52-7,54.47-13.62,87.42-4.58,52.23,14.33,86,68.41,90.6,66.57,3.2-1.28,2.09-20.41-2.4-36.09a8.45,8.45,0,0,1,11.36-10.1c39.59,16.37,103.53,52.59,129.44,84.12a3,3,0,0,0,5.26-2.13c-1.45-15.73-18.94-57.06-76.63-103.76,0,0,23.58-1.15,43-18.26C711,256.6,723.24,243.82,728.39,238.33ZM215.93,541.81c-22.6-5.38-19.2-20.68-15.09-29.42a2.32,2.32,0,0,1,4.36.42c1.24,5.21,4.62,11.94,13.66,14.36,9.56,2.56,16.57-3,20.55-7.73a2.29,2.29,0,0,1,4,1.59C243,531,238.86,547.27,215.93,541.81Zm321-41c82.9-3.39,68.11,48.39,68.11,48.39s-6.78,37-22.81,35.74c0,0-6.55,1.24-8.51-11.94s-26.93-10.51-26.93-10.51-21.38-1.74-23.11,25.54c-1.16,24.15-68.27,7.08-67.19-30.21C456.46,557.81,454,504.19,536.9,500.8Z" transform="translate(-191.38 -147.44)"/><path class="cls-2" d="M414.87,377.56a.93.93,0,0,1-1.34-1.24c4.88-8.44,20-28.36,55.41-30.9,45.08-3.24,41.38,13.64,41.38,13.64s.46,12.25-22,6C467.1,359.15,435.26,362.79,414.87,377.56Z" transform="translate(-191.38 -147.44)"/><path class="cls-2" d="M576.94,366a9.77,9.77,0,0,1,2.33-1.22c3.47-1.31,14.94-5.1,25.76-2.58,12.94,3,28.58,10,34.59,25.65,3.62,8.71-11.94-6.16-21.34-8s-24-4-35.9-2.93C571.36,377.93,571.75,369.82,576.94,366Z" transform="translate(-191.38 -147.44)"/><path class="cls-2" d="M477.22,411.72A15.47,15.47,0,0,1,466.56,385a9.75,9.75,0,0,0-3.75-.77c-9.63,0-7.48,14.75-7.48,32.94s-2.15,32.93,7.48,32.93,17.44-14.74,17.44-32.93q0-2.94-.27-5.73A14.84,14.84,0,0,1,477.22,411.72Z" transform="translate(-191.38 -147.44)"/><path class="cls-2" d="M606.93,410a11.3,11.3,0,0,1-7-20.15,8.16,8.16,0,0,0-3.51-.81c-8,0-6.19,12.2-6.19,27.26s-1.78,27.27,6.19,27.27,14.44-12.21,14.44-27.27a50.46,50.46,0,0,0-.46-6.84A11.17,11.17,0,0,1,606.93,410Z" transform="translate(-191.38 -147.44)"/><path class="cls-2" d="M291,463.32c-.41-.64-4.84-18.47,4.32-33.23s22.84-16.18,25.43-16.33,3.92,4,1.39,4.62c-13.84,5.05-17.31,10.94-16.15,11.75s26.12,4.16,32.63,20c-.85,8.44-6.75-7-21.54-10.63-10.79-2.93-15.75-4-17.9,2.62C297.09,448.38,294.5,468.73,291,463.32Z" transform="translate(-191.38 -147.44)"/></svg>