<?xml version="1.0" encoding="utf-8"?>
<!-- Generator: Adobe Illustrator 24.0.0, SVG Export Plug-In . SVG Version: 6.00 Build 0)  -->
<svg version="1.1" id="Capa_1" xmlns="http://www.w3.org/2000/svg" xmlns:xlink="http://www.w3.org/1999/xlink" x="0px" y="0px"
	 viewBox="0 0 1906.6 539.5" style="enable-background:new 0 0 1906.6 539.5;" xml:space="preserve">
<style type="text/css">
	.st0{enable-background:new    ;}
	.st1{fill:#FFBB21;}
	.st2{font-family:'BodegaSans-BlackSmallcaps';}
	.st3{font-size:453.2648px;}
	.st4{fill:#F24F18;}
</style>
<title>Brands</title>
<g class="st0">
	
		<image style="overflow:visible;opacity:0.75;" width="1179" height="522" xlink:href="B7FE87F2.png"  transform="matrix(1 0 0 1 572 26.49)">
	</image>
	<g>
		<text transform="matrix(1.0157 0 0 1 580.5537 436.5264)" class="st1 st2 st3">S3rMaX</text>
	</g>
</g>
<g>
	<path class="st4" d="M399.5,203.3c0.7-0.5,1.4-0.8,2.1-1.1c3.2-1.2,13.6-4.6,23.5-2.4c11.8,2.7,26.1,9.1,31.5,23.4
		c3.3,7.9-10.9-5.6-19.4-7.3c-8.6-1.7-21.9-3.6-32.7-2.7C394.4,214.2,394.7,206.8,399.5,203.3z"/>
	<path class="st4" d="M426.8,243.4c-5.7,0-10.3-4.6-10.3-10.3c0-3.1,1.4-6.1,3.9-8.1c-1-0.5-2.1-0.7-3.2-0.7
		c-7.3,0-5.6,11.1-5.6,24.8c0,13.7-1.6,24.8,5.6,24.8c7.3,0,13.2-11.1,13.2-24.8c0-2.1-0.1-4.2-0.4-6.2
		C428.9,243.3,427.9,243.4,426.8,243.4z"/>
	<path class="st1" d="M390.4,203.3c0.7-0.5,1.4-0.8,2.1-1.1c3.2-1.2,13.6-4.6,23.5-2.4c11.8,2.7,26,9.1,31.5,23.4
		c3.3,7.9-10.9-5.6-19.4-7.3c-8.6-1.7-21.9-3.6-32.7-2.7C385.3,214.2,385.7,206.8,390.4,203.3z"/>
	<path class="st1" d="M417.7,243.4c-5.7,0-10.3-4.6-10.3-10.3c0-3.1,1.4-6.1,3.9-8.1c-1-0.5-2.1-0.7-3.2-0.7
		c-7.3,0-5.6,11.1-5.6,24.8c0,13.7-1.6,24.8,5.6,24.8s13.2-11.1,13.2-24.8c0-2.1-0.1-4.2-0.4-6.2
		C419.9,243.2,418.8,243.4,417.7,243.4z"/>
	<g>
		<path class="st4" d="M138.8,292c-0.4-0.6-4.4-16.8,3.9-30.3c8.3-13.4,20.9-14.7,23.3-14.9s3.6,3.6,1.3,4.2
			c-12.6,4.6-15.8,10-14.7,10.7c1.1,0.7,23.8,3.8,29.7,18.2c-0.8,7.7-6.2-6.4-19.6-9.7c-9.8-2.7-14.4-3.7-16.3,2.4
			C144.4,278.4,142.1,297,138.8,292z"/>
		<path class="st4" d="M309.5,350.4c-0.3-0.2-0.3-0.6-0.2-0.8c0.1-0.2,0.4-0.3,0.6-0.2c9,2.2,37.6,8.6,56.2,7.9
			c22.4-0.8,37.9-3,39.3,0.1c1.4,3,3.5,9.4-14.6,10.8C373.2,369.4,338,371.6,309.5,350.4z"/>
		<path class="st4" d="M537.5,87c2.2-2.3,3.2-5.6,2.5-8.7c-0.7-2.9-2.9-5.5-9-3.9c-12.2,3.2-39,25.7-61.5,21.1
			c16-20,45.1-69.7,29.1-75.6c-4-0.8-7.2,3.2-8.9,6.3s-12.2,32.4-83,40c18.1-22.7,22.1-30.9,28.2-40.6s12-17.2,5.1-21.2
			s-53.7,41.9-107.2,51.8c-40.8,7.6-80.3,12.8-101.2,16c-3.8,0.6-7.4-2-8-5.9c-0.2-1.5,0-3,0.7-4.3c9.7-18.8,12.5-22.9,0.9-21.5
			c-13.9,1.7-53.7,19.2-70.4,39.9c-6.2,7.8-10.6,16.9-12.9,26.6c-3.3,12.9-10.9,24.4-21.6,32.4c-15.4,11.8-34.7,30.1-36.3,49.8
			c-0.6,9.7,16.4-0.2,26.8-7c2.1-1.4,4.9-0.8,6.3,1.3c0.6,0.8,0.8,1.8,0.8,2.8l-0.4,5.7c-0.5,7.6-3.6,14.9-8.6,20.6
			c-14.6,16.5-44.8,55.9-47.2,101.9c-0.3,5.4-2.2,10.5-5.4,14.8c-6.3,8.5-13.4,20.3-1.5,34.7c-5.3,13.9-17.7,40.2,16,62.8
			c0,0,9.1,6.3,8.8-3.2c-2.7-8.4-1.3-20.9,2.3-25.1s13.5-12.2,11.4-20.6c-0.4-2.2-1.3-4.3-2.6-6.1c-1.6-2.2-1.2-5.2,1-6.9
			c4-2.9,8.4-7.5,8.9-12.9c0.8-8.8-4-16-3.4-20.2c0.4-2.8,8.4-13.3,15.3-20.7c1.4-1.5,3.7-1.6,5.1-0.2c1,0.9,1.4,2.3,1,3.6
			c-5.1,18.8-15.9,55.3-1.3,86c18.5,39,40.2,55.4,46.5,53.3c4-1.5,0.6-6.3,1.5-11c0.3-1.5,0.7-2.9,1.2-4.3c0.9-2.3,3.4-3.5,5.8-2.7
			c0.6,0.2,1.1,0.6,1.6,1c10.6,10.3,37.6,34.9,63,43.6c32.4,11.2,68.5,11.8,73.1,13.9c4.6,2.1,6.7,6.1,3.6,16.4
			c-3.2,10.3-2.7,15.4,5.9,17.3c8.6,1.9,52.5-4.4,84.7-28.9c32.2-24.4,33.3-44.4,38.1-38.8c4.8,5.7,7.4,10.7,16.4,3.6
			c9.1-7.1,35.5-41.8,35.8-100.7c0.3-58.9-3.4-83-10.7-80.5c-6.3,2.2-3,45.7-14.1,67.6c-1.1,2.2-3.8,3.2-6,2.1
			c-1.3-0.6-2.2-1.8-2.5-3.2c-6.3-30.6-24.3-65.8-92-63.2c-71.4,2.8-126.5,36.6-128.4,97.2c-0.1,5.9-5.1,10.7-11,10.5
			c-0.3,0-0.6,0-0.9-0.1c-16.2-1.9-30.7-10.7-39.9-24c-12-17.1-13.9-37.9-13.9-50c0-5.7,3.8-10.7,9.2-12.3c5-1.5,9.7-3.6,5.9-5.4
			c-7-3.4-63.6,20.2-64-30.3c-0.4-50.6,60.1-36.2,58.8-42.6c-1.3-6.3-19.2-2.5-20.4-9.1c-1.2-6.5,9.1-50.3,29.7-53.1
			c0,0,10.3-2.3,19.8,15.2c5.5,10.2,7.2-1.8,8.1-14.6c0.9-13.9,10.2-25.9,23.5-30.3c19.6-6.4,49.6-12.4,79.7-4.2
			c47.6,13.1,78.4,62.3,82.6,60.7c2.9-1.2,1.9-18.6-2.2-32.9c-1.2-4.1,1.2-8.3,5.3-9.5c1.7-0.5,3.4-0.4,5,0.3
			c36.1,14.9,94.3,47.9,118,76.7c1,1.2,2.7,1.3,3.8,0.4c0.7-0.6,1-1.4,1-2.3c-1.3-14.3-17.3-52-69.8-94.6c0,0,21.5-1.1,39.2-16.6
			C521.6,103.6,532.8,92,537.5,87z M70.5,363.5c-20.6-4.9-17.5-18.8-13.7-26.8c0.5-1.1,1.7-1.5,2.8-1.1c0.6,0.3,1,0.8,1.2,1.4
			c1.1,4.8,4.2,10.9,12.4,13.1c8.7,2.3,15.1-2.8,18.7-7c0.7-0.9,2.1-1,2.9-0.2c0.5,0.4,0.8,1,0.7,1.7
			C95.1,353.7,91.4,368.5,70.5,363.5z M363,326.2c75.5-3.1,62.1,44.1,62.1,44.1s-6.2,33.7-20.8,32.6c0,0-6,1.1-7.8-10.9
			s-24.5-9.6-24.5-9.6s-19.4-1.6-21.1,23.3c-1,22-62.2,6.5-61.2-27.5C289.7,378.1,287.4,329.3,363,326.2L363,326.2z"/>
		<path class="st4" d="M251.8,213.9c-0.4,0.3-0.9,0.2-1.2-0.2c-0.2-0.3-0.2-0.6,0-0.9c4.5-7.7,18.3-25.8,50.5-28.2
			c41.1-2.9,37.7,12.4,37.7,12.4s0.4,11.2-20,5.5C299.4,197.1,270.3,200.4,251.8,213.9z"/>
		<path class="st4" d="M308.6,245c-7.8,0-14.1-6.3-14.1-14.1c0-3.8,1.6-7.5,4.4-10.2c-1.1-0.5-2.2-0.7-3.4-0.7
			c-8.7,0-6.8,13.4-6.8,30s-1.9,30,6.8,30c8.7,0,15.9-13.4,15.9-30c0-1.8-0.1-3.5-0.2-5.2C310.3,244.9,309.4,245,308.6,245z"/>
		<path class="st1" d="M300.4,350.4c-0.3-0.2-0.3-0.6-0.2-0.8c0.1-0.2,0.4-0.3,0.6-0.2c9,2.2,37.6,8.6,56.2,7.9
			c22.4-0.8,37.9-3,39.3,0.1c1.4,3,3.5,9.4-14.6,10.8C364.2,369.4,329,371.6,300.4,350.4z"/>
		<path class="st1" d="M528.4,87c2.2-2.3,3.2-5.6,2.5-8.7c-0.7-2.9-2.9-5.5-9-3.9c-12.2,3.2-39,25.7-61.5,21.1
			c16-20,45.1-69.7,29.1-75.6c-4-0.8-7.2,3.2-8.8,6.3s-12.2,32.4-83,40c18.1-22.7,22.1-30.9,28.2-40.6S437.9,8.3,431,4.4
			s-53.7,41.9-107.2,51.8c-40.8,7.6-80.3,12.8-101.2,16c-3.8,0.6-7.4-2-8-5.8c-0.2-1.5,0-3,0.7-4.3c9.7-18.8,12.5-22.9,0.9-21.5
			c-13.9,1.7-53.7,19.2-70.4,39.9c-6.2,7.8-10.6,16.9-12.9,26.6c-3.3,12.9-10.9,24.4-21.6,32.4c-15.4,11.8-34.7,30.1-36.3,49.8
			c-0.6,9.7,16.4-0.2,26.8-7c2.1-1.4,4.9-0.8,6.3,1.3c0.6,0.8,0.8,1.8,0.8,2.8l-0.4,5.7c-0.5,7.6-3.6,14.9-8.7,20.6
			C85.2,229.3,55,268.6,52.5,314.7c-0.3,5.4-2.2,10.5-5.4,14.8c-6.3,8.5-13.4,20.3-1.5,34.7c-5.3,13.9-17.7,40.2,16,62.8
			c0,0,9.1,6.3,8.8-3.2c-2.7-8.4-1.3-20.9,2.3-25.1c3.6-4.2,13.4-12.2,11.4-20.6c-0.5-2.2-1.3-4.3-2.5-6.1c-1.6-2.2-1.2-5.3,1-6.9
			c4-2.9,8.4-7.5,8.9-12.9c0.8-8.8-4-16-3.4-20.2c0.4-2.8,8.4-13.3,15.3-20.7c1.4-1.5,3.7-1.6,5.1-0.2c1,0.9,1.4,2.3,1,3.6
			c-5.1,18.8-15.9,55.3-1.3,86c18.5,39,40.2,55.4,46.6,53.3c4-1.5,0.6-6.3,1.5-11c0.3-1.4,0.7-2.9,1.2-4.3c0.9-2.3,3.5-3.5,5.8-2.7
			c0.6,0.2,1.1,0.6,1.6,1c10.6,10.3,37.6,34.9,63,43.6c32.4,11.2,68.5,11.8,73.1,13.9c4.6,2.1,6.7,6.1,3.6,16.4
			c-3.2,10.3-2.7,15.4,5.9,17.3c8.6,1.9,52.4-4.4,84.7-28.9c32.2-24.4,33.3-44.4,38.1-38.8c4.9,5.7,7.4,10.7,16.4,3.6
			c9.1-7.1,35.5-41.8,35.8-100.7c0.3-58.9-3.4-83-10.7-80.5c-6.3,2.2-3,45.7-14.1,67.6c-1.1,2.2-3.8,3.2-6,2.1
			c-1.3-0.6-2.2-1.8-2.5-3.2c-6.3-30.6-24.3-65.8-92-63.2c-71.4,2.8-126.5,36.6-128.4,97.2c-0.1,6-5.1,10.7-11,10.5
			c-0.3,0-0.6,0-0.9-0.1c-16.2-1.9-30.7-10.7-39.9-24c-12-17.1-13.9-37.9-13.9-50c0-5.7,3.8-10.7,9.2-12.4c5-1.5,9.7-3.6,5.9-5.4
			c-7-3.4-63.6,20.2-64-30.3s60-36.2,58.8-42.5c-1.3-6.3-19.2-2.5-20.4-9.1c-1.2-6.5,9.1-50.3,29.7-53.1c0,0,10.3-2.3,19.8,15.2
			c5.5,10.2,7.2-1.8,8.1-14.6c0.9-13.9,10.2-25.9,23.5-30.3c19.6-6.4,49.6-12.4,79.7-4.2c47.6,13.1,78.4,62.3,82.6,60.7
			c2.9-1.2,1.9-18.6-2.2-32.9c-1.1-4.1,1.3-8.3,5.4-9.5c1.6-0.5,3.4-0.3,4.9,0.3c36.1,14.9,94.3,47.9,118,76.7
			c1,1.2,2.7,1.3,3.8,0.4c0.7-0.6,1-1.4,1-2.3c-1.3-14.3-17.3-52-69.8-94.6c0,0,21.5-1.1,39.2-16.6C512.5,103.6,523.7,92,528.4,87z
			 M61.4,363.5c-20.6-4.9-17.5-18.8-13.7-26.8c0.5-1.1,1.7-1.5,2.8-1.1c0.6,0.3,1,0.8,1.2,1.4c1.1,4.8,4.2,10.9,12.4,13.1
			c8.7,2.3,15.1-2.8,18.7-7c0.8-0.9,2.1-1,2.9-0.2c0.5,0.4,0.8,1,0.7,1.7C86,353.7,82.3,368.5,61.4,363.5z M353.9,326.2
			c75.5-3.1,62.1,44.1,62.1,44.1s-6.2,33.7-20.8,32.6c0,0-6,1.1-7.8-10.9s-24.5-9.6-24.5-9.6s-19.5-1.6-21.1,23.3
			c-1.1,22-62.2,6.5-61.2-27.5C280.6,378.1,278.3,329.3,353.9,326.2z"/>
		<path class="st1" d="M242.7,213.9c-0.4,0.3-0.9,0.2-1.2-0.2c-0.2-0.3-0.2-0.6,0-0.9c4.4-7.7,18.3-25.8,50.5-28.2
			c41.1-2.9,37.7,12.4,37.7,12.4s0.4,11.2-20,5.5C290.3,197.1,261.2,200.4,242.7,213.9z"/>
		<path class="st1" d="M299.5,245c-7.8,0-14.1-6.3-14.1-14.1c0-3.8,1.6-7.5,4.4-10.2c-1.1-0.5-2.2-0.7-3.4-0.7
			c-8.7,0-6.8,13.4-6.8,30s-1.9,30,6.8,30c8.7,0,15.9-13.4,15.9-30c0-1.8-0.1-3.5-0.2-5.2C301.2,244.9,300.3,245,299.5,245z"/>
		<path class="st1" d="M129.8,292c-0.4-0.6-4.4-16.8,3.9-30.3c8.3-13.4,20.8-14.7,23.2-14.9c2.4-0.2,3.6,3.6,1.3,4.2
			c-12.6,4.6-15.8,10-14.7,10.7c1,0.7,23.8,3.8,29.7,18.2c-0.8,7.7-6.2-6.4-19.6-9.7c-9.8-2.7-14.3-3.7-16.3,2.4
			C135.4,278.4,133,297,129.8,292z"/>
	</g>
</g>
</svg>
