<svg id="Capa_1" data-name="Capa 1" xmlns="http://www.w3.org/2000/svg" viewBox="0 0 705 459"><defs><style>.cls-1,.cls-8{fill:none;}.cls-1,.cls-2,.cls-8,.cls-9{stroke:#222627;}.cls-1,.cls-2,.cls-9{stroke-miterlimit:10;}.cls-1{stroke-width:2.13px;}.cls-2,.cls-3,.cls-9{fill:#b7b7b7;}.cls-4{fill:#fb0;}.cls-5{fill:#ff4e08;}.cls-6{fill:#606060;}.cls-7{fill:#222627;}.cls-8{stroke-linecap:round;stroke-linejoin:round;stroke-width:2.83px;}.cls-9{stroke-width:4px;}</style></defs><title>DiseñoGrafico</title><rect class="cls-1" x="499.38" y="76.45" width="109.62" height="97.88"/><rect class="cls-2" x="548.99" y="72.45" width="10.36" height="9.25"/><rect class="cls-2" x="548.99" y="169.61" width="10.36" height="9.25"/><rect class="cls-2" x="603.53" y="72.45" width="10.36" height="9.25"/><rect class="cls-2" x="603.53" y="169.61" width="10.36" height="9.25"/><rect class="cls-2" x="494.49" y="72.45" width="10.36" height="9.25"/><rect class="cls-2" x="494.49" y="169.61" width="10.36" height="9.25"/><rect class="cls-3" x="604.21" y="121.03" width="10.36" height="9.25"/><rect class="cls-3" x="494.47" y="121.03" width="10.36" height="9.25"/><polygon points="705 283.34 650.48 266.16 671.69 314.19 680.96 292.41 705 283.34"/><rect class="cls-4" x="54.18" width="220.23" height="52.67"/><rect class="cls-5" y="15.48" width="108.81" height="106.52"/><polygon class="cls-6" points="204.64 177 108.87 62.51 108.81 62.56 108.81 121.99 59.1 121.99 13.08 177 204.64 177"/><polygon class="cls-6" points="108.81 62.56 59.1 121.99 108.81 121.99 108.81 62.56"/><path class="cls-5" d="M135.8,100.73h-2V83.12c0-4.13-3.75-7.48-8.38-7.48s-8.38,3.35-8.38,7.48v17.61h-2L20.23,259.11l5.57,4.32c18.65,14.43,31.79,33.71,37.59,55.13H42.63c-4.63.2-8.21,3.71-8,7.84.21,3.87,3.67,7,8,7.14H66.22a93.3,93.3,0,0,1,.57,10V365.7H184.68V333.59h23.59c4.63-.2,8.21-3.71,8-7.85-.21-3.86-3.67-6.95-8-7.13H187.51c5.8-21.42,18.94-40.69,37.59-55.13l5.57-4.32Z" transform="translate(165.71 93.3)"/><path class="cls-4" d="M247,100.73h-1.88V83.12c0-4.13-3.76-7.48-8.38-7.48s-8.38,3.35-8.38,7.48v17.61h-1.89L131.57,259.11l5.66,4.32c18.66,14.43,31.8,33.71,37.6,55.13H154.07c-4.64.2-8.21,3.71-8,7.84.2,3.87,3.66,7,8,7.14h23.59a95.94,95.94,0,0,1,.56,10V365.7H296.06V333.59h23.59c4.63-.2,8.21-3.71,8-7.85-.21-3.86-3.67-6.95-8-7.13H298.89c5.8-21.42,18.94-40.69,37.59-55.13l5.57-4.32Z" transform="translate(165.71 93.3)"/><path class="cls-7" d="M191.45,100.31h-1.89V82.72c-.22-4.14-4.15-7.33-8.78-7.14-4.33.18-7.79,3.27-8,7.14v17.59H170.9L76.05,258.69,81.6,263c18.65,14.44,31.8,33.72,37.61,55.15H98.45c-4.62,0-8.38,3.35-8.38,7.48s3.76,7.48,8.38,7.48H122a93.59,93.59,0,0,1,.57,10v22.12h16.76V343.18c0-3.37-.19-6.74-.49-10h27.6V365.3h74V333.24h23.5c4.62,0,8.38-3.35,8.38-7.49s-3.76-7.48-8.38-7.48H243.18c5.79-21.43,18.93-40.7,37.59-55.15l5.55-4.29Zm34.48,217.9H136.27c-5.66-24-19.38-45.93-39.33-62.82l75.77-126.61v124c-6.73,4.14-8.43,12.36-3.8,18.37s13.85,7.53,20.58,3.4,8.43-12.37,3.8-18.38a14.41,14.41,0,0,0-3.8-3.39v-124l75.79,126.61c-19.95,16.89-33.68,38.8-39.35,62.82Z" transform="translate(165.71 93.3)"/><path class="cls-8" d="M-96.23,320c0-136,123.57-246.3,275.94-246.28S455.51,184,455.54,320" transform="translate(165.71 93.3)"/><path class="cls-7" d="M-95.34,305.55h0c11.33,0,20.51,8.2,20.52,18.32v.05h0c0,10.11-9.18,18.31-20.51,18.31h0c-11.33,0-20.51-8.2-20.51-18.31h0c0-10.12,9.13-18.34,20.45-18.37Z" transform="translate(165.71 93.3)"/><path class="cls-7" d="M454.43,305.55h0c11.32,0,20.51,8.2,20.51,18.32v.05h0c0,10.11-9.19,18.31-20.51,18.31h0c-11.33,0-20.52-8.2-20.52-18.31h0c0-10.12,9.13-18.34,20.46-18.37Z" transform="translate(165.71 93.3)"/><rect class="cls-9" x="328.48" y="150.85" width="36.67" height="32.74"/></svg>