<svg id="Capa_1" data-name="Capa 1" xmlns="http://www.w3.org/2000/svg" xmlns:xlink="http://www.w3.org/1999/xlink" viewBox="0 0 705 459"><defs><style>.cls-1,.cls-32,.cls-35{fill:#fff;}.cls-2{fill:url(#Degradado_sin_nombre);}.cls-3{fill:url(#Degradado_sin_nombre_2);}.cls-4{fill:#ea9600;}.cls-5{fill:url(#Degradado_sin_nombre_3);}.cls-6{fill:url(#Degradado_sin_nombre_4);}.cls-7{fill:url(#Degradado_sin_nombre_5);}.cls-8{fill:url(#Degradado_sin_nombre_6);}.cls-20,.cls-32,.cls-39,.cls-9{opacity:0.37;}.cls-20,.cls-32,.cls-35,.cls-39,.cls-9{isolation:isolate;}.cls-9{fill:url(#Degradado_sin_nombre_7);}.cls-10{fill:url(#Degradado_sin_nombre_8);}.cls-11{fill:url(#Degradado_sin_nombre_9);}.cls-12{fill:url(#Degradado_sin_nombre_10);}.cls-13{fill:url(#Degradado_sin_nombre_11);}.cls-14{fill:url(#Degradado_sin_nombre_12);}.cls-15{fill:url(#Degradado_sin_nombre_13);}.cls-16{fill:url(#Degradado_sin_nombre_14);}.cls-17{fill:url(#Degradado_sin_nombre_15);}.cls-18{fill:url(#Degradado_sin_nombre_16);}.cls-19{fill:url(#Degradado_sin_nombre_17);}.cls-20{fill:url(#Degradado_sin_nombre_18);}.cls-21{fill:url(#Degradado_sin_nombre_19);}.cls-22{fill:url(#Degradado_sin_nombre_20);}.cls-23{fill:url(#Degradado_sin_nombre_21);}.cls-24{fill:url(#Degradado_sin_nombre_22);}.cls-25{fill:url(#Degradado_sin_nombre_23);}.cls-26{fill:url(#Degradado_sin_nombre_24);}.cls-27{fill:url(#Degradado_sin_nombre_25);}.cls-28{fill:url(#Degradado_sin_nombre_26);}.cls-29{fill:url(#Degradado_sin_nombre_27);}.cls-30{fill:#db8e05;}.cls-31{fill:#f24f18;}.cls-33{fill:#ffbb21;}.cls-34{fill:#606060;}.cls-35{opacity:0.75;}.cls-36{fill:url(#Degradado_sin_nombre_28);}.cls-37{fill:url(#Degradado_sin_nombre_29);}.cls-38{fill:url(#Degradado_sin_nombre_30);}.cls-39{fill:url(#Degradado_sin_nombre_31);}.cls-40{fill:url(#Degradado_sin_nombre_32);}.cls-41{fill:url(#Degradado_sin_nombre_33);}.cls-42{fill:url(#Degradado_sin_nombre_34);}.cls-43{fill:url(#Degradado_sin_nombre_35);}.cls-44{fill:url(#Degradado_sin_nombre_36);}.cls-45{fill:url(#Degradado_sin_nombre_37);}.cls-46{fill:url(#Degradado_sin_nombre_38);}.cls-47{fill:url(#Degradado_sin_nombre_39);}.cls-48{fill:url(#Degradado_sin_nombre_40);}.cls-49{fill:url(#Degradado_sin_nombre_41);}.cls-50{fill:url(#Degradado_sin_nombre_42);}.cls-51{fill:url(#Degradado_sin_nombre_43);}.cls-52{fill:url(#Degradado_sin_nombre_44);}.cls-53{fill:url(#Degradado_sin_nombre_45);}.cls-54{fill:url(#Degradado_sin_nombre_46);}.cls-55{fill:url(#Degradado_sin_nombre_47);}.cls-56{fill:url(#Degradado_sin_nombre_48);}.cls-57{fill:url(#Degradado_sin_nombre_49);}.cls-58{fill:url(#Degradado_sin_nombre_50);}.cls-59{fill:url(#Degradado_sin_nombre_51);}.cls-60{fill:url(#Degradado_sin_nombre_52);}.cls-61{fill:url(#Degradado_sin_nombre_53);}.cls-62{fill:url(#Degradado_sin_nombre_54);}.cls-63{fill:url(#Degradado_sin_nombre_55);}.cls-64{fill:url(#Degradado_sin_nombre_56);}.cls-65{fill:url(#Degradado_sin_nombre_57);}.cls-66{fill:url(#Degradado_sin_nombre_58);}</style><linearGradient id="Degradado_sin_nombre" x1="219.36" y1="300.41" x2="330.64" y2="300.41" gradientTransform="matrix(1, 0, 0, -1, -10.65, 414.49)" gradientUnits="userSpaceOnUse"><stop offset="0" stop-color="#ffbb21"/><stop offset="1" stop-color="#f24f18"/></linearGradient><linearGradient id="Degradado_sin_nombre_2" x1="302.29" y1="375.19" x2="364.21" y2="375.19" gradientTransform="matrix(1, 0, 0, -1, -10.65, 414.49)" gradientUnits="userSpaceOnUse"><stop offset="0" stop-color="#f24f18"/><stop offset="1"/></linearGradient><linearGradient id="Degradado_sin_nombre_3" x1="558.93" y1="322.09" x2="-2.98" y2="-319.69" xlink:href="#Degradado_sin_nombre_2"/><linearGradient id="Degradado_sin_nombre_4" x1="175.69" y1="113.4" x2="578.05" y2="113.4" xlink:href="#Degradado_sin_nombre"/><linearGradient id="Degradado_sin_nombre_5" x1="563.2" y1="54.27" x2="770.72" y2="-90.52" xlink:href="#Degradado_sin_nombre"/><linearGradient id="Degradado_sin_nombre_6" x1="611.83" y1="19.88" x2="630.15" y2="19.88" xlink:href="#Degradado_sin_nombre"/><linearGradient id="Degradado_sin_nombre_7" x1="642.01" y1="22.15" x2="656.92" y2="22.15" xlink:href="#Degradado_sin_nombre"/><linearGradient id="Degradado_sin_nombre_8" x1="646.72" y1="24.81" x2="650.35" y2="24.81" xlink:href="#Degradado_sin_nombre"/><linearGradient id="Degradado_sin_nombre_9" x1="621.46" y1="26.69" x2="599.41" y2="-5.36" xlink:href="#Degradado_sin_nombre"/><linearGradient id="Degradado_sin_nombre_10" x1="622.27" y1="26.13" x2="600.22" y2="-5.92" xlink:href="#Degradado_sin_nombre"/><linearGradient id="Degradado_sin_nombre_11" x1="623.21" y1="25.48" x2="601.16" y2="-6.57" xlink:href="#Degradado_sin_nombre"/><linearGradient id="Degradado_sin_nombre_12" x1="624.86" y1="24.34" x2="602.81" y2="-7.7" xlink:href="#Degradado_sin_nombre"/><linearGradient id="Degradado_sin_nombre_13" x1="625.96" y1="23.59" x2="603.91" y2="-8.46" xlink:href="#Degradado_sin_nombre"/><linearGradient id="Degradado_sin_nombre_14" x1="626.63" y1="23.13" x2="604.57" y2="-8.91" xlink:href="#Degradado_sin_nombre"/><linearGradient id="Degradado_sin_nombre_15" x1="620.32" y1="27.47" x2="598.27" y2="-4.58" xlink:href="#Degradado_sin_nombre"/><linearGradient id="Degradado_sin_nombre_16" x1="651.91" y1="6.29" x2="757.4" y2="-67.47" xlink:href="#Degradado_sin_nombre"/><linearGradient id="Degradado_sin_nombre_17" x1="663.89" y1="-2.4" x2="675.92" y2="-2.4" xlink:href="#Degradado_sin_nombre"/><linearGradient id="Degradado_sin_nombre_18" x1="683.73" y1="-0.91" x2="693.55" y2="-0.91" xlink:href="#Degradado_sin_nombre"/><linearGradient id="Degradado_sin_nombre_19" x1="686.83" y1="0.84" x2="689.22" y2="0.84" xlink:href="#Degradado_sin_nombre"/><linearGradient id="Degradado_sin_nombre_20" x1="667.06" y1="-1.93" x2="667.86" y2="-1.93" xlink:href="#Degradado_sin_nombre"/><linearGradient id="Degradado_sin_nombre_21" x1="667.94" y1="-1.86" x2="668.58" y2="-1.86" xlink:href="#Degradado_sin_nombre"/><linearGradient id="Degradado_sin_nombre_22" x1="668.83" y1="-1.86" x2="669.56" y2="-1.86" xlink:href="#Degradado_sin_nombre"/><linearGradient id="Degradado_sin_nombre_23" x1="670.24" y1="-1.91" x2="671.29" y2="-1.91" xlink:href="#Degradado_sin_nombre"/><linearGradient id="Degradado_sin_nombre_24" x1="671.59" y1="-1.91" x2="672.05" y2="-1.91" xlink:href="#Degradado_sin_nombre"/><linearGradient id="Degradado_sin_nombre_25" x1="672.12" y1="-1.9" x2="672.85" y2="-1.9" xlink:href="#Degradado_sin_nombre"/><linearGradient id="Degradado_sin_nombre_26" x1="665.66" y1="-2.08" x2="666.87" y2="-2.08" xlink:href="#Degradado_sin_nombre"/><linearGradient id="Degradado_sin_nombre_27" x1="393.33" y1="119.1" x2="539.2" y2="119.1" gradientTransform="matrix(1, 0, 0, -1, -10.65, 414.49)" gradientUnits="userSpaceOnUse"><stop offset="0" stop-color="#cb236d"/><stop offset="1" stop-color="#4c246d"/></linearGradient><linearGradient id="Degradado_sin_nombre_28" x1="353.16" y1="306.6" x2="372.9" y2="306.6" gradientTransform="matrix(1, 0, 0, -1, -11.65, 413.64)" xlink:href="#Degradado_sin_nombre"/><linearGradient id="Degradado_sin_nombre_29" x1="262.4" y1="119.67" x2="388.27" y2="119.67" xlink:href="#Degradado_sin_nombre_27"/><linearGradient id="Degradado_sin_nombre_30" x1="416.54" y1="216.89" x2="650.41" y2="216.89" xlink:href="#Degradado_sin_nombre_2"/><linearGradient id="Degradado_sin_nombre_31" x1="95.89" y1="-41.87" x2="120.67" y2="-41.87" gradientTransform="matrix(1, 0, 0, -1, -10.65, 414.49)" gradientUnits="userSpaceOnUse"><stop offset="0"/><stop offset="1" stop-color="#fff" stop-opacity="0.37"/></linearGradient><linearGradient id="Degradado_sin_nombre_32" x1="52.36" y1="-42.7" x2="63.63" y2="-42.7" gradientTransform="matrix(1, 0, 0, -1, -10.65, 414.49)" gradientUnits="userSpaceOnUse"><stop offset="0" stop-color="#535353" stop-opacity="0.37"/><stop offset="1"/></linearGradient><linearGradient id="Degradado_sin_nombre_33" x1="651.54" y1="-28.54" x2="659.03" y2="-28.54" gradientTransform="matrix(1, 0, 0, -1, -603.2, 414.49)" gradientUnits="userSpaceOnUse"><stop offset="0" stop-color="#f9b776"/><stop offset="1" stop-color="#f47960"/></linearGradient><linearGradient id="Degradado_sin_nombre_34" x1="691.22" y1="-28.04" x2="697.45" y2="-28.04" xlink:href="#Degradado_sin_nombre_33"/><linearGradient id="Degradado_sin_nombre_35" x1="706.73" y1="67.85" x2="681.19" y2="34.84" gradientTransform="matrix(1, 0, 0, -1, -603.2, 414.49)" gradientUnits="userSpaceOnUse"><stop offset="0" stop-color="#2b3582"/><stop offset="1" stop-color="#150e42"/></linearGradient><linearGradient id="Degradado_sin_nombre_36" x1="709.83" y1="127.05" x2="712.91" y2="146" xlink:href="#Degradado_sin_nombre_33"/><linearGradient id="Degradado_sin_nombre_37" x1="719.77" y1="157.77" x2="699.9" y2="142.55" xlink:href="#Degradado_sin_nombre_33"/><linearGradient id="Degradado_sin_nombre_38" x1="705.83" y1="169.79" x2="723.83" y2="146.62" xlink:href="#Degradado_sin_nombre_35"/><linearGradient id="Degradado_sin_nombre_39" x1="717.3" y1="161.01" x2="697.41" y2="145.78" xlink:href="#Degradado_sin_nombre_33"/><linearGradient id="Degradado_sin_nombre_40" x1="67.12" y1="85.98" x2="78.16" y2="85.98" gradientTransform="matrix(1, 0, 0, -1, -10.65, 414.49)" xlink:href="#Degradado_sin_nombre_33"/><linearGradient id="Degradado_sin_nombre_41" x1="5520.99" y1="87.58" x2="5545.81" y2="21.81" gradientTransform="translate(5674.24 414.49) rotate(180)" xlink:href="#Degradado_sin_nombre_33"/><linearGradient id="Degradado_sin_nombre_42" x1="5598.86" y1="84.1" x2="5627.1" y2="43.31" gradientTransform="translate(5674.24 414.49) rotate(180)" xlink:href="#Degradado_sin_nombre_33"/><linearGradient id="Degradado_sin_nombre_43" x1="633.41" y1="234.96" x2="645.33" y2="205.06" gradientTransform="matrix(1, 0, 0, -1, -10.65, 414.49)" xlink:href="#Degradado_sin_nombre_35"/><linearGradient id="Degradado_sin_nombre_44" x1="608.8" y1="217.69" x2="630.83" y2="167.58" gradientTransform="matrix(1, 0, 0, -1, -10.65, 414.49)" xlink:href="#Degradado_sin_nombre_33"/><linearGradient id="Degradado_sin_nombre_45" x1="634.28" y1="3.68" x2="648.83" y2="173.68" gradientTransform="matrix(1, 0, 0, -1, -10.65, 414.49)" xlink:href="#Degradado_sin_nombre_33"/><linearGradient id="Degradado_sin_nombre_46" x1="663.56" y1="1.15" x2="678.11" y2="171.19" gradientTransform="matrix(1, 0, 0, -1, -10.65, 414.49)" xlink:href="#Degradado_sin_nombre_33"/><linearGradient id="Degradado_sin_nombre_47" x1="634.63" y1="175.11" x2="641.91" y2="107.64" gradientTransform="matrix(1, 0, 0, -1, -10.65, 414.49)" gradientUnits="userSpaceOnUse"><stop offset="0" stop-color="#fdf53f"/><stop offset="1" stop-color="#d93c65"/></linearGradient><linearGradient id="Degradado_sin_nombre_48" x1="632.68" y1="171.24" x2="635.41" y2="191.23" gradientTransform="matrix(1, 0, 0, -1, -10.65, 414.49)" xlink:href="#Degradado_sin_nombre_33"/><linearGradient id="Degradado_sin_nombre_49" x1="643.94" y1="161.51" x2="662.11" y2="161.51" gradientTransform="matrix(1, 0, 0, -1, -10.65, 414.49)" xlink:href="#Degradado_sin_nombre_33"/><linearGradient id="Degradado_sin_nombre_50" x1="625.78" y1="197.02" x2="649.62" y2="239.45" gradientTransform="matrix(1, 0, 0, -1, -10.65, 414.49)" xlink:href="#Degradado_sin_nombre_33"/><linearGradient id="Degradado_sin_nombre_51" x1="630.91" y1="233.97" x2="642.83" y2="204.07" gradientTransform="matrix(1, 0, 0, -1, -10.65, 414.49)" xlink:href="#Degradado_sin_nombre_35"/><linearGradient id="Degradado_sin_nombre_52" x1="630.85" y1="194.16" x2="654.7" y2="236.6" gradientTransform="matrix(1, 0, 0, -1, -10.65, 414.49)" xlink:href="#Degradado_sin_nombre_33"/><linearGradient id="Degradado_sin_nombre_53" x1="604.36" y1="215.74" x2="626.38" y2="165.63" gradientTransform="matrix(1, 0, 0, -1, -10.65, 414.49)" xlink:href="#Degradado_sin_nombre_33"/><linearGradient id="Degradado_sin_nombre_54" x1="594.27" y1="234.1" x2="598.83" y2="234.1" gradientTransform="matrix(1, 0, 0, -1, -10.65, 414.49)" xlink:href="#Degradado_sin_nombre_33"/><linearGradient id="Degradado_sin_nombre_55" x1="11379.49" y1="4535.89" x2="11306.3" y2="4580.24" gradientTransform="matrix(1, 0.07, 0.25, -0.89, -11901.49, 3366.31)" xlink:href="#Degradado_sin_nombre_2"/><linearGradient id="Degradado_sin_nombre_56" x1="11326.58" y1="4559.24" x2="11242.85" y2="4647.78" gradientTransform="matrix(1, 0.07, 0.25, -0.89, -11900.5, 3367.15)" xlink:href="#Degradado_sin_nombre_2"/><linearGradient id="Degradado_sin_nombre_57" x1="11374.26" y1="4536.81" x2="11305.89" y2="4578.24" gradientTransform="matrix(1, 0.07, 0.25, -0.89, -11901.49, 3366.31)" xlink:href="#Degradado_sin_nombre_2"/><linearGradient id="Degradado_sin_nombre_58" x1="-14667.81" y1="4088.04" x2="-14636.56" y2="4097.09" gradientTransform="translate(-14388.06 3155.66) rotate(-176)" xlink:href="#Degradado_sin_nombre_2"/></defs><title>Diseñoweb</title><path class="cls-1" d="M203,152.76a.68.68,0,0,1-.59-.34c-.48-.79-.95-1.59-1.4-2.4a.69.69,0,0,1,.26-.94.71.71,0,0,1,.95.27c.43.79.89,1.59,1.37,2.35a.69.69,0,0,1-.18,1l0,0A.72.72,0,0,1,203,152.76Z" transform="translate(-0.99 -0.85)"/><path class="cls-1" d="M197.69,142.11a.72.72,0,0,1-.64-.44c-.7-1.74-1.34-3.54-1.9-5.34a.7.7,0,0,1,.45-.87.69.69,0,0,1,.86.46c.56,1.76,1.18,3.53,1.87,5.24a.7.7,0,0,1-.38.9h0A.75.75,0,0,1,197.69,142.11Zm-4.05-14.17a.7.7,0,0,1-.68-.57c-.33-1.85-.6-3.75-.79-5.62a.69.69,0,0,1,.63-.75.69.69,0,0,1,.75.62c.18,1.83.44,3.69.77,5.51a.67.67,0,0,1-.54.79h-.14Zm-1.1-14.69h0a.68.68,0,0,1-.67-.7h0c.06-1.89.18-3.8.38-5.66a.67.67,0,0,1,.72-.61h0a.69.69,0,0,1,.61.76c-.2,1.82-.32,3.7-.37,5.55a.69.69,0,0,1-.71.67Zm1.93-14.61h-.16a.7.7,0,0,1-.51-.84c.44-1.82,1-3.66,1.54-5.46a.68.68,0,0,1,.87-.44.69.69,0,0,1,.44.87c-.58,1.75-1.08,3.56-1.5,5.35a.7.7,0,0,1-.68.52Zm4.88-13.9a.68.68,0,0,1-.62-1v0c.79-1.7,1.68-3.4,2.61-5a.69.69,0,0,1,.94-.26.68.68,0,0,1,.26.92v0c-.92,1.6-1.78,3.27-2.57,5a.68.68,0,0,1-.63.3ZM207,72.13a.71.71,0,0,1-.58-1.1l0,0c1.14-1.51,2.35-3,3.59-4.4a.71.71,0,0,1,.95-.24.7.7,0,0,1,.24.94.76.76,0,0,1-.19.21c-1.22,1.38-2.4,2.84-3.51,4.31a.7.7,0,0,1-.53.31Zm10-10.81a.68.68,0,0,1-.51-.23.69.69,0,0,1,.05-1l0,0c1.41-1.24,2.9-2.45,4.39-3.57a.7.7,0,0,1,1,.11l0,0a.67.67,0,0,1-.1,1l0,0c-1.47,1.11-2.92,2.28-4.32,3.51a.65.65,0,0,1-.45.16Zm12-8.53a.7.7,0,0,1-.68-.72.73.73,0,0,1,.34-.58c1.64-.92,3.34-1.8,5.05-2.59a.69.69,0,0,1,.91.31v0a.69.69,0,0,1-.34.92h0q-2.52,1.17-5,2.55a.85.85,0,0,1-.22.09Zm13.5-5.9a.68.68,0,0,1-.69-.68.69.69,0,0,1,.48-.67c1.8-.56,3.64-1.08,5.48-1.51a.69.69,0,0,1,.83.52.7.7,0,0,1-.52.83c-1.8.41-3.6.91-5.37,1.48l-.13,0Zm34.75-2.29H277c-1.83-.33-3.68-.6-5.52-.78a.69.69,0,0,1-.62-.75h0a.69.69,0,0,1,.76-.61c1.88.19,3.76.45,5.62.79a.69.69,0,0,1,.56.8h0a.71.71,0,0,1-.6.56Zm-20.33-.74a.69.69,0,1,1-.07-1.37c1.89-.2,3.79-.33,5.67-.38h0a.69.69,0,0,1,0,1.37,54.63,54.63,0,0,0-5.56.37Z" transform="translate(-0.99 -0.85)"/><path class="cls-1" d="M288.74,47.69a1,1,0,0,1-.24,0c-.84-.31-1.71-.6-2.58-.88a.69.69,0,1,1,.32-1.34l.1,0c.88.27,1.76.57,2.63.88a.67.67,0,0,1-.23,1.3Z" transform="translate(-0.99 -0.85)"/><path class="cls-1" d="M330,85.73a.69.69,0,0,1-.63-.4c-.37-.82-.76-1.65-1.17-2.47a.69.69,0,0,1,.31-.92.7.7,0,0,1,.93.31c.41.82.81,1.67,1.18,2.51a.69.69,0,0,1-.33.91A.75.75,0,0,1,330,85.73Z" transform="translate(-0.99 -0.85)"/><path class="cls-1" d="M264.35,187.19H262.6a.69.69,0,0,1-.69-.69.68.68,0,0,1,.69-.68h0c1.81,0,3.67,0,5.48-.08a.68.68,0,0,1,.72.65h0a.68.68,0,0,1-.64.72h0C266.91,187.16,265.6,187.19,264.35,187.19Zm-10.69-.8h-.11c-1.83-.28-3.68-.63-5.48-1a.69.69,0,0,1-.53-.81v0a.69.69,0,0,1,.83-.51c1.76.41,3.58.76,5.38,1a.69.69,0,0,1,.64.74.69.69,0,0,1-.74.63Zm23.42-.33a.69.69,0,0,1-.66-.73.7.7,0,0,1,.54-.64c.36-.06.74-.13,1.11-.21,1.42-.27,2.84-.6,4.24-1a.69.69,0,1,1,.34,1.34h0c-1.42.37-2.86.7-4.31,1l-1.15.21Zm14-4a.67.67,0,0,1-.64-.44.68.68,0,0,1,.38-.9h0c1.69-.66,3.38-1.41,5-2.21a.7.7,0,0,1,.93.31.71.71,0,0,1-.32.93c-1.66.81-3.39,1.57-5.11,2.26a1,1,0,0,1-.23.07Zm12.86-6.69a.71.71,0,0,1-.58-.31.69.69,0,0,1,.15-1l0,0c1.53-1,3-2.07,4.46-3.18a.68.68,0,0,1,1,.08l0,0a.69.69,0,0,1-.09,1l0,0c-1.47,1.14-3,2.24-4.55,3.25a.71.71,0,0,1-.42.14Zm11.25-9.14a.7.7,0,0,1-.49-.2.68.68,0,0,1,0-1l0,0c1.29-1.28,2.54-2.63,3.74-4a.68.68,0,0,1,1-.11l0,0a.71.71,0,0,1,.08,1h0c-1.21,1.4-2.5,2.78-3.8,4.08a.67.67,0,0,1-.53.19ZM324.34,155a.6.6,0,0,1-.38-.11.68.68,0,0,1-.23-.94l0-.05c1-1.52,2-3.09,2.87-4.68a.67.67,0,0,1,.91-.28h0a.7.7,0,0,1,.27.94c-.91,1.62-1.88,3.22-2.91,4.76a.7.7,0,0,1-.59.37Zm6.77-12.81a1.13,1.13,0,0,1-.26,0,.72.72,0,0,1-.38-.9c.68-1.69,1.31-3.43,1.86-5.15a.68.68,0,0,1,.86-.45h0a.67.67,0,0,1,.45.84v0c-.56,1.76-1.2,3.52-1.9,5.25a.68.68,0,0,1-.65.4Zm4.06-13.95h-.12a.7.7,0,0,1-.56-.8h0c.33-1.78.6-3.61.79-5.42a.68.68,0,0,1,.74-.61h0a.69.69,0,0,1,.61.76c-.19,1.83-.46,3.69-.8,5.52a.69.69,0,0,1-.69.61Zm1.17-14.45a.7.7,0,0,1-.69-.68c0-1.81-.15-3.65-.33-5.47a.68.68,0,0,1,.6-.75h0a.7.7,0,0,1,.76.62c.18,1.84.29,3.73.33,5.57a.69.69,0,0,1-.67.71h0Zm-1.77-14.39a.69.69,0,0,1-.67-.54c-.4-1.79-.87-3.56-1.41-5.29a.69.69,0,1,1,1.32-.41c.54,1.76,1,3.58,1.43,5.39a.69.69,0,0,1-.51.83h0Z" transform="translate(-0.99 -0.85)"/><path class="cls-1" d="M239.57,182.77a1,1,0,0,1-.24-.05c-.88-.32-1.74-.66-2.59-1a.69.69,0,0,1-.37-.9h0a.68.68,0,0,1,.88-.37h0c.83.34,1.68.68,2.54,1a.69.69,0,0,1,.41.88A.71.71,0,0,1,239.57,182.77Z" transform="translate(-0.99 -0.85)"/><path class="cls-2" d="M237.1,162.61a.87.87,0,0,0,1,0l8.58-6.05A46,46,0,0,0,261.11,160l5,9.24a.84.84,0,0,0,.89.44l12.44-2a.88.88,0,0,0,.71-.71l1.79-10.33a45.67,45.67,0,0,0,12.59-7.85l10.06,3a.84.84,0,0,0,1-.31l7.36-10.22a.84.84,0,0,0,0-1l-6.05-8.58a45.61,45.61,0,0,0,3.41-14.42l9.25-5a.85.85,0,0,0,.44-.89l-2-12.43a.86.86,0,0,0-.71-.72l-10.34-1.78a45.7,45.7,0,0,0-7.8-12.6l3-10a.89.89,0,0,0-.31-1l-10.3-7.28a.86.86,0,0,0-1,0l-8.59,6a45.79,45.79,0,0,0-14.35-3.4l-5-9.24a.86.86,0,0,0-.9-.45l-12.44,2a.86.86,0,0,0-.7.71l-1.8,10.33a45.7,45.7,0,0,0-12.6,7.8l-10.06-3a.85.85,0,0,0-1,.32l-7.38,10.2a.87.87,0,0,0,0,1l6,8.57a45.73,45.73,0,0,0-3.39,14.48l-9.24,5a.87.87,0,0,0-.44.9l2,12.42a.86.86,0,0,0,.71.72l10.34,1.78a45.7,45.7,0,0,0,7.8,12.6l-3,10.06a.86.86,0,0,0,.33,1Z" transform="translate(-0.99 -0.85)"/><path class="cls-1" d="M264.33,126.29a12.21,12.21,0,1,1,4.85-1A12.06,12.06,0,0,1,264.33,126.29Zm0-22.36a10.17,10.17,0,1,0,9.33,6.12,10.14,10.14,0,0,0-9.33-6.12Z" transform="translate(-0.99 -0.85)"/><path class="cls-1" d="M264.42,145.27h-1.57l.11-2.07a29.68,29.68,0,0,0,6.24-.34h0A29.33,29.33,0,1,0,242,132.81l-1.58,1.33a31.45,31.45,0,1,1,29.08,10.77h-.26A32.88,32.88,0,0,1,264.42,145.27Z" transform="translate(-0.99 -0.85)"/><path class="cls-3" d="M310.11,67.59l4.53-3.76a26,26,0,0,0,8.21,1.27l3.18,5a.49.49,0,0,0,.53.2l6.85-1.68a.49.49,0,0,0,.37-.42l.53-5.85a25.76,25.76,0,0,0,6.7-4.92l5.75,1.25a.52.52,0,0,0,.52-.22l3.66-6a.48.48,0,0,0,0-.56l-3.77-4.52a25.31,25.31,0,0,0,1.19-8.24l5-3.18a.48.48,0,0,0,.21-.53l-1.69-6.85a.47.47,0,0,0-.41-.36l-5.87-.54a25.81,25.81,0,0,0-4.9-6.69l1.23-5.75a.48.48,0,0,0-.22-.52l-6-3.65a.48.48,0,0,0-.56,0l-4.53,3.76a25.36,25.36,0,0,0-8.2-1.26l-3.19-5a.51.51,0,0,0-.52-.21L311.81,10a.46.46,0,0,0-.36.42l-.54,5.86a25.66,25.66,0,0,0-6.71,4.94L298.45,20a.47.47,0,0,0-.51.22l-3.66,6a.45.45,0,0,0,0,.56L298,31.26a25.43,25.43,0,0,0-1.27,8.21l-5,3.19a.47.47,0,0,0-.2.51l1.76,6.95a.48.48,0,0,0,.43.36l5.85.54a25.88,25.88,0,0,0,4.92,6.69l-1.25,5.75a.49.49,0,0,0,.22.51l6,3.66A.48.48,0,0,0,310.11,67.59Z" transform="translate(-0.99 -0.85)"/><path class="cls-1" d="M322.62,46.62a7.32,7.32,0,1,1,3.41-.86h0A7.13,7.13,0,0,1,322.62,46.62Zm0-12.54a5.33,5.33,0,0,0-2.45.62,5.23,5.23,0,1,0,4-.38,5.13,5.13,0,0,0-1.56-.24Z" transform="translate(-0.99 -0.85)"/><path class="cls-1" d="M297.4,68.22a.69.69,0,0,1-.46-.17c-.7-.62-1.38-1.28-2-2a.69.69,0,0,1,0-1l0,0a.69.69,0,0,1,1,0l0,0c.63.63,1.29,1.27,2,1.87a.69.69,0,0,1,0,1,.08.08,0,0,0,0,0A.65.65,0,0,1,297.4,68.22Z" transform="translate(-0.99 -0.85)"/><path class="cls-1" d="M289.65,58.59a.71.71,0,0,1-.6-.35c-.17-.29-.33-.59-.49-.89a38.26,38.26,0,0,1-2-4.59.69.69,0,0,1,1.25-.57l0,.09a38.18,38.18,0,0,0,2,4.43l.47.85a.7.7,0,0,1-.31.93.73.73,0,0,1-.29.07ZM285,43.84a.68.68,0,0,1-.68-.62,38.58,38.58,0,0,1-.2-3.87c0-.72,0-1.45.06-2.18a.67.67,0,0,1,.72-.64.68.68,0,0,1,.65.72h0c0,.7-.06,1.41-.06,2.1,0,1.24.07,2.5.19,3.73a.67.67,0,0,1-.58.75H285Zm1.59-15.4h-.22a.68.68,0,0,1-.44-.86A38.77,38.77,0,0,1,288.16,22a.7.7,0,0,1,.93-.31.69.69,0,0,1,.31.92,36.22,36.22,0,0,0-2.21,5.4A.67.67,0,0,1,286.54,28.44ZM294.18,15a.71.71,0,0,1-.46-.17.7.7,0,0,1-.07-1h0A38.44,38.44,0,0,1,298,9.61a.68.68,0,0,1,1,.07l0,0a.67.67,0,0,1-.06,1l0,0a36.27,36.27,0,0,0-4.18,4,.68.68,0,0,1-.51.23Zm12.41-9.27a.69.69,0,0,1-.3-1.3A37.27,37.27,0,0,1,312,2.29a.68.68,0,0,1,.85.47.69.69,0,0,1-.47.85,37.71,37.71,0,0,0-5.46,2,.72.72,0,0,1-.29.06Z" transform="translate(-0.99 -0.85)"/><path class="cls-1" d="M324.5,2.23h0c-.9,0-1.8-.06-2.71,0h0a.69.69,0,1,1,0-1.38h2.81a.67.67,0,0,1,.65.71h0a.7.7,0,0,1-.72.66Z" transform="translate(-0.99 -0.85)"/><path class="cls-1" d="M351.92,16.09a.66.66,0,0,1-.52-.26,26.35,26.35,0,0,0-1.79-2,.69.69,0,0,1,0-1,.68.68,0,0,1,1,0l0,0c.65.69,1.27,1.39,1.85,2.11a.69.69,0,0,1-.06,1l0,0A.67.67,0,0,1,351.92,16.09Z" transform="translate(-0.99 -0.85)"/><path class="cls-1" d="M331.16,76.85a.69.69,0,0,1-.67-.71.68.68,0,0,1,.52-.65,38.61,38.61,0,0,0,5.47-1.73A.69.69,0,1,1,337,75h0a37.85,37.85,0,0,1-5.68,1.8ZM345,70.48a.73.73,0,0,1-.55-.28.7.7,0,0,1,.12-1l0,0A37.52,37.52,0,0,0,349,65.48a.7.7,0,0,1,1,0,.69.69,0,0,1,0,1h0a37.83,37.83,0,0,1-4.51,3.88A.71.71,0,0,1,345,70.48Zm10.22-11.3a.68.68,0,0,1-.35-.09.7.7,0,0,1-.28-1l0,0A36.45,36.45,0,0,0,357.14,53a.69.69,0,0,1,.9-.39.7.7,0,0,1,.39.9h0a40.44,40.44,0,0,1-2.61,5.33A.69.69,0,0,1,355.23,59.18Zm4.92-14.41h-.09a.7.7,0,0,1-.6-.78,37.12,37.12,0,0,0,.3-4.71v-1a.69.69,0,0,1,.67-.71h0a.69.69,0,0,1,.69.67v1a37.47,37.47,0,0,1-.29,4.85A.69.69,0,0,1,360.15,44.77ZM359,29.59a.68.68,0,0,1-.66-.51,36.75,36.75,0,0,0-2-5.36.69.69,0,0,1,.34-.92.7.7,0,0,1,.92.34,38.32,38.32,0,0,1,2.07,5.56.69.69,0,0,1-.46.86h0A.64.64,0,0,1,359,29.59Z" transform="translate(-0.99 -0.85)"/><path class="cls-1" d="M321.71,77.81h0c-.92,0-1.87-.08-2.8-.17a.68.68,0,0,1-.62-.74.71.71,0,0,1,.76-.63c.89.09,1.8.15,2.7.17a.69.69,0,1,1,0,1.37Z" transform="translate(-0.99 -0.85)"/><path class="cls-1" d="M323.16,57.23l-.05-2.06a16.08,16.08,0,0,0,3.37-.46h0a16,16,0,0,0,12-18.06c-.06-.43-.15-.85-.25-1.27a16,16,0,1,0-26.9,15l-1.47,1.45a18.07,18.07,0,0,1,8.54-30.23h0A18.06,18.06,0,1,1,327,56.73h-.1a18,18,0,0,1-3.5.48h-.21Z" transform="translate(-0.99 -0.85)"/><path class="cls-4" d="M167.87,195.28l-1.39-119a10.83,10.83,0,0,1,10.71-11,10.23,10.23,0,0,1,1.75.12l32.31,4.89a10.82,10.82,0,0,1,9.22,10.72V189.54Z" transform="translate(-0.99 -0.85)"/><path d="M584.19,429.14a8,8,0,0,1-8,8H144.78a8,8,0,0,1-8-8l-3.59-247.78c0-4.37,5.17-13,14.63-12.29l421.65-10.9a20.1,20.1,0,0,1,20.63,19.55c0,.33,0,.67,0,1Z" transform="translate(-0.99 -0.85)"/><path class="cls-5" d="M576.32,421.49a7.58,7.58,0,0,1-7.55,7.55H155.18a7.59,7.59,0,0,1-7.55-7.55l-3.38-224.88c.4-13.54,12.27-18.41,19.46-18.12l404.12-10.83a14.11,14.11,0,0,1,14.49,13.74c0,.24,0,.47,0,.71Z" transform="translate(-0.99 -0.85)"/><path class="cls-1" d="M152.11,314.2a.68.68,0,0,1-.69-.67h0l-.27-18.26a.68.68,0,0,1,.68-.69h0a.69.69,0,0,1,.69.67l.27,18.25a.7.7,0,0,1-.68.7Z" transform="translate(-0.99 -0.85)"/><path class="cls-1" d="M151.45,269.51a.67.67,0,0,1-.69-.66h0l-1-69.87c0-4.68,1.47-8.43,4.3-11.14,5.15-4.93,13.19-4.69,13.53-4.68l129-3.48h0a.68.68,0,0,1,.69.68.69.69,0,0,1-.69.69l-129.09,3.47c-.36,0-7.84-.25-12.57,4.29-2.55,2.44-3.86,5.84-3.88,10.14l1,69.85a.68.68,0,0,1-.68.69h0Z" transform="translate(-0.99 -0.85)"/><path class="cls-6" d="M165.88,409c.43-18.6.27-183.22-.8-197.43s21.09-16.9,55.11-18.49,321.09-8,328.44-8.54c16.61-1.35,20,23.47,18.39,77.34-1.27,40.47-3.34,107.11-4.26,137.8a16.94,16.94,0,0,1-17,16.39c-69.07.19-333.8,1-351.42,1.48C174.14,418.16,165.69,416.38,165.88,409Z" transform="translate(-0.99 -0.85)"/><path d="M121.43,435.9H608.3a10.88,10.88,0,0,1,10.89,10.88h0a10.89,10.89,0,0,1-10.89,10.89H121.43a10.9,10.9,0,0,1-10.89-10.89h0A10.89,10.89,0,0,1,121.43,435.9Z" transform="translate(-0.99 -0.85)"/><path class="cls-7" d="M592.53,451.27v-66.6a9.12,9.12,0,0,1,9-9.11c15-.16,45.87-.17,71.16,2a6.82,6.82,0,0,1,6.25,6.56l2.37,65.35a8.69,8.69,0,0,1-8.41,9h-.12l-71.55,1.36a8.54,8.54,0,0,1-8.67-8.41Z" transform="translate(-0.99 -0.85)"/><path class="cls-8" d="M601.21,388.78c-.07,3.23,0,8.35.11,11.67a2.93,2.93,0,0,0,3,2.85l.27,0,12.34-1.45a2.92,2.92,0,0,0,2.56-3.25s0-.06,0-.09L618,388.41a2.92,2.92,0,0,0-2.89-2.49h-11A2.91,2.91,0,0,0,601.21,388.78Z" transform="translate(-0.99 -0.85)"/><path class="cls-9" d="M633.42,407.87,643.7,409a2.33,2.33,0,0,0,2.56-2.07,2.84,2.84,0,0,0,0-.41L644,376c-4.31-.14-8.56-.24-12.66-.31v29.9A2.29,2.29,0,0,0,633.42,407.87Z" transform="translate(-0.99 -0.85)"/><path class="cls-10" d="M637.64,402.6a1,1,0,0,0,1,1h.06a1,1,0,0,0,1-1,.28.28,0,0,0,0-.09l-1.55-26.69-2.08-.05Z" transform="translate(-0.99 -0.85)"/><path class="cls-11" d="M606.91,398.4a.34.34,0,0,1-.34-.32l-.54-8.41a.33.33,0,0,1,.32-.35h0a.33.33,0,0,1,.36.29v0l.54,8.4a.35.35,0,0,1-.33.37h0Z" transform="translate(-0.99 -0.85)"/><path class="cls-12" d="M608,398.4a.34.34,0,0,1-.34-.33l-.28-8.57a.36.36,0,0,1,.41-.28.34.34,0,0,1,.28.28l.28,8.56a.34.34,0,0,1-.32.36h0Z" transform="translate(-0.99 -0.85)"/><path class="cls-13" d="M609.48,398.4a.34.34,0,0,1-.35-.33c-.06-1.4-.4-8.44-.4-8.58a.35.35,0,0,1,.35-.33.34.34,0,0,1,.34.33h0c0,.19.27,5.67.4,8.55a.34.34,0,0,1-.32.36h0Zm-.06-8.91Z" transform="translate(-0.99 -0.85)"/><path class="cls-14" d="M611.77,398.75a.7.7,0,0,1-.69-.67c-.28-8.3-.23-8.48-.2-8.61a.7.7,0,0,1,.85-.48.68.68,0,0,1,.5.75c0,.51.13,5.34.24,8.29a.71.71,0,0,1-.67.72Z" transform="translate(-0.99 -0.85)"/><path class="cls-15" d="M613.27,398.4a.34.34,0,0,1-.34-.34h0v-8.41a.34.34,0,0,1,.34-.33h0a.35.35,0,0,1,.35.33v8.41A.35.35,0,0,1,613.27,398.4Z" transform="translate(-0.99 -0.85)"/><path class="cls-16" d="M614.47,398.4a.34.34,0,0,1-.33-.34h0c-.07-2.92-.22-7.68-.36-8.26a.33.33,0,0,1,0-.36.35.35,0,0,1,.48-.09c.18.12.36.23.55,8.7a.35.35,0,0,1-.34.35Z" transform="translate(-0.99 -0.85)"/><path class="cls-17" d="M605.05,399.17a.69.69,0,0,1-.69-.66l-.46-8.82a.68.68,0,0,1,.65-.72h0a.7.7,0,0,1,.72.65l.46,8.82a.69.69,0,0,1-.65.73h0Z" transform="translate(-0.99 -0.85)"/><path class="cls-18" d="M647.52,454.19V410.34a6,6,0,0,1,5.92-6c9.87-.11,30.2-.11,46.87,1.29a4.52,4.52,0,0,1,4.12,4.32L706,453a5.74,5.74,0,0,1-5.48,6h-.14l-47.09.89a5.62,5.62,0,0,1-5.76-5.47Z" transform="translate(-0.99 -0.85)"/><path class="cls-19" d="M653.24,413.05c0,2.13,0,5.5.07,7.69a1.91,1.91,0,0,0,2,1.87h.18l8.11-1a1.93,1.93,0,0,0,1.69-2.15v-.05l-1-6.64a1.91,1.91,0,0,0-1.9-1.64h-7.19A1.92,1.92,0,0,0,653.24,413.05Z" transform="translate(-0.99 -0.85)"/><path class="cls-20" d="M674.45,425.64l6.77.73A1.53,1.53,0,0,0,682.9,425a1.22,1.22,0,0,0,0-.27l-1.47-20.12c-2.85-.09-5.65-.16-8.34-.2v19.7A1.53,1.53,0,0,0,674.45,425.64Z" transform="translate(-0.99 -0.85)"/><path class="cls-21" d="M677.21,422.15a.69.69,0,0,0,.68.64h0a.67.67,0,0,0,.64-.71h0l-1-17.56h-1.37Z" transform="translate(-0.99 -0.85)"/><path class="cls-22" d="M657,419.39a.23.23,0,0,1-.23-.21l-.35-5.53a.23.23,0,0,1,.23-.23.23.23,0,0,1,.23.23l.34,5.53a.21.21,0,0,1-.19.24h0Z" transform="translate(-0.99 -0.85)"/><path class="cls-23" d="M657.71,419.39a.22.22,0,0,1-.23-.21h0l-.19-5.63a.25.25,0,0,1,.22-.24.22.22,0,0,1,.24.2v0l.18,5.64a.22.22,0,0,1-.21.23Z" transform="translate(-0.99 -0.85)"/><path class="cls-24" d="M658.68,419.39a.23.23,0,0,1-.23-.21c0-.93-.27-5.56-.27-5.65a.23.23,0,0,1,.46,0c0,.12.17,3.73.26,5.62a.22.22,0,0,1-.2.24h0Z" transform="translate(-0.99 -0.85)"/><path class="cls-25" d="M660.19,419.62a.45.45,0,0,1-.45-.44c-.19-5.46-.16-5.58-.14-5.66a.44.44,0,0,1,.54-.32h0a.45.45,0,0,1,.33.5c0,.33.08,3.5.15,5.45a.45.45,0,0,1-.43.47Z" transform="translate(-0.99 -0.85)"/><path class="cls-26" d="M661.17,419.39a.24.24,0,0,1-.23-.22v-5.53a.23.23,0,0,1,.23-.23.23.23,0,0,1,.23.23v5.53a.22.22,0,0,1-.22.22Z" transform="translate(-0.99 -0.85)"/><path class="cls-27" d="M662,419.39a.22.22,0,0,1-.23-.21h0c0-1.92-.15-5.06-.24-5.44a.24.24,0,0,1,0-.23.23.23,0,0,1,.32-.07h0c.12.08.24.16.37,5.73a.23.23,0,0,1-.23.23Z" transform="translate(-0.99 -0.85)"/><path class="cls-28" d="M655.77,419.9a.47.47,0,0,1-.46-.43l-.3-5.81a.46.46,0,0,1,.5-.42.47.47,0,0,1,.41.37l.3,5.81a.46.46,0,0,1-.43.48Z" transform="translate(-0.99 -0.85)"/><path class="cls-29" d="M527.17,321.17a1.41,1.41,0,0,1-.45-.07L383.61,272.27a1.37,1.37,0,0,1-.86-1.75,1.39,1.39,0,0,1,1.75-.85h0L527.61,318.5a1.38,1.38,0,0,1,.87,1.74,1.34,1.34,0,0,1-1.31.94Z" transform="translate(-0.99 -0.85)"/><path class="cls-30" d="M369.31,112.49c-1.93-7.38-7.26-19.37-21.67-21.16-19.17-2.38-167.84-3.81-194.56-4a4.77,4.77,0,0,0-4.78,4.07c-1,6.5-2.55,19.51-1.37,30.4a4.8,4.8,0,0,0,5,4.3l213-7.53a4.85,4.85,0,0,0,4.43-6.09Zm-10.8-.59L158.21,119a4.63,4.63,0,0,1-4.8-4.46v-.08A127,127,0,0,1,154.25,99a5.31,5.31,0,0,1,5.31-4.7c79.05.74,173.14,2.19,187.22,3.94,7.18.89,11.35,5.39,13.76,10.32a2.33,2.33,0,0,1-1.08,3.13A2.41,2.41,0,0,1,358.51,111.9Z" transform="translate(-0.99 -0.85)"/><path class="cls-31" d="M158.24,86.82c0,9.69.17,33.16,1.24,45.42a4.38,4.38,0,0,0,4.38,4c11.21-.07,43.43-.44,58.52-2.53a4.35,4.35,0,0,0,3.72-3.79c1-8.26,3.33-30.24.58-42a4.39,4.39,0,0,0-4.07-3.41c-10.25-.48-43.65-2-60-2a4.37,4.37,0,0,0-4.38,4.35Z" transform="translate(-0.99 -0.85)"/><path class="cls-32" d="M171.91,90.31,173,124.25a4.64,4.64,0,0,0,4.77,4.49l29.12-.75a4.65,4.65,0,0,0,4.53-4.64V91.69A4.64,4.64,0,0,0,207,87.06l-30.14-1.53a4.64,4.64,0,0,0-4.93,4.36C171.91,90,171.91,90.17,171.91,90.31Z" transform="translate(-0.99 -0.85)"/><rect class="cls-33" x="341.78" y="108.48" width="2.76" height="84.1"/><rect class="cls-33" x="317.94" y="149.58" width="84.93" height="2.76" transform="translate(207.19 510) rotate(-89.8)"/><ellipse class="cls-34" cx="351.39" cy="194.43" rx="9.87" ry="9.87"/><ellipse class="cls-35" cx="351.39" cy="194.43" rx="5.86" ry="5.86"/><path class="cls-34" d="M345.6,231.16l-3.38-18.43a6.25,6.25,0,0,1,6.17-7.4h8.4a7.29,7.29,0,0,1,7.3,7.29,5.62,5.62,0,0,1,0,.58l-1.48,18.93a8.76,8.76,0,0,1-3.48,6.31c-3.05,2.31-7.36,7.12-8.29,16.16-1.49,14.32,12,19.12,20.23,17.57,6.46-1.19,10-9,8.58-14.81a3.41,3.41,0,0,1,2.46-4.16,3.32,3.32,0,0,1,.83-.11h0a3.42,3.42,0,0,1,3.3,2.56c1.61,6.47,3.72,23.14-16.51,26.41-23.93,3.88-47.18-21.63-26.71-42.26A9.75,9.75,0,0,0,345.6,231.16Z" transform="translate(-0.99 -0.85)"/><ellipse class="cls-36" cx="351.38" cy="107.04" rx="9.87" ry="9.87"/><ellipse class="cls-35" cx="351.39" cy="107.04" rx="5.86" ry="5.86"/><path class="cls-37" d="M253.13,322.7a1.37,1.37,0,0,1-1.38-1.37,1.35,1.35,0,0,1,.83-1.27l122.66-52.95c.7-.31,2.32-.26,2.38.51a9.46,9.46,0,0,1-2.72,2.88L253.63,322.59A1.25,1.25,0,0,1,253.13,322.7Z" transform="translate(-0.99 -0.85)"/><path class="cls-31" d="M249.23,323.39l5,76.92a4.85,4.85,0,0,0,4.88,4.54c32.6-.15,229.59-1.13,264.47-2.87a4.86,4.86,0,0,0,4.61-4.76L529.54,324a4.86,4.86,0,0,0-4.74-5h-.1l-270.6-.83a4.88,4.88,0,0,0-4.88,4.88C249.22,323.17,249.23,323.28,249.23,323.39Z" transform="translate(-0.99 -0.85)"/><path class="cls-35" d="M260.61,346.9l3,46.39a4,4,0,0,0,4.07,3.77l247.62-2.94a4,4,0,0,0,4-4V346.68a4,4,0,0,0-4-4H264.67a4,4,0,0,0-4.06,3.91A2.81,2.81,0,0,0,260.61,346.9Z" transform="translate(-0.99 -0.85)"/><path class="cls-33" d="M321.69,331.67a6,6,0,0,0-5.84-6l-48.7-.86a3,3,0,0,0-3.13,2.84,2.72,2.72,0,0,0,0,.57c.32,2.45.76,5.63,1.07,7.83a3,3,0,0,0,3,2.61l47.64-.2a6,6,0,0,0,5.92-6Z" transform="translate(-0.99 -0.85)"/><path class="cls-33" d="M335.06,338.43h3.07a6,6,0,0,0,5.93-6V332a6,6,0,0,0-5.85-6l-3.07-.05a6,6,0,0,0-6.05,5.91v.54A6,6,0,0,0,335.06,338.43Z" transform="translate(-0.99 -0.85)"/><path class="cls-33" d="M365.2,326.58l-7.69-.14a6,6,0,0,0-6.05,5.91v.07h0a6,6,0,0,0,6,6h7.69a3,3,0,0,0,3-3v-5.68a3,3,0,0,0-2.83-3.14Z" transform="translate(-0.99 -0.85)"/><path class="cls-33" d="M272.66,354.73v1.46a2.72,2.72,0,0,0,2.72,2.72h0l112.52-.82a2.73,2.73,0,0,0,2.71-2.73h0a2.74,2.74,0,0,0-2.72-2.72L275.4,352a2.71,2.71,0,0,0-2.74,2.7Z" transform="translate(-0.99 -0.85)"/><path class="cls-33" d="M274.16,369.79v1.48a1.15,1.15,0,0,0,1.16,1.15h0l104-1.34a1.15,1.15,0,0,0,1.13-1.18,1.07,1.07,0,0,0-.06-.35l-.77-2.34a1.18,1.18,0,0,0-1.11-.79l-102,1A2.41,2.41,0,0,0,274.16,369.79Z" transform="translate(-0.99 -0.85)"/><path class="cls-32" d="M187.45,224.79l2.36,53.69a6.82,6.82,0,0,0,7.08,6.51l42-1.68a6.82,6.82,0,0,0,6.55-7l-1-52a6.83,6.83,0,0,0-6.82-6.68H194.25a6.81,6.81,0,0,0-6.81,6.81C187.44,224.54,187.44,224.66,187.45,224.79Z" transform="translate(-0.99 -0.85)"/><path class="cls-32" d="M264.26,224.79l2.51,51.32A7.19,7.19,0,0,0,274.1,283l38.55-.74a7.18,7.18,0,0,0,7.05-7.32v-.16l-2-50.58a7.19,7.19,0,0,0-7.19-6.9H271.45a7.19,7.19,0,0,0-7.2,7.19C264.25,224.56,264.26,224.67,264.26,224.79Z" transform="translate(-0.99 -0.85)"/><path class="cls-38" d="M405.92,115.57l12,165.73a11.69,11.69,0,0,0,11.75,10.85L623,290.84a11.69,11.69,0,0,0,11.6-11.31l5.19-162a11.69,11.69,0,0,0-11.31-12.06h-.23L417.8,103a11.71,11.71,0,0,0-11.91,11.48Q405.89,115,405.92,115.57Z" transform="translate(-0.99 -0.85)"/><path class="cls-35" d="M419.16,135.07l10,141.26a6.59,6.59,0,0,0,6.61,6.12l179.49-.93a6.59,6.59,0,0,0,6.55-6.53L623,138.64A6.6,6.6,0,0,0,616.5,132l-190.61-4a6.59,6.59,0,0,0-6.74,6.44C419.15,134.66,419.15,134.87,419.16,135.07Z" transform="translate(-0.99 -0.85)"/><path class="cls-35" d="M418.9,116.65h0a5,5,0,0,0,5,4.72l72.33-.06a5,5,0,0,0,5-5v-1.91a5,5,0,0,0-5-5h-.12l-72.32,2a5,5,0,0,0-4.88,5.09A.62.62,0,0,0,418.9,116.65Z" transform="translate(-0.99 -0.85)"/><path class="cls-31" d="M487.88,135.82h1.17a1.85,1.85,0,0,1,1.85,1.82L493.33,277a1.84,1.84,0,0,1-1.81,1.88h0a1.85,1.85,0,0,1-1.85-1.8L486,137.72a1.85,1.85,0,0,1,1.8-1.9Z" transform="translate(-0.99 -0.85)"/><path class="cls-31" d="M432.07,144.71l41.13.34a3.16,3.16,0,0,1,3.12,3.16h0a3.15,3.15,0,0,1-3.15,3.15h0L432,151.09a3.15,3.15,0,0,1-3.05-2.43v-.08a3.16,3.16,0,0,1,2.37-3.79A3.36,3.36,0,0,1,432.07,144.71Z" transform="translate(-0.99 -0.85)"/><path class="cls-31" d="M442.23,156.53c7.91.2,24.18.44,31,.54a3.14,3.14,0,0,1,3.1,3.14v.46a3.14,3.14,0,0,1-3.14,3.16h-30.7a3.15,3.15,0,0,1-3-2.18l-.32-1a3.13,3.13,0,0,1,2-4A3,3,0,0,1,442.23,156.53Z" transform="translate(-0.99 -0.85)"/><path class="cls-31" d="M441.56,170.27v.51a3,3,0,0,0,3,3h28.24a2.9,2.9,0,0,0,2.91-2.9h0a3,3,0,0,0-2.95-2.94H443.91a2.35,2.35,0,0,0-2.35,2.34Z" transform="translate(-0.99 -0.85)"/><ellipse class="cls-33" cx="525.18" cy="166.94" rx="18.24" ry="18.23"/><ellipse cx="585.01" cy="166.94" rx="18.24" ry="18.23"/><ellipse class="cls-31" cx="525.18" cy="216.39" rx="18.24" ry="18.23"/><ellipse class="cls-34" cx="585.01" cy="216.39" rx="18.24" ry="18.23"/><path class="cls-1" d="M57,270.69l-2,.7a1.09,1.09,0,0,1-.73-2.05h0l2-.68a1.08,1.08,0,0,1,.73,2Z" transform="translate(-0.99 -0.85)"/><path class="cls-1" d="M50.72,273.18l-1.87.89a1.1,1.1,0,1,1-.94-2h0l1.88-.86a1.1,1.1,0,0,1,1.46.53,1.11,1.11,0,0,1-.54,1.46h0Z" transform="translate(-0.99 -0.85)"/><path class="cls-1" d="M44.67,276.27l-1.78,1.06a1.11,1.11,0,0,1-1.12-1.92h0l1.78-1.07a1.11,1.11,0,0,1,1.26,1.82l-.14.08Z" transform="translate(-0.99 -0.85)"/><path class="cls-1" d="M38.94,279.91l-1.7,1.2a1.12,1.12,0,0,1-1.56-1.6,1.31,1.31,0,0,1,.27-.19h0l1.69-1.21a1.12,1.12,0,0,1,1.3,1.82Z" transform="translate(-0.99 -0.85)"/><path class="cls-1" d="M33.55,284.05,32,285.4a1.13,1.13,0,0,1-1.48-1.71h0l1.58-1.38A1.12,1.12,0,1,1,33.55,284Z" transform="translate(-0.99 -0.85)"/><path class="cls-1" d="M28.55,288.64l-1.45,1.48a1.15,1.15,0,0,1-1.64-1.59h0l1.46-1.48a1.14,1.14,0,0,1,1.63,1.59Z" transform="translate(-0.99 -0.85)"/><path class="cls-1" d="M23.93,293.64l-1.32,1.62a1.15,1.15,0,1,1-1.77-1.46h0l1.32-1.6a1.15,1.15,0,0,1,1.77,1.48h0Z" transform="translate(-0.99 -0.85)"/><path class="cls-1" d="M19.74,299l-1.19,1.69a1.16,1.16,0,0,1-1.9-1.33h0l1.2-1.68A1.16,1.16,0,0,1,19.74,299Z" transform="translate(-0.99 -0.85)"/><path class="cls-1" d="M16,304.66l-1.06,1.77a1.16,1.16,0,1,1-2.11-1,.72.72,0,0,1,.12-.21h0L14,303.46a1.17,1.17,0,0,1,2.09,1A.86.86,0,0,1,16,304.66Z" transform="translate(-0.99 -0.85)"/><path class="cls-1" d="M12.69,310.6l-.92,1.86a1.16,1.16,0,0,1-1.57.54h0a1.17,1.17,0,0,1-.55-1.58h0l.92-1.86a1.19,1.19,0,0,1,2.12,1Z" transform="translate(-0.99 -0.85)"/><path class="cls-1" d="M9.86,316.79l-.77,1.92A1.2,1.2,0,0,1,6.8,318a1.54,1.54,0,0,1,.08-.19h0l.76-1.92a1.2,1.2,0,0,1,2.22.89Z" transform="translate(-0.99 -0.85)"/><path class="cls-1" d="M7.52,323.17l-.61,2a1.2,1.2,0,0,1-1.49.8h0a1.22,1.22,0,0,1-.8-1.51h0l.61-2a1.2,1.2,0,0,1,2.3.71Z" transform="translate(-0.99 -0.85)"/><path class="cls-1" d="M5.69,329.71l-.45,2a1.22,1.22,0,0,1-2.39-.44.29.29,0,0,1,0-.09h0l.46-2a1.21,1.21,0,0,1,2.36.53Z" transform="translate(-0.99 -0.85)"/><path class="cls-1" d="M4.39,336.38l-.28,2a1.23,1.23,0,1,1-2.43-.34h0L2,336a1.22,1.22,0,0,1,2.42.35Z" transform="translate(-0.99 -0.85)"/><path class="cls-1" d="M3.66,343.1l-.12,2.06a1.24,1.24,0,0,1-2.48,0c0-.06,0-.11,0-.17h0L1.19,343a1.24,1.24,0,0,1,2.48,0C3.67,343,3.66,343,3.66,343.1Z" transform="translate(-0.99 -0.85)"/><path class="cls-1" d="M3.49,349.9,3.55,352h0a1.25,1.25,0,0,1-2.5.07h0L1,349.94a1.25,1.25,0,0,1,2.5-.07Z" transform="translate(-0.99 -0.85)"/><path class="cls-1" d="M3.89,356.68l.24,2.05a1.26,1.26,0,0,1-2.5.3h0l-.23-2a1.26,1.26,0,0,1,1.19-1.32,1.23,1.23,0,0,1,1.3,1Z" transform="translate(-0.99 -0.85)"/><path class="cls-1" d="M4.85,363.4l.4,2a1.27,1.27,0,0,1-2.48.5h0l-.39-2a1.26,1.26,0,0,1,2.48-.48Z" transform="translate(-0.99 -0.85)"/><path class="cls-1" d="M6.33,370l.55,2a1.28,1.28,0,0,1-2.47.67h0l-.54-2a1.28,1.28,0,0,1,2.41-.87A1.33,1.33,0,0,1,6.33,370Z" transform="translate(-0.99 -0.85)"/><path class="cls-1" d="M8.32,376.53l.7,1.94a1.29,1.29,0,1,1-2.42.87h0l-.7-2a1.29,1.29,0,0,1,2.42-.86Z" transform="translate(-0.99 -0.85)"/><path class="cls-1" d="M10.78,382.87l.83,1.88a1.31,1.31,0,0,1-2.38,1.06h0l-.83-1.9a1.3,1.3,0,0,1,2.26-1.28,1.48,1.48,0,0,1,.12.29Z" transform="translate(-0.99 -0.85)"/><path class="cls-1" d="M13.68,389l1,1.83a1.33,1.33,0,0,1-2.36,1.23h0l-1-1.84A1.31,1.31,0,0,1,13.63,389Z" transform="translate(-0.99 -0.85)"/><path class="cls-1" d="M17,394.92l1.08,1.75A1.33,1.33,0,1,1,16,398.26l-.12-.2h0l-1.09-1.75a1.33,1.33,0,0,1,.43-1.81,1.31,1.31,0,0,1,1.81.4Z" transform="translate(-0.99 -0.85)"/><path class="cls-1" d="M20.74,400.64l1.2,1.67a1.34,1.34,0,1,1-2.17,1.57h0l-1.2-1.68a1.33,1.33,0,0,1,2.17-1.54Z" transform="translate(-0.99 -0.85)"/><path class="cls-1" d="M24.84,406.07l1.31,1.59a1.35,1.35,0,0,1-2.08,1.71h0l-1.31-1.61a1.34,1.34,0,0,1,2.08-1.69Z" transform="translate(-0.99 -0.85)"/><path class="cls-1" d="M29.26,411.21l1.42,1.5a1.37,1.37,0,0,1-2,1.87h0l-1.42-1.52a1.36,1.36,0,1,1,2-1.85Z" transform="translate(-0.99 -0.85)"/><path class="cls-1" d="M34.06,416.05l1.52,1.42a1.37,1.37,0,0,1-1.87,2h0L32.2,418a1.36,1.36,0,0,1,1.86-2Z" transform="translate(-0.99 -0.85)"/><path class="cls-1" d="M39.15,420.58l1.6,1.3A1.38,1.38,0,1,1,39,424h0l-1.61-1.3a1.38,1.38,0,0,1,1.75-2.12Z" transform="translate(-0.99 -0.85)"/><path class="cls-1" d="M44.51,424.74l1.7,1.2a1.39,1.39,0,0,1-1.61,2.26h0L42.92,427a1.38,1.38,0,0,1,1.6-2.25h0Z" transform="translate(-0.99 -0.85)"/><path class="cls-1" d="M50.2,428.55,52,429.62A1.4,1.4,0,0,1,50.5,432h0l-1.76-1.09a1.39,1.39,0,0,1,1.46-2.37Z" transform="translate(-0.99 -0.85)"/><path class="cls-1" d="M56,432l1.83,1a1.42,1.42,0,1,1-1.11,2.61,1.18,1.18,0,0,1-.19-.11h0l-1.84-1A1.41,1.41,0,1,1,56,432Z" transform="translate(-0.99 -0.85)"/><path class="cls-1" d="M62.17,434.94l1.9.83A1.42,1.42,0,0,1,63,438.4l-.07,0h0l-1.9-.83a1.42,1.42,0,0,1-.67-1.89A1.4,1.4,0,0,1,62.17,434.94Z" transform="translate(-0.99 -0.85)"/><path class="cls-1" d="M68.43,437.53l2,.7a1.43,1.43,0,0,1-1,2.69h0l-2-.71a1.44,1.44,0,0,1-.85-1.84,1.42,1.42,0,0,1,1.83-.85Z" transform="translate(-0.99 -0.85)"/><path class="cls-1" d="M74.87,439.7l2,.59a1.44,1.44,0,0,1,1,1.78,1.46,1.46,0,0,1-1.8,1h0l-2-.59a1.44,1.44,0,0,1,.8-2.76Z" transform="translate(-0.99 -0.85)"/><path class="cls-1" d="M81.45,441.47l2,.46a1.45,1.45,0,0,1-.65,2.83h0l-2-.47a1.44,1.44,0,0,1-1.09-1.73,1.45,1.45,0,0,1,1.73-1.09h0Z" transform="translate(-0.99 -0.85)"/><path class="cls-1" d="M88.1,442.85l2,.34a1.44,1.44,0,0,1,1.21,1.66h0a1.48,1.48,0,0,1-1.69,1.21h0l-2-.35a1.46,1.46,0,0,1,.48-2.87Z" transform="translate(-0.99 -0.85)"/><path class="cls-1" d="M94.86,443.83l2,.2a1.48,1.48,0,1,1-.16,3l-.15,0h0l-2.06-.22a1.47,1.47,0,0,1,.3-2.92Z" transform="translate(-0.99 -0.85)"/><path class="cls-1" d="M101.65,444.4l2.06.1a1.5,1.5,0,0,1-.15,3h0l-2.06-.11a1.5,1.5,0,1,1,.15-3Z" transform="translate(-0.99 -0.85)"/><path class="cls-1" d="M108.46,444.61h2.06a1.5,1.5,0,1,1,0,3h-2.07a1.5,1.5,0,1,1,0-3Z" transform="translate(-0.99 -0.85)"/><path class="cls-1" d="M115.27,444.43l2.07-.12a1.5,1.5,0,0,1,.17,3h0l-2.07.12a1.5,1.5,0,1,1-.17-3Z" transform="translate(-0.99 -0.85)"/><path class="cls-1" d="M122.06,443.89l2.06-.23a1.49,1.49,0,0,1,1.69,1.28,1.51,1.51,0,0,1-1.29,1.7h-.06l-2.06.23a1.51,1.51,0,0,1-.34-3Z" transform="translate(-0.99 -0.85)"/><path class="cls-1" d="M128.81,443l2-.35a1.52,1.52,0,0,1,.5,3h0l-2,.34a1.52,1.52,0,0,1-.51-3h0Z" transform="translate(-0.99 -0.85)"/><path class="cls-1" d="M135.51,441.75l2-.46a1.53,1.53,0,0,1,.67,3h0l-2,.45a1.53,1.53,0,0,1-.66-3h0Z" transform="translate(-0.99 -0.85)"/><path class="cls-1" d="M142.14,440.13l2-.56a1.53,1.53,0,0,1,.82,2.94h0l-2,.55a1.52,1.52,0,1,1-1-2.87A.65.65,0,0,1,142.14,440.13Z" transform="translate(-0.99 -0.85)"/><path class="cls-1" d="M148.67,438.17l2-.66a1.53,1.53,0,1,1,1.13,2.85l-.13.05h0l-2,.65a1.53,1.53,0,1,1-1-2.89Z" transform="translate(-0.99 -0.85)"/><path class="cls-1" d="M155.08,435.87l1.91-.76a1.53,1.53,0,1,1,1.22,2.81l-.08,0h0l-1.92.76a1.53,1.53,0,0,1-1.13-2.85Z" transform="translate(-0.99 -0.85)"/><path class="cls-1" d="M161.36,433.23l1.88-.86a1.54,1.54,0,0,1,1.28,2.8h0l-1.87.85a1.54,1.54,0,1,1-1.29-2.79Z" transform="translate(-0.99 -0.85)"/><path class="cls-1" d="M167.5,430.28l1.85-1a1.54,1.54,0,1,1,1.57,2.66l-.16.08h0l-1.83.94a1.55,1.55,0,0,1-1.43-2.74Z" transform="translate(-0.99 -0.85)"/><path class="cls-1" d="M173.52,427l1.78-1a1.56,1.56,0,0,1,1.56,2.69h0l-1.8,1a1.55,1.55,0,1,1-1.54-2.68Z" transform="translate(-0.99 -0.85)"/><path class="cls-1" d="M179.38,423.54l1.75-1.11a1.55,1.55,0,1,1,1.8,2.53l-.14.09h0l-1.74,1.11a1.56,1.56,0,0,1-1.67-2.63Z" transform="translate(-0.99 -0.85)"/><path class="cls-1" d="M185.08,419.83l1.71-1.18a1.56,1.56,0,1,1,1.77,2.56h0l-1.69,1.19a1.57,1.57,0,1,1-1.79-2.57Z" transform="translate(-0.99 -0.85)"/><path class="cls-1" d="M190.65,415.84l1.65-1.24a1.58,1.58,0,0,1,1.89,2.51h0l-1.66,1.23a1.56,1.56,0,1,1-1.88-2.5Z" transform="translate(-0.99 -0.85)"/><path class="cls-1" d="M196.07,411.65l1.61-1.3a1.58,1.58,0,0,1,2,2.45h0l-1.61,1.3a1.58,1.58,0,1,1-2-2.45h0Z" transform="translate(-0.99 -0.85)"/><path class="cls-1" d="M201.36,407.29l1.56-1.34a1.58,1.58,0,1,1,2.06,2.39h0l-1.58,1.33a1.57,1.57,0,0,1-2-2.39Z" transform="translate(-0.99 -0.85)"/><path class="cls-1" d="M206.51,402.79l1.53-1.4a1.59,1.59,0,0,1,2.21,2.28l-.08.06h0l-1.52,1.39a1.59,1.59,0,0,1-2.3-2.19l.17-.15Z" transform="translate(-0.99 -0.85)"/><path class="cls-1" d="M211.55,398.13l1.5-1.42a1.59,1.59,0,0,1,2.19,2.3h0l-1.5,1.43a1.59,1.59,0,0,1-2.18-2.31Z" transform="translate(-0.99 -0.85)"/><path class="cls-1" d="M216.48,393.37l1.46-1.46a1.6,1.6,0,0,1,2.26,2.26h0l-1.47,1.45a1.59,1.59,0,1,1-2.24-2.25Z" transform="translate(-0.99 -0.85)"/><path class="cls-1" d="M221.31,388.5l1.44-1.49a1.6,1.6,0,1,1,2.47,2.05l-.17.18h0l-1.43,1.48a1.6,1.6,0,1,1-2.3-2.22h0Z" transform="translate(-0.99 -0.85)"/><path class="cls-1" d="M226.07,383.54l1.41-1.51a1.61,1.61,0,0,1,2.5,2l-.16.16h0l-1.42,1.51a1.61,1.61,0,0,1-2.49-2A1.21,1.21,0,0,1,226.07,383.54Z" transform="translate(-0.99 -0.85)"/><path class="cls-1" d="M230.75,378.5l1.39-1.52a1.62,1.62,0,0,1,2.28-.1,1.6,1.6,0,0,1,.11,2.25v0h0l-1.4,1.53a1.61,1.61,0,1,1-2.37-2.18Z" transform="translate(-0.99 -0.85)"/><path class="cls-1" d="M235.38,373.42l1.38-1.53a1.61,1.61,0,1,1,2.5,2l-.1.12h0l-1.38,1.53a1.61,1.61,0,0,1-2.4-2.15Z" transform="translate(-0.99 -0.85)"/><path class="cls-1" d="M240,368.29l1.38-1.55a1.62,1.62,0,1,1,2.42,2.15h0l-1.38,1.54a1.62,1.62,0,0,1-2.42-2.14Z" transform="translate(-0.99 -0.85)"/><path class="cls-1" d="M244.53,363.13l1.35-1.56a1.65,1.65,0,0,1,2.3-.15,1.63,1.63,0,0,1,.16,2.28h0L247,365.27a1.63,1.63,0,0,1-2.3,0,1.6,1.6,0,0,1-.13-2.12Z" transform="translate(-0.99 -0.85)"/><path class="cls-1" d="M249.06,357.94l1.37-1.55a1.63,1.63,0,0,1,2.45,2.14h0l-1.36,1.56a1.63,1.63,0,0,1-2.46-2.15Z" transform="translate(-0.99 -0.85)"/><path class="cls-1" d="M253.63,352.76l1.37-1.55a1.63,1.63,0,1,1,2.58,2l-.13.15h0l-1.37,1.56a1.64,1.64,0,0,1-2.45-2.16Z" transform="translate(-0.99 -0.85)"/><path class="cls-1" d="M258.17,347.58l1.36-1.55A1.64,1.64,0,0,1,262,348.2h0l-1.38,1.54a1.63,1.63,0,1,1-2.45-2.16Z" transform="translate(-0.99 -0.85)"/><path class="cls-1" d="M262.75,342.42l1.37-1.55a1.66,1.66,0,0,1,2.47,2.23h0l-1.37,1.53a1.64,1.64,0,0,1-2.45-2.18Z" transform="translate(-0.99 -0.85)"/><path class="cls-1" d="M267.36,337.28l1.4-1.53a1.65,1.65,0,0,1,2.32-.12h0a1.66,1.66,0,0,1,.11,2.33h0l-1.39,1.53a1.66,1.66,0,0,1-2.33.26,1.64,1.64,0,0,1-.26-2.32,1.07,1.07,0,0,1,.14-.16Z" transform="translate(-0.99 -0.85)"/><path class="cls-1" d="M272,332.18l1.42-1.51a1.66,1.66,0,1,1,2.42,2.26h0l-1.41,1.51a1.66,1.66,0,0,1-2.42-2.26Z" transform="translate(-0.99 -0.85)"/><path class="cls-1" d="M276.79,327.15l1.42-1.49a1.67,1.67,0,0,1,2.41,2.29h0l-1.43,1.48a1.66,1.66,0,0,1-2.41-2.27Z" transform="translate(-0.99 -0.85)"/><path class="cls-1" d="M281.6,322.17l1.46-1.47a1.67,1.67,0,0,1,2.36,2.35h0L284,324.51a1.67,1.67,0,1,1-2.37-2.35Z" transform="translate(-0.99 -0.85)"/><path class="cls-1" d="M286.54,317.3l1.48-1.44a1.69,1.69,0,0,1,2.37-.12,1.67,1.67,0,0,1,.12,2.36l-.16.16h0l-1.49,1.44a1.67,1.67,0,0,1-2.32-2.4Z" transform="translate(-0.99 -0.85)"/><path class="cls-1" d="M291.52,312.52l1.52-1.4a1.67,1.67,0,1,1,2.28,2.45h0l-1.51,1.4a1.67,1.67,0,1,1-2.42-2.31l.14-.14Z" transform="translate(-0.99 -0.85)"/><path class="cls-1" d="M296.67,307.85l1.56-1.36a1.68,1.68,0,0,1,2.21,2.53h0l-1.56,1.36a1.68,1.68,0,0,1-2.21-2.53Z" transform="translate(-0.99 -0.85)"/><path class="cls-1" d="M301.94,303.33l1.58-1.32a1.68,1.68,0,1,1,2.15,2.59h0l-1.59,1.32a1.68,1.68,0,1,1-2.3-2.46Z" transform="translate(-0.99 -0.85)"/><path class="cls-1" d="M307.33,299l1.64-1.26a1.67,1.67,0,0,1,2.36.29,1.69,1.69,0,0,1-.29,2.37h0l-1.64,1.26a1.69,1.69,0,1,1-2.25-2.53l.18-.14Z" transform="translate(-0.99 -0.85)"/><path class="cls-1" d="M312.86,294.76l1.68-1.22a1.7,1.7,0,0,1,2,2.75h0l-1.68,1.21a1.7,1.7,0,0,1-2-2.74Z" transform="translate(-0.99 -0.85)"/><path class="cls-1" d="M318.56,290.75l1.72-1.15a1.71,1.71,0,1,1,2.09,2.7,1.37,1.37,0,0,1-.2.13h0l-1.73,1.15a1.7,1.7,0,0,1-1.88-2.83Z" transform="translate(-0.99 -0.85)"/><path class="cls-1" d="M324.43,287l1.77-1.07a1.71,1.71,0,0,1,1.81,2.89l0,0h0l-1.76,1.07a1.71,1.71,0,0,1-1.78-2.91Z" transform="translate(-0.99 -0.85)"/><path class="cls-1" d="M330.42,283.43l1.8-1a1.72,1.72,0,0,1,1.68,3h0l-1.81,1a1.72,1.72,0,0,1-1.67-3Z" transform="translate(-0.99 -0.85)"/><path class="cls-1" d="M336.53,280.13l1.84-.94a1.72,1.72,0,1,1,1.56,3.06h0l-1.85.94a1.72,1.72,0,1,1-1.55-3.06Z" transform="translate(-0.99 -0.85)"/><path class="cls-1" d="M342.78,277.06l1.87-.87a1.73,1.73,0,0,1,1.45,3.13h0l-1.88.87a1.74,1.74,0,0,1-2.24-1A1.71,1.71,0,0,1,342.78,277.06Z" transform="translate(-0.99 -0.85)"/><path class="cls-1" d="M349.14,274.23l1.91-.8a1.73,1.73,0,1,1,1.32,3.19h0l-1.91.8a1.73,1.73,0,1,1-1.32-3.19Z" transform="translate(-0.99 -0.85)"/><path class="cls-1" d="M355.59,271.64l2-.72a1.73,1.73,0,0,1,1.21,3.24h0l-1.94.72a1.73,1.73,0,0,1-1.22-3.24Z" transform="translate(-0.99 -0.85)"/><path class="cls-1" d="M362.15,269.28l2-.64a1.73,1.73,0,1,1,1.1,3.29h0l-2,.65a1.74,1.74,0,1,1-1.09-3.3Z" transform="translate(-0.99 -0.85)"/><path class="cls-1" d="M368.78,267.17l2-.58a1.75,1.75,0,1,1,1,3.35h0l-2,.58a1.75,1.75,0,1,1-1-3.35Z" transform="translate(-0.99 -0.85)"/><path class="cls-1" d="M375.48,265.31l2-.51a1.74,1.74,0,1,1,1,3.34l-.13,0h0l-2,.51a1.75,1.75,0,1,1-1-3.35Z" transform="translate(-0.99 -0.85)"/><path class="cls-1" d="M382.27,263.67l2-.43a1.75,1.75,0,1,1,.75,3.42h0l-2,.43a1.75,1.75,0,1,1-1-3.36A2.27,2.27,0,0,1,382.27,263.67Z" transform="translate(-0.99 -0.85)"/><path class="cls-1" d="M389.06,262.29l2-.37a1.76,1.76,0,0,1,.62,3.45h0l-2,.37a1.76,1.76,0,0,1-.8-3.42Z" transform="translate(-0.99 -0.85)"/><path class="cls-1" d="M395.92,261.14l2-.3a1.76,1.76,0,1,1,.67,3.45l-.17,0h0l-2,.3a1.76,1.76,0,0,1-.5-3.47Z" transform="translate(-0.99 -0.85)"/><path class="cls-1" d="M402.82,260.24l2.06-.23a1.75,1.75,0,1,1,.37,3.48h0l-2.05.23a1.75,1.75,0,1,1-.38-3.48Z" transform="translate(-0.99 -0.85)"/><path class="cls-1" d="M409.74,259.57l2.07-.16a1.75,1.75,0,0,1,.25,3.5h0l-2.06.16a1.76,1.76,0,0,1-.31-3.5Z" transform="translate(-0.99 -0.85)"/><path class="cls-1" d="M416.68,259.14l2.08-.08a1.76,1.76,0,0,1,.13,3.51h0l-2.07.08a1.76,1.76,0,0,1-.14-3.51Z" transform="translate(-0.99 -0.85)"/><path class="cls-1" d="M423.64,259h2.07a1.76,1.76,0,0,1,0,3.51h-2.06a1.76,1.76,0,0,1,0-3.51h0Z" transform="translate(-0.99 -0.85)"/><path class="cls-1" d="M430.59,259l2.08.06a1.77,1.77,0,0,1-.11,3.52h0l-2.07-.07a1.76,1.76,0,0,1,.1-3.51Z" transform="translate(-0.99 -0.85)"/><path class="cls-1" d="M437.54,259.3l2.07.13a1.76,1.76,0,0,1-.22,3.51h0l-2.07-.14a1.76,1.76,0,0,1,.08-3.51Z" transform="translate(-0.99 -0.85)"/><path class="cls-1" d="M444.48,259.83l2.06.21a1.75,1.75,0,1,1-.22,3.5l-.13,0h0l-2.1-.15a1.75,1.75,0,1,1,.35-3.49Z" transform="translate(-0.99 -0.85)"/><path class="cls-1" d="M451.39,260.6l2.06.28a1.76,1.76,0,0,1-.47,3.48h0l-2.05-.28a1.76,1.76,0,0,1,.46-3.48Z" transform="translate(-0.99 -0.85)"/><path class="cls-1" d="M458.27,261.62l2,.35a1.77,1.77,0,0,1-.6,3.47h0l-2-.35a1.76,1.76,0,0,1,.58-3.47Z" transform="translate(-0.99 -0.85)"/><path class="cls-1" d="M465.13,262.88l2,.42a1.76,1.76,0,0,1-.72,3.44h0l-2-.42a1.76,1.76,0,0,1,.72-3.44Z" transform="translate(-0.99 -0.85)"/><path class="cls-1" d="M471.92,264.37l2,.5a1.76,1.76,0,1,1-.85,3.41h0l-2-.49a1.77,1.77,0,0,1,.84-3.42Z" transform="translate(-0.99 -0.85)"/><path class="cls-1" d="M478.66,266.14l2,.55a1.77,1.77,0,1,1-1,3.39h0l-2-.57a1.76,1.76,0,1,1,1-3.37Z" transform="translate(-0.99 -0.85)"/><path class="cls-1" d="M485.32,268.12l2,.64a1.76,1.76,0,0,1-1.08,3.35h0l-2-.63a1.77,1.77,0,0,1,1.09-3.35Z" transform="translate(-0.99 -0.85)"/><path class="cls-1" d="M492,270.35l1.94.71a1.76,1.76,0,0,1-1.2,3.31h0l-1.95-.72a1.76,1.76,0,0,1,1.21-3.3Z" transform="translate(-0.99 -0.85)"/><path class="cls-1" d="M498.42,272.84l1.92.78a1.77,1.77,0,0,1-1.34,3.26h0l-1.91-.79a1.76,1.76,0,1,1,1.33-3.25Z" transform="translate(-0.99 -0.85)"/><path class="cls-1" d="M504.82,275.56l1.89.86a1.76,1.76,0,0,1-1.3,3.28l-.16-.07h0l-1.88-.86a1.76,1.76,0,1,1,1.29-3.28Z" transform="translate(-0.99 -0.85)"/><path class="cls-1" d="M511.13,278.53l1.84.93a1.77,1.77,0,1,1-1.47,3.21l-.11-.06h0l-1.85-.93a1.77,1.77,0,0,1,1.59-3.15Z" transform="translate(-0.99 -0.85)"/><path class="cls-1" d="M517.3,281.75l1.81,1a1.76,1.76,0,0,1-1.7,3.08h0l-1.82-1a1.77,1.77,0,0,1,1.5-3.2Z" transform="translate(-0.99 -0.85)"/><path class="cls-1" d="M523.35,285.2l1.77,1.07a1.77,1.77,0,1,1-1.83,3h0l-1.76-1.07A1.76,1.76,0,1,1,523,285,1.65,1.65,0,0,1,523.35,285.2Z" transform="translate(-0.99 -0.85)"/><path class="cls-1" d="M529.25,288.89,531,290a1.78,1.78,0,0,1-1.93,3h0l-1.73-1.13a1.76,1.76,0,1,1,1.72-3.08.77.77,0,0,1,.21.14Z" transform="translate(-0.99 -0.85)"/><path class="cls-1" d="M535,292.73l1.7,1.18a1.76,1.76,0,0,1-1.78,3,1.1,1.1,0,0,1-.21-.14h0L533,295.63a1.77,1.77,0,0,1,2-2.9Z" transform="translate(-0.99 -0.85)"/><path class="cls-1" d="M540.69,296.7l1.69,1.19a1.77,1.77,0,0,1-1.6,3.15,1.8,1.8,0,0,1-.4-.28h0l-1.68-1.19a1.76,1.76,0,0,1,1.59-3.15A1.91,1.91,0,0,1,540.69,296.7Z" transform="translate(-0.99 -0.85)"/><path class="cls-1" d="M546.31,300.71l1.67,1.22a1.76,1.76,0,0,1-2.06,2.86h0l-1.68-1.22a1.76,1.76,0,1,1,2-2.91Z" transform="translate(-0.99 -0.85)"/><path class="cls-1" d="M551.89,304.75l1.69,1.21a1.77,1.77,0,0,1-2.07,2.87h0l-1.71-1.22a1.76,1.76,0,0,1,2.05-2.86Z" transform="translate(-0.99 -0.85)"/><path class="cls-1" d="M557.49,308.75l1.69,1.19a1.76,1.76,0,1,1-1.65,3.12,1.31,1.31,0,0,1-.34-.24h0l-1.69-1.18a1.77,1.77,0,0,1,2-2.89Z" transform="translate(-0.99 -0.85)"/><path class="cls-1" d="M563.12,312.66l1.71,1.17a1.77,1.77,0,1,1-2,2.92h0l-1.71-1.16a1.77,1.77,0,1,1,2-2.93Z" transform="translate(-0.99 -0.85)"/><path class="cls-1" d="M568.83,316.45l1.75,1.12a1.77,1.77,0,0,1-1.91,3h0l-1.74-1.11a1.77,1.77,0,0,1,1.9-3Z" transform="translate(-0.99 -0.85)"/><path class="cls-1" d="M574.64,320.05l1.78,1a1.77,1.77,0,1,1-1.78,3.05h0l-1.79-1a1.77,1.77,0,1,1,1.79-3h0Z" transform="translate(-0.99 -0.85)"/><path class="cls-1" d="M580.57,323.4l1.83,1a1.77,1.77,0,0,1-1.64,3.13h0l-1.84-1a1.76,1.76,0,1,1,1.65-3.12Z" transform="translate(-0.99 -0.85)"/><path class="cls-1" d="M586.69,326.42l1.89.85a1.77,1.77,0,1,1-1.45,3.22h0l-1.88-.85a1.76,1.76,0,0,1,1.44-3.22Z" transform="translate(-0.99 -0.85)"/><path class="cls-1" d="M592.89,329.06l1.93.7a1.77,1.77,0,1,1-1.22,3.32h0l-1.94-.72a1.76,1.76,0,1,1,1.23-3.3Z" transform="translate(-0.99 -0.85)"/><path class="cls-1" d="M599.28,331.21l2,.56a1.77,1.77,0,1,1-1,3.4h0l-2-.55a1.78,1.78,0,1,1,1-3.41Z" transform="translate(-0.99 -0.85)"/><path class="cls-1" d="M605.82,332.82l2,.38a1.76,1.76,0,0,1-.63,3.47h0l-2-.37a1.77,1.77,0,1,1,.64-3.48Z" transform="translate(-0.99 -0.85)"/><path class="cls-1" d="M612.47,333.82l2,.18a1.77,1.77,0,1,1-.29,3.52h0l-2.07-.17a1.78,1.78,0,0,1,.31-3.53Z" transform="translate(-0.99 -0.85)"/><path class="cls-1" d="M619.16,334.13h2.07a1.77,1.77,0,1,1,.33,3.53h-.25l-2.07.05a1.78,1.78,0,0,1-.33-3.54h.25Z" transform="translate(-0.99 -0.85)"/><path class="cls-1" d="M625.85,333.75l2-.27a1.77,1.77,0,0,1,.46,3.51h0l-2,.27a1.77,1.77,0,0,1-.46-3.51Z" transform="translate(-0.99 -0.85)"/><path class="cls-1" d="M632.46,332.64l2-.48a1.77,1.77,0,0,1,.82,3.44h0l-2,.48a1.77,1.77,0,0,1-.82-3.44Z" transform="translate(-0.99 -0.85)"/><path class="cls-1" d="M639,330.86l2-.68a1.78,1.78,0,0,1,1.34,3.29l-.18.06h0l-2,.68a1.77,1.77,0,0,1-1.15-3.35Z" transform="translate(-0.99 -0.85)"/><path class="cls-1" d="M645.23,328.46l1.88-.86a1.78,1.78,0,0,1,1.47,3.23h0l-1.89.85a1.77,1.77,0,1,1-1.46-3.22Z" transform="translate(-0.99 -0.85)"/><path class="cls-1" d="M651.27,325.49l1.8-1a1.77,1.77,0,0,1,1.75,3.08h0l-1.8,1a1.77,1.77,0,0,1-1.75-3.07Z" transform="translate(-0.99 -0.85)"/><path class="cls-1" d="M657,322l1.71-1.17a1.78,1.78,0,0,1,2.42.67,1.76,1.76,0,0,1-.43,2.25h0L659,324.9a1.78,1.78,0,0,1-2-2.92Z" transform="translate(-0.99 -0.85)"/><path class="cls-1" d="M662.48,318l1.6-1.3a1.77,1.77,0,0,1,2.24,2.74h0l-1.61,1.3a1.77,1.77,0,0,1-2.23-2.74Z" transform="translate(-0.99 -0.85)"/><path class="cls-1" d="M667.58,313.59l1.49-1.44a1.78,1.78,0,0,1,2.45,2.56h0L670,316.19a1.77,1.77,0,0,1-2.46-2.55Z" transform="translate(-0.99 -0.85)"/><path class="cls-1" d="M672.31,308.78l1.37-1.56a1.77,1.77,0,0,1,2.66,2.35h0L675,311.12a1.77,1.77,0,0,1-2.65-2.34Z" transform="translate(-0.99 -0.85)"/><path class="cls-1" d="M676.65,303.59l1.24-1.64a1.77,1.77,0,1,1,3,1.91,1.16,1.16,0,0,1-.16.21h0l-1.24,1.66a1.78,1.78,0,0,1-2.83-2.14Z" transform="translate(-0.99 -0.85)"/><path class="cls-1" d="M680.55,298.09l1.11-1.74a1.77,1.77,0,0,1,3,1.89h0L683.54,300a1.78,1.78,0,0,1-3.13-1.68A1.64,1.64,0,0,1,680.55,298.09Z" transform="translate(-0.99 -0.85)"/><path class="cls-1" d="M684,292.27l1-1.82a1.78,1.78,0,0,1,3.15,1.64h0l-1,1.84a1.78,1.78,0,0,1-3.14-1.66Z" transform="translate(-0.99 -0.85)"/><path class="cls-1" d="M687,286.23l.8-1.9a1.78,1.78,0,0,1,3.27,1.38h0l-.8,1.91a1.78,1.78,0,0,1-3.27-1.39Z" transform="translate(-0.99 -0.85)"/><path class="cls-1" d="M689.4,280l.64-2a1.78,1.78,0,0,1,3.38,1.09h0l-.64,2A1.77,1.77,0,0,1,689.4,280Z" transform="translate(-0.99 -0.85)"/><path class="cls-1" d="M691.27,273.48l.48-2a1.78,1.78,0,1,1,3.5.6c0,.07,0,.14,0,.2h0l-.48,2a1.78,1.78,0,1,1-3.5-.6A1.6,1.6,0,0,1,691.27,273.48Z" transform="translate(-0.99 -0.85)"/><path class="cls-1" d="M692.64,266.86l.32-2a1.78,1.78,0,1,1,3.51.55h0l-.32,2a1.78,1.78,0,0,1-3.51-.55Z" transform="translate(-0.99 -0.85)"/><path class="cls-1" d="M693.53,260.16l.17-2.06a1.78,1.78,0,0,1,3.54.29h0l-.17,2.06a1.78,1.78,0,0,1-3.54-.29Z" transform="translate(-0.99 -0.85)"/><path class="cls-1" d="M693.93,253.41v-2.07a1.79,1.79,0,0,1,3.56,0h0v2.06a1.78,1.78,0,1,1-3.55,0h0Z" transform="translate(-0.99 -0.85)"/><path class="cls-1" d="M693.86,246.63l-.12-2.06a1.78,1.78,0,0,1,3.55-.19h0l.09,2.05a1.78,1.78,0,1,1-3.53.38,1.15,1.15,0,0,1,0-.19Z" transform="translate(-0.99 -0.85)"/><path class="cls-1" d="M693.39,239.88l-.25-2.06a1.78,1.78,0,1,1,3.53-.41h0l.25,2.05a1.78,1.78,0,0,1-3.53.42Z" transform="translate(-0.99 -0.85)"/><path class="cls-1" d="M692.4,233.17l-.37-2a1.78,1.78,0,1,1,3.5-.64h0l.37,2a1.79,1.79,0,0,1-1.44,2.07,1.76,1.76,0,0,1-2.06-1.43Z" transform="translate(-0.99 -0.85)"/><path class="cls-1" d="M691,226.5l-.49-2a1.78,1.78,0,1,1,3.45-.85h0l.49,2a1.78,1.78,0,0,1-3.45.84Z" transform="translate(-0.99 -0.85)"/><path class="cls-1" d="M689.28,220l-.6-2a1.77,1.77,0,1,1,3.34-1.2l.06.21h0l.59,2a1.76,1.76,0,0,1-1.1,2.25,1.78,1.78,0,0,1-2.26-1.1l0-.1Z" transform="translate(-0.99 -0.85)"/><path class="cls-1" d="M687.16,213.55l-.75-2a1.78,1.78,0,1,1,3.33-1.24h0l.72,2a1.78,1.78,0,0,1-3.31,1.29.14.14,0,0,0,0-.06Z" transform="translate(-0.99 -0.85)"/><path class="cls-1" d="M684.68,207.18l-.82-1.89a1.78,1.78,0,0,1,3.26-1.42h0l.83,1.91a1.78,1.78,0,0,1-3.27,1.4Z" transform="translate(-0.99 -0.85)"/><path class="cls-1" d="M681.86,201l-.92-1.85a1.79,1.79,0,0,1,3.19-1.59h0l.92,1.86a1.78,1.78,0,0,1-3.19,1.58Z" transform="translate(-0.99 -0.85)"/><path class="cls-1" d="M678.72,195l-1-1.8a1.78,1.78,0,0,1,3.1-1.75h0l1,1.8a1.78,1.78,0,0,1-3.1,1.75Z" transform="translate(-0.99 -0.85)"/><path class="cls-1" d="M675.26,189.11l-1.11-1.74a1.78,1.78,0,0,1,3-1.91h0l1.12,1.74a1.79,1.79,0,0,1-2.8,2.22A2,2,0,0,1,675.26,189.11Z" transform="translate(-0.99 -0.85)"/><path class="cls-1" d="M671.5,183.45l-1.2-1.68a1.78,1.78,0,0,1,2.9-2.06h0l1.2,1.67a1.78,1.78,0,0,1-2.9,2.07Z" transform="translate(-0.99 -0.85)"/><path class="cls-1" d="M667.47,178l-1.3-1.6a1.77,1.77,0,1,1,2.6-2.41,1.15,1.15,0,0,1,.14.17l1.31,1.6a1.77,1.77,0,0,1-2.74,2.24Z" transform="translate(-0.99 -0.85)"/><path class="cls-1" d="M663.06,172.83l-1.39-1.53a1.76,1.76,0,1,1,2.6-2.37l1.4,1.53a1.77,1.77,0,0,1-2.58,2.41l0,0Z" transform="translate(-0.99 -0.85)"/><path class="cls-1" d="M658.4,167.84,657,166.36a1.75,1.75,0,1,1,2.49-2.45l1.45,1.48a1.74,1.74,0,0,1-.15,2.47,1.76,1.76,0,0,1-2.34,0Z" transform="translate(-0.99 -0.85)"/><path class="cls-1" d="M653.55,163l-1.48-1.42a1.74,1.74,0,1,1,2.39-2.52h0l1.51,1.42a1.75,1.75,0,1,1-2.41,2.53Z" transform="translate(-0.99 -0.85)"/><path class="cls-1" d="M648.57,158.33,647,156.94a1.72,1.72,0,1,1,2.31-2.55h0l1.54,1.37a1.73,1.73,0,0,1-2.31,2.58Z" transform="translate(-0.99 -0.85)"/><path class="cls-1" d="M643.43,153.76l-1.55-1.36a1.69,1.69,0,0,1,2.21-2.56l1.57,1.35a1.71,1.71,0,0,1-2,2.74l-.19-.16Z" transform="translate(-0.99 -0.85)"/><path class="cls-1" d="M638.23,149.25l-1.59-1.32a1.67,1.67,0,0,1,2.13-2.55l1.59,1.3a1.67,1.67,0,0,1-2.12,2.58Z" transform="translate(-0.99 -0.85)"/><path class="cls-1" d="M632.93,144.89l-1.6-1.3a1.63,1.63,0,0,1,2-2.55l1.63,1.29a1.64,1.64,0,1,1-1.62,2.86,1.82,1.82,0,0,1-.38-.29Z" transform="translate(-0.99 -0.85)"/><path class="cls-1" d="M627.58,140.61l-1.64-1.27a1.61,1.61,0,1,1,2-2.53l1.64,1.25a1.62,1.62,0,1,1-2,2.56h0Z" transform="translate(-0.99 -0.85)"/><path class="cls-1" d="M622.13,136.41l-1.64-1.25a1.55,1.55,0,1,1,1.85-2.48l1.67,1.23a1.56,1.56,0,1,1-1.85,2.51h0Z" transform="translate(-0.99 -0.85)"/><path class="cls-1" d="M616.61,132.29l-1.67-1.22a1.5,1.5,0,0,1,1.76-2.44l1.68,1.2a1.51,1.51,0,1,1-1.75,2.47Z" transform="translate(-0.99 -0.85)"/><path class="cls-1" d="M611.06,128.26l-1.68-1.2a1.45,1.45,0,0,1,1.66-2.38l1.71,1.17a1.47,1.47,0,0,1-1.67,2.42Z" transform="translate(-0.99 -0.85)"/><path class="cls-1" d="M605.45,124.3l-1.71-1.18a1.39,1.39,0,0,1,1.56-2.3h0L607,122a1.41,1.41,0,0,1-1.56,2.34Z" transform="translate(-0.99 -0.85)"/><path class="cls-1" d="M599.78,120.42l-1.73-1.15a1.32,1.32,0,1,1,1.45-2.2l1.74,1.11a1.34,1.34,0,1,1-1.44,2.25Z" transform="translate(-0.99 -0.85)"/><path class="cls-1" d="M594,116.64l-1.73-1.13a1.23,1.23,0,0,1-.37-1.72h0a1.25,1.25,0,0,1,1.7-.39l1.77,1.08a1.28,1.28,0,0,1-1.34,2.17Z" transform="translate(-0.99 -0.85)"/><path class="cls-1" d="M588.25,112.9l-1.77-1.1a1.16,1.16,0,0,1,1.21-2h0l1.79,1a1.18,1.18,0,0,1,.41,1.62,1.17,1.17,0,0,1-1.6.43h0Z" transform="translate(-0.99 -0.85)"/><path class="cls-1" d="M582.39,109.34l-1.78-1a1.08,1.08,0,0,1-.31-1.48,1.06,1.06,0,0,1,1.38-.37l1.8,1a1.09,1.09,0,0,1,.43,1.48h0a1.09,1.09,0,0,1-1.48.43Z" transform="translate(-0.99 -0.85)"/><path class="cls-1" d="M576.45,105.92l-1.8-1a1,1,0,0,1,.93-1.72l1.83,1a1,1,0,1,1-.94,1.77Z" transform="translate(-0.99 -0.85)"/><path class="cls-1" d="M570.43,102.58l-1.83-1a.88.88,0,0,1-.36-1.18.89.89,0,0,1,1.15-.38l1.87.9a.93.93,0,0,1,.42,1.22,1,1,0,0,1-1.22.43Z" transform="translate(-0.99 -0.85)"/><path class="cls-1" d="M564.33,99.45l-1.54-.74a.76.76,0,0,1-.36-1,.78.78,0,0,1,1-.36L565,98a.79.79,0,0,1,.41,1,.77.77,0,0,1-1,.4Z" transform="translate(-0.99 -0.85)"/><path class="cls-31" d="M142.22,331.71l-4.88,4.81A35.11,35.11,0,0,1,121,331c2.46-6.13,5-9.77,7-11.9A40.11,40.11,0,0,0,142.22,331.71Z" transform="translate(-0.99 -0.85)"/><path class="cls-31" d="M108.27,313.72l11.51-17.94a45.29,45.29,0,0,0,8.15,23.34c-2,2.13-4.48,5.77-7,11.9A31.63,31.63,0,0,1,108.27,313.72Z" transform="translate(-0.99 -0.85)"/><path d="M96.08,455.88c5.73.26,11.28.1,15-.1-3.37-2.4-11.15-7.62-17.66-9.7l-4.47-.27s-1.51,2.3-2.06,7.57C87.58,454.3,89.74,455.59,96.08,455.88Z" transform="translate(-0.99 -0.85)"/><path class="cls-39" d="M109.66,456.81h0c-3.73.2-9.32.36-15,.1-6.32-.29-8.5-1.6-9.25-2.52a2.73,2.73,0,0,1-.07.74,2.12,2.12,0,0,0,1.94,2.28c4.72.35,16.44,1.16,22.06.86a.79.79,0,0,0,.81-.75A.76.76,0,0,0,109.66,456.81Z" transform="translate(-0.99 -0.85)"/><path d="M55,454.35c-.42-2.7-1.09-6.59-1.61-7.59-.82-1.56-3.61,0-3.61,0a7.58,7.58,0,0,0-2.88,2.45c-.56,1-2.16,3.73-3.24,5.61a1.19,1.19,0,0,0-.17.66l11.2.4A2.16,2.16,0,0,0,55,454.35Z" transform="translate(-0.99 -0.85)"/><path class="cls-40" d="M41.71,456.47A1.27,1.27,0,0,0,43,457.69l8,.22a2.32,2.32,0,0,0,2-1.07Z" transform="translate(-0.99 -0.85)"/><path class="cls-41" d="M55.83,437.82c-.1.31-1.55,7.33-2.18,10.4a1.74,1.74,0,0,1-1.81,1.4,14.45,14.45,0,0,1-1.6-.13,2.13,2.13,0,0,1-1.85-2c-.1-2.69-.15-7.86.84-9.87C50.59,434.83,55.83,437.82,55.83,437.82Z" transform="translate(-0.99 -0.85)"/><path class="cls-42" d="M88,439.82c.63,0-.25,3.21.7,6.37a1.6,1.6,0,0,0,1.48,1.28,15,15,0,0,0,1.64-.05,1.8,1.8,0,0,0,1.66-1.61l.76-8.22Z" transform="translate(-0.99 -0.85)"/><path d="M105.37,352.5c-.28,1.36-10.05,58.35-10.65,87.84a1,1,0,0,1-.86,1,19.34,19.34,0,0,1-6,0,.7.7,0,0,1-.59-.64c-.34-5.5-3.09-52,.28-73.84,0,0-27.8,58.47-32,74.59a.86.86,0,0,1-.88.64,20.68,20.68,0,0,1-5.62-1,1.45,1.45,0,0,1-.93-1.72c2.35-9.65,18.85-76.12,30.06-90.77Z" transform="translate(-0.99 -0.85)"/><path class="cls-43" d="M87.55,367.15a.35.35,0,0,1-.26-.1.37.37,0,0,1,0-.52L91,362.74a.35.35,0,0,1,.51,0,.37.37,0,0,1,0,.52L87.81,367A.31.31,0,0,1,87.55,367.15Z" transform="translate(-0.99 -0.85)"/><path class="cls-33" d="M121.26,281.15c-7.14-1.86-20.31-4.79-30.8-4.16A4.75,4.75,0,0,0,86,281.44c-1.57,27.9-3.74,52.67-7.81,67.08,9.16,3.62,18.23,5.31,27.2,4A300.22,300.22,0,0,0,123,302.68s2.94-15,.08-20A2.91,2.91,0,0,0,121.26,281.15Z" transform="translate(-0.99 -0.85)"/><path class="cls-44" d="M104.05,261.61s-1.77,10.73-2.3,15.72a1.93,1.93,0,0,0,1.06,1.94,14.25,14.25,0,0,0,10.76,1.16,1.84,1.84,0,0,0,1.23-1.78l-.32-14.35Z" transform="translate(-0.99 -0.85)"/><path class="cls-45" d="M115.85,249.69s3.48,8,3.71,12.18,1.14,6.92-3.71,7.76a10.29,10.29,0,0,1-11.16-5.75s-3.46-6.42-2.68-9.07S115.85,249.69,115.85,249.69Z" transform="translate(-0.99 -0.85)"/><path class="cls-46" d="M106.36,260.88h.6s-2.52-5.18-.3-6.09,11-2.7,13-5.81a5.79,5.79,0,0,0-2.13-7.91l-.11-.07a.32.32,0,0,0-.41.15l-.21.38a.33.33,0,0,1-.45.14.29.29,0,0,1-.16-.2h0a.33.33,0,0,0-.59-.09c-.58.94-2.15,2.45-6.37,3.23-6,1.11-10,3.52-10,7.65a.33.33,0,0,1-.33.33.31.31,0,0,1-.19-.06c-.44-.27-1.15-.39-2.1.4-1.63,1.39-1,5,2.64,7.91a.33.33,0,0,1,.06.46s0,.05-.06.07c-.66.43-1.63,1.44.89,2.78s4.11,1.23,4.68,1.09a.32.32,0,0,0,.25-.34l-.22-3.67a.34.34,0,0,1,.31-.35h1.27Z" transform="translate(-0.99 -0.85)"/><path class="cls-47" d="M106.51,261.65s-1.33-5.1-3.62-3.68,1.18,5.72,3,5.91Z" transform="translate(-0.99 -0.85)"/><path class="cls-34" d="M32.25,344.65l-4.69,1.19c-8.07,2-13.49,8.09-12.12,13.53l1.64,6.46c1.37,5.43,9,8.18,17.09,6.15l4.7-1.19.92-.26,137.79-41.2L174,315.26,33.17,344.44C32.85,344.5,32.54,344.57,32.25,344.65Zm2,6.42c6.07-1.54,11.73.15,12.64,3.76s-3.27,7.76-9.34,9.29-11.73-.15-12.64-3.74S28.19,352.63,34.25,351.07Z" transform="translate(-0.99 -0.85)"/><path class="cls-34" d="M219.81,296.14,192.54,303a6.43,6.43,0,0,0-4.34,3.69l-4.08,9.41a6.44,6.44,0,0,0,1.93,7.63l8.06,6.34a6.41,6.41,0,0,0,5.57,1.19L227,324.4a5,5,0,0,1,5.67,7,37.17,37.17,0,0,1-24,18.88c-19.61,5-37-6.91-41.72-25.77s4.85-37.53,24.46-42.48a37.14,37.14,0,0,1,30.11,5.22,5,5,0,0,1-1.64,8.86Z" transform="translate(-0.99 -0.85)"/><path class="cls-34" d="M220.45,298.71l-27.26,6.89a6.48,6.48,0,0,0-4.35,3.68l-4.07,9.42a6.45,6.45,0,0,0,1.93,7.63l8.07,6.34a6.44,6.44,0,0,0,5.57,1.19L227.6,327a5,5,0,0,1,5.67,7,37.13,37.13,0,0,1-24,18.93c-19.61,5-37-6.92-41.73-25.77s4.86-37.53,24.46-42.48a37.15,37.15,0,0,1,30.12,5.21,5,5,0,0,1-1.65,8.87Z" transform="translate(-0.99 -0.85)"/><path class="cls-34" d="M32.75,346.7l-4.69,1.19c-8.07,2-13.5,8.09-12.12,13.52l1.64,6.46c1.37,5.43,9,8.19,17.08,6.15l4.7-1.19.93-.25,137.78-41.2-3.56-14.07L33.69,346.48Zm2,6.45c6.06-1.53,11.72.14,12.64,3.75s-3.27,7.77-9.34,9.31-11.74-.15-12.65-3.76,3.3-7.76,9.38-9.3Z" transform="translate(-0.99 -0.85)"/><path class="cls-48" d="M67.51,318.32C64,328.23,66,338.84,66,338.84l-4.66,1.27s-6-7.16-4.63-23A22.7,22.7,0,0,1,67.51,318.32Z" transform="translate(-0.99 -0.85)"/><path class="cls-31" d="M56.68,317.08c.15-1.78.4-3.68.75-5.68,3.15-17.49,25.59-30.95,30.92-33.88a.71.71,0,0,1,1,.28.62.62,0,0,1,.09.37L88.67,302c-12.5,1.67-18.41,8.82-21.11,16.38A22.66,22.66,0,0,0,56.68,317.08Z" transform="translate(-0.99 -0.85)"/><path class="cls-49" d="M152,340.44a3.08,3.08,0,0,0,2-1.69c.71-1.6,1.52-4.16-.2-5-2.56-1.16-7.22,3.61-7.22,3.61l-2.27,3.68-2.08,1C144.12,342.63,147.8,341.75,152,340.44Z" transform="translate(-0.99 -0.85)"/><path class="cls-50" d="M65.66,336.52h5.75s-4.67,2.79-4.82,5.74,1.85,9,2.79,10.69c1,1.82-13-2.7-8.07-16.43Z" transform="translate(-0.99 -0.85)"/><path class="cls-51" d="M629.83,195.61s4,2,4.76,4.2c.6,1.8,5,2,5.48,5.58a4.05,4.05,0,0,0,3.4,3.57c4.54.69,11.54,3,12.67,11,.85,6-2.22,8.29-5.44,9.07a4.57,4.57,0,0,0-3.46,5.27c.46,2.29-.23,4.93-4.19,7-8.89,4.7-17.77-11.1-17.77-11.1l-1.82-27.6Z" transform="translate(-0.99 -0.85)"/><path class="cls-52" d="M588,181.07s11.44,31.16,30.91,40.86c0,0-6.49,10.58-9.87,11.22,0,0-20.82-26.63-22.94-48.45Z" transform="translate(-0.99 -0.85)"/><path class="cls-31" d="M666.37,368.53l.58,4.72c.11.9,2.23,3.18,3.13,3.28a14.24,14.24,0,0,0,4.56.26c1-.11,2.07-2.9,1.75-3.9a17.14,17.14,0,0,0-3.17-6.18H668a1.63,1.63,0,0,0-1.61,1.64A1.09,1.09,0,0,0,666.37,368.53Z" transform="translate(-0.99 -0.85)"/><path class="cls-53" d="M625.28,313.2l-.88,5.21s3,30,3.49,42a9.44,9.44,0,0,1-1.4,5.35l-5.15,8.37,13.1-7.73.27-1.6-2.15-3,2.81-33.62a10.29,10.29,0,0,0-1.18-5.71l-2.7-5.08Z" transform="translate(-0.99 -0.85)"/><path class="cls-31" d="M620.48,375.31h4.18a2.51,2.51,0,0,0,2-1c1.3-1.7,4-5,5.3-5.08,1.73-.12,1.51,6.05,1.51,6.05h1l1.24-7.67a4.52,4.52,0,0,0-2.39-4.74h0s-.4,2.93-2.55,4.23-8.77,6-8.77,6a6.05,6.05,0,0,0-1.7,0,1.11,1.11,0,1,0,.19,2.22Z" transform="translate(-0.99 -0.85)"/><path class="cls-54" d="M643.23,315.63s17.37,32.94,20.14,40.45a71.56,71.56,0,0,1,3.76,14.39c.06.93,1.21,1.81,4.39,1.81a3,3,0,0,0,2.85-1.29,1.84,1.84,0,0,0,.07-1.79c-1-2-4.19-8.53-5.38-11.47-1.41-3.52-4.44-19.47-6.1-25s-3.55-11.55-10.79-17.09C652.17,315.63,647.19,310.77,643.23,315.63Z" transform="translate(-0.99 -0.85)"/><path class="cls-55" d="M632.25,261.68c-4.47-19,6.88-29.72,6.88-29.72-7.16-6.86-20.22-10-20.22-10s-12.45,9.1-11,16.22c.87,4.18,8.76,25,8.76,25A17.36,17.36,0,0,0,632.25,261.68Z" transform="translate(-0.99 -0.85)"/><path class="cls-34" d="M642.19,271.07c-1.82-5.49-10-9.39-10-9.39a17.35,17.35,0,0,1-15.56,1.52,31.1,31.1,0,0,0-.51,12c1.14,5.81,8.22,43.13,8.22,43.13,11.16,2.25,28.32-2.28,28.32-2.28C645.61,303.48,644,276.56,642.19,271.07Z" transform="translate(-0.99 -0.85)"/><path class="cls-56" d="M627.05,209.43l3.65,16.36c.35,1.43-1,1.2-2.42.92-2.39-.45-5.47-1.37-6.5-3.23a1.88,1.88,0,0,1-.19-.61L620,211.56a2.06,2.06,0,0,1,1.2-2.15l3-1.33a2,2,0,0,1,2.67.9A2.41,2.41,0,0,1,627.05,209.43Z" transform="translate(-0.99 -0.85)"/><path class="cls-57" d="M639.13,232s25.42,18.19,3.25,37.29a5.74,5.74,0,0,1-2.51,1.46,26.38,26.38,0,0,0-4.58,3.11.88.88,0,0,1-1.23-.18.1.1,0,0,1,0-.05h0a1.21,1.21,0,0,1-.06-1.14l3.14-6.64a2.43,2.43,0,0,1,3.16-.14h0a1.19,1.19,0,0,0,1.68-.2l.14-.21c1.71-3.49,5-13.75-8.3-25.35a1.44,1.44,0,0,1-.32-1.75C634.39,236.38,636.55,232.83,639.13,232Z" transform="translate(-0.99 -0.85)"/><path class="cls-58" d="M622.78,193.86s-4.32,1.82-7.25,8-.75,9.11,2,9.51a13,13,0,0,0,11.22-3.69C633.11,203.7,628.39,191.7,622.78,193.86Z" transform="translate(-0.99 -0.85)"/><path class="cls-59" d="M625.83,204.4s3.26-9.12-4.82-9.23l-1.91,1.33s-3-5.05,1.91-7.47,10.57-.41,12.64,6.14,2.42,11-1,14.08-4.86-.41-4.86-.41,1.87-2.93,1.1-4.51-2.52.33-2.52.33Z" transform="translate(-0.99 -0.85)"/><path class="cls-60" d="M626.74,205.42s1.65-4.71,3.84-2.83-1.79,4.33-3.34,5.14Z" transform="translate(-0.99 -0.85)"/><path class="cls-61" d="M586.88,186.74c-.17.55,1.85,1.4,3-.86,0-1.1.7-5.75,0-6.64-3.46-4.72-10.17-10.62-10.17-10.62a1.58,1.58,0,0,0-.2,2.21l3.25,3.4a15.65,15.65,0,0,0-1.89,3.74,4.53,4.53,0,0,0,.45,3.36c.58,1,1.35,2.36,2.09,3.41A4.55,4.55,0,0,0,586.88,186.74Z" transform="translate(-0.99 -0.85)"/><path class="cls-62" d="M588.18,181.43l-.93-2.5-3-2.51c-.62.32-1,.84-.3,1.91s1.56,6,1.56,6Z" transform="translate(-0.99 -0.85)"/><polygon class="cls-63" points="559.8 79.03 555.92 95.12 546.7 85.57 559.8 79.03"/><path class="cls-64" d="M490.68,53.21l34.26,48.56a4.19,4.19,0,0,0,5.83,1l.15-.11,47.5-36.2a1.68,1.68,0,0,0-.83-3Z" transform="translate(-0.99 -0.85)"/><polygon class="cls-65" points="559.8 79.03 489.69 52.36 552.15 84.9 551.27 89.41 559.8 79.03"/><polygon class="cls-66" points="547.59 88.35 555.92 95.12 552.15 84.9 547.59 88.35"/></svg>