<svg id="Capa_1" data-name="Capa 1" xmlns="http://www.w3.org/2000/svg" xmlns:xlink="http://www.w3.org/1999/xlink" viewBox="0 0 705 459"><defs><style>.cls-1{fill:#383838;}.cls-2,.cls-5{fill:#fff;}.cls-3{fill:#606060;}.cls-3,.cls-93{opacity:0.2;}.cls-3,.cls-5,.cls-87,.cls-89,.cls-93{isolation:isolate;}.cls-4{fill:url(#Degradado_sin_nombre);}.cls-5{opacity:0.69;}.cls-6{fill:#f24f18;}.cls-7{fill:url(#Degradado_sin_nombre_2);}.cls-8{fill:url(#Degradado_sin_nombre_3);}.cls-9{fill:url(#Degradado_sin_nombre_4);}.cls-10{fill:url(#Degradado_sin_nombre_5);}.cls-11{fill:url(#Degradado_sin_nombre_6);}.cls-12{fill:url(#Degradado_sin_nombre_7);}.cls-13{fill:url(#Degradado_sin_nombre_8);}.cls-14{fill:url(#Degradado_sin_nombre_9);}.cls-15{fill:url(#Degradado_sin_nombre_10);}.cls-16{fill:url(#Degradado_sin_nombre_11);}.cls-17{fill:url(#Degradado_sin_nombre_12);}.cls-18{fill:url(#Degradado_sin_nombre_13);}.cls-19{fill:url(#Degradado_sin_nombre_14);}.cls-20{fill:url(#Degradado_sin_nombre_15);}.cls-21{fill:url(#Degradado_sin_nombre_16);}.cls-22{fill:url(#Degradado_sin_nombre_17);}.cls-23{fill:url(#Degradado_sin_nombre_18);}.cls-24{fill:url(#Degradado_sin_nombre_19);}.cls-25{fill:url(#Degradado_sin_nombre_20);}.cls-26{fill:url(#Degradado_sin_nombre_21);}.cls-27{fill:url(#Degradado_sin_nombre_22);}.cls-28{fill:url(#Degradado_sin_nombre_23);}.cls-29{fill:url(#Degradado_sin_nombre_24);}.cls-30{fill:url(#Degradado_sin_nombre_25);}.cls-31{fill:url(#Degradado_sin_nombre_26);}.cls-32{fill:url(#Degradado_sin_nombre_27);}.cls-33{fill:url(#Degradado_sin_nombre_28);}.cls-34{fill:url(#Degradado_sin_nombre_29);}.cls-35{fill:url(#Degradado_sin_nombre_30);}.cls-36{fill:url(#Degradado_sin_nombre_31);}.cls-37{fill:url(#Degradado_sin_nombre_32);}.cls-38{fill:url(#Degradado_sin_nombre_33);}.cls-39{fill:url(#Degradado_sin_nombre_34);}.cls-40{fill:url(#Degradado_sin_nombre_35);}.cls-41{fill:url(#Degradado_sin_nombre_36);}.cls-42{fill:url(#Degradado_sin_nombre_37);}.cls-43{fill:url(#Degradado_sin_nombre_38);}.cls-44{fill:url(#Degradado_sin_nombre_39);}.cls-45{fill:url(#Degradado_sin_nombre_40);}.cls-46{fill:url(#Degradado_sin_nombre_41);}.cls-47{fill:url(#Degradado_sin_nombre_42);}.cls-48{fill:url(#Degradado_sin_nombre_43);}.cls-49{fill:url(#Degradado_sin_nombre_44);}.cls-50{fill:url(#Degradado_sin_nombre_45);}.cls-51{fill:url(#Degradado_sin_nombre_46);}.cls-52{fill:url(#Degradado_sin_nombre_47);}.cls-53{fill:url(#Degradado_sin_nombre_48);}.cls-54{fill:url(#Degradado_sin_nombre_49);}.cls-55{fill:url(#Degradado_sin_nombre_50);}.cls-56{fill:url(#Degradado_sin_nombre_51);}.cls-57{fill:url(#Degradado_sin_nombre_52);}.cls-58{fill:url(#Degradado_sin_nombre_53);}.cls-59{fill:url(#Degradado_sin_nombre_54);}.cls-60{fill:url(#Degradado_sin_nombre_55);}.cls-61{fill:url(#Degradado_sin_nombre_56);}.cls-62{fill:#ffbb21;}.cls-63{fill:#9b9b9b;}.cls-64{fill:url(#Degradado_sin_nombre_57);}.cls-65{fill:#141414;}.cls-66{fill:url(#Degradado_sin_nombre_58);}.cls-67{fill:url(#Degradado_sin_nombre_59);}.cls-68{fill:url(#Degradado_sin_nombre_60);}.cls-69{fill:url(#Degradado_sin_nombre_61);}.cls-70{fill:url(#Degradado_sin_nombre_62);}.cls-71{fill:url(#Degradado_sin_nombre_63);}.cls-72{fill:url(#Degradado_sin_nombre_64);}.cls-73{fill:url(#Degradado_sin_nombre_65);}.cls-74{fill:url(#Degradado_sin_nombre_66);}.cls-75{fill:url(#Degradado_sin_nombre_67);}.cls-76{fill:url(#Degradado_sin_nombre_68);}.cls-77{fill:url(#Degradado_sin_nombre_69);}.cls-78{fill:url(#Degradado_sin_nombre_70);}.cls-79{fill:url(#Degradado_sin_nombre_71);}.cls-80{fill:#545454;}.cls-81{fill:#111;}.cls-82{fill:#2b454e;}.cls-83{fill:#0a0a0a;}.cls-84{fill:#262626;}.cls-85{fill:#d268cc;}.cls-86{fill:#ff4e08;}.cls-87{opacity:0.1;}.cls-88{fill:#fb0;}.cls-89{opacity:0.15;}.cls-90{fill:#777;}.cls-91{fill:#1a2e35;}.cls-92{fill:#e1e1e1;}.cls-94{fill:#fafafa;}.cls-95{fill:#ececec;}.cls-96{fill:#f5f5f5;}</style><linearGradient id="Degradado_sin_nombre" x1="291.63" y1="251.82" x2="574.33" y2="251.82" gradientTransform="matrix(1, 0, 0, -1, 0, 646)" gradientUnits="userSpaceOnUse"><stop offset="0" stop-color="#ffbb21"/><stop offset="1" stop-color="#f24f18"/></linearGradient><linearGradient id="Degradado_sin_nombre_2" x1="686.66" y1="293.32" x2="190.93" y2="270.03" gradientTransform="matrix(1, 0, 0, -1, -64.86, 837.14)" gradientUnits="userSpaceOnUse"><stop offset="0.05" stop-color="#383838"/><stop offset="0.15" stop-color="#3d3b37"/><stop offset="0.27" stop-color="#4c4536"/><stop offset="0.4" stop-color="#655633"/><stop offset="0.54" stop-color="#886d2f"/><stop offset="0.69" stop-color="#b58a2a"/><stop offset="0.84" stop-color="#ebae23"/><stop offset="0.89" stop-color="#ffbb21"/></linearGradient><linearGradient id="Degradado_sin_nombre_3" x1="1527.99" y1="-2201.8" x2="1541.01" y2="-2201.8" gradientTransform="matrix(0, -1, -1, 0, -2057.68, 2075.12)" gradientUnits="userSpaceOnUse"><stop offset="0" stop-color="#2b3582"/><stop offset="1" stop-color="#150e42"/></linearGradient><linearGradient id="Degradado_sin_nombre_4" x1="1537.3" y1="-2210.55" x2="1537" y2="-2214.06" xlink:href="#Degradado_sin_nombre_3"/><linearGradient id="Degradado_sin_nombre_5" x1="1528.04" y1="-2221.18" x2="1541.04" y2="-2221.18" xlink:href="#Degradado_sin_nombre_3"/><linearGradient id="Degradado_sin_nombre_6" x1="1537.26" y1="-2230.7" x2="1536.95" y2="-2234.21" xlink:href="#Degradado_sin_nombre_3"/><linearGradient id="Degradado_sin_nombre_7" x1="1528.07" y1="-2240.53" x2="1541.1" y2="-2240.53" xlink:href="#Degradado_sin_nombre_3"/><linearGradient id="Degradado_sin_nombre_8" x1="1537.26" y1="-2250.06" x2="1536.96" y2="-2253.58" xlink:href="#Degradado_sin_nombre_3"/><linearGradient id="Degradado_sin_nombre_9" x1="1528.1" y1="-2259.9" x2="1541.12" y2="-2259.9" xlink:href="#Degradado_sin_nombre_3"/><linearGradient id="Degradado_sin_nombre_10" x1="1537.26" y1="-2269.43" x2="1536.96" y2="-2272.95" xlink:href="#Degradado_sin_nombre_3"/><linearGradient id="Degradado_sin_nombre_11" x1="1528.15" y1="-2279.26" x2="1541.16" y2="-2279.26" xlink:href="#Degradado_sin_nombre_3"/><linearGradient id="Degradado_sin_nombre_12" x1="1537.26" y1="-2288.8" x2="1536.96" y2="-2292.31" xlink:href="#Degradado_sin_nombre_3"/><linearGradient id="Degradado_sin_nombre_13" x1="1528.19" y1="-2298.62" x2="1541.2" y2="-2298.62" xlink:href="#Degradado_sin_nombre_3"/><linearGradient id="Degradado_sin_nombre_14" x1="1537.26" y1="-2308.16" x2="1536.95" y2="-2311.68" xlink:href="#Degradado_sin_nombre_3"/><linearGradient id="Degradado_sin_nombre_15" x1="1528.22" y1="-2318" x2="1541.23" y2="-2318" xlink:href="#Degradado_sin_nombre_3"/><linearGradient id="Degradado_sin_nombre_16" x1="1537.26" y1="-2327.52" x2="1536.96" y2="-2331.05" xlink:href="#Degradado_sin_nombre_3"/><linearGradient id="Degradado_sin_nombre_17" x1="1528.27" y1="-2337.35" x2="1541.28" y2="-2337.35" xlink:href="#Degradado_sin_nombre_3"/><linearGradient id="Degradado_sin_nombre_18" x1="1537.28" y1="-2343.73" x2="1536.98" y2="-2347.24" xlink:href="#Degradado_sin_nombre_3"/><linearGradient id="Degradado_sin_nombre_19" x1="1528.99" y1="-2354.8" x2="1542" y2="-2354.8" xlink:href="#Degradado_sin_nombre_3"/><linearGradient id="Degradado_sin_nombre_20" x1="1537.71" y1="-2363.5" x2="1537.41" y2="-2367.02" xlink:href="#Degradado_sin_nombre_3"/><linearGradient id="Degradado_sin_nombre_21" x1="1529.02" y1="-2374.12" x2="1542.03" y2="-2374.12" xlink:href="#Degradado_sin_nombre_3"/><linearGradient id="Degradado_sin_nombre_22" x1="1537.68" y1="-2383.66" x2="1537.36" y2="-2387.18" xlink:href="#Degradado_sin_nombre_3"/><linearGradient id="Degradado_sin_nombre_23" x1="1529.06" y1="-2393.53" x2="1542.08" y2="-2393.53" xlink:href="#Degradado_sin_nombre_3"/><linearGradient id="Degradado_sin_nombre_24" x1="1537.67" y1="-2403.03" x2="1537.37" y2="-2406.55" xlink:href="#Degradado_sin_nombre_3"/><linearGradient id="Degradado_sin_nombre_25" x1="1528.42" y1="-2412.84" x2="1541.43" y2="-2412.84" xlink:href="#Degradado_sin_nombre_3"/><linearGradient id="Degradado_sin_nombre_26" x1="1537.67" y1="-2422.4" x2="1537.38" y2="-2425.91" xlink:href="#Degradado_sin_nombre_3"/><linearGradient id="Degradado_sin_nombre_27" x1="1528.45" y1="-2432.24" x2="1541.47" y2="-2432.24" xlink:href="#Degradado_sin_nombre_3"/><linearGradient id="Degradado_sin_nombre_28" x1="1537.68" y1="-2441.75" x2="1537.38" y2="-2445.27" xlink:href="#Degradado_sin_nombre_3"/><linearGradient id="Degradado_sin_nombre_29" x1="1528.49" y1="-2451.58" x2="1541.5" y2="-2451.58" xlink:href="#Degradado_sin_nombre_3"/><linearGradient id="Degradado_sin_nombre_30" x1="1537.68" y1="-2461.12" x2="1537.38" y2="-2464.65" xlink:href="#Degradado_sin_nombre_3"/><linearGradient id="Degradado_sin_nombre_31" x1="1528.52" y1="-2470.94" x2="1541.54" y2="-2470.94" xlink:href="#Degradado_sin_nombre_3"/><linearGradient id="Degradado_sin_nombre_32" x1="1537.68" y1="-2480.49" x2="1537.38" y2="-2484" xlink:href="#Degradado_sin_nombre_3"/><linearGradient id="Degradado_sin_nombre_33" x1="1528.57" y1="-2490.3" x2="1541.58" y2="-2490.3" xlink:href="#Degradado_sin_nombre_3"/><linearGradient id="Degradado_sin_nombre_34" x1="1537.68" y1="-2496.69" x2="1537.39" y2="-2500.21" xlink:href="#Degradado_sin_nombre_3"/><linearGradient id="Degradado_sin_nombre_35" x1="1529.98" y1="-2507.3" x2="1542.99" y2="-2507.3" xlink:href="#Degradado_sin_nombre_3"/><linearGradient id="Degradado_sin_nombre_36" x1="1538.93" y1="-2516.06" x2="1538.63" y2="-2519.58" xlink:href="#Degradado_sin_nombre_3"/><linearGradient id="Degradado_sin_nombre_37" x1="1530.01" y1="-2526.66" x2="1543.02" y2="-2526.66" xlink:href="#Degradado_sin_nombre_3"/><linearGradient id="Degradado_sin_nombre_38" x1="1538.89" y1="-2536.21" x2="1538.59" y2="-2539.74" xlink:href="#Degradado_sin_nombre_3"/><linearGradient id="Degradado_sin_nombre_39" x1="1530.05" y1="-2546.02" x2="1543.07" y2="-2546.02" xlink:href="#Degradado_sin_nombre_3"/><linearGradient id="Degradado_sin_nombre_40" x1="1538.89" y1="-2555.58" x2="1538.59" y2="-2559.1" xlink:href="#Degradado_sin_nombre_3"/><linearGradient id="Degradado_sin_nombre_41" x1="1530.08" y1="-2565.45" x2="1543.11" y2="-2565.45" xlink:href="#Degradado_sin_nombre_3"/><linearGradient id="Degradado_sin_nombre_42" x1="1538.89" y1="-2574.95" x2="1538.59" y2="-2578.46" xlink:href="#Degradado_sin_nombre_3"/><linearGradient id="Degradado_sin_nombre_43" x1="1530.13" y1="-2584.74" x2="1543.14" y2="-2584.74" xlink:href="#Degradado_sin_nombre_3"/><linearGradient id="Degradado_sin_nombre_44" x1="1538.89" y1="-2594.31" x2="1538.59" y2="-2597.83" xlink:href="#Degradado_sin_nombre_3"/><linearGradient id="Degradado_sin_nombre_45" x1="1530.16" y1="-2604.17" x2="1543.17" y2="-2604.17" xlink:href="#Degradado_sin_nombre_3"/><linearGradient id="Degradado_sin_nombre_46" x1="1538.89" y1="-2613.68" x2="1538.6" y2="-2617.2" xlink:href="#Degradado_sin_nombre_3"/><linearGradient id="Degradado_sin_nombre_47" x1="1529.51" y1="-2623.48" x2="1543.22" y2="-2623.48" xlink:href="#Degradado_sin_nombre_3"/><linearGradient id="Degradado_sin_nombre_48" x1="1538.89" y1="-2633.04" x2="1538.58" y2="-2636.57" xlink:href="#Degradado_sin_nombre_3"/><linearGradient id="Degradado_sin_nombre_49" x1="1529.56" y1="-2642.86" x2="1543.25" y2="-2642.86" xlink:href="#Degradado_sin_nombre_3"/><linearGradient id="Degradado_sin_nombre_50" x1="1538.91" y1="-2649.26" x2="1538.61" y2="-2652.77" xlink:href="#Degradado_sin_nombre_3"/><linearGradient id="Degradado_sin_nombre_51" x1="357.64" y1="273.61" x2="400.08" y2="260.81" gradientTransform="matrix(1, -0.01, -0.01, -1, -50.67, 830.19)" gradientUnits="userSpaceOnUse"><stop offset="0" stop-color="#cb236d"/><stop offset="0.43" stop-color="#c9236d"/><stop offset="0.58" stop-color="#c2236d"/><stop offset="0.69" stop-color="#b7236d"/><stop offset="0.78" stop-color="#a6236d"/><stop offset="0.86" stop-color="#90236d"/><stop offset="0.93" stop-color="#74246d"/><stop offset="0.99" stop-color="#55246d"/><stop offset="1" stop-color="#4c246d"/></linearGradient><linearGradient id="Degradado_sin_nombre_52" x1="365.51" y1="309.48" x2="339.22" y2="281.19" xlink:href="#Degradado_sin_nombre_51"/><linearGradient id="Degradado_sin_nombre_53" x1="603.06" y1="407.19" x2="495.92" y2="303.76" gradientTransform="matrix(1, 0, 0, -1, -64.86, 837.14)" gradientUnits="userSpaceOnUse"><stop offset="0" stop-color="#fdf53f"/><stop offset="1" stop-color="#d93c65"/></linearGradient><linearGradient id="Degradado_sin_nombre_54" x1="496.81" y1="400.1" x2="446.48" y2="305.05" xlink:href="#Degradado_sin_nombre_53"/><linearGradient id="Degradado_sin_nombre_55" x1="520.99" y1="406.39" x2="486.87" y2="312.46" xlink:href="#Degradado_sin_nombre_53"/><linearGradient id="Degradado_sin_nombre_56" x1="-758.51" y1="370.67" x2="-729.12" y2="377.3" gradientTransform="translate(-241.49 837.14) rotate(180)" gradientUnits="userSpaceOnUse"><stop offset="0" stop-color="#f9b776"/><stop offset="1" stop-color="#f47960"/></linearGradient><linearGradient id="Degradado_sin_nombre_57" x1="-310.76" y1="191.67" x2="-302.2" y2="191.67" gradientTransform="translate(237.08 837.14) rotate(180)" xlink:href="#Degradado_sin_nombre_56"/><linearGradient id="Degradado_sin_nombre_58" x1="-341.61" y1="192.12" x2="-334.22" y2="192.12" gradientTransform="translate(237.08 837.14) rotate(180)" xlink:href="#Degradado_sin_nombre_56"/><linearGradient id="Degradado_sin_nombre_59" x1="-329.9" y1="414.17" x2="-308.03" y2="414.17" gradientTransform="translate(237.08 837.14) rotate(180)" xlink:href="#Degradado_sin_nombre_56"/><linearGradient id="Degradado_sin_nombre_60" x1="-761.36" y1="381.32" x2="-772.82" y2="334.66" gradientTransform="translate(-241.49 837.14) rotate(180)" gradientUnits="userSpaceOnUse"><stop offset="0"/><stop offset="1" stop-color="#f24f18"/></linearGradient><linearGradient id="Degradado_sin_nombre_61" x1="503.38" y1="176.63" x2="560.46" y2="176.63" gradientTransform="matrix(1, 0, 0, -1, 48.97, 389.33)" gradientUnits="userSpaceOnUse"><stop offset="0" stop-color="#fff" stop-opacity="0.69"/><stop offset="1" stop-color="#e26c5b"/></linearGradient><linearGradient id="Degradado_sin_nombre_62" x1="-189.34" y1="400.89" x2="-203.38" y2="339.19" gradientTransform="matrix(1, 0, 0, -1, 801.42, 580.47)" gradientUnits="userSpaceOnUse"><stop offset="0" stop-color="#cb236d"/><stop offset="1" stop-color="#4c246d"/></linearGradient><linearGradient id="Degradado_sin_nombre_63" x1="-792.75" y1="335.08" x2="-812.32" y2="293.5" gradientTransform="translate(-241.49 837.14) rotate(180)" xlink:href="#Degradado_sin_nombre_3"/><linearGradient id="Degradado_sin_nombre_64" x1="-793.18" y1="373.1" x2="-763.97" y2="356.64" gradientTransform="translate(-192.52 580.47) rotate(180)" xlink:href="#Degradado_sin_nombre_62"/><linearGradient id="Degradado_sin_nombre_65" x1="-792.11" y1="375.69" x2="-779.27" y2="368.45" gradientTransform="translate(-241.49 837.14) rotate(180)" xlink:href="#Degradado_sin_nombre_3"/><linearGradient id="Degradado_sin_nombre_66" x1="-795.96" y1="374.67" x2="-777.94" y2="364.51" gradientTransform="translate(-192.52 580.47) rotate(180)" xlink:href="#Degradado_sin_nombre_3"/><linearGradient id="Degradado_sin_nombre_67" x1="-371.25" y1="357.75" x2="-315.94" y2="357.75" gradientTransform="translate(237.08 837.14) rotate(180)" xlink:href="#Degradado_sin_nombre_56"/><linearGradient id="Degradado_sin_nombre_68" x1="-320" y1="363.77" x2="-302.76" y2="363.77" gradientTransform="translate(237.08 837.14) rotate(180)" xlink:href="#Degradado_sin_nombre_56"/><linearGradient id="Degradado_sin_nombre_69" x1="-1345.93" y1="3213.11" x2="-1375.45" y2="3174.06" gradientTransform="translate(-2386.64 2265.63) rotate(-145.2)" xlink:href="#Degradado_sin_nombre_56"/><linearGradient id="Degradado_sin_nombre_70" x1="632.05" y1="464.46" x2="607.23" y2="425.1" gradientTransform="matrix(1, 0, 0, -1, -64.86, 837.14)" gradientUnits="userSpaceOnUse"><stop offset="0.05" stop-color="#101010"/><stop offset="1" stop-color="#383838"/></linearGradient><linearGradient id="Degradado_sin_nombre_71" x1="-1388.95" y1="3182.76" x2="-1365.26" y2="3207.07" gradientTransform="translate(-2386.64 2265.63) rotate(-145.2)" xlink:href="#Degradado_sin_nombre_56"/></defs><title>FotografiayVideo</title><path d="M615.16,582.55c-.12,5.41-4.29,9.7-9.33,9.59H102.05c-5,.1-9.21-4.19-9.33-9.59l-4.17-298c0-5.26,6-15.56,17.07-14.78L598,256.68a23.14,23.14,0,0,1,17.2,7,24.52,24.52,0,0,1,6.89,17.67Z" transform="translate(48.97 -256.67)"/><path class="cls-1" d="M606,573.33c-.11,5.11-4.05,9.16-8.81,9.08H114.2c-4.77.08-8.7-4-8.82-9.08l-4-270.55c.46-16.28,14.34-22.14,22.74-21.8L596,268a16.16,16.16,0,0,1,12.08,4.94A17.32,17.32,0,0,1,613,285.34Z" transform="translate(48.97 -256.67)"/><path class="cls-2" d="M110.61,444.36a.87.87,0,0,1-.84-.85l-.31-21.94a.85.85,0,0,1,.82-.87h0a.85.85,0,0,1,.85.84l.31,21.95a.85.85,0,0,1-.82.87Z" transform="translate(48.97 -256.67)"/><path class="cls-2" d="M109.84,390.58a.83.83,0,0,1-.83-.83h0l-1.2-84a18.23,18.23,0,0,1,5-13.43c6-5.93,15.42-5.63,15.82-5.62l150.64-4.17a.83.83,0,0,1,.8.86.84.84,0,0,1-.8.86h0l-150.73,4.15c-.43,0-9.16-.28-14.67,5.15a16.49,16.49,0,0,0-4.5,12.2l1.2,84a.85.85,0,0,1-.82.87h.06Z" transform="translate(48.97 -256.67)"/><path class="cls-3" d="M126.66,558.35c.51-22.36.32-220.38-.92-237.49s24.62-20.31,64.35-22.23S565,289.08,573.61,288.37c19.39-1.63,23.41,28.22,21.47,93-1.46,48.69-3.88,128.88-5,165.82a20.05,20.05,0,0,1-19.73,19.73c-80.65.23-389.77,1.14-410.36,1.77C136.38,569.37,126.46,567.23,126.66,558.35Z" transform="translate(48.97 -256.67)"/><path d="M643.31,616.87H74.79c-6.87.12-12.55-5.72-12.72-13.09h0c.17-7.37,5.85-13.21,12.72-13.08H643.31c6.87-.13,12.55,5.71,12.72,13.08h0C655.87,611.15,650.19,617,643.31,616.87Z" transform="translate(48.97 -256.67)"/><path class="cls-4" d="M311.1,305H554.85c10.76,0,19.48,9.35,19.48,20.88V462.44c0,11.54-8.72,20.89-19.48,20.89H311.1c-10.75,0-19.47-9.35-19.47-20.89V325.92C291.63,314.39,300.35,305,311.1,305Z" transform="translate(48.97 -256.67)"/><path class="cls-5" d="M420.67,367.18v50.4a1.48,1.48,0,0,0,1.49,1.49,1.43,1.43,0,0,0,.76-.27l36.42-26.19a1.49,1.49,0,0,0,.45-2,1.39,1.39,0,0,0-.45-.48L422.92,366a1.38,1.38,0,0,0-2,.4A1.5,1.5,0,0,0,420.67,367.18Z" transform="translate(48.97 -256.67)"/><path class="cls-6" d="M152.19,515.58H575.66c8.29,0,15,7.2,15,16.09v21.76c0,8.91-6.74,16.13-15,16.13H141.94c-8.31,0-15.06-7.18-15.08-16.09h0V542.69C126.88,527.71,138.22,515.58,152.19,515.58Z" transform="translate(48.97 -256.67)"/><path class="cls-7" d="M558.62,566l-340.25.61c-4,0-7.3-2.67-7.34-6l-.12-11.76c0-2.85,2.83-5.31,6.36-5.31l342,.48c4,0,7.31,2.69,7.35,6l.09,9.17C566.73,563,563.1,566,558.62,566Z" transform="translate(48.97 -256.67)"/><path class="cls-8" d="M138,525.54c.4,0,.72.17.72.59v11.8c0,.42-.34.63-.74.63h-.12a.69.69,0,0,1-.73-.67V526.11c0-.41.32-.57.72-.57Z" transform="translate(48.97 -256.67)"/><path class="cls-9" d="M147.43,525.15a.83.83,0,0,1,.8.82v6.09a.8.8,0,0,1-.77.83h0a.81.81,0,0,1-.78-.82V526a.8.8,0,0,1,.78-.82h0Z" transform="translate(48.97 -256.67)"/><path class="cls-10" d="M157.37,525.43c.4,0,.74.2.74.6v11.8c0,.4-.32.6-.72.62h-.14a.68.68,0,0,1-.71-.66V526c0-.41.32-.58.72-.58Z" transform="translate(48.97 -256.67)"/><path class="cls-11" d="M167.58,525.11a.81.81,0,0,1,.8.82V532a.8.8,0,0,1-.78.82h0a.81.81,0,0,1-.79-.82h0v-6.1a.8.8,0,0,1,.79-.82h0Z" transform="translate(48.97 -256.67)"/><path class="cls-12" d="M176.74,525.31a.64.64,0,0,1,.72.63v11.78c0,.41-.32.6-.72.6h-.13a.68.68,0,0,1-.73-.64v-11.8c0-.41.32-.58.72-.58Z" transform="translate(48.97 -256.67)"/><path class="cls-13" d="M187,525a.79.79,0,0,1,.79.8v6.1a.79.79,0,0,1-.76.82h0a.8.8,0,0,1-.8-.8h0v-6.11a.79.79,0,0,1,.76-.81h0Z" transform="translate(48.97 -256.67)"/><path class="cls-14" d="M196.1,525.2a.66.66,0,0,1,.73.64v11.78c0,.41-.32.59-.72.59H196a.64.64,0,0,1-.71-.57.13.13,0,0,1,0-.06V525.8c0-.42.33-.6.73-.6Z" transform="translate(48.97 -256.67)"/><path class="cls-15" d="M206.31,525a.81.81,0,0,1,.8.8v6.12a.79.79,0,0,1-.76.82h0a.8.8,0,0,1-.78-.82h0v-6.1a.8.8,0,0,1,.78-.82h0Z" transform="translate(48.97 -256.67)"/><path class="cls-16" d="M215.47,525.08a.69.69,0,0,1,.73.64v11.79c0,.41-.32.58-.72.58h-.13c-.4,0-.73-.2-.73-.61v-11.8c0-.41.32-.6.71-.6Z" transform="translate(48.97 -256.67)"/><path class="cls-17" d="M225.69,524.88a.8.8,0,0,1,.79.79h0v6.11a.78.78,0,0,1-.76.81h0a.77.77,0,0,1-.78-.78V525.7a.79.79,0,0,1,.76-.82Z" transform="translate(48.97 -256.67)"/><path class="cls-18" d="M234.84,525a.66.66,0,0,1,.71.62.09.09,0,0,1,0,0v11.77c0,.41-.34.57-.74.57h-.13c-.4,0-.72-.19-.72-.6v-11.8c0-.41.32-.61.72-.61Z" transform="translate(48.97 -256.67)"/><path class="cls-19" d="M245,524.8a.79.79,0,0,1,.79.8h0v6.11a.82.82,0,0,1-.79.81h0a.79.79,0,0,1-.8-.8h0v-6.11A.81.81,0,0,1,245,524.8Z" transform="translate(48.97 -256.67)"/><path class="cls-20" d="M254.19,524.85a.68.68,0,0,1,.73.64.09.09,0,0,1,0,0v11.75c0,.42-.32.57-.72.57h-.14c-.4,0-.72-.17-.72-.58V525.47c0-.42.32-.62.72-.62Z" transform="translate(48.97 -256.67)"/><path class="cls-21" d="M264.35,524.73a.79.79,0,0,1,.8.8h0v6.1a.79.79,0,0,1-.76.82h0a.79.79,0,0,1-.78-.79v-6.12a.78.78,0,0,1,.76-.81Z" transform="translate(48.97 -256.67)"/><path class="cls-22" d="M273.56,524.73a.7.7,0,0,1,.72.71h0v11.75c0,.42-.32.56-.73.56h-.12c-.4,0-.73-.16-.73-.57V525.37a.64.64,0,0,1,.72-.63Z" transform="translate(48.97 -256.67)"/><path class="cls-23" d="M280.6,524.64a.8.8,0,0,1,.8.81v6.11a.81.81,0,0,1-.79.81h0a.8.8,0,0,1-.8-.8h0v-6.1a.84.84,0,0,1,.79-.83Z" transform="translate(48.97 -256.67)"/><path class="cls-24" d="M291,523.94a.85.85,0,0,1,.72.87v11.67c0,.41-.32.48-.72.48h-.13c-.4,0-.73,0-.73-.41v-11.9a.7.7,0,0,1,.71-.71H291Z" transform="translate(48.97 -256.67)"/><path class="cls-25" d="M300.34,524.13a.79.79,0,0,1,.8.8h0V531a.81.81,0,0,1-.78.82h0a.81.81,0,0,1-.8-.82v-6.1A.8.8,0,0,1,300.34,524.13Z" transform="translate(48.97 -256.67)"/><path class="cls-26" d="M310.32,523.83a.89.89,0,0,1,.73.88v11.67c0,.41-.32.45-.72.47h-.13c-.4,0-.72,0-.72-.4v-11.9a.73.73,0,0,1,.73-.73h.11Z" transform="translate(48.97 -256.67)"/><path class="cls-27" d="M320.53,524.08a.82.82,0,0,1,.8.82V531a.82.82,0,0,1-.79.82h0a.81.81,0,0,1-.8-.8V524.9A.81.81,0,0,1,320.53,524.08Z" transform="translate(48.97 -256.67)"/><path class="cls-28" d="M329.67,523.71c.4,0,.72.5.73.92v11.63c0,.42-.32.46-.72.46h0c-.4,0-.72,0-.73-.37V524.43a.72.72,0,0,1,.7-.73h0Z" transform="translate(48.97 -256.67)"/><path class="cls-29" d="M339.9,524a.78.78,0,0,1,.78.79v6.12a.8.8,0,0,1-.78.82h0a.8.8,0,0,1-.79-.81h0v-6.1a.8.8,0,0,1,.79-.82Z" transform="translate(48.97 -256.67)"/><path class="cls-30" d="M349.05,524.28c.4,0,.72.17.72.59v11.81c0,.41-.32.61-.72.61h-.13a.7.7,0,0,1-.73-.67V524.85c0-.41.32-.57.72-.57Z" transform="translate(48.97 -256.67)"/><path class="cls-31" d="M359.27,523.93a.8.8,0,0,1,.78.81v6.1a.8.8,0,0,1-.78.82h0a.8.8,0,0,1-.8-.8v-6.12A.8.8,0,0,1,359.27,523.93Z" transform="translate(48.97 -256.67)"/><path class="cls-32" d="M368.41,524.17c.4,0,.73.18.73.6v11.79c0,.42-.32.62-.72.62h-.09a.67.67,0,0,1-.72-.63V524.74c0-.41.33-.57.73-.57Z" transform="translate(48.97 -256.67)"/><path class="cls-33" d="M378.62,523.85a.8.8,0,0,1,.8.8h0v6.11a.78.78,0,0,1-.76.81h0a.77.77,0,0,1-.78-.78v-6.12a.79.79,0,0,1,.76-.82h0Z" transform="translate(48.97 -256.67)"/><path class="cls-34" d="M387.78,524.05c.4,0,.72.2.73.62v11.79c0,.42-.32.6-.72.6h-.13a.66.66,0,0,1-.73-.61V524.64c0-.41.32-.59.72-.59Z" transform="translate(48.97 -256.67)"/><path class="cls-35" d="M398,523.77a.8.8,0,0,1,.79.81h0v6.11a.8.8,0,0,1-.79.81h0a.8.8,0,0,1-.8-.81v-6.11a.8.8,0,0,1,.79-.81h0Z" transform="translate(48.97 -256.67)"/><path class="cls-36" d="M407.15,523.94a.63.63,0,0,1,.71.56.17.17,0,0,1,0,.07v11.78c0,.41-.32.6-.72.6H407a.65.65,0,0,1-.72-.65V524.53c0-.42.32-.59.72-.59Z" transform="translate(48.97 -256.67)"/><path class="cls-37" d="M417.35,523.7a.8.8,0,0,1,.8.8h0v6.1a.81.81,0,0,1-.79.82h0a.8.8,0,0,1-.8-.8h0v-6.11a.8.8,0,0,1,.79-.81Z" transform="translate(48.97 -256.67)"/><path class="cls-38" d="M426.5,523.81a.69.69,0,0,1,.74.64v11.8c0,.41-.32.58-.72.58h-.14a.65.65,0,0,1-.73-.63V524.43c0-.42.32-.6.72-.62Z" transform="translate(48.97 -256.67)"/><path class="cls-39" d="M433.56,523.62a.78.78,0,0,1,.78.79v6.12a.78.78,0,0,1-.76.81h0a.8.8,0,0,1-.8-.8v-6.1a.79.79,0,0,1,.76-.82h0Z" transform="translate(48.97 -256.67)"/><path class="cls-40" d="M443.49,522.34a.74.74,0,0,1,.73.76h0v11.72c0,.41-.32.54-.72.54h-.13c-.4,0-.72-.11-.72-.53V523a.66.66,0,0,1,.73-.65Z" transform="translate(48.97 -256.67)"/><path class="cls-41" d="M452.91,522.3a.8.8,0,0,1,.8.8v6.1a.82.82,0,0,1-.78.83h0a.8.8,0,0,1-.79-.82h0v-6.1a.8.8,0,0,1,.79-.81h0Z" transform="translate(48.97 -256.67)"/><path class="cls-42" d="M462.86,522.22a.78.78,0,0,1,.73.78v11.72c0,.41-.32.53-.72.53h-.13c-.4,0-.72-.1-.74-.52V522.9a.69.69,0,0,1,.68-.68h.18Z" transform="translate(48.97 -256.67)"/><path class="cls-43" d="M473.07,522.25a.78.78,0,0,1,.78.79v6.13a.8.8,0,0,1-.78.82h0a.8.8,0,0,1-.79-.79v-6.13a.8.8,0,0,1,.79-.82Z" transform="translate(48.97 -256.67)"/><path class="cls-44" d="M482.23,522.11a.78.78,0,0,1,.72.8V534.6c0,.42-.34.52-.74.53h-.13c-.4,0-.72-.08-.72-.48V522.78a.66.66,0,0,1,.65-.68h.22Z" transform="translate(48.97 -256.67)"/><path class="cls-45" d="M492.42,522.18a.8.8,0,0,1,.8.8h0v6.11a.79.79,0,0,1-.78.81h0a.79.79,0,0,1-.8-.8h0V523a.8.8,0,0,1,.78-.82Z" transform="translate(48.97 -256.67)"/><path class="cls-46" d="M501.64,522a.8.8,0,0,1,.73.81V534.5c0,.42-.32.5-.72.52h-.13c-.4,0-.72-.07-.72-.47V522.68a.69.69,0,0,1,.69-.69h.15Z" transform="translate(48.97 -256.67)"/><path class="cls-47" d="M511.79,522.1a.8.8,0,0,1,.8.81V529a.79.79,0,0,1-.76.82h0A.8.8,0,0,1,511,529h0v-6.1a.8.8,0,0,1,.79-.81h0Z" transform="translate(48.97 -256.67)"/><path class="cls-48" d="M521,521.87a.8.8,0,0,1,.72.83v11.67c0,.42-.32.51-.73.51h-.12c-.4,0-.74,0-.74-.45V522.55a.71.71,0,0,1,.7-.69H521Z" transform="translate(48.97 -256.67)"/><path class="cls-49" d="M531.16,522a.8.8,0,0,1,.79.79h0v6.11a.78.78,0,0,1-.76.81h0a.81.81,0,0,1-.8-.8v-6.1a.79.79,0,0,1,.76-.82h0Z" transform="translate(48.97 -256.67)"/><path class="cls-50" d="M540.29,521.77a.84.84,0,0,1,.74.84v11.68c0,.41-.32.49-.72.49h0c-.4,0-.72,0-.72-.43V522.47a.7.7,0,0,1,.68-.71Z" transform="translate(48.97 -256.67)"/><path class="cls-51" d="M550.52,521.94a.8.8,0,0,1,.8.8h0v6.11a.82.82,0,0,1-.79.81h0a.81.81,0,0,1-.8-.81v-6.11A.82.82,0,0,1,550.52,521.94Z" transform="translate(48.97 -256.67)"/><path class="cls-52" d="M559.68,521.65a.87.87,0,0,1,.73.86v12a.81.81,0,0,1-.72.83h-.13a.77.77,0,0,1-.74-.76V522.52a.86.86,0,0,1,.72-.87Z" transform="translate(48.97 -256.67)"/><path class="cls-53" d="M569.89,521.87a.79.79,0,0,1,.78.81h0v6.11a.79.79,0,0,1-.78.81h0a.79.79,0,0,1-.79-.79V522.7A.82.82,0,0,1,569.89,521.87Z" transform="translate(48.97 -256.67)"/><path class="cls-54" d="M579.05,521.54a.88.88,0,0,1,.72.88v12a.79.79,0,0,1-.72.81H579a.74.74,0,0,1-.73-.74V522.42a.84.84,0,0,1,.72-.88Z" transform="translate(48.97 -256.67)"/><path class="cls-55" d="M586.08,521.78a.81.81,0,0,1,.8.82v6.1a.81.81,0,0,1-.78.81h0a.79.79,0,0,1-.8-.8h0v-6.09A.83.83,0,0,1,586.08,521.78Z" transform="translate(48.97 -256.67)"/><path class="cls-56" d="M301,576.19a.54.54,0,0,1-.6-.46l-.47-47.49a.55.55,0,0,1,.59-.46h0a.54.54,0,0,1,.6.46l.47,47.49A.54.54,0,0,1,301,576.19Z" transform="translate(48.97 -256.67)"/><path class="cls-57" d="M295.65,525.85l10.11.09a1.41,1.41,0,0,1,1.27,1.5,1.42,1.42,0,0,1-.13.53l-5,9.25a1.28,1.28,0,0,1-1.81.54,1.47,1.47,0,0,1-.51-.54l-5.09-9.32a1.48,1.48,0,0,1,.63-1.91A1.44,1.44,0,0,1,295.65,525.85Z" transform="translate(48.97 -256.67)"/><path class="cls-2" d="M234.6,370.47H152.37c-5.15.13-9.43-4.24-9.55-9.76V328.35c.07-5.46,4.27-9.82,9.36-9.74h82.46c5.66,0,10.66,4.54,10.66,9.73v32.22C245.24,365.85,240.26,370.47,234.6,370.47ZM152.37,320a8.06,8.06,0,0,0-8.21,8c0,.13,0,.26,0,.38v32.22c0,4.74,3.58,8.58,8,8.58h82.5c4.86,0,9.33-4.06,9.33-8.58V328.35c0-4.46-4.35-8.36-9.33-8.36Z" transform="translate(48.97 -256.67)"/><path class="cls-2" d="M234.6,435.12H152.37a9.35,9.35,0,0,1-9.55-9.59V393.31c0-5.53,4.17-10,9.33-10h82.49c5.56,0,10.66,4.78,10.66,10v32.22C245.24,430.73,240.36,435.12,234.6,435.12Zm-82.23-50.49c-4.41-.13-8.09,3.6-8.22,8.33v32.47c.06,4.61,3.59,8.3,7.89,8.23h82.6c5,0,9.33-3.83,9.33-8.22V393.31c0-4.53-4.44-8.58-9.33-8.58Z" transform="translate(48.97 -256.67)"/><path class="cls-2" d="M234.6,499.79H152.37c-5.53,0-9.55-3.91-9.55-9.3V458.27c0-5.68,4.26-10.29,9.55-10.32h82.27c5.56,0,10.66,4.91,10.66,10.32v32.22C245.24,495.62,240.46,499.79,234.6,499.79Zm-82.23-50.47c-4.57.05-8.24,4.05-8.22,8.95v32.22c0,4.59,3.47,7.93,8.22,7.93h82.27c5,0,9.33-3.63,9.33-7.93V458.27c0-4.61-4.52-8.95-9.33-8.95Z" transform="translate(48.97 -256.67)"/><path class="cls-58" d="M476.49,500.3c-.09,6.41-5,11.53-11,11.43h-.05c-6.1,0-12.11-4.76-12.11-11.05s6-11.71,12.11-11.71S476.34,493.9,476.49,500.3Z" transform="translate(48.97 -256.67)"/><path class="cls-5" d="M460.87,495.39v10.14a1.54,1.54,0,0,0,1.51,1.58h.25a1.56,1.56,0,0,0,1.56-1.53l.36-10.15a1.57,1.57,0,0,0-1.49-1.63h-.66a1.53,1.53,0,0,0-1.53,1.55Z" transform="translate(48.97 -256.67)"/><path class="cls-5" d="M466.79,495.06l-.52,10.61a.86.86,0,0,0,.82.89.79.79,0,0,0,.59-.26l5-5.28a.88.88,0,0,0,0-1.14l-4.36-5.33a.79.79,0,0,0-1.14-.26A.89.89,0,0,0,466.79,495.06Z" transform="translate(48.97 -256.67)"/><path class="cls-59" d="M386.86,500.3c.09,6.41,5,11.53,11,11.43h0C404,511.73,410,507,410,500.68S404,489,397.91,489,387,493.9,386.86,500.3Z" transform="translate(48.97 -256.67)"/><path class="cls-5" d="M402.48,495.39v10.14a1.55,1.55,0,0,1-1.52,1.58h-.24a1.56,1.56,0,0,1-1.56-1.53l-.36-10.15a1.57,1.57,0,0,1,1.5-1.63H401a1.53,1.53,0,0,1,1.53,1.55Z" transform="translate(48.97 -256.67)"/><path class="cls-5" d="M396.56,495.06l.52,10.61a.85.85,0,0,1-.82.89.8.8,0,0,1-.59-.26l-5-5.28a.86.86,0,0,1,0-1.14l4.46-5.33a.79.79,0,0,1,1.17,0A.87.87,0,0,1,396.56,495.06Z" transform="translate(48.97 -256.67)"/><path class="cls-60" d="M446,500.3c-.16,8.41-6.65,15.1-14.5,14.93-8,0-15.92-6.26-15.92-14.49s7.91-15.37,15.92-15.37c7.85-.17,14.34,6.5,14.5,14.92Z" transform="translate(48.97 -256.67)"/><path class="cls-5" d="M427,491.05v18.82a.56.56,0,0,0,.56.55.48.48,0,0,0,.28-.1l13.6-9.78a.55.55,0,0,0,.15-.75.49.49,0,0,0-.15-.17l-13.61-9a.5.5,0,0,0-.73.12A.67.67,0,0,0,427,491.05Z" transform="translate(48.97 -256.67)"/><path class="cls-61" d="M511.66,460.64c-1.33,2-3.41,4.85-1.92,7.29a8.71,8.71,0,0,0,1.61,2.22,12.17,12.17,0,0,0,4.23,2.28,4.87,4.87,0,0,0,3.48.22c.12,0,.17-.14.13-.26-.72,0-1.94-1.07-2.66-1.43a7.89,7.89,0,0,1-2.44-1.7,10.33,10.33,0,0,1-.78-1.06,2.69,2.69,0,0,1,.34-3.6,2.44,2.44,0,0,1,.61-.39,5.81,5.81,0,0,1,5,.15,8.78,8.78,0,0,0,1.57.77c1.34.37,3.31-1.1,2.67-2.76a.17.17,0,0,0-.16-.17h-.16a2.76,2.76,0,0,1-2.56,0,5.15,5.15,0,0,1-.8-.43c-.5-.31-1-.67-1.5-1a8.07,8.07,0,0,0-5.44-1,1.66,1.66,0,0,0-.76.21A1.75,1.75,0,0,0,511.66,460.64Z" transform="translate(48.97 -256.67)"/><path class="cls-62" d="M533,431.44S508.3,468.89,527,466.32l16.24-2.25Z" transform="translate(48.97 -256.67)"/><path class="cls-63" d="M547,645.49s1,5.82,1.49,11.58a3.94,3.94,0,0,1-3.48,4.28h-.21c-7.46.33-23.39.94-29.1.69a1.26,1.26,0,0,1-1.19-1.31,1.86,1.86,0,0,1,.09-.47h0a3,3,0,0,1,1.43-1.56l26.31-12.48Z" transform="translate(48.97 -256.67)"/><path class="cls-64" d="M547.84,642.07l-.8,7s-4.61,2.2-7.76-.29L541.2,641Z" transform="translate(48.97 -256.67)"/><path class="cls-65" d="M547.24,511.29c.35,1.81,1.87,90.66-7.36,130.47a1.34,1.34,0,0,0,.76,1.57,22.42,22.42,0,0,0,7.52,1.58,2.29,2.29,0,0,0,2.24-1.68c2.66-9.23,15.28-55.52,16.93-99.73,1.84-49.41,0-1.68,0-1.68l-1.08-30.55Z" transform="translate(48.97 -256.67)"/><path class="cls-63" d="M577.3,648.52s1.59,3,3.12,10.75a2.4,2.4,0,0,1-1.8,2.82l-.27,0c-2.45.26-6.24.57-9.33.56a2.38,2.38,0,0,1-2.33-2.42,2.62,2.62,0,0,1,0-.28,20.61,20.61,0,0,1,4.61-11.15Z" transform="translate(48.97 -256.67)"/><path class="cls-66" d="M578.7,639.57l-1.88,10.52s-1.85,1.43-5.52.4l.89-11.32Z" transform="translate(48.97 -256.67)"/><path class="cls-65" d="M583.75,514c7.55,46.88-1.62,115.87-4.73,129.36a2.07,2.07,0,0,1-1.65,1.6,13.22,13.22,0,0,1-5.9-.24,1.91,1.91,0,0,1-1.33-1.77c-.43-10.92.33-77.93-6.66-104.36a6,6,0,0,0-2.26-3.31l-13.65-10-1-16.14Z" transform="translate(48.97 -256.67)"/><path class="cls-6" d="M533.42,431.32c22.23-7.23,49.81,0,49.81,0,6.75,40.48,1.19,87.2,1.19,87.2-17.5,4.73-37.33-2.86-37.33-2.86C544.29,498.67,526.76,433.48,533.42,431.32Z" transform="translate(48.97 -256.67)"/><path class="cls-62" d="M574.57,453.84l8.66-22.53s21.13,14.76,24.6,33.49a48.68,48.68,0,0,0-18.36,5.08C587.91,461,574.57,453.84,574.57,453.84Z" transform="translate(48.97 -256.67)"/><path class="cls-67" d="M559.76,410.84l7.18,21.44a.79.79,0,0,1-.33.93c-2,1.11-9,4.29-17.54-1.22a3.62,3.62,0,0,1-1.63-2.6l-2.33-18.58Z" transform="translate(48.97 -256.67)"/><path class="cls-68" d="M544.29,489.19l-40.4-22.09a2.31,2.31,0,0,1-1.19-2.29l.72-6.73,42.21,23.12Z" transform="translate(48.97 -256.67)"/><polygon class="cls-69" points="552.35 201.43 594.36 225.07 609.43 219.6 574.92 200.33 552.35 201.43"/><polygon class="cls-70" points="594.36 225.07 609.43 219.6 608.79 226.43 593.24 232.54 594.36 225.07"/><path class="cls-71" d="M556.29,473.89l-10.09,4.73a2.22,2.22,0,0,1-2.05-.08L514.57,463l12.58-4.6Z" transform="translate(48.97 -256.67)"/><ellipse class="cls-72" cx="589.57" cy="213.62" rx="4.53" ry="3.45"/><path class="cls-73" d="M541,469.93h-.17a.71.71,0,0,1-.68-.73v-4.57a.71.71,0,0,1,.68-.73H541a.71.71,0,0,1,.68.73v4.57A.7.7,0,0,1,541,469.93Z" transform="translate(48.97 -256.67)"/><ellipse class="cls-74" cx="589.85" cy="213.47" rx="2.83" ry="2.02"/><path d="M528.54,481.5l-4.74-16.29-9.91-4.28,2.76,13.83a1.32,1.32,0,0,0,.68.92Z" transform="translate(48.97 -256.67)"/><path d="M529.78,481.1,525,465.16H523.8l4.74,16.28.48.26a.51.51,0,0,0,.71-.27A.62.62,0,0,0,529.78,481.1Z" transform="translate(48.97 -256.67)"/><path d="M509.75,464.31l24.44,11.37a.9.9,0,0,0,1.24-.47,1.25,1.25,0,0,0,.09-.37l.51-14.3a1,1,0,0,0-.56-.93l-25.14-11.69a.92.92,0,0,0-1.25.51,1.24,1.24,0,0,0-.09.39l.2,14.61A1,1,0,0,0,509.75,464.31Z" transform="translate(48.97 -256.67)"/><path d="M508.83,464l24.27,11.28a.93.93,0,0,0,1.25-.51,1.23,1.23,0,0,0,.08-.33l.53-14.3a1,1,0,0,0-.56-.91l-24.95-11.61a.92.92,0,0,0-1.25.51,1.3,1.3,0,0,0-.09.39l.18,14.58A1,1,0,0,0,508.83,464Z" transform="translate(48.97 -256.67)"/><path class="cls-75" d="M556.1,475.05s23.72,13.79,31.72,2a9.46,9.46,0,0,0,1.65-7.15,48.68,48.68,0,0,1,18.36-5.08,26.54,26.54,0,0,1-2.67,17.73c-14,26.39-52.14-1.43-52.14-1.43Z" transform="translate(48.97 -256.67)"/><path class="cls-76" d="M555.84,481.25s1.8-7.62,1.06-10.33-2.13-6.19-6.82-5.42a68,68,0,0,0-10.24,2.86,2.7,2.7,0,0,0,3.85,2.39l-2.21,1.76s.31,2.85,3.32,1.31l-2,2.3a2.35,2.35,0,0,0,3.35.94l.17-.11C548.48,475.46,549.55,482.18,555.84,481.25Z" transform="translate(48.97 -256.67)"/><path class="cls-77" d="M543.77,390c-.21.32-6.66,25.17-6.66,25.17L551,418.64l9.52-22.57S547.39,384.63,543.77,390Z" transform="translate(48.97 -256.67)"/><path class="cls-78" d="M555.3,399.49l-4.11,12.3a1.88,1.88,0,0,1-.22.45c-.56.84-2.66,3.59-5.33,1.15-2.36-2.21-4.53-4.2-6.55-4.54a1.77,1.77,0,0,0-2,1.31,81,81,0,0,0-2.22,12,1.79,1.79,0,0,0,1.44,1.94,55.38,55.38,0,0,0,13.22,1,1.8,1.8,0,0,0,1.5-1.07c1.33-3,5.26-12,6.74-14.3s4.85-2.15,6.31-2a1.66,1.66,0,0,0,1.33-.44c1.27-1.16,3.65-4.09.24-7.57a1.87,1.87,0,0,1-.1-2.52l.1-.11c1.45-1.43,3-3.93.53-7a6.36,6.36,0,0,0-7.73-1.85,1.76,1.76,0,0,1-2.15-.79,1.3,1.3,0,0,0-1.44-.68A1.74,1.74,0,0,1,553,385.1a1.09,1.09,0,0,1,0-.18,5.42,5.42,0,0,0-4.12-5.63c-6.07-1.89-9.79,4.16-10.13,8.65s6.34,6.14,10.26,5.81c3-.25,5.23,2.78,6.12,4.29A1.83,1.83,0,0,1,555.3,399.49Z" transform="translate(48.97 -256.67)"/><path class="cls-79" d="M556.29,414.18s.92-7.8,4-8.2,6.23,2.23,3.13,6.63C559.6,418.07,556.29,414.18,556.29,414.18Z" transform="translate(48.97 -256.67)"/><path class="cls-80" d="M206.22,626.45V481.64h0a8.82,8.82,0,0,0-3.4-6.88l-15-11.59-51.69-32c-6.67-4.08-17.33-4.08-24,0L-43.58,527.58c-3.3,2-5,4.71-5,7.38h0V673a25.9,25.9,0,0,0,11.89,22.1l19.73,12.3a54.11,54.11,0,0,0,57.46,0l117.31-72.63,11.23,7c6.21,3.84,18.78,2.28,28.1-3.48,5.85-3.63,9-8,9-11.79Z" transform="translate(48.97 -256.67)"/><path class="cls-1" d="M-48.58,535h0v138a25.88,25.88,0,0,0,11.89,22.1l19.77,12.25a54.39,54.39,0,0,0,28.72,8.27V562.88l-56.13-34.75C-47.14,530.09-48.57,532.56-48.58,535Z" transform="translate(48.97 -256.67)"/><path class="cls-80" d="M157.88,634.8l11.22,7c6.22,3.84,18.79,2.28,28.11-3.48,5.85-3.63,9-8,9-11.79h0V481.64h0a8.82,8.82,0,0,0-3.4-6.88l-15-11.59h0l-33.7,25.52v148.4Z" transform="translate(48.97 -256.67)"/><path class="cls-1" d="M169.1,641.72a19.13,19.13,0,0,0,11.07,2v-148l-.53-26.36-25.51,19.3v148.4l3.75-2.32Z" transform="translate(48.97 -256.67)"/><path class="cls-80" d="M166.89,496.68c7.24,4.47,20.65,3.44,30-2.33s11.82-14.58,5.62-19.7l-15-11.59-51.7-32c-6.66-4.1-17.33-4.1-24,0L-44,527.58c-6.67,4.11-6.67,10.74,0,14.84L-17.31,559a54.13,54.13,0,0,0,57.47,0l113.57-70.32Z" transform="translate(48.97 -256.67)"/><path class="cls-80" d="M126.46,492.9a4.85,4.85,0,0,0-1.68-1.8h0L57.35,449.36h0a4.32,4.32,0,0,0-4.59,0L8.31,476.88A15.28,15.28,0,0,0,2.81,484l-6,18.58,67.42,41.74,67.41-41.74Z" transform="translate(48.97 -256.67)"/><path class="cls-1" d="M126.46,492.9a4.8,4.8,0,0,0-1.8-1.78l-2.2-1.3-4.4-2.59L109.32,482,91.88,471.3,74.55,460.45,65.93,455c-2.87-1.86-5.74-3.7-8.59-5.59,3,1.7,5.87,3.45,8.81,5.18l8.75,5.26,17.49,10.6,17.33,10.87,8.62,5.5,4.29,2.78,2.15,1.42A4.92,4.92,0,0,1,126.46,492.9Z" transform="translate(48.97 -256.67)"/><path class="cls-1" d="M5.15,479.92a14.63,14.63,0,0,0-2.34,4.15l-6,18.58L64.25,544.4l7.9-4.91,6.67-13.91Z" transform="translate(48.97 -256.67)"/><path class="cls-1" d="M70.22,525.81a15.28,15.28,0,0,1,5.5-7.15l44.45-27.53a4.45,4.45,0,0,1,6.3,1.82l5.19,9.63v4.63L64.25,549V544.4Z" transform="translate(48.97 -256.67)"/><path class="cls-81" d="M118,497.12l-38.79,24a9.09,9.09,0,0,0-3.31,4.29l-3.37,10.45c-.51,1.54.16,2.14,1.49,1.31l49.17-30.43a3.08,3.08,0,0,0,1-4v0l-2.41-4.49A2.69,2.69,0,0,0,118,497.12Z" transform="translate(48.97 -256.67)"/><path class="cls-1" d="M132.05,533.3h-4.7l-1.1.13a41,41,0,0,0-16.39,6.18c-24.55,15-44.55,51.8-44.67,82.09a48.61,48.61,0,0,0,3.2,18.57c.42,1,.86,2,1.34,2.86.22.43.45.85.69,1.25l.12.18q.28.5.6,1l.12.2-6.29-9-.12-.16c-.11-.14-.23-.29-.32-.43l-.32-.46c-.07-.09-.13-.19-.19-.28-3.52-5.32-5.51-12.78-5.47-22.09.11-27.95,18.56-61.87,41.21-75.76,6.57-4,12.78-5.94,18.28-5.91a21,21,0,0,1,2.85.2H121Z" transform="translate(48.97 -256.67)"/><path class="cls-80" d="M91.05,660.07a19.87,19.87,0,0,0,2.74,2.12l-15.71-9.72H78l-.17-.12c-7.88-5.06-12.72-15.72-12.65-30.69.12-30.29,20.12-67.07,44.66-82.1,7.12-4.37,13.86-6.41,19.81-6.39a21.7,21.7,0,0,1,11.55,3.22l15.33,9.49c-7.91-4.5-18.66-3.66-30.59,3.62-24.54,15-44.54,51.8-44.66,82.13a53,53,0,0,0,1.88,14.9A28.79,28.79,0,0,0,91.05,660.07Z" transform="translate(48.97 -256.67)"/><path class="cls-82" d="M122.71,679.66a20.75,20.75,0,0,0,2.74,2.13l-15.73-9.74h0l-.19-.11c-7.86-5.06-12.7-15.73-12.65-30.69C97,611,117,574.19,141.55,559.15c7.12-4.38,13.85-6.42,19.81-6.39A21.48,21.48,0,0,1,172.9,556l15.33,9.48c-7.91-4.51-18.66-3.66-30.58,3.61-24.54,15.06-44.53,51.81-44.67,82.13a53.9,53.9,0,0,0,1.88,14.92A29,29,0,0,0,122.71,679.66Z" transform="translate(48.97 -256.67)"/><path class="cls-1" d="M108.6,670.54a19.87,19.87,0,0,0,2.66,2.11l-15.7-9.72h-.08l-.17-.11c-7.88-5.06-12.72-15.73-12.65-30.69.13-30.3,20.11-67.08,44.67-82.1,7.12-4.38,13.85-6.42,19.79-6.39a21.64,21.64,0,0,1,11.56,3.21l15.33,9.5c-7.92-4.51-18.66-3.66-30.58,3.61C118.88,575,98.89,611.77,98.76,642.07A52.86,52.86,0,0,0,100.64,657,28.57,28.57,0,0,0,108.6,670.54Z" transform="translate(48.97 -256.67)"/><path class="cls-83" d="M85.44,611.77l16.11,10c.08-.33.17-.66.25-1l-16.1-10C85.62,611.13,85.52,611.45,85.44,611.77Zm2.32-7.83,16.09,10,.32-.94L88.08,603Zm2.83-7.52,16.09,10c.12-.3.25-.6.38-.9L91,595.52C90.84,595.82,90.71,596.12,90.59,596.42Zm3.3-7.24,16.09,10,.43-.87-16.09-10ZM100,628.94l-16.11-10a7.37,7.37,0,0,1-.17,1l16.09,10C99.91,629.62,100,629.28,100,628.94ZM84.67,647.25c.13.49.29,1,.45,1.43l16.09,10c-.14-.46-.3-.93-.44-1.43Zm14.3-.41-16.1-10A4.44,4.44,0,0,0,83,638l16.09,10a8.32,8.32,0,0,0-.1-1.2Zm0-9.27-16.1-10a6,6,0,0,1-.07,1.1l16.11,10a5.92,5.92,0,0,1,.14-1.1Zm-1.33-55.33,16.09,10,.51-.83-16.11-10c-.16.27-.33.5-.49.83Zm26.42-30,16.08,10c.29-.2.57-.41.86-.6l-16.09-10Zm7.61-4.56,16.07,9.94,1-.48-16.09-10a5.71,5.71,0,0,1-1,.49ZM142.59,544a6,6,0,0,0-1.33.27l16.06,10c.48-.1,1-.2,1.41-.27ZM117.5,557.43l16.09,10,.75-.67-16.08-10Zm-5.8,5.72,16.09,10,.68-.72-16.09-10Zm-9.85,12.45,16.09,10,.54-.8-16.09-10Zm4.67-6.39,16.09,10,.61-.76-16.09-10Z" transform="translate(48.97 -256.67)"/><path class="cls-80" d="M213.62,601.92c-.14,30.32-20.13,67.07-44.68,82.1-7.11,4.37-13.85,6.44-19.79,6.42a21.82,21.82,0,0,1-11.48-3.19h-.07l-26.15-16.08-.67-.39a22.58,22.58,0,0,1-3.41-2.86c-5.77-5.72-9.16-15.22-9.1-27.85.12-30.29,20.11-67.06,44.65-82.09,10.21-6.25,19.6-7.75,27.06-5.19a19.79,19.79,0,0,1,3.62,1.61l.18.12,1.26.78L200.72,571h0C208.74,576.06,213.7,586.74,213.62,601.92Z" transform="translate(48.97 -256.67)"/><path class="cls-1" d="M194.29,561.89c-8.46-5.31-20.15-4.66-33.13,3.31C135.21,581.09,114.05,620,113.92,652c-.07,15.72,4.94,26.82,13.11,32.22,2.75,1.82,21.15,12.58,23.75,14.22,8.45,5.34,20.16,4.68,33.16-3.28,26-15.9,47.11-54.78,47.25-86.85.06-15.82-5-27-13.34-32.33C215.18,574.19,196.91,563.47,194.29,561.89Z" transform="translate(48.97 -256.67)"/><path class="cls-84" d="M137.18,665.88C137,697.94,158,711,183.94,695.12s47.11-54.78,47.25-86.84-20.8-45.16-46.82-29.23S137.31,633.83,137.18,665.88Z" transform="translate(48.97 -256.67)"/><path d="M162.57,694.08C148.51,694,147,676.25,147,668.58c.14-29.85,20.65-67.58,44.82-82.39,6-3.65,11.65-5.57,16.42-5.56,14.07.08,15.51,17.87,15.48,25.52-.13,29.85-20.65,67.57-44.82,82.38-6,3.65-11.65,5.58-16.42,5.55Z" transform="translate(48.97 -256.67)"/><path d="M162.57,694.08C148.51,694,147,676.25,147,668.58c.14-29.85,20.65-67.58,44.82-82.39,6-3.65,11.65-5.57,16.42-5.56,14.07.08,15.51,17.87,15.48,25.52-.13,29.85-20.65,67.57-44.82,82.38-6,3.65-11.65,5.58-16.42,5.55Z" transform="translate(48.97 -256.67)"/><path class="cls-85" d="M212.72,599.29c0-4.58-.49-12.77-3.9-18.58h-.48c-4.78,0-10.47,1.9-16.43,5.56-24.17,14.81-44.68,52.53-44.81,82.38,0,4.56.49,12.75,3.9,18.58h.48c4.77,0,10.45-1.9,16.42-5.56C192.07,666.86,212.59,629.08,212.72,599.29Z" transform="translate(48.97 -256.67)"/><path class="cls-86" d="M212.72,599.29c0-4.58-.49-12.77-3.9-18.58h-.48c-4.78,0-10.47,1.9-16.43,5.56-24.17,14.81-44.68,52.53-44.81,82.38,0,4.56.49,12.75,3.9,18.58h.48c4.77,0,10.45-1.9,16.42-5.56C192.07,666.86,212.59,629.08,212.72,599.29Z" transform="translate(48.97 -256.67)"/><path class="cls-87" d="M190.94,586.82C167.2,602,147.22,639.09,147,668.58v.07c5.72,4.93,14.32,5,24-.89,17.33-10.6,31.43-36.54,31.51-57.92C202.62,597.63,198.07,589.53,190.94,586.82Z" transform="translate(48.97 -256.67)"/><path class="cls-86" d="M174.84,610.11A120.61,120.61,0,0,0,152.93,651c1,11.88,9.56,16.38,20,10,11.14-6.83,20.24-23.55,20.29-37.31C193.29,610.57,185.19,604.78,174.84,610.11Z" transform="translate(48.97 -256.67)"/><path class="cls-85" d="M182.6,602.31c9.83-13.33,22.23-15.6,24.67-11.33s2.45,48.95-34.19,80.53c0,0,21.09-23.47,27.35-50.38C206.38,595.63,193.7,591.71,182.6,602.31Z" transform="translate(48.97 -256.67)"/><path class="cls-88" d="M182.6,602.31c9.83-13.33,22.23-15.6,24.67-11.33s2.45,48.95-34.19,80.53c0,0,21.09-23.47,27.35-50.38C206.38,595.63,193.7,591.71,182.6,602.31Z" transform="translate(48.97 -256.67)"/><path class="cls-89" d="M140.26,677.68a51.79,51.79,0,0,1,.3-5.56l-13.94-9.27c.12-1,.24-1.91.37-2.75l-9.57-6.36-4.13.24L93.72,641c.11-1,.24-1.85.37-2.74l-31.3-20.84a43.4,43.4,0,0,0-.26,4.7c0,6,1.17,10.81,3.28,14.3l.12.18.18.29a2.75,2.75,0,0,0,.19.28l.08.1,3.77,5.84a.29.29,0,0,0-.08-.13,6.14,6.14,0,0,1-.34-.62l-.07-.11a15,15,0,0,0,4.46,5.1h.11l9.33,6.22L93,659.82l-.24-.19.31.21.1.08h0l3,2a17.52,17.52,0,0,0,3.29,4.67A14.66,14.66,0,0,0,101.2,668h.11l.12.09.46.31,18.86,12.65c-.21-.14-.42-.31-.62-.47a13,13,0,0,0,8.3,2.76l1,.69a15.82,15.82,0,0,0,4.54,5.23c1.49,1.06,10.66,6.8,13.54,8.7C143,694.57,140.22,687.5,140.26,677.68Z" transform="translate(48.97 -256.67)"/><path class="cls-1" d="M106,464.59a8.78,8.78,0,0,0-8.07,0H96.09v2.64a3.17,3.17,0,0,0,1.72,2.62,8.68,8.68,0,0,0,8.36,0,3.14,3.14,0,0,0,1.75-2.59V464.6Z" transform="translate(48.97 -256.67)"/><path class="cls-90" d="M97.84,462c-2.32,1.43-2.33,3.74,0,5.18a8.68,8.68,0,0,0,8.36,0c2.32-1.42,2.33-3.73,0-5.17A8.68,8.68,0,0,0,97.84,462Z" transform="translate(48.97 -256.67)"/><path class="cls-1" d="M121.43,459v-2.65h-1.88a8.79,8.79,0,0,0-8,0h-1.88V459a3.19,3.19,0,0,0,1.72,2.6,8.76,8.76,0,0,0,8.37,0A3.14,3.14,0,0,0,121.43,459Z" transform="translate(48.97 -256.67)"/><path class="cls-90" d="M111.37,453.66c-2.32,1.43-2.33,3.75,0,5.18a8.76,8.76,0,0,0,8.37,0c2.31-1.43,2.32-3.73,0-5.18A8.7,8.7,0,0,0,111.37,453.66Z" transform="translate(48.97 -256.67)"/><path class="cls-1" d="M119.5,473a8.64,8.64,0,0,0-8.06,0h-1.88v2.64a3.13,3.13,0,0,0,1.72,2.62,8.66,8.66,0,0,0,8.35,0,3.14,3.14,0,0,0,1.75-2.59V473Z" transform="translate(48.97 -256.67)"/><path class="cls-90" d="M111.3,470.4c-2.32,1.43-2.33,3.75,0,5.19a8.68,8.68,0,0,0,8.36,0c2.32-1.43,2.33-3.73,0-5.17A8.68,8.68,0,0,0,111.3,470.4Z" transform="translate(48.97 -256.67)"/><path class="cls-1" d="M134.91,467.39v-2.7H133a8.76,8.76,0,0,0-8.06,0h-1.92v2.65a3.12,3.12,0,0,0,1.72,2.61,8.68,8.68,0,0,0,8.36,0A3.17,3.17,0,0,0,134.91,467.39Z" transform="translate(48.97 -256.67)"/><path class="cls-90" d="M124.83,462.08c-2.32,1.43-2.32,3.75,0,5.19a8.77,8.77,0,0,0,8.38,0c2.3-1.43,2.31-3.73,0-5.17A8.69,8.69,0,0,0,124.83,462.08Z" transform="translate(48.97 -256.67)"/><path class="cls-91" d="M22.07,540.05v-9.82H15.23c-8.24-4.83-21-4.89-29.33-.14h-6.84v9.83c0,3.42,2.06,6.83,6.26,9.46,8.38,5.25,22,5.31,30.42.15C20,546.88,22.07,543.47,22.07,540.05Z" transform="translate(48.97 -256.67)"/><path class="cls-1" d="M2,553.32h1V526.64H2Z" transform="translate(48.97 -256.67)"/><path class="cls-1" d="M10.88,528.23c-.34-.13-.69-.25-1.05-.35V552l1.05-.32Z" transform="translate(48.97 -256.67)"/><path class="cls-1" d="M14.79,529.94l-1-.55v21.15l1-.54Z" transform="translate(48.97 -256.67)"/><path class="cls-1" d="M7,527.17l-1-.19v25.91l1-.17Z" transform="translate(48.97 -256.67)"/><path class="cls-1" d="M21.56,542.89a8.64,8.64,0,0,0,.51-2.85v-9.82h-.55Z" transform="translate(48.97 -256.67)"/><path class="cls-1" d="M17.66,548.11c.36-.3.72-.6,1-.91v-17h-1Z" transform="translate(48.97 -256.67)"/><path class="cls-1" d="M-4.75,526.94l-1,.19v25.56l1,.17Z" transform="translate(48.97 -256.67)"/><path class="cls-1" d="M-20.39,530h-.53v9.83a8.57,8.57,0,0,0,.54,3Z" transform="translate(48.97 -256.67)"/><path class="cls-1" d="M-17.52,547.14c.32.3.68.6,1,.9V530h-1Z" transform="translate(48.97 -256.67)"/><path class="cls-1" d="M-8.66,527.81l-1,.33v23.5c.34.13.7.23,1,.33Z" transform="translate(48.97 -256.67)"/><path class="cls-1" d="M-.85,526.57h-1v26.57h1Z" transform="translate(48.97 -256.67)"/><path class="cls-1" d="M-13.6,549.94c.33.19.68.36,1,.53V529.29c-.36.17-.71.35-1,.54Z" transform="translate(48.97 -256.67)"/><path class="cls-1" d="M-14.56,520.64c-8.43,5.16-8.47,13.59-.08,18.84s22,5.3,30.42.14,8.45-13.59.08-18.84S-6.14,515.48-14.56,520.64Z" transform="translate(48.97 -256.67)"/><path class="cls-92" d="M-.93,521.17a1,1,0,0,0-.59,1.31,1,1,0,0,0,.59.63,3.27,3.27,0,0,0,3.15,0,1.05,1.05,0,0,0,.59-1.31,1,1,0,0,0-.59-.63A3.21,3.21,0,0,0-.93,521.17Z" transform="translate(48.97 -256.67)"/><path class="cls-92" d="M-10.47,523.12a1.05,1.05,0,0,0-.62,1.3,1,1,0,0,0,.62.66,3.25,3.25,0,0,0,3.14,0,1,1,0,0,0,.62-1.29,1,1,0,0,0-.62-.67A3.3,3.3,0,0,0-10.47,523.12Z" transform="translate(48.97 -256.67)"/><path class="cls-92" d="M-16.34,529a1.06,1.06,0,0,0-.59,1.31,1,1,0,0,0,.59.64,3.32,3.32,0,0,0,3.15,0,1.06,1.06,0,0,0,.62-1.3,1,1,0,0,0-.62-.66A3.29,3.29,0,0,0-16.34,529Z" transform="translate(48.97 -256.67)"/><path class="cls-86" d="M11.46,523.12a1,1,0,0,1,.61,1.3,1,1,0,0,1-.61.66,3.27,3.27,0,0,1-3.15,0,1.05,1.05,0,0,1,0-2A3.32,3.32,0,0,1,11.46,523.12Z" transform="translate(48.97 -256.67)"/><path class="cls-92" d="M-.93,539.29A1,1,0,0,1-1.54,538a1,1,0,0,1,.61-.67,3.32,3.32,0,0,1,3.15,0,1.06,1.06,0,0,1,.62,1.3,1,1,0,0,1-.62.66A3.26,3.26,0,0,1-.93,539.29Z" transform="translate(48.97 -256.67)"/><path class="cls-92" d="M-10.47,537.32a1,1,0,0,1-.59-1.31,1,1,0,0,1,.59-.63,3.25,3.25,0,0,1,3.14,0,1,1,0,0,1,.6,1.31,1,1,0,0,1-.6.63A3.25,3.25,0,0,1-10.47,537.32Z" transform="translate(48.97 -256.67)"/><path class="cls-92" d="M11.46,537.32a1.05,1.05,0,0,0,.59-1.31,1,1,0,0,0-.59-.63,3.27,3.27,0,0,0-3.15,0,1,1,0,0,0-.59,1.31,1,1,0,0,0,.59.63A3.27,3.27,0,0,0,11.46,537.32Z" transform="translate(48.97 -256.67)"/><path class="cls-92" d="M17.32,529a1,1,0,0,1,.59,1.31,1,1,0,0,1-.59.64,3.3,3.3,0,0,1-3.14,0,1.05,1.05,0,0,1-.62-1.3,1,1,0,0,1,.62-.66A3.27,3.27,0,0,1,17.32,529Z" transform="translate(48.97 -256.67)"/><path class="cls-92" d="M.73,541.35h0a27.31,27.31,0,0,1-14.39-3.69C-17.08,535.52-19,532.82-19,530s1.91-5.46,5.33-7.58a29.85,29.85,0,0,1,28.48.15c3.42,2.14,5.33,4.84,5.33,7.63s-1.91,5.46-5.33,7.58A27.35,27.35,0,0,1,.73,541.35ZM.5,519.18a27.2,27.2,0,0,0-14,3.52c-3.36,2-5.21,4.66-5.23,7.34s1.83,5.29,5.18,7.38A27.17,27.17,0,0,0,.73,541.08h0a26.93,26.93,0,0,0,14-3.49c3.36-2.06,5.22-4.66,5.23-7.33s-1.83-5.31-5.17-7.39A27.19,27.19,0,0,0,.5,519.18Z" transform="translate(48.97 -256.67)"/><path class="cls-1" d="M53.62,567a4.12,4.12,0,0,0-4.36.52L38.77,574a13.92,13.92,0,0,0-6,10.66,4.14,4.14,0,0,0,1.61,3.74l3.76,2.34a4.16,4.16,0,0,0,4.36-.51L53,583.75a13.94,13.94,0,0,0,6-10.66,4.14,4.14,0,0,0-1.61-3.75Z" transform="translate(48.97 -256.67)"/><path class="cls-90" d="M42.52,576.33,53,569.84c3.3-2,6-.6,6,3.25a13.94,13.94,0,0,1-6,10.66l-10.49,6.5c-3.31,2-6,.59-6-3.25A14,14,0,0,1,42.52,576.33Z" transform="translate(48.97 -256.67)"/><path class="cls-1" d="M142.91,444.8c0-.37-.37-.68-1.09-.83l-15.27-3.14c-.94-.2-1.49.14-1.49.8v2.86a2.19,2.19,0,0,0,.29,1l4.23,7.86a2.38,2.38,0,0,0,3.36,1l0,0,9.13-5.64c.54-.35.81-.69.81-1Z" transform="translate(48.97 -256.67)"/><path class="cls-1" d="M156.72,459.77a2,2,0,0,0-.29-1l-4.24-7.87a2.38,2.38,0,0,0-3.35-1l0,0-9.14,5.65c-.54.33-.81.68-.81,1v2.86c0,.37.37.68,1.09.83l15.27,3.14c.94.2,1.49-.14,1.49-.81Z" transform="translate(48.97 -256.67)"/><path class="cls-90" d="M133,451.45l9.13-5.65c1.18-.73,1.05-1.56-.28-1.83l-15.27-3.14c-1.33-.29-1.88.51-1.2,1.78l4.23,7.87a2.37,2.37,0,0,0,3.36,1Z" transform="translate(48.97 -256.67)"/><path class="cls-90" d="M139.68,455.61l9.14-5.65a2.36,2.36,0,0,1,3.35.94l0,0,4.24,7.87c.68,1.25.14,2.07-1.2,1.78L140,457.44C138.62,457.17,138.5,456.34,139.68,455.61Z" transform="translate(48.97 -256.67)"/><path class="cls-92" d="M192,475.09a19.46,19.46,0,0,0-18.66-1.7c-2.67,1.43-4.18,3.36-4.31,5.48,0,.35-.15,1.78-.17,2.16-.19,2.08.92,4.28,3.38,6.14a19.46,19.46,0,0,0,18.67,1.72c2.76-1.43,4.21-3.4,4.32-5.55,0-.33.14-1.73.17-2.1C195.54,479.14,194.43,476.94,192,475.09Z" transform="translate(48.97 -256.67)"/><path class="cls-92" d="M172.37,484.94c-4.89-3.67-4.48-8.83.92-11.55a19.46,19.46,0,0,1,18.66,1.7c4.9,3.66,4.48,8.84-.92,11.55A19.49,19.49,0,0,1,172.37,484.94Z" transform="translate(48.97 -256.67)"/><path class="cls-90" d="M141,510.72c3.1-1.93,5.62-.38,5.62,3.47A13.53,13.53,0,0,1,141,524.63c-3.11,1.91-5.62.35-5.62-3.49A13.53,13.53,0,0,1,141,510.72Z" transform="translate(48.97 -256.67)"/><path class="cls-92" d="M144,509.93a4.42,4.42,0,0,0-3,.79,13.53,13.53,0,0,0-5.62,10.42,5.27,5.27,0,0,0,.91,3.24,4.57,4.57,0,0,0,3-.78,13.54,13.54,0,0,0,5.61-10.44A5.17,5.17,0,0,0,144,509.93Z" transform="translate(48.97 -256.67)"/><path class="cls-84" d="M209.83,514.29v4.47c0,3-1.85,6.07-5.61,8.35-7.08,4.29-18.33,4.51-25.81.53v-4.53A35.92,35.92,0,0,0,197.25,518a24.69,24.69,0,0,0,5.33-4.42,13,13,0,0,1,1.22.66Z" transform="translate(48.97 -256.67)"/><path class="cls-84" d="M188.57,530.44h.9v-4.5a7.06,7.06,0,0,1-.92,0Z" transform="translate(48.97 -256.67)"/><path class="cls-84" d="M178.37,523.11v4.47l.72.38v-4.52l-.37-.19Z" transform="translate(48.97 -256.67)"/><path class="cls-84" d="M193,525.93h-.89v4.51H193Z" transform="translate(48.97 -256.67)"/><path class="cls-84" d="M181.7,524.53V529l.92.3v-4.5h-.1A7.92,7.92,0,0,1,181.7,524.53Z" transform="translate(48.97 -256.67)"/><path class="cls-84" d="M205.88,521.44v4.46h0c.32-.26.63-.52.91-.79h0v-4.47l-.39.35A5.59,5.59,0,0,1,205.88,521.44Z" transform="translate(48.97 -256.67)"/><path class="cls-84" d="M209.35,516.92v4.29l.16-.54a6.41,6.41,0,0,0,.17-.73v-.29a7.75,7.75,0,0,0,.07-1v-4.1A8,8,0,0,1,209.35,516.92Z" transform="translate(48.97 -256.67)"/><path class="cls-84" d="M185.78,525.57l-.68-.13v4.5l.48.09.44.08v-4.5Z" transform="translate(48.97 -256.67)"/><path class="cls-84" d="M203.34,523.11c-.31.17-.6.31-.92.46v4.49l.92-.48Z" transform="translate(48.97 -256.67)"/><path class="cls-84" d="M199,529.36l.88-.27V524.6l-.88.28h0v4.49Z" transform="translate(48.97 -256.67)"/><path class="cls-84" d="M196.37,530V525.5l-.92.15v4.48l.64-.1Z" transform="translate(48.97 -256.67)"/><path class="cls-84" d="M204.22,522.61c-7.11,4.36-18.37,4.5-25.85.5A35.92,35.92,0,0,0,197.21,518c5-3.1,8-7.06,8.79-10.86C211.66,511.86,211,518.42,204.22,522.61Z" transform="translate(48.97 -256.67)"/><polygon class="cls-92" points="123.05 216.64 96.85 200.41 68.27 218.11 94.47 234.34 123.05 216.64"/><polygon class="cls-93" points="123.05 216.64 96.85 200.41 68.27 218.11 94.47 234.34 123.05 216.64"/><path class="cls-92" d="M73.35,467.14,47.13,450.91a2.25,2.25,0,0,1,.75,1.95v4.22L74.1,473.26v-4.2A2.26,2.26,0,0,0,73.35,467.14Z" transform="translate(48.97 -256.67)"/><path class="cls-87" d="M73.35,467.14,47.13,450.91a2.25,2.25,0,0,1,.75,1.95v4.22L74.1,473.26v-4.2A2.26,2.26,0,0,0,73.35,467.14Z" transform="translate(48.97 -256.67)"/><path class="cls-94" d="M44.13,493.56v-5.92a9.72,9.72,0,0,1,4.09-7.59L52,477.72v1.72l-3.07,1.9a8.31,8.31,0,0,0-3.4,6.3V491l28.6-17.74v-4.2a1.74,1.74,0,0,0-1.17-2.1,1.53,1.53,0,0,0-1.5.41L67,470.12v-1.7l3.74-2.33a3,3,0,0,1,3.33-.27,3.58,3.58,0,0,1,1.46,3.24v5.06Z" transform="translate(48.97 -256.67)"/><path class="cls-95" d="M25.73,461.5,22,463.81a9.73,9.73,0,0,0-4.08,7.61v5.92l26.22,16.22v-5.92a9.72,9.72,0,0,1,4.09-7.59L52,477.72Z" transform="translate(48.97 -256.67)"/><path class="cls-92" d="M44.13,487.64a9.84,9.84,0,0,1,2-5.56L19.9,465.86a9.85,9.85,0,0,0-2,5.56v5.92l26.21,16.22Z" transform="translate(48.97 -256.67)"/><polygon class="cls-96" points="89.7 195.57 115.92 211.79 115.92 213.5 89.72 197.27 89.7 195.57"/><path class="cls-95" d="M47.82,449.62a3.1,3.1,0,0,0-3.34.28l-3.75,2.32L67,468.46l3.75-2.33a3,3,0,0,1,3.33-.27Z" transform="translate(48.97 -256.67)"/></svg>