<svg id="Capa_1" data-name="Capa 1" xmlns="http://www.w3.org/2000/svg" xmlns:xlink="http://www.w3.org/1999/xlink" viewBox="0 0 148.53 81.28"><defs><style>.cls-1,.cls-10,.cls-3,.cls-7{fill:none;}.cls-2{font-size:16.47px;fill:#00913d;font-family:TwCenMT-Bold, Tw Cen MT;font-weight:700;}.cls-3,.cls-7{stroke:#1e120d;}.cls-10,.cls-3,.cls-7{stroke-miterlimit:10;}.cls-3{stroke-width:0.75px;}.cls-4{clip-path:url(#clip-path);}.cls-5{clip-path:url(#clip-path-2);}.cls-6{fill:#fff;}.cls-7{stroke-width:1.59px;}.cls-8{clip-path:url(#clip-path-3);}.cls-9{fill:url(#Degradado_sin_nombre);}.cls-10{stroke:#fff;stroke-width:0.63px;}.cls-11{clip-path:url(#clip-path-4);}.cls-12{fill:url(#Degradado_sin_nombre_2);}.cls-13{clip-path:url(#clip-path-5);}.cls-14{fill:url(#Degradado_sin_nombre_3);}</style><clipPath id="clip-path" transform="translate(-18.22 -9.82)"><rect class="cls-1" width="241.95" height="142.73"/></clipPath><clipPath id="clip-path-2" transform="translate(-18.22 -9.82)"><rect class="cls-1" x="18.23" y="9.81" width="56.69" height="56.69"/></clipPath><clipPath id="clip-path-3" transform="translate(-18.22 -9.82)"><path class="cls-1" d="M56.31,53h1.5c0-4.64-.18-22.76-.18-22.77H29.25V24H56.14V10.71H18.94v23.6H45v6.31H18.94V53H56.31Z"/></clipPath><linearGradient id="Degradado_sin_nombre" y1="142.73" x2="1" y2="142.73" gradientTransform="matrix(38.86, 0, 0, -40.11, 0.72, 5747.02)" gradientUnits="userSpaceOnUse"><stop offset="0" stop-color="#00913d"/><stop offset="0.27" stop-color="#008939"/><stop offset="0.67" stop-color="#00742e"/><stop offset="1" stop-color="#005e23"/></linearGradient><clipPath id="clip-path-4" transform="translate(-18.22 -9.82)"><path class="cls-1" d="M72.88,10.59H61.74V23.73H73.87L74.1,11.3v-.71Z"/></clipPath><linearGradient id="Degradado_sin_nombre_2" x1="0" y1="142.73" x2="1" y2="142.73" gradientTransform="matrix(12.37, 0, 0, -12.77, 43.52, 1829.72)" xlink:href="#Degradado_sin_nombre"/><clipPath id="clip-path-5" transform="translate(-18.22 -9.82)"><path class="cls-1" d="M71.71,27.52H61.48v30H19.22v8.21l3.67-.07,51.26-1V27.52H71.71Z"/></clipPath><linearGradient id="Degradado_sin_nombre_3" x1="0" y1="142.73" x2="1" y2="142.73" gradientTransform="matrix(54.93, 0, 0, -56.69, 1, 8128.4)" xlink:href="#Degradado_sin_nombre"/></defs><title>AntonioGodoy</title><text class="cls-2" transform="translate(0.99 76.15) scale(1 1.34)">taller gráfico san josé</text><polygon class="cls-3" points="1.97 66.9 1.18 66.9 1.18 69.43 1.97 69.43 1.97 76.15 4.03 76.15 4.03 69.43 5.02 69.43 5.02 66.9 4.03 66.9 4.03 63.73 1.97 63.73 1.97 66.9"/><g class="cls-4"><path class="cls-3" d="M28.58,79.92A2.56,2.56,0,0,1,29,81.41,2.79,2.79,0,0,1,28.58,83a1.26,1.26,0,0,1-1,.65,1.19,1.19,0,0,1-1-.57,2.55,2.55,0,0,1-.39-1.49,3,3,0,0,1,.41-1.64,1.19,1.19,0,0,1,1-.65A1.24,1.24,0,0,1,28.58,79.92Zm2.54,6V76.74H29.06V78a4.84,4.84,0,0,0-1-1.13A1.8,1.8,0,0,0,27,76.54,2.59,2.59,0,0,0,24.83,78a6.12,6.12,0,0,0-.91,3.4,6.46,6.46,0,0,0,.85,3.39,2.43,2.43,0,0,0,2.07,1.4,1.82,1.82,0,0,0,1.22-.41,4.54,4.54,0,0,0,1-1.34h0V86Z" transform="translate(-18.22 -9.82)"/><rect class="cls-3" x="15.04" y="61.79" width="2.06" height="14.36"/><rect class="cls-3" x="19.32" y="61.79" width="2.06" height="14.36"/><path class="cls-3" d="M43.72,78.87a1.25,1.25,0,0,1,1-.45c.69,0,1.13.58,1.32,1.73H43.25A2.22,2.22,0,0,1,43.72,78.87Zm4.44,2.69a6.13,6.13,0,0,0-1-3.59,3,3,0,0,0-2.49-1.43,3,3,0,0,0-2.51,1.36,5.49,5.49,0,0,0-1,3.38,5.87,5.87,0,0,0,1,3.56,3.05,3.05,0,0,0,2.6,1.32A3.46,3.46,0,0,0,48,83.7l-1.89-.84A1.66,1.66,0,0,1,44.6,84a1.13,1.13,0,0,1-.93-.56A2.71,2.71,0,0,1,43.23,82h4.93Z" transform="translate(-18.22 -9.82)"/><path class="cls-3" d="M49.52,76.72V86h2.09V81.85A3.24,3.24,0,0,1,52,80.18a1.08,1.08,0,0,1,1-.6,1.79,1.79,0,0,1,.51.07v-3a1.48,1.48,0,0,0-.38,0,1.12,1.12,0,0,0-.75.4,3.54,3.54,0,0,0-.71,1.1h0V76.72Z" transform="translate(-18.22 -9.82)"/><path class="cls-3" d="M61.21,79.61a1.31,1.31,0,0,1,1.1-.64,1.24,1.24,0,0,1,1.06.61,2.78,2.78,0,0,1,.41,1.56,2.81,2.81,0,0,1-.43,1.57,1.27,1.27,0,0,1-1,.64,1.32,1.32,0,0,1-1.08-.68,2.35,2.35,0,0,1-.46-1.38A3,3,0,0,1,61.21,79.61Zm2.16,7.61a1.13,1.13,0,0,1-1,.69q-.8,0-1.47-1.26H58.6a4.32,4.32,0,0,0,1.25,2.47,3.46,3.46,0,0,0,2.3.72,4.32,4.32,0,0,0,2-.47,2.69,2.69,0,0,0,1.25-1.49,5.35,5.35,0,0,0,.36-1.78V76.74h-2V78c-.69-1-1.39-1.5-2.11-1.5a2.58,2.58,0,0,0-2.17,1.37,5.84,5.84,0,0,0-.91,3.33,6,6,0,0,0,.88,3.36,2.54,2.54,0,0,0,2.17,1.35,2.59,2.59,0,0,0,2.14-1.57v1.08A3.53,3.53,0,0,1,63.37,87.22Z" transform="translate(-18.22 -9.82)"/><path class="cls-3" d="M67.77,76.72V86h2.09V81.85a3.24,3.24,0,0,1,.35-1.67,1.08,1.08,0,0,1,1-.6,1.79,1.79,0,0,1,.51.07v-3a1.48,1.48,0,0,0-.38,0,1.12,1.12,0,0,0-.75.4,3.54,3.54,0,0,0-.71,1.1h0V76.72Z" transform="translate(-18.22 -9.82)"/><path class="cls-3" d="M76.59,75.31l2.2-3.22H76.28l-1.13,3.22Zm.54,4.61a2.56,2.56,0,0,1,.43,1.49A2.79,2.79,0,0,1,77.13,83a1.26,1.26,0,0,1-1,.65,1.19,1.19,0,0,1-1-.57,2.55,2.55,0,0,1-.39-1.49,3,3,0,0,1,.41-1.64,1.19,1.19,0,0,1,1-.65A1.24,1.24,0,0,1,77.13,79.92Zm2.54,6V76.74H77.61V78a4.84,4.84,0,0,0-1-1.13,1.8,1.8,0,0,0-1.07-.35A2.59,2.59,0,0,0,73.38,78a6.12,6.12,0,0,0-.91,3.4,6.46,6.46,0,0,0,.85,3.39,2.43,2.43,0,0,0,2.07,1.4,1.82,1.82,0,0,0,1.22-.41,4.54,4.54,0,0,0,1-1.34h0V86Z" transform="translate(-18.22 -9.82)"/><path class="cls-3" d="M84.2,71.57a2.25,2.25,0,0,0-1.75.83,4.93,4.93,0,0,0-.75,3.19v1.13h-.61v2.51h.61V86h2.06V79.23h1.77V76.72H83.77v-1A2,2,0,0,1,84,74.6a.82.82,0,0,1,.71-.42,1.32,1.32,0,0,1,.8.42V72A2.28,2.28,0,0,0,84.2,71.57Z" transform="translate(-18.22 -9.82)"/><path class="cls-3" d="M87,86h2V76.72H87Zm.11-11.46A1.1,1.1,0,0,0,88,75a1.13,1.13,0,0,0,.91-.51,2.18,2.18,0,0,0,0-2.43,1.14,1.14,0,0,0-.91-.5,1.11,1.11,0,0,0-.91.5,2.13,2.13,0,0,0,0,2.43Z" transform="translate(-18.22 -9.82)"/><path class="cls-3" d="M94.53,83.3a1.3,1.3,0,0,1-1.11-.56A2.49,2.49,0,0,1,93,81.26a2.44,2.44,0,0,1,.42-1.49,1.31,1.31,0,0,1,1.11-.57,3.1,3.1,0,0,1,1.65.59V77.18a3.59,3.59,0,0,0-2-.64,2.92,2.92,0,0,0-2.46,1.36,5.86,5.86,0,0,0-1,3.45,5.52,5.52,0,0,0,1,3.44,3.16,3.16,0,0,0,2.61,1.37,3.65,3.65,0,0,0,1.76-.64V82.77A3.91,3.91,0,0,1,94.53,83.3Z" transform="translate(-18.22 -9.82)"/><path class="cls-3" d="M102.28,83a1.2,1.2,0,0,1-2.17,0,3.08,3.08,0,0,1-.45-1.7,2.65,2.65,0,0,1,.46-1.57,1.2,1.2,0,0,1,2.16,0,2.89,2.89,0,0,1,.46,1.64A2.82,2.82,0,0,1,102.28,83Zm-3.72,1.73a3.1,3.1,0,0,0,5.2.08,5.73,5.73,0,0,0,1-3.47,5.66,5.66,0,0,0-1-3.42,3,3,0,0,0-2.5-1.38,3.14,3.14,0,0,0-2.62,1.35,5.66,5.66,0,0,0-1,3.5A6,6,0,0,0,98.56,84.71Z" transform="translate(-18.22 -9.82)"/><path class="cls-3" d="M113.61,76.54a2.56,2.56,0,0,0-1.94.78,2.81,2.81,0,0,0-.74,2A3,3,0,0,0,113,82.26a1.94,1.94,0,0,1,.58.3.75.75,0,0,1,.37.2.71.71,0,0,1,.25.59.76.76,0,0,1-.22.54.65.65,0,0,1-.49.23c-.4,0-.79-.43-1.16-1.3l-1.67,1A4.5,4.5,0,0,0,112,85.57a2.49,2.49,0,0,0,3.46-.28,3.23,3.23,0,0,0,.27-3.9,4,4,0,0,0-1.47-1.1,5.26,5.26,0,0,1-1.14-.63.86.86,0,0,1-.21-.65.66.66,0,0,1,.18-.47.62.62,0,0,1,.45-.2c.35,0,.73.28,1.13.82L116,78A3,3,0,0,0,113.61,76.54Z" transform="translate(-18.22 -9.82)"/><path class="cls-3" d="M122.07,79.92a2.56,2.56,0,0,1,.43,1.49,2.79,2.79,0,0,1-.43,1.58,1.26,1.26,0,0,1-1,.65,1.19,1.19,0,0,1-1-.57,2.55,2.55,0,0,1-.39-1.49,3,3,0,0,1,.41-1.64,1.19,1.19,0,0,1,1-.65A1.24,1.24,0,0,1,122.07,79.92Zm2.54,6V76.74h-2.06V78a4.84,4.84,0,0,0-1-1.13,1.8,1.8,0,0,0-1.07-.35A2.58,2.58,0,0,0,118.32,78a6.12,6.12,0,0,0-.91,3.4,6.37,6.37,0,0,0,.85,3.39,2.43,2.43,0,0,0,2.07,1.4,1.82,1.82,0,0,0,1.22-.41,4.54,4.54,0,0,0,1-1.34h0V86Z" transform="translate(-18.22 -9.82)"/><path class="cls-3" d="M126.81,76.72V86h2.06V81.39a3.88,3.88,0,0,1,.36-1.79c.25-.47.55-.7.93-.7a1,1,0,0,1,.79.55,2.6,2.6,0,0,1,.33,1.35V86h2.09V80.36a5.37,5.37,0,0,0-.65-2.78,1.9,1.9,0,0,0-1.64-1.09,2.89,2.89,0,0,0-2.21,1.33v-1.1Z" transform="translate(-18.22 -9.82)"/><path class="cls-3" d="M139.89,90.05H142V76.74h-2.08ZM140,74.49A1.11,1.11,0,0,0,141,75a1.1,1.1,0,0,0,.9-.51,2,2,0,0,0,.37-1.21,2,2,0,0,0-.37-1.2,1.08,1.08,0,0,0-1.81,0,1.87,1.87,0,0,0-.38,1.2A2,2,0,0,0,140,74.49Z" transform="translate(-18.22 -9.82)"/><path class="cls-3" d="M148.54,83a1.2,1.2,0,0,1-2.17,0,3.08,3.08,0,0,1-.45-1.7,2.71,2.71,0,0,1,.45-1.57,1.34,1.34,0,0,1,1.1-.66,1.31,1.31,0,0,1,1.07.7,3,3,0,0,1,.46,1.64A2.89,2.89,0,0,1,148.54,83Zm-3.72,1.73a3.09,3.09,0,0,0,5.19.08,5.66,5.66,0,0,0,1-3.47,5.59,5.59,0,0,0-1-3.42,3,3,0,0,0-2.49-1.38,3.17,3.17,0,0,0-2.63,1.35,5.66,5.66,0,0,0-1,3.5A6,6,0,0,0,144.82,84.71Z" transform="translate(-18.22 -9.82)"/><path class="cls-3" d="M155.49,76.54a2.55,2.55,0,0,0-1.94.78,2.77,2.77,0,0,0-.75,2,3,3,0,0,0,2.08,2.94,2.3,2.3,0,0,1,.58.3.79.79,0,0,1,.37.2.74.74,0,0,1,.25.59.81.81,0,0,1-.22.54.68.68,0,0,1-.49.23c-.4,0-.79-.43-1.17-1.3l-1.66,1a4.31,4.31,0,0,0,1.29,1.74,2.5,2.5,0,0,0,1.52.57,2.54,2.54,0,0,0,1.93-.85,2.89,2.89,0,0,0,.81-2.05,2.85,2.85,0,0,0-.54-1.85,3.88,3.88,0,0,0-1.46-1.1,4.78,4.78,0,0,1-1.14-.63.82.82,0,0,1-.22-.65.63.63,0,0,1,.19-.47.59.59,0,0,1,.44-.2c.35,0,.73.28,1.13.82l1.4-1.14A3,3,0,0,0,155.49,76.54Z" transform="translate(-18.22 -9.82)"/><path class="cls-3" d="M163,75.31l2.21-3.22h-2.52l-1.13,3.22Zm-1.16,3.56a1.25,1.25,0,0,1,1-.45c.69,0,1.13.58,1.32,1.73h-2.78A2.22,2.22,0,0,1,161.83,78.87Zm4.44,2.69a6.13,6.13,0,0,0-1-3.59,3,3,0,0,0-2.49-1.43,3,3,0,0,0-2.51,1.36,5.49,5.49,0,0,0-1,3.38,5.87,5.87,0,0,0,1,3.56,3.05,3.05,0,0,0,2.6,1.32,3.46,3.46,0,0,0,3.27-2.46l-1.89-.84A1.66,1.66,0,0,1,162.71,84a1.13,1.13,0,0,1-.93-.56,2.71,2.71,0,0,1-.44-1.45h4.93Z" transform="translate(-18.22 -9.82)"/><g class="cls-5"><path class="cls-6" d="M56.24,53h1.5c0-4.64-.19-22.76-.19-22.77H29.29V24H56.08V10.71H19v23.6H45v6.31H19V53H56.24Z" transform="translate(-18.22 -9.82)"/><path class="cls-7" d="M56.24,53h1.5c0-4.64-.19-22.76-.19-22.77H29.29V24H56.08V10.71H19v23.6H45v6.31H19V53H56.24Z" transform="translate(-18.22 -9.82)"/><path class="cls-6" d="M72.88,10.61H61.74v13.1H73.87l.23-12.39s0-.36,0-.71Z" transform="translate(-18.22 -9.82)"/><path class="cls-7" d="M72.88,10.61H61.74v13.1H73.87l.23-12.39s0-.36,0-.71Z" transform="translate(-18.22 -9.82)"/><path class="cls-6" d="M71.71,27.57H61.48V57.49H19.22v8.19l3.67-.08,51.26-1v-37H71.71Z" transform="translate(-18.22 -9.82)"/><path class="cls-7" d="M71.71,27.57H61.48V57.49H19.22v8.19l3.67-.08,51.26-1v-37H71.71Z" transform="translate(-18.22 -9.82)"/><g class="cls-8"><rect class="cls-9" x="0.72" y="0.89" width="38.86" height="42.28"/></g><path class="cls-10" d="M56.31,53h1.5c0-4.64-.18-22.76-.18-22.77H29.25V24H56.14V10.71H18.94v23.6H45v6.31H18.94V53H56.31Z" transform="translate(-18.22 -9.82)"/><g class="cls-11"><rect class="cls-12" x="43.52" y="0.78" width="12.37" height="13.14"/></g><path class="cls-10" d="M72.88,10.59H61.74V23.73H73.87L74.1,11.3s0-.35,0-.71Z" transform="translate(-18.22 -9.82)"/><g class="cls-13"><rect class="cls-14" x="1" y="17.7" width="54.93" height="38.21"/></g><path class="cls-10" d="M71.71,27.52H61.48v30H19.22v8.21l3.67-.07,51.26-1V27.52H71.71Z" transform="translate(-18.22 -9.82)"/></g></g></svg>