<svg id="Capa_1" data-name="Capa 1" xmlns="http://www.w3.org/2000/svg" xmlns:xlink="http://www.w3.org/1999/xlink" viewBox="0 0 560.8 450.37"><defs><style>.cls-1{fill:none;}.cls-2,.cls-3,.cls-4,.cls-6{fill:#fff;}.cls-3,.cls-4{isolation:isolate;font-family:SimSun-ExtB;}.cls-3{font-size:51.14px;}.cls-4{font-size:69.29px;}.cls-5{fill:#f49300;}.cls-6{stroke-miterlimit:10;stroke:url(#Unnamed_Pattern);}</style><pattern id="Unnamed_Pattern" data-name="Unnamed Pattern" width="52.85" height="84.5" patternTransform="translate(-171.41 -291.57)" patternUnits="userSpaceOnUse" viewBox="0 0 52.85 84.5"><rect class="cls-1" width="52.85" height="84.5"/><rect class="cls-1" width="52.85" height="84.5"/><rect class="cls-1" width="52.85" height="84.5"/><path class="cls-2" d="M48.92,72.33v1.91c-1.46,1.46-7.47,6.32-22.81,6.32-15,0-20.8-4.88-22.17-6.3V2A2,2,0,0,0,0,2V75a2,2,0,0,0,.34,1.1c.23.35,5.91,8.4,25.77,8.4,20.27,0,26.15-8,26.39-8.37A2,2,0,0,0,52.85,75v-.7h-2A2,2,0,0,1,48.92,72.33Z"/></pattern></defs><title>2</title><text class="cls-3" transform="translate(137.9 442.18) scale(1.24 1)">MUEBLERIA</text><text class="cls-4" transform="translate(220.4 373.55) scale(1.24 1)">MA</text><text class="cls-4" transform="translate(297.6 374.13) scale(1.24 1)">O</text><polygon class="cls-5" points="144.21 334.44 278.88 310 278.88 60.64 144.21 85.09 144.21 334.44"/><polygon points="428.85 320.03 294.18 295.59 294.18 19.61 428.85 44.05 428.85 320.03"/><path class="cls-2" d="M392.52,136.17H294.16v27.29h98.36Zm-44.73,15.18h-23a1.53,1.53,0,1,1-.8-2.95,1.47,1.47,0,0,1,.55-.05h23.25a1.53,1.53,0,0,1,0,3Z" transform="translate(0.01 0.01)"/><path class="cls-2" d="M347.79,190.5h-23a1.53,1.53,0,1,0-.25,3.05h23.25a1.53,1.53,0,0,0,0-3.05Z" transform="translate(0.01 0.01)"/><path class="cls-2" d="M392.52,220.6H294.16v27.28h98.36Zm-44.73,15.16h-23a1.53,1.53,0,1,1,0-3h23a1.53,1.53,0,0,1,0,3Z" transform="translate(0.01 0.01)"/><path class="cls-2" d="M384.62,255.4a1.54,1.54,0,0,0-3,.66L389,289.14a1.53,1.53,0,0,0,1.49,1.19h.33a1.54,1.54,0,0,0,1.16-1.82Z" transform="translate(0.01 0.01)"/><path class="cls-2" d="M401,213V171.13a1.52,1.52,0,0,0-1.52-1.52H294.16v3H397.9V211.3H294.16v3H399.42A1.53,1.53,0,0,0,401,213Z" transform="translate(0.01 0.01)"/><path class="cls-2" d="M314.29,102.8h20.45v-1.53a1.52,1.52,0,0,1,1.52-1.52h-20l9-33.39h22.09l8.95,33.39h-20a1.52,1.52,0,0,1,1.53,1.51h0v1.53h20.45a1.55,1.55,0,0,0,1.53-1.55,1.15,1.15,0,0,0,0-.37L350,64.44a1.52,1.52,0,0,0-1.47-1.13H324a1.52,1.52,0,0,0-1.47,1.13l-9.77,36.44a1.54,1.54,0,0,0,1.11,1.87,1.57,1.57,0,0,0,.37,0Z" transform="translate(0.01 0.01)"/><path class="cls-2" d="M334.74,128.35a1.53,1.53,0,0,0,3,0V102.8h-3Z" transform="translate(0.01 0.01)"/><path d="M336.26,99.75a1.52,1.52,0,0,0-1.52,1.52h0v1.53h3v-1.53A1.52,1.52,0,0,0,336.26,99.75Z" transform="translate(0.01 0.01)"/><rect class="cls-2" x="222.95" y="222.15" width="55.94" height="3.05"/><rect class="cls-2" x="222.95" y="266.57" width="55.94" height="3.05"/><path class="cls-2" d="M197,153.35c1,.23,2,.52,3,.85a36.08,36.08,0,0,1,36-35.39H278.9v-3H236A39.14,39.14,0,0,0,197,153.35Z" transform="translate(0.01 0.01)"/><path class="cls-2" d="M219.88,268.09v1.47c-1.13,1.14-5.78,4.9-17.65,4.9-11.62,0-16.1-3.78-17.16-4.88v-56a1.53,1.53,0,0,0-3,0v56.51a1.52,1.52,0,0,0,.26.85c.18.27,4.58,6.52,19.95,6.52,15.69,0,20.24-6.23,20.42-6.5a1.5,1.5,0,0,0,.28-.87v-.52h-1.52A1.53,1.53,0,0,1,219.88,268.09Z" transform="translate(0.01 0.01)"/><path class="cls-6" d="M185,244V188a1.53,1.53,0,1,0-3-.25h0a1,1,0,0,0,0,.25v56.51a1.52,1.52,0,0,0,.26.85s2.27,1.14,2.27.36A4.76,4.76,0,0,1,185,244Z" transform="translate(0.01 0.01)"/><path class="cls-2" d="M185,183.5V183c1.12-1.13,5.76-4.91,17.64-4.94,11.61,0,16.11,3.73,17.17,4.83l.16,56a1.53,1.53,0,1,0,3,0l-.16-56.51a1.46,1.46,0,0,0-.27-.85c-.18-.27-4.59-6.5-20-6.46-15.69,0-20.22,6.29-20.41,6.55a1.55,1.55,0,0,0-.27.88V183h1.52C184.32,182.9,185,182.66,185,183.5Z" transform="translate(0.01 0.01)"/><path class="cls-2" d="M221.41,266.57h1.52V225.19h-1.52a1.52,1.52,0,0,1-1.53-1.51h0V268.1a1.52,1.52,0,0,1,1.52-1.52Z" transform="translate(0.01 0.01)"/><path class="cls-2" d="M221.41,225.19h1.52v-3h-1.52a1.53,1.53,0,1,0-.8,2.95,1.47,1.47,0,0,0,.55.05Z" transform="translate(0.01 0.01)"/><path class="cls-2" d="M221.41,266.57a1.53,1.53,0,1,0,0,3h1.52v-3Z" transform="translate(0.01 0.01)"/><path class="cls-2" d="M198.44,156.35a1.52,1.52,0,0,0,1.52-1.52h0v-.66c-1-.33-2-.62-3-.85v1.51A1.52,1.52,0,0,0,198.44,156.35Z" transform="translate(0.01 0.01)"/><path class="cls-2" d="M214.22,279a1.55,1.55,0,0,0-1.53,1.53h0v4.64c-.85.76-3.69,2.71-10.37,2.71-6.53,0-9.27-2-10.06-2.69v-4.66a1.53,1.53,0,1,0-3,0v5.25a1.52,1.52,0,0,0,.26.85c.3.44,3.18,4.3,12.85,4.3,9.87,0,12.84-3.84,13.15-4.28a1.49,1.49,0,0,0,.27-.87v-5.25a1.52,1.52,0,0,0-1.51-1.53h-.06Z" transform="translate(0.01 0.01)"/><circle class="cls-2" cx="259.65" cy="170.74" r="2.71"/><path class="cls-2" d="M135.84,82.36h0a9,9,0,0,1,9,9v264a9,9,0,0,1-9,9h0a9,9,0,0,1-9-9v-264A9,9,0,0,1,135.84,82.36Z" transform="translate(0.01 0.01)"/><path class="cls-2" d="M435.84,43.36h0a9,9,0,0,1,9,9v276a9,9,0,0,1-9,9h0a9,9,0,0,1-9-9v-276A9,9,0,0,1,435.84,43.36Z" transform="translate(0.01 0.01)"/><path class="cls-2" d="M289.46,52.2h0a9,9,0,0,1-7.25,10.46h0L10.6,111.72A9,9,0,0,1,.14,104.47h0A9,9,0,0,1,7.39,94h0L279,45A9,9,0,0,1,289.46,52.2Z" transform="translate(0.01 0.01)"/><rect class="cls-2" x="410.73" y="-109.16" width="18.5" height="286.12" rx="9" transform="translate(309.41 440.48) rotate(-79.4)"/></svg>