<svg id="Capa_1" data-name="Capa 1" xmlns="http://www.w3.org/2000/svg" viewBox="0 0 228.74 239.16"><defs><style>.cls-1{fill:none;}.cls-2{fill:#ec652a;}.cls-3{fill:#fffcfa;}.cls-4{fill:#1e2a38;}</style></defs><title>Brandin</title><polygon class="cls-1" points="149.19 211.34 152.57 211.34 150.87 206.65 149.19 211.34"/><path class="cls-1" d="M598,542.52a1.38,1.38,0,0,0,.37-1,1.18,1.18,0,0,0-.45-1,1.53,1.53,0,0,0-1-.27H594.8V543h2A1.49,1.49,0,0,0,598,542.52Z" transform="translate(-385.35 -308.82)"/><path class="cls-1" d="M430.42,513.52a6.25,6.25,0,1,0,6.24,6.24A6.25,6.25,0,0,0,430.42,513.52Z" transform="translate(-385.35 -308.82)"/><path class="cls-1" d="M514,541.73a1.62,1.62,0,0,0-.36-.73,1.49,1.49,0,0,0-.53-.46,2,2,0,0,0-.83-.19,1.79,1.79,0,0,0-.81.19,1.59,1.59,0,0,0-.56.46,1.51,1.51,0,0,0-.35.73,11.21,11.21,0,0,0-.09,1.77,11,11,0,0,0,.09,1.76,1.66,1.66,0,0,0,.91,1.19,1.57,1.57,0,0,0,.81.2,1.7,1.7,0,0,0,.83-.2,1.44,1.44,0,0,0,.53-.44,1.64,1.64,0,0,0,.36-.75,11,11,0,0,0,.09-1.76A11.21,11.21,0,0,0,514,541.73Z" transform="translate(-385.35 -308.82)"/><path class="cls-1" d="M506.69,515.61a2.09,2.09,0,0,0-2.09-2.09h-1.68v4.15h1.68A2.09,2.09,0,0,0,506.69,515.61Z" transform="translate(-385.35 -308.82)"/><polygon class="cls-1" points="16.47 232.08 15.2 235.93 17.77 235.93 16.5 232.08 16.47 232.08"/><path class="cls-2" d="M395.8,530.17a10.31,10.31,0,0,0,7.17-2.89L400,524.34a6.24,6.24,0,1,1-4.23-10.82,6.15,6.15,0,0,1,4.23,1.67l2.94-3a10.31,10.31,0,0,0-7.17-2.89,10.42,10.42,0,0,0,0,20.83Z" transform="translate(-385.35 -308.82)"/><path class="cls-2" d="M440.83,519.76a10.41,10.41,0,1,0-10.41,10.41A10.42,10.42,0,0,0,440.83,519.76ZM430.42,526a6.25,6.25,0,1,1,6.24-6.26A6.26,6.26,0,0,1,430.42,526Z" transform="translate(-385.35 -308.82)"/><polygon class="cls-2" points="95.01 221.35 95.01 200.52 90.53 200.52 84.46 215.74 78.36 200.52 73.89 200.52 73.89 221.35 78.03 221.35 78.03 210.93 82.21 221.35 86.69 221.35 90.86 210.93 90.86 221.35 95.01 221.35"/><path class="cls-2" d="M502.92,521.84h1.71a6.25,6.25,0,0,0,0-12.5h-5.82v20.83h4.14Zm0-8.32h1.68a2.08,2.08,0,1,1,0,4.15h-1.68Z" transform="translate(-385.35 -308.82)"/><path class="cls-2" d="M538.45,509.34H534l-7.52,20.83h4.42l2.12-5.83h6.4l2.11,5.83H546Zm-3.9,10.83,1.67-4.7,1.71,4.7Z" transform="translate(-385.35 -308.82)"/><polygon class="cls-2" points="195.82 221.35 195.82 200.52 191.67 200.52 191.67 214.42 183.34 200.52 178.48 200.52 178.48 221.35 182.63 221.35 182.63 207.47 190.98 221.35 195.82 221.35"/><polygon class="cls-2" points="218.32 200.52 213.67 200.52 219.11 211.43 219.11 221.35 223.26 221.35 223.26 211.43 228.7 200.52 224.06 200.52 221.2 206.29 218.32 200.52"/><polygon class="cls-2" points="2.42 239.09 3.76 239.09 3.76 231.46 6.17 231.46 6.17 230.27 0 230.27 0 231.46 2.42 231.46 2.42 239.09"/><path class="cls-2" d="M401.28,539.09l-3.21,8.82h1.42l.67-2h3.35l.68,2h1.42l-3.21-8.82Zm-.73,5.66,1.28-3.85h0l1.28,3.85Z" transform="translate(-385.35 -308.82)"/><path class="cls-2" d="M415.24,541a1.69,1.69,0,0,1,.56-.46,1.86,1.86,0,0,1,.81-.19,1.81,1.81,0,0,1,1.09.37,2,2,0,0,1,.6.91h1.41a3.35,3.35,0,0,0-1-1.86,3.29,3.29,0,0,0-3.82-.26,3,3,0,0,0-1,1.09,2.3,2.3,0,0,0-.3.84,23.51,23.51,0,0,0,0,4.11,2.28,2.28,0,0,0,.12.47c.05.12.11.25.18.38a2.85,2.85,0,0,0,1,1.08,3.14,3.14,0,0,0,4.88-2.63v-1.8h-3.13v1.27h1.79v.46a1.86,1.86,0,0,1-.52,1.34,1.73,1.73,0,0,1-1.29.53,1.62,1.62,0,0,1-.81-.2,1.64,1.64,0,0,1-.56-.44,1.53,1.53,0,0,1-.34-.75,10.6,10.6,0,0,1-.1-1.76,10.84,10.84,0,0,1,.1-1.77A1.5,1.5,0,0,1,415.24,541Z" transform="translate(-385.35 -308.82)"/><polygon class="cls-2" points="43.4 230.27 43.4 239.09 49.04 239.09 49.04 237.83 44.74 237.83 44.74 230.27 43.4 230.27"/><rect class="cls-2" x="57.74" y="230.27" width="1.34" height="8.82"/><polygon class="cls-2" points="73.65 236.54 73.62 236.54 69.63 230.27 68.37 230.27 68.37 239.09 69.71 239.09 69.71 232.82 69.73 232.82 73.72 239.09 74.98 239.09 74.98 230.27 73.65 230.27 73.65 236.54"/><polygon class="cls-2" points="89.92 231.53 89.92 230.27 84.28 230.27 84.28 239.09 89.92 239.09 89.92 237.83 85.62 237.83 85.62 235.24 89.29 235.24 89.29 234.05 85.62 234.05 85.62 231.53 89.92 231.53"/><path class="cls-2" d="M495.49,539.51a3.2,3.2,0,0,0-1,1.09,2.5,2.5,0,0,0-.29.84,23.51,23.51,0,0,0,0,4.11,2.28,2.28,0,0,0,.12.47l.17.38a3,3,0,0,0,1,1.08,3.19,3.19,0,0,0,1.74.51,3.12,3.12,0,0,0,3.15-3.14v-1.8h-3.14v1.27H499v.46a1.86,1.86,0,0,1-.52,1.34,1.73,1.73,0,0,1-1.29.53,1.62,1.62,0,0,1-.81-.2,1.55,1.55,0,0,1-.56-.44,1.45,1.45,0,0,1-.34-.75,9.57,9.57,0,0,1-.1-1.76,9.78,9.78,0,0,1,.1-1.77,1.42,1.42,0,0,1,.34-.73,1.59,1.59,0,0,1,.56-.46,1.86,1.86,0,0,1,.81-.19,1.81,1.81,0,0,1,1.09.37,2,2,0,0,1,.59.91h1.42a3.31,3.31,0,0,0-1-1.86,3,3,0,0,0-2.08-.75A3.1,3.1,0,0,0,495.49,539.51Z" transform="translate(-385.35 -308.82)"/><path class="cls-2" d="M515,546.4a2.07,2.07,0,0,0,.31-.85,30.2,30.2,0,0,0,0-4.11,2.14,2.14,0,0,0-.31-.84,3,3,0,0,0-1-1.09,3.11,3.11,0,0,0-1.75-.49,3.05,3.05,0,0,0-1.74.49,3.11,3.11,0,0,0-1,1.09,2.74,2.74,0,0,0-.3.84,23.51,23.51,0,0,0,0,4.11,3.07,3.07,0,0,0,.13.47l.17.38a2.93,2.93,0,0,0,1,1.08,3.14,3.14,0,0,0,1.74.51,3.2,3.2,0,0,0,1.75-.51A2.86,2.86,0,0,0,515,546.4Zm-1.4-.39a1.44,1.44,0,0,1-.53.44,1.7,1.7,0,0,1-.83.2,1.57,1.57,0,0,1-.81-.2,1.66,1.66,0,0,1-.91-1.19,11,11,0,0,1-.09-1.76,11.21,11.21,0,0,1,.09-1.77,1.51,1.51,0,0,1,.35-.73,1.59,1.59,0,0,1,.56-.46,1.79,1.79,0,0,1,.81-.19,2,2,0,0,1,.83.19,1.49,1.49,0,0,1,.53.46,1.62,1.62,0,0,1,.36.73,11.21,11.21,0,0,1,.09,1.77,11,11,0,0,1-.09,1.76A1.64,1.64,0,0,1,513.59,546Z" transform="translate(-385.35 -308.82)"/><polygon class="cls-2" points="144.65 231.53 144.65 230.27 139.02 230.27 139.02 239.09 144.65 239.09 144.65 237.83 140.35 237.83 140.35 235.24 144.02 235.24 144.02 234.05 140.35 234.05 140.35 231.53 144.65 231.53"/><path class="cls-2" d="M541.32,546.65a3.88,3.88,0,0,1-2.51-.88l-.87,1a5,5,0,0,0,3.37,1.21c2,0,3.05-.88,3.09-2.57a2.54,2.54,0,0,0-.58-1.65,2.8,2.8,0,0,0-1.84-.89l-1-.13a1.79,1.79,0,0,1-1-.44,1,1,0,0,1-.3-.69,1.17,1.17,0,0,1,.45-1,1.68,1.68,0,0,1,1-.31,4.12,4.12,0,0,1,2.18.68l.74-1.1a4.94,4.94,0,0,0-2.86-.91,3,3,0,0,0-2.11.71,2.42,2.42,0,0,0-.77,1.87,2.37,2.37,0,0,0,.61,1.63,2.84,2.84,0,0,0,1.73.84l1.17.16c.78.14,1.16.53,1.15,1.19S542.46,546.63,541.32,546.65Z" transform="translate(-385.35 -308.82)"/><polygon class="cls-2" points="184.47 239.09 184.47 230.27 183.14 230.27 183.14 234.05 179.64 234.05 179.64 230.27 178.31 230.27 178.31 239.09 179.64 239.09 179.64 235.24 183.14 235.24 183.14 239.09 184.47 239.09"/><polygon class="cls-2" points="199.41 231.53 199.41 230.27 193.78 230.27 193.78 239.09 199.41 239.09 199.41 237.83 195.11 237.83 195.11 235.24 198.78 235.24 198.78 234.05 195.11 234.05 195.11 231.53 199.41 231.53"/><path class="cls-2" d="M594.8,544.14h1.71l1.82,3.77h1.59l-2-3.91a2.47,2.47,0,0,0,1.71-2.45,2.34,2.34,0,0,0-.88-1.88,2.69,2.69,0,0,0-1.8-.58h-3.44v8.82h1.34Zm0-3.86h2.09a1.53,1.53,0,0,1,1,.27,1.18,1.18,0,0,1,.45,1,1.38,1.38,0,0,1-.37,1,1.49,1.49,0,0,1-1.13.44h-2Z" transform="translate(-385.35 -308.82)"/><polygon class="cls-2" points="228.74 231.53 228.74 230.27 223.1 230.27 223.1 239.09 228.74 239.09 228.74 237.83 224.44 237.83 224.44 235.24 228.11 235.24 228.11 234.05 224.44 234.05 224.44 231.53 228.74 231.53"/><path class="cls-3" d="M554.05,328.07l0,0,0,0-.43-.35h0Z" transform="translate(-385.35 -308.82)"/><path class="cls-3" d="M552.12,326.55h0c.49.37,1,.75,1.44,1.12h0l-1.44-1.13h0l-.39-.3-.16-.13.15.13Z" transform="translate(-385.35 -308.82)"/><path class="cls-3" d="M551.4,326l0,0h0Z" transform="translate(-385.35 -308.82)"/><polygon class="cls-3" points="165.99 17.14 165.97 17.12 165.69 16.92 165.97 17.12 165.99 17.14"/><path class="cls-3" d="M550.25,325.15l.21.16-.21-.16-.15-.1h0Z" transform="translate(-385.35 -308.82)"/><path class="cls-3" d="M550.08,325h0l-.44-.32.44.32Z" transform="translate(-385.35 -308.82)"/><path class="cls-3" d="M548.36,323.82h0l-.48-.33.48.34Z" transform="translate(-385.35 -308.82)"/><path class="cls-3" d="M513.92,310h0l-1-.17-.48-.07.48.07Z" transform="translate(-385.35 -308.82)"/><path class="cls-3" d="M547,322.91l0,0h0Z" transform="translate(-385.35 -308.82)"/><path class="cls-3" d="M536.28,316.93h0c-.88-.41-1.68-.77-2.46-1.1h0C534.6,316.15,535.4,316.51,536.28,316.93Z" transform="translate(-385.35 -308.82)"/><path class="cls-3" d="M546.23,322.41l.52.34-.52-.34h0Z" transform="translate(-385.35 -308.82)"/><path class="cls-3" d="M525.88,312.86l-.62-.2-.65-.19.65.19Z" transform="translate(-385.35 -308.82)"/><path class="cls-3" d="M522.62,311.89l-.29-.07-.05,0,.05,0Z" transform="translate(-385.35 -308.82)"/><polygon class="cls-3" points="137.48 3.13 137.47 3.13 137.46 3.13 137.47 3.13 137.48 3.13"/><path class="cls-3" d="M533.11,315.52l.08,0,.56.24h0l-.56-.24-.08,0-.06,0h0Z" transform="translate(-385.35 -308.82)"/><polygon class="cls-3" points="158.22 11.96 158.22 11.96 158.22 11.96 158.22 11.96"/><path class="cls-3" d="M544.05,321.06l.44.27.82.5,0,0h0l0,0-.82-.5-.44-.27h0l-.2-.12.2.12Z" transform="translate(-385.35 -308.82)"/><path class="cls-3" d="M554.72,328.62l.07.06-.07-.06-.58-.48,0,0,0,0C554.33,328.29,554.52,328.45,554.72,328.62Z" transform="translate(-385.35 -308.82)"/><path class="cls-3" d="M542.81,320.34l.6.34-.59-.34-.15-.09-.21-.12.2.12Z" transform="translate(-385.35 -308.82)"/><path class="cls-3" d="M536.42,317l.74.35c.29.13.56.26.84.41h0c-.28-.15-.56-.28-.84-.41l-.74-.36h0l-.07,0,.07,0Z" transform="translate(-385.35 -308.82)"/><path class="cls-3" d="M530,314.3c.63.23,1.31.5,2.14.83l.17.07-.17-.07c-.83-.33-1.51-.6-2.14-.83l-.38-.14,0,0,0,0Z" transform="translate(-385.35 -308.82)"/><polygon class="cls-3" points="28.87 74.49 28.87 74.53 28.86 74.56 28.87 74.53 28.87 74.49"/><polygon class="cls-3" points="28.85 74.65 28.85 74.7 28.84 74.71 28.85 74.7 28.85 74.65"/><path class="cls-3" d="M414.33,382.58c0-.15,0-.29.07-.44v0c0,.14,0,.29-.07.44v0h0Z" transform="translate(-385.35 -308.82)"/><path class="cls-3" d="M414.32,382.7a2,2,0,0,0,0,.26l0,.24,0-.24A2,2,0,0,1,414.32,382.7Z" transform="translate(-385.35 -308.82)"/><path class="cls-3" d="M414,385.5l0-.29,0,.29h0Z" transform="translate(-385.35 -308.82)"/><path class="cls-3" d="M413.56,390.34l0,.51v0Z" transform="translate(-385.35 -308.82)"/><path class="cls-3" d="M413.74,387.7c0,.1,0,.2,0,.3a.76.76,0,0,0,0,.15.76.76,0,0,1,0-.15C413.73,387.9,413.73,387.8,413.74,387.7Z" transform="translate(-385.35 -308.82)"/><path class="cls-3" d="M413.66,388.79v-.13a.53.53,0,0,0,0,.13c0,.32-.05.65-.07,1h0C413.61,389.44,413.63,389.11,413.66,388.79Z" transform="translate(-385.35 -308.82)"/><path class="cls-3" d="M493.66,309l.58,0Z" transform="translate(-385.35 -308.82)"/><path class="cls-3" d="M486.54,309.82h0Z" transform="translate(-385.35 -308.82)"/><path class="cls-3" d="M458.5,424.13a2.56,2.56,0,0,1,.11.24A2.56,2.56,0,0,0,458.5,424.13Z" transform="translate(-385.35 -308.82)"/><path class="cls-3" d="M503,308.89c1.95.07,3.9.2,5.83.4C506.87,309.09,504.92,309,503,308.89Z" transform="translate(-385.35 -308.82)"/><path class="cls-3" d="M517.79,310.73l1.64.37Z" transform="translate(-385.35 -308.82)"/><path class="cls-3" d="M538.13,317.82c1.26.63,2.51,1.29,3.73,2C540.63,319.1,539.38,318.45,538.13,317.82Z" transform="translate(-385.35 -308.82)"/><path class="cls-3" d="M556,329.65l-.5-.42-.34-.28.33.28Z" transform="translate(-385.35 -308.82)"/><path class="cls-3" d="M471.49,346.47a71.13,71.13,0,0,1,26.56-18,69.76,69.76,0,0,1,9.42-2.92,70.34,70.34,0,0,0-9.43,2.92A71.05,71.05,0,0,0,471.49,346.47Z" transform="translate(-385.35 -308.82)"/><path class="cls-3" d="M486.84,456.29h0A71.37,71.37,0,0,1,465.19,436a70.6,70.6,0,0,1-5.54-9.38,70.6,70.6,0,0,0,5.54,9.38A71.34,71.34,0,0,0,486.84,456.29Z" transform="translate(-385.35 -308.82)"/><path class="cls-3" d="M413.43,394.4h0v0Z" transform="translate(-385.35 -308.82)"/><path class="cls-3" d="M432,439.39a61.75,61.75,0,0,1-18.51-43.34v0a62.2,62.2,0,0,0,62.18,61.25,62.71,62.71,0,0,0,7.77-.49,62.71,62.71,0,0,1-7.77.49A61.8,61.8,0,0,1,432,439.39Z" transform="translate(-385.35 -308.82)"/><path class="cls-3" d="M557.87,331.36l0,0,.46.42-.46-.43,0,0-.2-.19-.1-.08.1.09Z" transform="translate(-385.35 -308.82)"/><polygon class="cls-3" points="173.97 23.9 173.94 23.87 173.93 23.86 173.94 23.87 173.97 23.9"/><path class="cls-3" d="M560.18,333.54v0h0l0,0-.31-.3-.41-.4.41.4Z" transform="translate(-385.35 -308.82)"/><path class="cls-3" d="M558.89,332.3l-.4-.37,0,0,0,0Z" transform="translate(-385.35 -308.82)"/><path class="cls-3" d="M413.53,390.91h0v0Z" transform="translate(-385.35 -308.82)"/><polygon class="cls-3" points="28.16 82.32 28.16 82.33 28.16 82.33 28.16 82.33 28.16 82.32"/><path class="cls-3" d="M413.45,393.34v-.28c0-.34,0-.67,0-1,0-.09,0-.17,0-.25,0,.08,0,.16,0,.24,0,.36,0,.69,0,1v.28c0,.27,0,.55,0,.83v0C413.44,393.89,413.44,393.62,413.45,393.34Z" transform="translate(-385.35 -308.82)"/><path class="cls-2" d="M414.42,382v.19c0,.15,0,.29-.07.44v0h0a.28.28,0,0,0,0,.09,2,2,0,0,0,0,.26l0,.24v.11h0v.22h0v0c0,.29-.07.57-.11.86l-.09.78,0,.29h0c0,.31-.07.62-.11.94l-.06.7v0l0,.24,0,.27c0,.1,0,.2,0,.3a.76.76,0,0,0,0,.15,1.64,1.64,0,0,0,0,.22,2.83,2.83,0,0,0,0,.29v.13c0,.32-.05.65-.07,1h0c0,.16,0,.33,0,.49l0,.51v.06h0V391a.41.41,0,0,0,0,.11v.06h0v0c0,.19,0,.39,0,.58s0,.16,0,.25c0,.35,0,.68,0,1v.28c0,.28,0,.55,0,.83v.23h0v1.65a62.18,62.18,0,0,0,62.17,61.25,62.71,62.71,0,0,0,7.77-.49c1.16-.14,2.32-.31,3.47-.52h0A71.34,71.34,0,0,1,465.19,436a70.6,70.6,0,0,1-5.54-9.38c-.36-.74-.7-1.47-1-2.22a2.56,2.56,0,0,0-.11-.24,71.58,71.58,0,0,1,6.69-69.86,72.06,72.06,0,0,1,6.3-7.8,71.05,71.05,0,0,1,26.55-18,70.34,70.34,0,0,1,9.43-2.92,71.82,71.82,0,0,1,52.73,8h0v0l-.31-.3-.41-.4-.13-.12h0l0,0h0l0,0-.37-.35-.4-.37,0,0h0l0,0-.07-.06-.46-.42,0,0-.2-.18-.1-.09-.65-.6-.74-.64-.23-.2-.51-.42-.33-.28-.18-.16h0l-.13-.11-.07-.06c-.2-.17-.39-.33-.59-.48l0,0h0l0,0-.44-.35h0v0h0c-.46-.37-1-.75-1.44-1.12h0l-.4-.3-.15-.13-.1-.07-.07-.05h-.06l0,0-.27-.2-.1-.07-.37-.28-.12-.08-.21-.16-.15-.1h0l-.44-.32-.1-.07,0,0,0,0-1.08-.75h0l-.48-.34-.12-.08h0l-.73-.48,0,0h0l-.16-.11-.52-.34h-.06c-.26-.17-.52-.34-.79-.5l0,0h0l0,0-.82-.5-.44-.27h0l-.2-.12-.25-.15h0l-.15-.09-.6-.34-.15-.09-.2-.12-.55-.31,0,0c-1.22-.68-2.47-1.34-3.73-2l-.08,0h0c-.28-.15-.55-.28-.84-.41l-.74-.35h0l-.07,0,0,0h0c-.88-.42-1.68-.78-2.46-1.11h-.07l-.56-.24-.08,0-.06,0h0l-.34-.14-.35-.15-.17-.07c-.83-.33-1.51-.6-2.14-.83l-.38-.14,0,0-.39-.15c-1.06-.38-2.15-.76-3.25-1.1h0l-.06,0-.62-.2-.65-.19-.39-.12-1.37-.39h-.05l-.18-.05-.29-.07-.05,0-.09,0c-.91-.25-1.83-.47-2.76-.68l-1.64-.37c-.93-.2-1.85-.39-2.79-.56l-1-.18h0l-1-.17-.48-.07-.61-.09c-1-.14-2-.26-3-.37-1.93-.2-3.88-.33-5.83-.4-1.08,0-2.17-.07-3.25-.07-1.83,0-3.66.07-5.48.18l-.58,0c-2,.14-4,.35-6,.63l-1.07.16h0l-72.11,72.1Z" transform="translate(-385.35 -308.82)"/><path class="cls-4" d="M585,408.18V408c0-.12,0-.24.05-.36v-.13c0-.16,0-.32.07-.48v-.21l0-.15.06-.54.05-.37c0-.36.09-.69.12-1v0c0-.32.07-.62.1-.93s0-.5.07-.73v0l0-.23c0-.17,0-.34,0-.51v-.13c0-.21,0-.43,0-.65v-.09c0-.31.05-.65.07-1v0l.06-1V399l0-.83c0-.38,0-.73,0-1.09v-.21c0-.26,0-.52,0-.78v-.34c0-.22,0-.44,0-.66s0-.47,0-.7h0v-.23a62.16,62.16,0,0,0-62.18-61.24,63.63,63.63,0,0,0-11.23,1,71.49,71.49,0,0,1-73.35,122.74v0l.05,0,.05.05a1.14,1.14,0,0,0,.16.15l.17.17.42.41,0,0,0,0,.78.74,0,0,0,0,.53.49,0,0h0l1,.86h0v0l.64.56,0,0,.14.12h0l.61.53.13.11,0,0,.5.41.06.05.06.06.49.4.06,0,.06.05.38.31.05,0,0,0c.46.37.94.74,1.42,1.11l.31.24.36.27.2.15.11.08.58.43.18.13.3.21,0,0,0,0,.43.31.16.11,1.07.75,0,0,0,0,.48.33.12.08.4.26.42.29.66.42.67.43h.55l1,.93.45.28.91.52,0,0h0l.72.41c1.27.72,2.56,1.4,3.85,2l.86.41.12.07.8.38c.82.38,1.65.75,2.46,1.1h0l.61.26.19.08.81.33c.67.27,1.39.55,2.14.83h.05l.7.26h.06c1.1.41,2.19.78,3.24,1.11h.07l.64.2h.06l1,.3.27.07,1.14.33.6.16h0c2.38.64,4.8,1.18,7.19,1.6h.05l1,.17h0l1,.16h.1l1,.14h0a88.25,88.25,0,0,0,24.15,0l.08,0,1-.13h.08L585,408.3A.5.5,0,0,1,585,408.18Z" transform="translate(-385.35 -308.82)"/></svg>