<svg id="Capa_1" data-name="Capa 1" xmlns="http://www.w3.org/2000/svg" viewBox="0 0 308.16 284.08"><defs><style>.cls-1,.cls-2,.cls-3,.cls-4,.cls-5{isolation:isolate;}.cls-1{font-size:30.69px;font-family:CopperplateGothic-Bold, Copperplate Gothic Bold;font-weight:700;letter-spacing:0.1em;}.cls-1,.cls-3,.cls-4,.cls-5{fill:#fff;}.cls-3,.cls-4,.cls-5{font-size:9px;font-family:ArialMT, Arial;}.cls-3{letter-spacing:0.3em;}.cls-4{letter-spacing:0.33em;}.cls-5{letter-spacing:0.4em;}.cls-11,.cls-6{fill:#7991cc;}.cls-7{fill:#ff8e27;}.cls-10,.cls-8{fill:none;stroke-miterlimit:10;}.cls-8{stroke:#7991cc;stroke-width:8px;}.cls-9{fill:#0bd;}.cls-10{stroke:#fff;stroke-width:2px;}.cls-11{fill-rule:evenodd;}</style></defs><title>4</title><text class="cls-1" transform="translate(9.14 253.86)">VISON FUTURA</text><g class="cls-2"><text class="cls-3" transform="translate(86.39 281.16)">T</text><text class="cls-4" transform="translate(93.79 281.16)">A</text><text class="cls-5" transform="translate(102.76 281.16)">GLINE GOES HERE</text></g><polygon class="cls-6" points="42.75 129.29 16.32 129.29 16.32 134.33 40.67 134.33 53.09 146.75 111.1 146.75 111.1 141.71 55.18 141.71 42.75 129.29"/><path class="cls-6" d="M20.84,131.58l-5.21,9H5.2l-5.2-9,5.2-9H15.63Z" transform="translate(0)"/><polygon class="cls-6" points="42.75 197.68 16.32 197.68 16.32 192.63 40.67 192.63 53.09 180.21 111.1 180.21 111.1 185.26 55.18 185.26 42.75 197.68"/><path class="cls-6" d="M15.63,204.42H5.2l-5.2-9,5.2-9H15.63l5.21,9Zm-8.1-4H13.3l2.88-5-2.88-5H7.53l-2.88,5Z" transform="translate(0)"/><rect class="cls-6" x="27.12" y="162.6" width="44.42" height="4.69"/><path class="cls-7" d="M10.18,165l4.84-8.4h9.7l4.86,8.4-4.86,8.4H15Z" transform="translate(0)"/><polygon class="cls-6" points="265.41 129.29 291.85 129.29 291.85 134.33 267.5 134.33 255.08 146.75 197.07 146.75 197.07 141.71 252.99 141.71 265.41 129.29"/><path class="cls-6" d="M292.53,122.55H303l5.21,9-5.21,9H292.53l-5.21-9Z" transform="translate(0)"/><polygon class="cls-6" points="265.41 197.68 291.85 197.68 291.85 192.63 267.5 192.63 255.08 180.21 197.07 180.21 197.07 185.26 252.99 185.26 265.41 197.68"/><path class="cls-6" d="M287.32,195.39l5.21-9H303l5.21,9-5.21,9H292.53Zm16.19,0-2.89-5h-5.76l-2.88,5,2.88,5h5.76Z" transform="translate(0)"/><rect class="cls-6" x="236.63" y="162.6" width="44.42" height="4.69"/><path class="cls-7" d="M293.13,173.35h-9.7l-4.85-8.4,4.85-8.4h9.7L298,165Z" transform="translate(0)"/><path class="cls-8" d="M115.48,165.3c9.24-33.18,63.23-34.29,77.2-5.15" transform="translate(0)"/><polygon class="cls-6" points="186.26 211.25 160.31 166.33 186.26 121.41 238.13 121.41 264.06 166.33 238.13 211.25 186.26 211.25"/><polygon class="cls-9" points="191.31 202.5 170.43 166.33 191.31 130.16 233.07 130.16 253.95 166.33 233.07 202.5 191.31 202.5"/><line class="cls-10" x1="193.94" y1="144.09" x2="230.44" y2="144.09"/><line class="cls-10" x1="193.94" y1="174.76" x2="230.44" y2="174.76"/><line class="cls-10" x1="199.19" y1="190.09" x2="225.19" y2="190.09"/><line class="cls-10" x1="185.94" y1="159.42" x2="238.44" y2="159.42"/><polygon class="cls-6" points="70.04 211.26 44.1 166.33 70.04 121.41 121.91 121.41 147.85 166.33 121.91 211.26 70.04 211.26"/><polygon class="cls-9" points="75.09 202.5 54.22 166.33 75.09 130.16 116.86 130.16 137.74 166.33 116.86 202.5 75.09 202.5"/><line class="cls-10" x1="77.73" y1="144.98" x2="114.23" y2="144.98"/><line class="cls-10" x1="77.73" y1="175.65" x2="114.23" y2="175.65"/><line class="cls-10" x1="82.98" y1="190.98" x2="108.98" y2="190.98"/><line class="cls-10" x1="69.73" y1="160.32" x2="122.23" y2="160.32"/><polygon class="cls-11" points="153.07 179.29 134.3 211.22 169.8 211.22 144.13 205.89 153.07 179.29"/><polygon class="cls-11" points="56.93 145.5 56.42 97.5 41.42 39 82.71 53 102.94 16 130.75 39.5 201.54 0 210.64 37 271.31 21.5 249.37 68.53 280.92 69 250.42 107.5 250.08 144.5 237.94 124 237.44 105.5 195.47 82.5 218.22 109.5 164.63 84 193.45 115 137.32 93.5 170.19 117 105.97 101.5 69.57 101 70.07 123 56.93 145.5"/></svg>