<svg id="Capa_1" data-name="Capa 1" xmlns="http://www.w3.org/2000/svg" xmlns:xlink="http://www.w3.org/1999/xlink" viewBox="0 0 319.21 384.91"><defs><style>.cls-1{fill:url(#Degradado_sin_nombre_202);}.cls-2{fill:url(#Degradado_sin_nombre_210);}.cls-3{fill:url(#Degradado_sin_nombre_205);}.cls-4{fill:url(#Degradado_sin_nombre_223);}.cls-5{fill:url(#Degradado_sin_nombre_259);}.cls-6{fill:url(#Degradado_sin_nombre_259-2);}.cls-7,.cls-8{fill:#fffefe;}.cls-8{font-size:44.19px;font-family:Calibri-Light, Calibri;font-weight:300;}.cls-9{letter-spacing:-0.07em;}.cls-10{letter-spacing:-0.02em;}.cls-11{letter-spacing:-0.01em;}.cls-12{letter-spacing:0em;}</style><radialGradient id="Degradado_sin_nombre_202" cx="143.85" cy="251.44" r="139.36" gradientUnits="userSpaceOnUse"><stop offset="0.12" stop-color="#350403"/><stop offset="0.29" stop-color="#380403"/><stop offset="0.43" stop-color="#430505"/><stop offset="0.56" stop-color="#540707"/><stop offset="0.68" stop-color="#6c090a"/><stop offset="0.8" stop-color="#8c0b0e"/><stop offset="0.92" stop-color="#b20f13"/><stop offset="0.96" stop-color="#c01015"/></radialGradient><radialGradient id="Degradado_sin_nombre_210" cx="120.85" cy="106.29" fx="25.93698527074646" fy="44.63381956613271" r="113.19" gradientUnits="userSpaceOnUse"><stop offset="0.08" stop-color="#350403"/><stop offset="0.11" stop-color="#4a0606"/><stop offset="0.16" stop-color="#69090a"/><stop offset="0.22" stop-color="#850b0d"/><stop offset="0.28" stop-color="#9b0d10"/><stop offset="0.36" stop-color="#ac0e12"/><stop offset="0.45" stop-color="#b70f14"/><stop offset="0.59" stop-color="#be1015"/><stop offset="0.96" stop-color="#c01015"/></radialGradient><radialGradient id="Degradado_sin_nombre_205" cx="77.56" cy="182.97" r="149.82" xlink:href="#Degradado_sin_nombre_202"/><radialGradient id="Degradado_sin_nombre_223" cx="224.6" cy="288.21" fx="180.14782058122205" fy="278.6911218927709" r="93.01" gradientTransform="matrix(0.53, -0.85, 0.82, 0.52, -133.12, 327.78)" gradientUnits="userSpaceOnUse"><stop offset="0.28" stop-color="#350403"/><stop offset="0.37" stop-color="#3e0504"/><stop offset="0.52" stop-color="#580707"/><stop offset="0.71" stop-color="#810b0d"/><stop offset="0.93" stop-color="#ba0f14"/><stop offset="0.96" stop-color="#c01015"/></radialGradient><linearGradient id="Degradado_sin_nombre_259" x1="169.01" y1="168.79" x2="283" y2="168.79" gradientUnits="userSpaceOnUse"><stop offset="0.31" stop-color="#5b121a"/><stop offset="1" stop-color="#e30b1c"/></linearGradient><linearGradient id="Degradado_sin_nombre_259-2" x1="183.93" y1="172.26" x2="245.67" y2="172.26" xlink:href="#Degradado_sin_nombre_259"/></defs><title>7</title><path class="cls-1" d="M251.44,235.52a81.14,81.14,0,0,1-25.26,4c-29.76,0-55.6-15.91-68.63-39.27H126.66c14,36.44,49.51,63.05,92,65.89L251.44,304Z" transform="translate(-67.82 -27.56)"/><path class="cls-2" d="M200.07,96.08a81.12,81.12,0,0,1,25.25-4c29.77,0,55.61,15.92,68.63,39.27h30.89c-14-36.44-49.51-63-91.95-65.89L200.07,27.56Z" transform="translate(-67.82 -27.56)"/><path class="cls-3" d="M151.92,189.79a70.18,70.18,0,0,1-4.23-24c0-28.27,16.76-52.82,41.36-65.19V71.27c-38.37,13.29-66.38,47-69.38,87.35L79.79,189.79Z" transform="translate(-67.82 -27.56)"/><path class="cls-4" d="M298.73,141.82a70.32,70.32,0,0,1,4.22,24c0,28.28-16.76,52.82-41.35,65.19v29.34C300,247.05,328,213.3,331,173l39.88-31.17Z" transform="translate(-67.82 -27.56)"/><path class="cls-5" d="M169,128.72l9.11,7.27,65.48.75s26.37.52,19.28,30.7a58.11,58.11,0,0,1-8.61,19.32c-5.38,7.9-14.77,18.91-26.9,22.09,0,0,34.75-3.64,52.45-41.26A32.42,32.42,0,0,0,283,155.16c.45-10.51-4.1-26.3-35.48-26.44Z" transform="translate(-67.82 -27.56)"/><path class="cls-6" d="M183.93,140.72l4.42,4.5,25.62.05-24.42,58.82s24.67,0,28.19-.69c0,0,11.75-1.15,16.63-5.4l-29.86.47,23.25-54.29a33.94,33.94,0,0,1,17.91.89s-3.6-4.92-28-4.63S183.93,140.72,183.93,140.72Z" transform="translate(-67.82 -27.56)"/><path class="cls-7" d="M107.4,318.42v-2.14h6.95v2.94h-.5Zm6.95,30.81v2.94H107.4V350l6.45-.8Zm-2.24-16.34c0-5.52,0-11.09-.14-16.61h4.76c-.15,5.41-.15,11-.15,16.61v2c0,6.16,0,11.73.15,17.25H112c.14-5.41.14-11,.14-17.25Zm2.24,16.82h6.41c7.79,0,12.07-5.68,12.07-15.43,0-10.13-4.28-15.54-11.63-15.54h-6.85v-2.46h7.7c9.43,0,16,6.32,16,18s-7.35,17.89-17,17.89h-6.7Z" transform="translate(-67.82 -27.56)"/><path class="cls-7" d="M141.42,318.42v-2.14h13.91v2.14l-6.46.8h-1Zm17,30.81c5.71,0,8.59-3.49,8.59-13.08V316.28h2.48v21.27c0,11.25-5.06,15.43-11.77,15.43-7.2,0-12.07-4.34-12.07-14.31v-5.78c0-5.52,0-11.09-.15-16.61h4.77c-.15,5.41-.15,11-.15,16.61v4.23C150.11,346.33,153.34,349.23,158.41,349.23Zm8.94-30-5.47-.8v-2.14H173.8v2.14l-5.46.8Z" transform="translate(-67.82 -27.56)"/><path class="cls-7" d="M176.78,318.42v-2.14h13.91v2.14l-6.46.8h-1Zm7,30.81v2.94h-7V350l6.46-.8Zm-2.39-33h4.77c-.15,5.52-.15,11.09-.15,16.61v3.75c0,4.55,0,10.12.15,15.53h-4.77c.15-5.52.15-11.09.15-16.61v-2.67C181.5,327.26,181.5,321.69,181.35,316.28ZM202,342.1l-.49,10.07H183.74v-2.68h16L197,352.17l2-10.07Z" transform="translate(-67.82 -27.56)"/><path class="cls-7" d="M205.44,318.42v-2.14h6.95v2.94h-.49Zm6.95,30.81v2.94h-6.95V350l6.46-.8Zm-2.23-16.34c0-5.52,0-11.09-.15-16.61h4.77c-.15,5.41-.15,11-.15,16.61v2c0,6.16,0,11.73.15,17.25H210c.15-5.41.15-11,.15-16.61Zm16-16.61,2.24,2.68h-16v-2.68h17.74l.34,9.53h-2.78Zm-2.53,18.8H212.39v-2.46h11.23Zm7.85,7.56-.35,9.53H212.39v-2.68h17l-2.24,2.68,1.54-9.53ZM222,333.15l.74-5.68H225v12.7h-2.24l-.74-5.95Z" transform="translate(-67.82 -27.56)"/><path class="cls-7" d="M235.19,316.28h6.56v2.94h-.6l-6-.8Zm0,33.75,5.22-.8h1l4.87.8v2.14H235.19Zm4.47-33.75h2.09l.44,16v19.93h-2.53Zm.05,0h4.42l12.17,32.14h-1.69l11.52-32.14h2.64l-13,35.89h-2.43ZM262.36,350l6-.8h1l6.46.8v2.14H262.36Zm4.32-14.47V316.28h4.52c-.15,5.41-.15,11-.15,16.61v2.67c0,5.52,0,11.09.15,16.61h-4.67C266.68,346.76,266.68,341.19,266.68,335.56Zm2.13-19.28h7v2.14l-6.46.8h-.5Z" transform="translate(-67.82 -27.56)"/><path class="cls-7" d="M309,343.76c0-3.48-1.94-5-6.26-6.86l-1.89-.8c-5.07-2.14-8.54-5.25-8.54-10.71,0-6.17,4.82-9.92,11.12-9.92a12.58,12.58,0,0,1,8.1,2.84l-.3,7h-3l-1.39-8.09L310,319v2.67c-2.43-2.57-4.27-3.48-6.9-3.48-3.88,0-6.81,2.09-6.81,6.11,0,3.38,2,5.36,5.66,6.86l1.94.8c6.56,2.73,9.09,5.84,9.09,10.88,0,6.32-4.92,10.18-11.72,10.18a18,18,0,0,1-9.64-2.84l.3-7.5h3l1.29,8.25-3.23-1.5v-2.58c3.08,2.42,4.77,3.49,8.15,3.49C305.82,350.3,309,347.94,309,343.76Z" transform="translate(-67.82 -27.56)"/><path class="cls-7" d="M317.94,349.12a3.49,3.49,0,1,1,3.47,3.75A3.65,3.65,0,0,1,317.94,349.12Z" transform="translate(-67.82 -27.56)"/><path class="cls-7" d="M329.11,350l5-.8h1l5.46.8v2.14H329.11Zm14.8-34h3l11.43,36.16H353.7l-10-32.09h1.15l-10.14,32.09h-2.33Zm-5.81,22h13.41l.8,2.46h-15Zm9.79,12,6.25-.8h1l6.16.8v2.14H347.89Z" transform="translate(-67.82 -27.56)"/><text class="cls-8" transform="translate(0 373.04) scale(0.45 1)"><tspan class="cls-9">T</tspan><tspan class="cls-10" x="18.34" y="0">r</tspan><tspan x="32.71" y="0">anspor</tspan><tspan class="cls-11" x="154.81" y="0">t</tspan><tspan class="cls-12" x="168.9" y="0">e Nacionales e I</tspan><tspan class="cls-11" x="446.38" y="0">nt</tspan><tspan x="483" y="0">ernacionales</tspan></text></svg>