<svg id="Camada_1" data-name="Camada 1" xmlns="http://www.w3.org/2000/svg" xmlns:xlink="http://www.w3.org/1999/xlink" viewBox="0 0 859.39 593.75"><defs><style>.cls-1{isolation:isolate;}.cls-2{fill:url(#linear-gradient);}.cls-3{fill:url(#linear-gradient-2);}.cls-4{fill:url(#linear-gradient-3);}.cls-5{fill:url(#linear-gradient-4);}.cls-6{fill:url(#linear-gradient-5);}.cls-7{fill:url(#linear-gradient-6);}.cls-8{fill:url(#linear-gradient-7);}.cls-9{fill:url(#linear-gradient-8);}.cls-10{fill:url(#linear-gradient-9);}.cls-11{fill:url(#linear-gradient-10);}.cls-12{fill:url(#linear-gradient-11);}.cls-13{fill:url(#linear-gradient-12);}.cls-14{fill:url(#linear-gradient-13);}.cls-15{fill:url(#linear-gradient-14);}.cls-16{fill:url(#linear-gradient-15);}.cls-17{fill:url(#linear-gradient-16);}.cls-18{fill:url(#linear-gradient-17);}.cls-19{fill:url(#linear-gradient-18);}.cls-20{fill:url(#linear-gradient-19);}.cls-21{fill:url(#linear-gradient-20);}.cls-22{font-size:70.26px;font-family:CopperplateGothic-Bold, Copperplate Gothic Bold;font-weight:700;}.cls-22,.cls-24{fill:#fcfcfc;}.cls-23{letter-spacing:-0.01em;}.cls-24{font-size:83.38px;font-family:Microsoft-Himalaya, Microsoft Himalaya;}.cls-25{letter-spacing:-0.04em;}.cls-26{letter-spacing:-0.02em;}</style><linearGradient id="linear-gradient" x1="589.04" y1="417.42" x2="739.87" y2="417.42" gradientUnits="userSpaceOnUse"><stop offset="0" stop-color="#008bbf"/><stop offset="1" stop-color="#002b64"/></linearGradient><linearGradient id="linear-gradient-2" x1="455.65" y1="142.88" x2="602.48" y2="142.88" gradientUnits="userSpaceOnUse"><stop offset="0" stop-color="#00b6f1"/><stop offset="1" stop-color="#0071a2"/></linearGradient><linearGradient id="linear-gradient-3" x1="272.7" y1="57.5" x2="384.56" y2="57.5" xlink:href="#linear-gradient"/><linearGradient id="linear-gradient-4" x1="476.22" y1="157.33" x2="602.48" y2="157.33" xlink:href="#linear-gradient"/><linearGradient id="linear-gradient-5" x1="352.06" y1="135.67" x2="386.37" y2="135.67" xlink:href="#linear-gradient-2"/><linearGradient id="linear-gradient-6" x1="272.7" y1="61.82" x2="352.06" y2="61.82" xlink:href="#linear-gradient-2"/><linearGradient id="linear-gradient-7" x1="421.07" y1="175.89" x2="497.3" y2="175.89" xlink:href="#linear-gradient-2"/><linearGradient id="linear-gradient-8" x1="421.07" y1="155.46" x2="476.22" y2="155.46" xlink:href="#linear-gradient"/><linearGradient id="linear-gradient-9" x1="318.62" y1="139.87" x2="386.37" y2="139.87" xlink:href="#linear-gradient"/><linearGradient id="linear-gradient-10" x1="413.13" y1="230.37" x2="483.22" y2="230.37" xlink:href="#linear-gradient"/><linearGradient id="linear-gradient-11" x1="297.56" y1="192.71" x2="377.8" y2="192.71" xlink:href="#linear-gradient-2"/><linearGradient id="linear-gradient-12" x1="773.62" y1="594.67" x2="816.59" y2="594.67" gradientUnits="userSpaceOnUse"><stop offset="0" stop-color="#002b64"/><stop offset="1" stop-color="#008bbf"/></linearGradient><linearGradient id="linear-gradient-13" x1="413.13" y1="236.05" x2="450.18" y2="236.05" xlink:href="#linear-gradient-2"/><linearGradient id="linear-gradient-14" x1="429.7" y1="469.23" x2="492.31" y2="469.23" xlink:href="#linear-gradient"/><linearGradient id="linear-gradient-15" x1="317.54" y1="215.06" x2="377.8" y2="215.06" xlink:href="#linear-gradient-12"/><linearGradient id="linear-gradient-16" x1="416.13" y1="329.64" x2="550.12" y2="329.64" xlink:href="#linear-gradient"/><linearGradient id="linear-gradient-17" x1="450.18" y1="324.13" x2="550.12" y2="324.13" xlink:href="#linear-gradient-2"/><linearGradient id="linear-gradient-18" x1="235.23" y1="256.53" x2="235.23" y2="177.3" xlink:href="#linear-gradient"/><linearGradient id="linear-gradient-19" x1="245.48" y1="256.53" x2="245.48" y2="208.11" xlink:href="#linear-gradient-2"/><linearGradient id="linear-gradient-20" x1="493.52" y1="662.62" x2="675.34" y2="662.62" xlink:href="#linear-gradient-12"/></defs><title>8</title><g class="cls-1"><path class="cls-2" d="M589,387.64a249.43,249.43,0,0,1,40.11,5.19,271.16,271.16,0,0,1,39.2,11.44,277.27,277.27,0,0,1,37.27,17.18A264.84,264.84,0,0,1,739.87,444l-11.79,3.18A245.6,245.6,0,0,0,698,428a256.5,256.5,0,0,0-32.52-14.8,251.46,251.46,0,0,0-34.09-10.09,232.17,232.17,0,0,0-34.85-5Z" transform="translate(-229 -346.39)"/></g><g class="cls-1"><polygon class="cls-3" points="455.65 133.25 602.48 124.32 476.22 161.45 455.65 133.25"/><polygon class="cls-4" points="272.7 0 384.56 106.61 352.06 115.01 272.7 0"/><polygon class="cls-5" points="476.22 161.45 602.48 124.32 497.3 190.34 476.22 161.45"/><polygon class="cls-6" points="352.06 115.01 384.56 106.61 386.37 164.74 352.06 115.01"/><polygon class="cls-7" points="272.7 0 352.06 115.01 318.62 123.65 272.7 0"/><polygon class="cls-8" points="476.22 161.45 497.3 190.34 421.07 177.67 476.22 161.45"/><polygon class="cls-9" points="455.65 133.25 476.22 161.45 421.07 177.67 455.65 133.25"/><polygon class="cls-10" points="352.06 115.01 386.37 164.74 318.62 123.65 352.06 115.01"/><polygon class="cls-11" points="413.13 203.52 483.22 246.2 450.18 257.22 413.13 203.52"/><polygon class="cls-12" points="297.56 177.3 377.8 190.39 317.54 208.11 297.56 177.3"/><path class="cls-13" d="M807.37,531.11a139.61,139.61,0,0,1,8.47,34.39,117.66,117.66,0,0,1-1,33.6A107,107,0,0,1,804,630.54a109.92,109.92,0,0,1-21,27.7l-9.35-13A100.57,100.57,0,0,0,791.24,621a98.48,98.48,0,0,0,9.38-27.22A107.7,107.7,0,0,0,802,564.73a125.89,125.89,0,0,0-6.41-29.85Z" transform="translate(-229 -346.39)"/><polygon class="cls-14" points="413.13 203.52 450.18 257.22 416.13 268.58 413.13 203.52"/><path class="cls-15" d="M485,411.31l7.32,11.06a111.43,111.43,0,0,0-21.95,19.13,99.77,99.77,0,0,0-15.48,23.62,98.58,98.58,0,0,0-8.22,27.44,108.68,108.68,0,0,0-.11,30.48l-15.2,4.1a119.3,119.3,0,0,1-.59-35.62,107.15,107.15,0,0,1,9.52-31.83,109,109,0,0,1,18.44-27A123.47,123.47,0,0,1,485,411.31Z" transform="translate(-229 -346.39)"/><polygon class="cls-16" points="377.8 190.39 338.05 239.74 317.54 208.11 377.8 190.39"/><polygon class="cls-17" points="450.18 257.22 550.12 402.06 416.13 268.58 450.18 257.22"/><polygon class="cls-18" points="450.18 257.22 483.22 246.2 550.12 402.06 450.18 257.22"/></g><polygon class="cls-19" points="297.56 177.3 317.54 208.11 152.91 256.53 297.56 177.3"/><g class="cls-1"><polygon class="cls-20" points="317.54 208.11 338.05 239.74 152.91 256.53 317.54 208.11"/></g><g class="cls-1"><path class="cls-21" d="M508.91,626.45A240.77,240.77,0,0,0,544,651.06a256.46,256.46,0,0,0,39.24,18.42,249.91,249.91,0,0,0,41.39,11.43,224.08,224.08,0,0,0,41.49,3.82l9.23,13.93a239.92,239.92,0,0,1-48.07-3.4,270.7,270.7,0,0,1-48.15-12.94,276.33,276.33,0,0,1-45.48-21.67,258.08,258.08,0,0,1-40.12-29.28Z" transform="translate(-229 -346.39)"/></g><text x="-229" y="-346.39"/><text class="cls-22" transform="translate(0 489.92) scale(1.43 1)">C<tspan class="cls-23" x="58.94" y="0">R</tspan><tspan x="115.13" y="0">UZ DEL SUR </tspan></text><text class="cls-24" transform="translate(83.15 542.5) scale(0.74 1)">TURISMO, HOTELERI<tspan class="cls-25" x="552.35" y="0">A</tspan><tspan class="cls-26" x="589.61" y="0" xml:space="preserve"> Y</tspan><tspan class="cls-25" x="639.76" y="0"> </tspan><tspan x="650.64" y="0">ALGO MÁS</tspan></text></svg>